<?xml version="1.0" encoding="utf-8"?>
<!-- Generator: Adobe Illustrator 18.1.0, SVG Export Plug-In . SVG Version: 6.00 Build 0)  -->
<svg version="1.1" id="Layer_1" xmlns="http://www.w3.org/2000/svg" xmlns:xlink="http://www.w3.org/1999/xlink" x="0px" y="0px"
	 viewBox="0 0 1080 576" enable-background="new 0 0 1080 576" xml:space="preserve">
<polygon fill="#ECE3F1" points="0,0 93,117 0,163 "/>
<polygon fill="#C1B5C9" points="93,117 154,56 55.5,69.8 "/>
<polygon fill="#D2C6DD" points="93,117 154,56 177,150 "/>
<polygon fill="#E5DCED" points="177,150 341,145 116,235 "/>
<polygon fill="#E5DCED" points="154,56 154,0 0,0 "/>
<polygon fill="#EBDFEE" points="154,56 341,145 177,150 "/>
<polygon fill="#E7CAE1" points="116,235 141,320 341,145 "/>
<polygon fill="#E7CAE1" points="341,145 381,216 330,258 "/>
<path fill="#E7CAE1" d="M154,56l86-28c0,0,40,47,37,47S154,56,154,56z"/>
<polygon fill="#EDD9EA" points="381,216 434,150 341,145 "/>
<path fill="#EDD9EA" d="M116,235c-8,3-116,58-116,58l141,27L116,235z"/>
<polygon fill="#EDD9EA" points="240,28 154,0 154,56 "/>
<polygon fill="#EACFE4" points="277,75 341,145 154,56 "/>
<polygon fill="#EACFE4" points="0,163 116,235 93,117 "/>
<polygon fill="#D3BFD7" points="330,258 141,320 341,145 "/>
<polygon fill="#D3BFD7" points="330,258 363,307 381,216 "/>
<polygon fill="#D3BFD7" points="141,320 84,358 154,425 "/>
<polygon fill="#DDBBD9" points="341,145 363,69.8 434,150 "/>
<polygon fill="#DDBBD9" points="0,293 0,163 116,235 "/>
<polygon fill="#E9BBD7" points="277,75 363,69.8 341,145 "/>
<polygon fill="#E9BBD7" points="247.5,380 341,372.5 363,307 "/>
<polygon fill="#F3DBEB" points="363,307 530,307 341,372.5 "/>
<polygon fill="#F3DBEB" points="154,425 63,470 84,358 "/>
<polygon fill="#FCE9F2" points="434,150 530,228 381,216 "/>
<polygon fill="#FCE9F2" points="363,69.8 513,51.5 434,150 "/>
<polygon fill="#C1B5C9" points="228.5,462 283,438 247.5,380 "/>
<polygon fill="#C1B5C9" points="63,470 0,402 84,358 "/>
<polygon fill="#C1B5C9" points="363,69.8 349,0 240,28 "/>
<polygon fill="#D7D2DC" points="513,51.5 540,184 434,150 "/>
<polygon fill="#D7D2DC" points="283,438 341,372.5 247.5,380 "/>
<polygon fill="#D7D2DC" points="0,402 0,293 84,358 "/>
<polygon fill="#D7D2DC" points="228.5,462 270,497 283,438 "/>
<polygon fill="#D7D2DC" points="530,307 530,380 497,358 "/>
<polygon fill="#D7D2DC" points="349,0 392,21 363,69.8 "/>
<polygon fill="#E5DCED" points="444,261.5 530,228 381,216 "/>
<polygon fill="#E5DCED" points="530,307 628,288 530,380 "/>
<polygon fill="#E5DCED" points="154,425 161,497 228.5,462 "/>
<polygon fill="#E5DCED" points="444,261.5 530,307 363,307 "/>
<polygon fill="#E5DCED" points="154,0 349,0 240,28 "/>
<polygon fill="#E5DCED" points="270,497 414,514 310,576 "/>
<polygon fill="#E6D4E8" points="530,228 530,307 444,261.5 "/>
<polygon fill="#E6D4E8" points="228.5,462 224,532 270,497 "/>
<polygon fill="#E6D4E8" points="392,21 513,51.5 363,69.8 "/>
<polygon fill="#E6D4E8" points="540,184 624,176 530,228 "/>
<polygon fill="#DED7E5" points="283,438 363,461 341,372.5 "/>
<polygon fill="#EBE7F1" points="530,228 628,288 530,307 "/>
<polygon fill="#EBE7F1" points="63,470 161,497 154,425 "/>
<polygon fill="#EBE7F1" points="530,380 491,425 564,438 "/>
<polygon fill="#EBE7F1" points="363,461 419,409 341,372.5 "/>
<polygon fill="#EDD9EA" points="624,176 628,288 530,228 "/>
<polygon fill="#EBE7F1" points="363,461 270,497 283,438 "/>
<polygon fill="#F3DBEB" points="141,320 247.5,380 330,258 "/>
<polygon fill="#EACFE4" points="141,320 247.5,380 154,425 "/>
<polygon fill="#EACFE4" points="628,288 637,388 530,380 "/>
<path fill="#EACFE4" d="M628,288c5-3,89-10.5,89-10.5l-44.5,66L628,288z"/>
<polygon fill="#EACFE4" points="224,532 194.2,576 310,576 "/>
<path fill="#EACFE4" d="M161,497c0,0-70,80-68,79S63,470,63,470L161,497z"/>
<polygon fill="#EACFE4" points="513,51.5 613,51.5 570,75 "/>
<polygon fill="#F8EDF5" points="540,184 570,75 513,51.5 "/>
<polygon fill="#F8EDF5" points="637,388 672.5,343.5 628,288 "/>
<polygon fill="#F8EDF5" points="717,277.5 809,334 672.5,343.5 "/>
<polygon fill="#F8EDF5" points="363,461 414,514 270,497 "/>
<path fill="#F8EDF5" d="M161,497c5,3,63,35,63,35l4.5-70L161,497z"/>
<polygon fill="#F8EDF5" points="419,409 497,358 341,372.5 "/>
<polygon fill="#F8EDF5" points="93,576 0,576 63,470 "/>
<path fill="#F8EDF5" d="M624,176c-2-6-19-49-19-49l-65,57L624,176z"/>
<polygon fill="#F8EDF5" points="564,438 520,481 491,425 "/>
<polygon fill="#FCE8F0" points="570,75 605,127 540,184 "/>
<polygon fill="#FCE8F0" points="414,409 530,380 497,358 "/>
<polygon fill="#FCE8F0" points="161,497 194.2,576 224,532 "/>
<polygon fill="#FCE8F0" points="564,438 619,476 637,388 "/>
<polygon fill="#FCE8F0" points="605,127 686,129.5 624,176 "/>
<polygon fill="#FCE8F0" points="392,21 403.5,0 349,0 "/>
<polygon fill="#FCE8F0" points="414,514 507,542 472,470 "/>
<polygon fill="#FCE8F0" points="717,277.5 780,202 800,252 "/>
<polygon fill="#FCE8F0" points="507,542 520,481 564,511.5 "/>
<path fill="#FCE8F0" d="M624,176c9,6,57,26,57,26l-28.5,44L624,176z"/>
<polygon fill="#FCDEDE" points="513,51.5 513,0 392,21 "/>
<polygon fill="#FCDEDE" points="419,409 491,425 530,380 "/>
<polygon fill="#FCDEDE" points="161,497 194.2,576 93,576 "/>
<polygon fill="#FCDEDE" points="628,288 652.5,246 624,176 "/>
<path fill="#FCDEDE" d="M414,514c0,0,64-48.6,58-44s-109-9-109-9L414,514z"/>
<polygon fill="#FCDEDE" points="564,511.5 564,438 520,481 "/>
<polygon fill="#FCDEDE" points="800,252 809,334 717,277.5 "/>
<polygon fill="#FCDEDE" points="507,542 487,576 556,576 "/>
<polygon fill="#FCDEDE" points="672.5,343.5 706,414 637,388 "/>
<polygon fill="#FCDEDE" points="613,51.5 699,0 728,81.5 "/>
<polygon fill="#EDDADA" points="605,127 613,51.5 570,75 "/>
<polygon fill="#EDDADA" points="414,514 487,576 507,542 "/>
<polygon fill="#EDDADA" points="681,202 686,129.5 624,176 "/>
<polygon fill="#EDDADA" points="809,334 865,293 800,252 "/>
<polygon fill="#EDDADA" points="472,470 419,409 491,425 "/>
<polygon fill="#EDDADA" points="619,476 820,467.5 719.5,536.5 "/>
<polygon fill="#E7CBE2" points="414,514 310,576 487,576 "/>
<polygon fill="#E7CBE2" points="392,21 403.5,0 513,0 "/>
<polygon fill="#E7CBE2" points="686,129.5 613,51.5 605,127 "/>
<polygon fill="#E7CBE2" points="681,202 717,277.5 652.5,246 "/>
<polygon fill="#E7CBE2" points="706,414 619,476 637,388 "/>
<path fill="#E7CBE2" d="M809,334c1,5,24,52,23.5,49.5S865,293,865,293L809,334z"/>
<polygon fill="#E7CBE2" points="780,202 813,109.9 881,155.5 "/>
<polygon fill="#E2D6E5" points="686,129.5 747,129.5 681,202 "/>
<polygon fill="#E2D6E5" points="564,511.5 619,476 564,438 "/>
<polygon fill="#E2D6E5" points="628,288 652.5,246 717,277.5 "/>
<polygon fill="#E2D6E5" points="706,414 820,467.5 619,476 "/>
<polygon fill="#E2D6E5" points="564,511.5 719.5,536.5 619,476 "/>
<polygon fill="#E2D6E5" points="881,155.5 998,216 939.5,319 "/>
<polygon fill="#E2D6E5" points="832.5,383.5 672.5,343.5 809,334 "/>
<polygon fill="#E2D6E5" points="728,81.5 907,0 699,0 "/>
<polygon fill="#F4E4EB" points="780,202 939.5,319 881,155.5 "/>
<polygon fill="#F4E4EB" points="556,576 719.5,536.5 564,511.5 "/>
<polygon fill="#F4E4EB" points="472,470 520,481 507,542 "/>
<polygon fill="#F4E4EB" points="681,202 780,202 717,277.5 "/>
<polygon fill="#F4E4EB" points="686,129.5 728,81.5 613,51.5 "/>
<polygon fill="#F4E4EB" points="907,0 926,63.2 859.8,63.2 "/>
<polygon fill="#F4E4EB" points="813,109.9 813,69.8 859.8,63.2 "/>
<polygon fill="#F4E4EB" points="832.5,383.5 796,405.2 859.8,445 "/>
<polygon fill="#E2D5DC" points="728,81.5 859.8,63.2 907,0 "/>
<polygon fill="#E2D5DC" points="719.5,536.5 752.5,576 556,576 "/>
<polygon fill="#E2D5DC" points="796,405.2 672.5,343.5 832.5,383.5 "/>
<polygon fill="#E2D5DC" points="800,252 780,202 939.5,319 "/>
<polygon fill="#E2D5DC" points="747,129.5 780,202 681,202 "/>
<polygon fill="#E2D5DC" points="706,414 796,405.2 820,467.5 "/>
<polygon fill="#E2D5DC" points="881,155.5 926,103 978,150 "/>
<polygon fill="#E2D5DC" points="820,467.5 865,523 809,528 "/>
<polygon fill="#E9BBD7" points="513,51.5 513,0 613,51.5 "/>
<polygon fill="#E9BBD7" points="820,467.5 859.8,445 796,405.2 "/>
<polygon fill="#E9BBD7" points="719.5,536.5 809,528 752.5,576 "/>
<path fill="#E9BBD7" d="M926,103c-5-5-66.2-39.8-66.2-39.8H926V103z"/>
<polygon fill="#E9BBD7" points="939.5,319 1080,310.5 998,216 "/>
<polygon fill="#E9BBD7" points="747,129.5 813,109.9 780,202 "/>
<polygon fill="#D1BADA" points="728,81.5 813,109.9 747,129.5 "/>
<polygon fill="#D1BADA" points="513,0 613,51.5 591.5,0 "/>
<polygon fill="#D1BADA" points="820,467.5 719.5,536.5 809,528 "/>
<polygon fill="#D1BADA" points="813,109.9 926,103 859.8,63.2 "/>
<polygon fill="#D1BADA" points="865,293 899,374.4 939.5,319 "/>
<polygon fill="#D1BADA" points="998,216 1080,176 1080,310.5 "/>
<polygon fill="#D1BADA" points="865,523 953,467.5 947,542 "/>
<polygon fill="#D1BADA" points="859.8,445 892.9,421 832.5,383.5 "/>
<polygon fill="#D1BADA" points="926,63.2 1002,31.6 1039,117 "/>
<polygon fill="#F8EDF5" points="881,155.5 813,109.9 926,103 "/>
<polygon fill="#F8EDF5" points="832.5,383.5 899,374.4 865,293 "/>
<polygon fill="#F8EDF5" points="728,81.5 813,69.8 813,109.9 "/>
<polygon fill="#F8EDF5" points="978,150 998,216 881,155.5 "/>
<polygon fill="#F8EDF5" points="859.8,445 865,523 820,467.5 "/>
<polygon fill="#F8EDF5" points="865,523 830.5,576 809,528 "/>
<polygon fill="#F8EDF5" points="939.5,319 1033,421 1080,310.5 "/>
<polygon fill="#F8EDF5" points="953,467.5 892.9,421 865,523 "/>
<polygon fill="#F8EDF5" points="947,542 1039,528 953,467.5 "/>
<polygon fill="#FCDEDE" points="1033,421 1080,436.4 1080,310.5 "/>
<path fill="#FCDEDE" d="M859.8,445l33.1-24c0,0-26.9,106-27.9,102S859.8,445,859.8,445z"/>
<polygon fill="#FCDEDE" points="947,542 830.5,576 865,523 "/>
<polygon fill="#FCDEDE" points="892.9,421 1033,421 899,374.4 "/>
<polygon fill="#FCDEDE" points="978,150 1039,117 1080,176 "/>
<polygon fill="#FCDEDE" points="1039,528 1080,576 993,576 "/>
<polygon fill="#EBE7F1" points="1033,421 1029,476 1080,436.4 "/>
<path fill="#EBE7F1" d="M947,542l46,34c0,0,54.1-49.2,46-48S947,542,947,542z"/>
<path fill="#EBE7F1" d="M1002,31.6C990,25,907,0,907,0l19,63.2L1002,31.6z"/>
<polygon fill="#EBE7F1" points="1039,117 1080,81.5 1080,176 "/>
<polygon fill="#EBE7F1" points="953,467.5 1033,421 892.9,421 "/>
<polygon fill="#E6DDEE" points="1002,31.6 1080,0 1080,81.5 "/>
<polygon fill="#E6DDEE" points="1029,476 953,467.5 1033,421 "/>
<polygon fill="#E6DDEE" points="1029,476 1039,528 1080,436.4 "/>
<polygon fill="#E6DDEE" points="947,542 993,576 830.5,576 "/>
<polygon fill="#E6DDEE" points="832.5,383.5 899,374.4 892.9,421 "/>
<path fill="#E6DDEE" d="M978,150c0,0,66.5-36,61-33s-113-14-113-14L978,150z"/>
<polygon fill="#EACFE4" points="1002,31.6 1080,81.5 1039,117 "/>
<polygon fill="#EACFE4" points="1029,476 1039,528 953,467.5 "/>
</svg>
