<?xml version="1.0" encoding="utf-8"?>
<!-- Generator: Adobe Illustrator 18.1.0, SVG Export Plug-In . SVG Version: 6.00 Build 0)  -->
<svg version="1.1" id="Layer_1" xmlns="http://www.w3.org/2000/svg" xmlns:xlink="http://www.w3.org/1999/xlink" x="0px" y="0px"
	 viewBox="0 0 360 108" enable-background="new 0 0 360 108" xml:space="preserve">
<g>
	<path fill="#1F94B6" d="M17.4,59.9c1.3-2.2,2.1-5,2.1-6.9c0-1.3-0.4-2.2-1.3-2.2c-3.3,0-6.2,7.7-6.2,13.8c0,4.1,1.3,7.4,4.6,7.4
		c3.1,0,6.6-3.5,9.4-10.5c0.4,0,1.8,0.5,1.8,0.9c-1.9,5.1-6.9,15.1-13.7,15.1c-5,0-7.2-5.1-7.2-11.3c0-8.7,4.5-19.4,11.6-19.4
		c3.7,0,5.1,3,5.1,6.7c0,2.8-0.8,5.9-2.1,8.7L17.4,59.9z"/>
	<path fill="#1F94B6" d="M23.4,76.7c-0.1-0.6-0.1-1.2-0.1-1.7c0-5.1,2-10.4,2-10.4c2.3-13.6,5.1-29.3,7.7-35.2c1.2-2.8,3.5-4,5.4-4
		c3.2,0,4.4,1.6,4.4,4.1c0,5.2-5.5,14-9.5,18.9c-0.2,1.2-0.5,2.3-0.7,3.5c2.1-3.2,4.8-5.2,7.5-5.2c2.3,0,3.7,1.5,3.7,4.6
		c0,6-4.2,13.6-4.2,18.9c0,1.9,0.7,2.2,1.3,2.2c1.7,0,3.8-3.6,6.6-11c0.4,0,1.8,0.5,1.8,0.9c-2.8,7.3-5.7,14.8-11,14.8
		c-2.3,0-4.4-1.8-4.4-5.7c0-6.9,4.2-14.1,4.2-18.7c0-0.7-0.3-1.3-1-1.3c-2.8,0-6.2,6.2-8.6,25.4H23.4z M38.8,29.6
		c-1,0-1.9,2.7-4.2,13.4c1.8-3.5,4.8-9.2,4.8-12.5C39.4,29.9,39.1,29.6,38.8,29.6z"/>
	<path fill="#1F94B6" d="M66,61.3c0.4,0,1.8,0.5,1.8,0.9c-3.2,8.4-6.4,15.1-12.7,15.1c-5.6,0-7.9-5.1-7.9-11.2
		c0-8.7,4.8-19.4,12-19.4c3.2,0,4.8,2.3,4.8,5.3c0,4.6-3.9,10.7-11.4,12c0,0.3,0,0.6,0,1c0,3.9,1.1,6.9,4.1,6.9
		C60.5,71.9,63.6,67.9,66,61.3z M52.8,61.5c4.8-2.4,6.9-6.8,6.9-9.2c0-1-0.4-1.6-1-1.6C56.1,50.7,53.6,56.2,52.8,61.5z"/>
	<path fill="#1F94B6" d="M76.2,59.9c1.3-2.2,2.1-5,2.1-6.9c0-1.3-0.4-2.2-1.3-2.2c-3.3,0-6.2,7.7-6.2,13.8c0,4.1,1.3,7.4,4.6,7.4
		c3.1,0,6.6-3.5,9.4-10.5c0.4,0,1.8,0.5,1.8,0.9c-1.9,5.1-6.9,15.1-13.7,15.1c-5,0-7.2-5.1-7.2-11.3c0-8.7,4.5-19.4,11.6-19.4
		c3.7,0,5.1,3,5.1,6.7c0,2.8-0.8,5.9-2.1,8.7L76.2,59.9z"/>
	<path fill="#1F94B6" d="M82.3,76.7c-0.1-0.6-0.1-1.2-0.1-1.7c0-5.1,2-10.4,2-10.4c2.3-13.6,5.1-29.3,7.7-35.2c1.2-2.8,3.5-4,5.4-4
		c3.2,0,4.4,1.6,4.4,4.1c0,5.2-5.5,14-9.5,18.9l-1,5.3c2.1-4.3,4.6-6.9,7.5-6.9c2.6,0,3.8,1.8,3.8,4.4c0,4.2-3.3,10.5-8.2,13.2
		c2,3,1.6,7.5,3.4,7.5c1.5,0,4.3-3.2,7.1-10.5c0.4,0,1.8,0.5,1.8,0.9c-2.8,7.3-5.9,14.8-10.4,14.8c-5.2,0-5.1-7.4-6.2-11.3h-1
		c-0.6,3.7-1.2,7.4-1.6,11H82.3z M96.5,51.4c-1.5,0-3.7,2.2-6.4,8.6l-0.3,2c0.8,0,1.5,0.2,2.1,0.4c2.8-2.3,5.8-7.3,5.8-9.7
		c0-0.6-0.2-1.2-0.8-1.3C96.7,51.4,96.6,51.4,96.5,51.4z M98.2,30.5c0-0.6-0.3-0.9-0.6-0.9c-1,0-1.9,2.7-4.2,13.4
		c1.9-3.5,3.9-8.2,4.7-12C98.1,30.8,98.2,30.6,98.2,30.5z"/>
	<path fill="#1F94B6" d="M139.3,62.2c-1.5,3.9-4.4,6.6-7.5,7.7c-2.2,4.7-5.5,7.5-9.6,7.5c-4.4,0-6.4-4.6-6.4-10.5
		c0-3.6,0.7-7.7,2-11.4l2.3,0.6c0.7-4.9,3.4-9.3,8-9.3c4.3,0,6.6,4.9,6.6,10.7c0,3.1-0.8,6.4-1.6,9.3c1.7-0.8,3.2-2.4,4.4-5.4
		C137.9,61.3,139.3,61.8,139.3,62.2z M126,69.9c-2.7-1-4.4-3.6-5.3-6.7c-0.1,1-0.2,1.9-0.2,2.8c0,3.8,1,6.4,2.6,6.4
		c0.2,0,0.3,0,0.5-0.1C124.5,72.1,125.2,71.2,126,69.9z M123.4,59.6c0,3.5,1,6.8,3.9,7.7c1.4-3.4,2.4-7.9,2.4-11.3
		c0-2.9-0.7-5.1-2.5-5.1c-0.1,0-0.3,0.1-0.5,0.1C124.9,51.3,123.4,55.5,123.4,59.6z"/>
	<path fill="#1F94B6" d="M145.9,47.4c0,0-1.3,5.3-2.9,13.6c-0.7,3.6-1.3,6.6-1.3,9.2c0,1.9,0.7,2.2,1.3,2.2c1,0,3-3.8,4.3-9.4
		l0.4-2.1c1-5.5,2.2-10.2,3-13.4h5.5c-2.3,10-4.1,17.5-4.1,22.8c0,1.9,0.7,2.2,1.3,2.2c1.7,0,3.8-3.6,6.6-11c0.3,0,1.8,0.4,1.8,0.8
		v0.1c-2.8,7.3-5.1,14.8-10.3,14.8c-2.8,0-4.1-2.1-4.5-5.3c-1.4,3.1-3.3,5.3-5.8,5.3c-3.4,0-4.6-3.1-4.6-7.4c0-2.6,0.5-5.7,1-8.8
		c1.6-8.4,2.9-13.4,2.9-13.4H145.9z"/>
	<path fill="#1F94B6" d="M169.9,32.2c-0.3,5.3-1,10.2-2.1,15.3c1,0,1.9-0.1,2.5-0.1l-0.6,3c-0.3,0.1-1.5,0.1-2.6,0.1
		c-0.6,2.4-1.2,4.9-2,7.6c-0.6,4.4-1,7.8-1,10.2c0,2.7,0.5,4.1,1.3,4.1c1.7,0,4.2-6,6.2-11c0.4,0,1.8,0.6,1.8,0.9
		c-3.8,10.3-5.8,14.8-10,14.8c-2.8,0-4-3.5-4-8.9c0-4.7,0.7-11.1,2.2-17.6c-1.5,0-2.6,0-2.8-0.1l0.5-3c0.5,0,1.5,0.1,2.9,0.1
		c0.8-4.4,1.7-8.7,3.1-15.2H169.9z"/>
	<path fill="#1F94B6" d="M180.1,76.7c0,0,0.6-5.9,2.4-10.7c1.3-7.3,2.4-13.8,3.1-18.6h5.5l-0.8,4.8c1.9-3.3,4.3-5.5,6.9-5.5
		c2.5,0,3.5,2,3.5,4.4c0,0.5-0.1,1-0.1,1.6c2.3-3.7,5-6,8-6c2.3,0,3.7,1.5,3.7,4.6c0,6-4.2,13.6-4.2,18.9c0,1.9,0.7,2.2,1.3,2.2
		c1.7,0,3.8-3.6,6.6-11c0.4,0,1.8,0.5,1.8,0.9c-2.8,7.3-5.7,14.8-11,14.8c-2.3,0-4.4-1.8-4.4-5.7c0-6.9,4.2-14.1,4.2-18.7
		c0-0.7-0.3-1.3-1-1.3c-1.6,0-4.5,3.1-6.7,12.5c-1,5.2-2.1,10.5-2.6,12.9h-5.9c1.5-7.1,4.5-20.8,4.5-23.6c0-1-0.3-1.4-0.8-1.4
		c-2.1,0-4.8,5-6.5,14.2l-2.1,10.7H180.1z"/>
	<path fill="#1F94B6" d="M238.1,62.2C238.1,62.2,238.1,62.2,238.1,62.2c-2.4,6.4-6,10.9-9.4,14.5l-1.4,8.3
		c-1.1,6.5-3.5,11.3-7.7,11.3c-2.9,0-4.9-1.7-4.9-5.1c0-4.4,4.1-8.1,8.9-12.7l0.8-4.3c-1.2,1.7-2.7,2.8-4.4,2.8
		c-3.4,0-4.6-3.1-4.6-7.4c0-2.6,0.5-5.7,1-8.8c1.6-8.4,2.9-13.4,2.9-13.4h5.5c0,0-1.3,5.3-2.9,13.6c-0.7,3.6-1.3,6.6-1.3,9.2
		c0,1.9,0.7,2.2,1.3,2.2c3.2,0,5.9-19,7.1-24.9h5.3c-0.8,2.8-2.9,14.8-4.8,25c2.7-3.1,5.2-6.7,6.9-11.1
		C236.8,61.3,238.1,61.8,238.1,62.2z M219.5,92.8c1.1,0,1.6-1.3,2-3.3l1.3-6.9c-2.7,2.8-4.6,5.3-4.6,8.4
		C218.2,92.3,218.8,92.8,219.5,92.8z"/>
	<path fill="#1F94B6" d="M255.8,47.4c-1.9,9.8-3.6,18.6-3.6,22.7c0,1.4,0.2,2.3,0.8,2.3c1.4,0,3.7-3.7,5.4-11.4
		c0.5-4.2,1.4-9,2.3-13.5h5.4c-1.7,8.8-3.1,16.9-3.1,21.4c0,2.3,0.4,3.6,1.3,3.6c1.2,0,3-2.6,4.6-6.3c-1-2.2-1.5-5.1-1.5-8.2
		c0-7.1,2.6-14.9,6.3-14.9c2.6,0,3.7,2.1,3.7,5.7c0,4.9-1.9,12.6-4.8,18.6c0.4,0.2,0.9,0.3,1.5,0.3c2.9,0,4.6-2.6,5.9-6.3
		c0.4,0,1.8,0.5,1.8,0.9c-1.5,4.3-3.9,7.3-8.1,7.3c-0.8,0-1.4-0.1-2-0.4c-2.4,4.5-5.5,7.8-8.7,7.8c-3.4,0-4.8-3-5.1-7.7
		c-1.7,4.5-3.9,7.7-6.3,7.7c-3.3,0-4.5-3.2-4.5-8.1c0-5.9,1.7-14,3.1-21.5H255.8z M269.6,58.4c0,1.7,0.1,3.3,0.5,4.8
		c1.9-5.2,3.5-11.6,3.5-16.1c0-0.9-0.4-1.3-1-1.3C271.3,45.8,269.6,52.4,269.6,58.4z"/>
	<path fill="#1F94B6" d="M303,62.2c-1.5,3.9-4.4,6.6-7.5,7.7c-2.2,4.7-5.5,7.5-9.6,7.5c-4.4,0-6.4-4.6-6.4-10.5
		c0-3.6,0.7-7.7,2-11.4l2.3,0.6c0.7-4.9,3.4-9.3,8-9.3c4.3,0,6.6,4.9,6.6,10.7c0,3.1-0.8,6.4-1.6,9.3c1.7-0.8,3.2-2.4,4.4-5.4
		C301.6,61.3,303,61.8,303,62.2z M289.7,69.9c-2.7-1-4.4-3.6-5.3-6.7c-0.1,1-0.2,1.9-0.2,2.8c0,3.8,1,6.4,2.6,6.4
		c0.2,0,0.3,0,0.5-0.1C288.1,72.1,288.9,71.2,289.7,69.9z M287.1,59.6c0,3.5,1,6.8,3.9,7.7c1.4-3.4,2.4-7.9,2.4-11.3
		c0-2.9-0.7-5.1-2.5-5.1c-0.1,0-0.3,0.1-0.4,0.1C288.6,51.3,287.1,55.5,287.1,59.6z"/>
	<path fill="#1F94B6" d="M310.1,72.1c1.4,0,3.7-3.4,6.5-10.8c0.3,0,1.8,0.4,1.8,0.8v0.1c-2.8,7.3-5.1,14.8-10.4,14.8
		c-3,0-4.2-1.9-4.2-4.8c0-4.2,3-8.7,3-12c0-1.9-0.6-3.4-1.3-4.8l-2.6,6.8c0,0-1.8-0.3-1.8-0.8v-0.1c1.2-3.1,2-6.3,2.6-9.4
		c-0.6-1.4-1.2-3.1-1.2-5.4c0-2.1,0.5-4.6,1.5-8L309,40c-0.3,4.2-0.8,7.3-1.8,10.7c2.1,2.2,4.9,4.8,4.9,8.4c0,4.1-3,9.5-3,11.7
		C309.1,71.7,309.5,72.1,310.1,72.1z"/>
	<path fill="#1F94B6" d="M314.1,76.7c-0.1-0.6-0.1-1.2-0.1-1.7c0-5.1,2-10.4,2-10.4c2.3-13.6,5.1-29.3,7.7-35.2c1.2-2.8,3.5-4,5.4-4
		c3.2,0,4.4,1.6,4.4,4.1c0,5.2-5.5,14-9.5,18.9l-1,5.3c2.1-4.3,4.6-6.9,7.5-6.9c2.6,0,3.8,1.8,3.8,4.4c0,4.2-3.3,10.5-8.2,13.2
		c2,3,1.6,7.5,3.4,7.5c1.5,0,4.3-3.2,7.1-10.5c0.4,0,1.8,0.5,1.8,0.9c-2.8,7.3-5.9,14.8-10.4,14.8c-5.2,0-5.1-7.4-6.2-11.3h-1
		c-0.6,3.7-1.2,7.4-1.6,11H314.1z M328.3,51.4c-1.5,0-3.7,2.2-6.4,8.6l-0.3,2c0.8,0,1.5,0.2,2.1,0.4c2.8-2.3,5.8-7.3,5.8-9.7
		c0-0.6-0.2-1.2-0.8-1.3C328.5,51.4,328.4,51.4,328.3,51.4z M330.1,30.5c0-0.6-0.3-0.9-0.6-0.9c-1,0-1.9,2.7-4.2,13.4
		c1.9-3.5,3.9-8.2,4.7-12C330,30.8,330.1,30.6,330.1,30.5z"/>
	<path fill="#1F94B6" d="M337.5,74c0-2.3,1.7-5.1,4.5-5.1c2.1,0,3,1.5,3,3.3c0,2.3-1.7,5-4.5,5C338.5,77.3,337.5,75.8,337.5,74z
		 M356.4,31.3c-4.8,11.5-8,21.1-11.4,34.5l-3.6-0.6c2.9-14.1,5.4-23.7,9.1-35.4L356.4,31.3z"/>
</g>
</svg>
