<?xml version="1.0" encoding="utf-8"?>
<!-- Generator: Adobe Illustrator 17.1.0, SVG Export Plug-In . SVG Version: 6.00 Build 0)  -->
<!DOCTYPE svg PUBLIC "-//W3C//DTD SVG 1.1//EN" "http://www.w3.org/Graphics/SVG/1.1/DTD/svg11.dtd">
<svg version="1.1" id="Layer_1" xmlns="http://www.w3.org/2000/svg" xmlns:xlink="http://www.w3.org/1999/xlink" x="0px" y="0px"
	 viewBox="0 0 288 144" style="enable-background:new 0 0 288 144;" xml:space="preserve">
<style type="text/css">
	.st0{fill:#87B239;}
</style>
<g>
	<path class="st0" d="M29.2,46.4h5.4c-0.3,5.8-2.7,19.8-5.7,31.1c-1.3,7.3-1.8,11.6-1.8,13.8c0,1.4,0.2,2,0.7,2
		c1.6,0,3.6-3.9,5.8-9.5c0.4,0,1.9,0.5,1.9,1c-4.2,10.9-8,15.7-11.2,15.7c-2.2,0-3.4-2-3.4-6.7c0-0.2,0-0.5,0-0.7
		c-1.6,4.2-4,7.8-7.8,7.8c-3.3,0-4.7-3.7-4.7-8.7c0-9.6,5.2-23.8,11.6-23.8c2.5,0,3.9,1.5,4.4,4.6L29.2,46.4z M14.1,91.3
		c0,2.1,0.4,3.5,1.4,3.5c3.1,0,7-11.1,7-17.4c0-2.5-0.6-4.3-2.1-4.3C17.4,73.2,14.1,85.2,14.1,91.3z"/>
	<path class="st0" d="M53.1,83.7c0.4,0,1.9,0.5,1.9,1c-3.4,8.9-6.8,16-13.5,16c-5.9,0-8.4-5.5-8.4-11.9c0-9.3,5.1-20.6,12.7-20.6
		c3.4,0,5.1,2.5,5.1,5.6c0,4.8-4.1,11.4-12.1,12.7c0,0.3,0,0.7,0,1c0,4.1,1.2,7.4,4.3,7.4C47.2,94.9,50.5,90.7,53.1,83.7z M39,83.9
		c5.1-2.5,7.4-7.2,7.4-9.7c0-1-0.4-1.7-1.1-1.7C42.5,72.5,39.9,78.3,39,83.9z"/>
	<path class="st0" d="M55.2,93c0.9,1.5,1.7,2,3,2c1.7,0,2.7-1.2,2.7-3.7c0-4.2-2-8.3-3.5-13.1c-0.7,2.2-1.6,4.4-2.4,6.4
		c0,0-1.9-0.3-1.9-0.9v-0.1c0.9-2.3,2.2-5.4,3.5-8.7c-0.5-2-0.8-4.2-0.8-6.5c0-2.7,0.5-5.7,1.6-9.1l4.6,0.9c-0.5,3.7-1.2,6.9-2,9.9
		c0.2,5.7,6.9,12.8,6.9,20.4V91c1.3-2.1,2.4-4.6,3.4-7.3c0.4,0,1.9,0.5,1.9,1c-3.1,8.2-6.9,16-14.3,16c-3.2,0-5.8-1.8-6.7-4.6
		L55.2,93z"/>
	<path class="st0" d="M79.2,68.9c-2.4,10.6-4.4,18.5-4.4,24.1c0,2,0.7,2.3,1.4,2.3c1.8,0,4-3.8,7-11.6c0.3,0,1.9,0.5,1.9,0.9v0.1
		c-3,7.8-5.4,15.7-11,15.7c-3.7,0-4.9-3.4-4.9-8.1c0-7.6,3-18.4,4.2-23.3H79.2z M74.2,61.5c0-2.5,1.8-5.4,4.8-5.4
		c2.2,0,3.2,1.6,3.2,3.5c0,2.5-1.8,5.3-4.8,5.3C75.2,65,74.2,63.3,74.2,61.5z"/>
	<path class="st0" d="M107.9,84.6C107.9,84.7,107.9,84.7,107.9,84.6c-2.6,6.7-6.3,11.6-10,15.4l-1.5,8.8c-1.2,6.9-3.7,11.9-8.1,11.9
		c-3.1,0-5.2-1.8-5.2-5.4c0-4.7,4.4-8.6,9.4-13.4c0.4-2,0.7-4.2,1.1-6.3c-1.7,3.1-4,5.1-6.7,5.1c-3.3,0-4.7-3.7-4.7-8.7
		c0-9.6,5.2-23.8,11.7-23.8c2.1,0,3.3,1.2,3.7,3.6l0.6-2.9h5.6c-0.8,3-3.1,15.7-5,26.5c2.9-3.3,5.5-7.1,7.3-11.7
		C106.7,83.7,107.9,84.2,107.9,84.6z M88.3,117.1c1.2,0,1.7-1.4,2.1-3.5l1.4-7.3c-2.9,3-4.8,5.7-4.8,8.9
		C86.9,116.6,87.6,117.1,88.3,117.1z M87.8,91.3c0,2.1,0.4,3.5,1.4,3.5c3.1,0,7-11.1,7-17.4c0-2.5-0.6-4.3-2.1-4.3
		C91.3,73.2,87.8,85.1,87.8,91.3z"/>
	<path class="st0" d="M102.6,100c0,0,0.6-6.2,2.5-11.3c1.4-7.7,2.5-14.6,3.3-19.8h5.9l-0.8,4.6c2.2-3.3,4.9-5.3,7.8-5.3
		c2.4,0,3.9,1.6,3.9,4.8c0,6.3-4.4,14.4-4.4,20c0,2,0.7,2.3,1.4,2.3c1.8,0,4-3.8,7-11.6c0.4,0,1.9,0.5,1.9,1
		c-3,7.8-6.1,15.7-11.7,15.7c-2.4,0-4.6-1.9-4.6-6.1c0-7.4,4.4-14.9,4.4-19.8c0-0.7-0.3-1.4-1.1-1.4c-1.7,0-4.7,3.2-7,12.8
		l-2.7,14.1H102.6z"/>
</g>
<g>
	<path class="st0" d="M184.1,69.1c-2,10.3-3.8,19.7-3.8,24c0,1.5,0.2,2.4,0.8,2.4c1.4,0,3.9-3.9,5.7-12.1c0.5-4.5,1.5-9.5,2.4-14.3
		h5.7c-1.8,9.3-3.3,17.9-3.3,22.6c0,2.4,0.4,3.8,1.4,3.8c1.3,0,3.1-2.7,4.9-6.7c-1.1-2.3-1.6-5.4-1.6-8.6c0-7.5,2.7-15.8,6.7-15.8
		c2.7,0,3.9,2.2,3.9,6c0,5.2-2,13.3-5,19.7c0.5,0.2,0.9,0.3,1.6,0.3c3.1,0,4.8-2.8,6.2-6.7c0.4,0,1.9,0.5,1.9,0.9
		c-1.6,4.6-4.1,7.7-8.6,7.7c-0.8,0-1.5-0.1-2.1-0.4c-2.6,4.8-5.8,8.3-9.2,8.3c-3.6,0-5.1-3.2-5.4-8.1c-1.8,4.8-4.1,8.1-6.7,8.1
		c-3.5,0-4.8-3.4-4.8-8.6c0-6.2,1.8-14.8,3.3-22.8H184.1z M198.7,80.8c0,1.8,0.1,3.5,0.5,5c2-5.5,3.7-12.2,3.7-17c0-1-0.4-1.4-1-1.4
		C200.5,67.5,198.7,74.5,198.7,80.8z"/>
	<path class="st0" d="M207.1,100.1c-0.1-0.6-0.1-1.2-0.1-1.8c0-5.4,2.1-10.9,2.1-10.9c2.4-14.4,5.4-30.9,8.1-37.2
		c1.3-2.9,3.7-4.2,5.7-4.2c3.4,0,4.7,1.7,4.7,4.3c0,5.5-5.8,14.8-10.1,20c-0.2,1.2-0.5,2.4-0.7,3.7c2.2-3.4,5-5.5,7.9-5.5
		c2.4,0,3.9,1.6,3.9,4.8c0,6.3-4.4,14.4-4.4,20c0,2,0.7,2.3,1.4,2.3c1.8,0,4-3.8,7-11.6c0.4,0,1.9,0.5,1.9,0.9
		c-3,7.7-6,15.6-11.6,15.6c-2.4,0-4.6-1.9-4.6-6c0-7.3,4.4-14.9,4.4-19.8c0-0.7-0.3-1.4-1.1-1.4c-2.9,0-6.6,6.6-9.1,26.8H207.1z
		 M223.3,50.3c-1.1,0-2,2.9-4.4,14.1c1.9-3.7,5-9.7,5-13.2C223.9,50.6,223.6,50.3,223.3,50.3z"/>
	<path class="st0" d="M255.8,84.7C255.8,84.8,255.8,84.8,255.8,84.7c-2.6,6.7-6.3,11.5-10,15.3l-1.5,8.8c-1.2,6.9-3.7,11.9-8.1,11.9
		c-3.1,0-5.2-1.8-5.2-5.4c0-4.7,4.3-8.6,9.4-13.4l0.8-4.6c-1.3,1.8-2.9,3-4.7,3c-3.6,0-4.8-3.3-4.8-7.8c0-2.8,0.5-6,1.1-9.3
		c1.7-8.8,3.1-14.2,3.1-14.2h5.8c0,0-1.4,5.6-3.1,14.3c-0.7,3.8-1.4,7-1.4,9.7c0,2,0.7,2.3,1.4,2.3c3.4,0,6.2-20,7.5-26.4h5.6
		c-0.8,3-3.1,15.6-5,26.4c2.9-3.3,5.5-7.1,7.3-11.7C254.5,83.8,255.8,84.3,255.8,84.7z M236.1,117.1c1.2,0,1.7-1.4,2.1-3.5l1.4-7.3
		c-2.9,3-4.8,5.6-4.8,8.9C234.8,116.6,235.5,117.1,236.1,117.1z"/>
	<path class="st0" d="M262.3,87.9c1.9-13.7,12.1-18.3,12.1-27.7c0-3.7-1.6-6-4.8-6c-3.1,0-5.5,3.5-5.5,7.3c0,2.2,0.8,4.5,2.9,6.3
		l-4.2,4.5c-3.2-2-4.8-5.6-4.8-9.4c0-6.1,4.1-12.4,11.8-12.4c6.5,0,11.1,3.7,11.1,10.1c0,11.9-11.7,14.3-13.8,28L262.3,87.9z
		 M259,97.3c0-2.4,1.8-5.4,4.8-5.4c2.2,0,3.2,1.6,3.2,3.5c0,2.4-1.8,5.3-4.8,5.3C260.1,100.8,259,99.1,259,97.3z"/>
</g>
<g>
	<path class="st0" d="M131.2,98c0-1.9,1.4-4.2,3.7-4.2c1.8,0,2.5,1.3,2.5,2.8c0,1.9-1.4,4.2-3.7,4.2C132,100.8,131.2,99.5,131.2,98z
		"/>
	<path class="st0" d="M141.8,98c0-1.9,1.4-4.2,3.7-4.2c1.8,0,2.5,1.3,2.5,2.8c0,1.9-1.4,4.2-3.7,4.2
		C142.6,100.8,141.8,99.5,141.8,98z"/>
	<path class="st0" d="M152.5,98c0-1.9,1.4-4.2,3.7-4.2c1.8,0,2.5,1.3,2.5,2.8c0,1.9-1.4,4.2-3.7,4.2
		C153.3,100.8,152.5,99.5,152.5,98z"/>
</g>
<g>
</g>
<g>
</g>
<g>
</g>
<g>
</g>
<g>
</g>
<g>
</g>
<g>
</g>
<g>
</g>
<g>
</g>
<g>
</g>
<g>
</g>
<g>
</g>
<g>
</g>
<g>
</g>
<g>
</g>
</svg>
