<?xml version="1.0" encoding="utf-8"?>
<!-- Generator: Adobe Illustrator 18.1.1, SVG Export Plug-In . SVG Version: 6.00 Build 0)  -->
<svg version="1.1" id="Layer_1" xmlns="http://www.w3.org/2000/svg" xmlns:xlink="http://www.w3.org/1999/xlink" x="0px" y="0px"
	 viewBox="0 0 72 72" enable-background="new 0 0 72 72" xml:space="preserve">
<path fill="#1E5762" d="M70.7,36c0,8.7-3.2,16.7-8.6,22.8C55.8,66.1,46.4,70.6,36,70.6c-7.2,0-14-2.2-19.5-6c-0.9-0.6-1.8-1.3-2.7-2
	l0,0C6.2,56.2,1.3,46.7,1.3,36C1.3,16.9,16.9,1.3,36,1.3S70.7,16.9,70.7,36z"/>
<g id="josNdh_1_">
	<g>
		<path fill="#FFFFFF" d="M53.8,16.5C49,22.8,44.1,29,39.3,35.3c-1.9,2.4-4.1,2.9-6.9,1.9C26,35,19.6,33,13.2,30.9
			c-0.7-0.2-1.5-0.4-2.2-0.7c-1.2-0.6-0.4-0.8,0.2-1c1.5-0.5,3.1-1,4.6-1.4c11.9-3.7,23.9-7.3,35.8-10.9
			C52.3,16.6,53,16.2,53.8,16.5z"/>
		<path fill="#FFFFFF" d="M11.2,32.3c4.2,1.7,8.6,2.9,12.9,4.4c1.5,0.5,2.9,1,4.4,1.4c0.8,0.2,1.1,0.5,0.5,1.3
			c-4,5.1-8,10.3-12,15.4c-1.3-3-2-6.2-3-9.3c-1.4-4.4-2.7-8.8-4.1-13.3C10.4,32.2,10.8,32.3,11.2,32.3z"/>
		<path fill="#FFFFFF" d="M55.8,19.4c1.9,6.3,3.8,12.6,5.7,18.9c0.2,0.8,0.7,1.6,0.6,2.6c-5.3-1.7-10.6-3.5-15.9-5.2
			c-0.4-0.1-0.7-0.3-1.1-0.4c-2.7-0.8-2.7-0.8-1-3c3.7-4.7,7.4-9.4,11-14.1C55.4,18.6,55.6,19,55.8,19.4z"/>
		<path fill="#FFFFFF" d="M60.6,43c-13.7,4.2-27.4,8.4-41.4,12.6c0.5-1.4,1.3-2.1,2-2.9c3.2-4.2,6.5-8.3,9.7-12.5
			c0.6-0.7,1-1.1,2-0.8c2.8,0.9,5.3,0.1,7.2-2.1c0.7-0.9,1.4-1,2.4-0.6c6,2,12,3.9,18,5.9C60.6,42.8,60.6,42.9,60.6,43z"/>
	</g>
</g>
</svg>
