<?xml version="1.0" encoding="utf-8"?>
<!-- Generator: Adobe Illustrator 17.1.0, SVG Export Plug-In . SVG Version: 6.00 Build 0)  -->
<!DOCTYPE svg PUBLIC "-//W3C//DTD SVG 1.1//EN" "http://www.w3.org/Graphics/SVG/1.1/DTD/svg11.dtd">
<svg version="1.1" id="Layer_1" xmlns="http://www.w3.org/2000/svg" xmlns:xlink="http://www.w3.org/1999/xlink" x="0px" y="0px"
	 viewBox="0 0 288 144" style="enable-background:new 0 0 288 144;" xml:space="preserve">
<style type="text/css">
	.st0{fill:#E18815;}
</style>
<g>
	<path class="st0" d="M9.9,98.6C9.9,80,18.7,38,23.3,27.4c1.6-3.6,4.4-5.4,7-5.4c3,0,5.8,2.4,5.8,6.8c0,17.8-11.4,35.2-16,41.6
		c-0.8,4.4-1.6,8.6-2.2,12.6c6.8-1,11-5.6,13.8-13.2c0.6,0,2.4,0.6,2.4,1.2c-3,7.6-6.6,13.4-13.4,15.4c3.4,3.6,4.8,8.2,4.8,12.2
		c0,6.2-3.2,11.4-7.8,11.4C13.9,110.2,9.9,108.4,9.9,98.6z M21.3,100.2c0-3.6-1.2-8-4.2-11c-0.4,4-0.6,7.4-0.6,10.2
		c0,4.2,0.6,6.6,2,6.6C20.3,106,21.3,103.4,21.3,100.2z M31.3,27.6c-1.8,0-6,16.6-9.6,34c4.2-7.8,10.4-21.8,10.4-32.2
		C32.1,28.4,31.9,27.6,31.3,27.6z"/>
	<path class="st0" d="M62.1,71.2c-2,5.2-5.8,8.8-10,10.2c-3,6.2-7.2,10-12.8,10c-6,0-8.4-6.2-8.4-14c0-4.8,1-10.2,2.6-15.2l3,0.8
		c1-6.6,4.6-12.4,10.6-12.4c5.8,0,8.8,6.6,8.8,14.4c0,4.2-1,8.6-2.2,12.4c2.2-1,4.2-3.2,5.8-7.2C60.3,70,62.1,70.6,62.1,71.2z
		 M44.5,81.4c-3.6-1.4-6-4.8-7.2-9c-0.2,1.2-0.2,2.6-0.2,3.6c0,5,1.4,8.6,3.6,8.6c0.2,0,0.4,0,0.6,0C42.3,84.4,43.3,83.2,44.5,81.4z
		 M40.9,67.6c0,4.6,1.4,9,5.2,10.2c1.8-4.6,3.2-10.6,3.2-15c0-3.8-1-6.8-3.4-6.8c-0.2,0-0.4,0-0.6,0C42.9,56.6,40.9,62.2,40.9,67.6z
		"/>
	<path class="st0" d="M79.1,70c0.4,0,2,0.6,2,1.2l0,0c-5,13.8-9,20.2-14.6,20.2c-5.2,0-7.2-5-7.2-14c0-6.2,1-14.4,2.8-24.2
		c4-21.6,9.2-31.2,14.2-31.2c4.4,0,5.8,3.6,5.8,8c0,5-1.8,11.2-2.6,13.8C75.9,55,70.3,63.4,66.9,67.6c-0.4,3.6-0.6,7-0.6,9.8
		c0,5.8,1.2,7.6,3.2,7.6C72.1,84.8,75.5,79.4,79.1,70z M77.5,27.6c-2.4,0-7.4,18.4-9.8,34.4c4.2-7.8,10.6-22,10.8-32.6
		C78.3,28.4,77.9,27.6,77.5,27.6z"/>
	<path class="st0" d="M98.5,70c0.4,0,2,0.6,2,1.2l0,0c-5,13.8-9,20.2-14.6,20.2c-5.2,0-7.2-5-7.2-14c0-6.2,1-14.4,2.8-24.2
		C85.3,31.6,90.7,22,95.7,22c4.4,0,5.8,3.6,5.8,8c0,5-1.8,11.2-2.6,13.8C95.3,55,89.7,63.4,86.3,67.6c-0.4,3.6-0.6,7-0.6,9.8
		c0,5.8,1.2,7.6,3.2,7.6C91.5,84.8,94.7,79.4,98.5,70z M96.9,27.6c-2.4,0-7.4,18.4-9.8,34.4c4.2-7.8,10.6-22,10.8-32.6
		C97.7,28.4,97.3,27.6,96.9,27.6z"/>
	<path class="st0" d="M128.9,71.2c-2,5.2-5.8,8.8-10,10.2c-3,6.2-7.2,10-12.8,10c-6,0-8.4-6.2-8.4-14c0-4.8,1-10.2,2.6-15.2l3,0.8
		c1-6.6,4.6-12.4,10.6-12.4c5.8,0,8.8,6.6,8.8,14.4c0,4.2-1,8.6-2.2,12.4c2.2-1,4.2-3.2,5.8-7.2C127.1,70,128.9,70.6,128.9,71.2z
		 M111.3,81.4c-3.6-1.4-6-4.8-7.2-9c-0.2,1.2-0.2,2.6-0.2,3.6c0,5,1.4,8.6,3.6,8.6c0.2,0,0.4,0,0.6,0
		C109.1,84.4,110.1,83.2,111.3,81.4z M107.7,67.6c0,4.6,1.4,9,5.2,10.2c1.8-4.6,3.2-10.6,3.2-15c0-3.8-1-6.8-3.4-6.8
		c-0.2,0-0.4,0-0.6,0C109.7,56.6,107.7,62.2,107.7,67.6z"/>
	<path class="st0" d="M137.1,51.4c-2.4,13-4.8,24.8-4.8,30.2c0,1.8,0.2,3,1,3c1.8,0,5-5,7.2-15.2c0.6-5.6,1.8-12,3-18h7.2
		c-2.2,11.8-4.2,22.6-4.2,28.6c0,3,0.6,4.8,1.8,4.8c1.6,0,4-3.4,6.2-8.4c-1.4-3-2-6.8-2-10.8c0-9.6,3.4-19.8,8.4-19.8
		c3.4,0,5,2.8,5,7.6c0,6.6-2.4,16.8-6.4,24.8c0.6,0.2,1.2,0.4,2,0.4c3.8,0,6-3.6,7.8-8.4c0.6,0,2.4,0.6,2.4,1.2
		c-2,5.8-5.2,9.8-10.8,9.8c-1,0-1.8-0.2-2.6-0.6c-3.2,6-7.2,10.4-11.6,10.4c-4.6,0-6.4-4-6.8-10.2c-2.4,6-5.2,10.2-8.4,10.2
		c-4.4,0-6-4.2-6-10.8c0-7.8,2.2-18.6,4.2-28.6h7.4V51.4z M155.5,66c0,2.2,0.2,4.4,0.6,6.4c2.6-7,4.6-15.4,4.6-21.4
		c0-1.2-0.6-1.8-1.2-1.8C157.7,49.4,155.5,58.2,155.5,66z"/>
	<path class="st0" d="M180.5,90.4c0,0,0.8-7.8,3.2-14.2c1.8-9.6,3.2-18.4,4.2-24.8h7.4l-1.2,6.4c2.6-4.4,5.8-7.4,9.2-7.4
		s4.8,2.6,4.8,6c0,0.6,0,1.4-0.2,2.2c3-5,6.6-8,10.8-8c3,0,5,2,5,6c0,8-5.6,18.2-5.6,25.2c0,2.4,1,3,1.8,3c2.2,0,5-4.8,8.8-14.6
		c0.6,0,2.4,0.6,2.4,1.2c-3.8,9.8-7.6,19.6-14.6,19.6c-3,0-5.8-2.4-5.8-7.6c0-9.2,5.6-18.8,5.6-25c0-1-0.4-1.8-1.4-1.8
		c-2.2,0-6,4.2-9,16.6c-1.2,7-2.8,14-3.6,17.2h-7.8c2-9.4,6-27.8,6-31.4c0-1.4-0.4-1.8-1.2-1.8c-2.8,0-6.4,6.6-8.6,19l-2.8,14.4
		h-7.4V90.4z"/>
	<path class="st0" d="M253.1,70c0.6,0,2.4,0.6,2.4,1.2c-4.2,11.2-8.6,20.2-17,20.2c-7.4,0-10.6-6.8-10.6-15c0-11.6,6.4-25.8,16-25.8
		c4.2,0,6.4,3,6.4,7c0,6-5.2,14.4-15.2,16c0,0.4,0,0.8,0,1.2c0,5.2,1.4,9.2,5.4,9.2C245.7,84,249.9,78.6,253.1,70z M235.5,70.2
		c6.4-3.2,9.2-9,9.2-12.2c0-1.2-0.6-2.2-1.4-2.2C239.9,55.8,236.5,63,235.5,70.2z"/>
</g>
<g>
	<path class="st0" d="M257,86.3c0-3.3,2.4-7.3,6.5-7.3c3.1,0,4.4,2.2,4.4,4.8c0,3.3-2.4,7.2-6.5,7.2C258.3,91,257,88.8,257,86.3z
		 M284.1,24.7c-6.9,16.6-11.5,30.4-16.5,49.6l-5.2-0.8c4.2-20.4,7.8-34.2,13.2-51L284.1,24.7z"/>
</g>
</svg>
