<?xml version="1.0" encoding="utf-8"?>
<!-- Generator: Adobe Illustrator 18.1.0, SVG Export Plug-In . SVG Version: 6.00 Build 0)  -->
<svg version="1.1" id="Layer_1" xmlns="http://www.w3.org/2000/svg" xmlns:xlink="http://www.w3.org/1999/xlink" x="0px" y="0px"
	 viewBox="0 144 792 324" enable-background="new 0 144 792 324" xml:space="preserve">
<g>
	<path fill="#E18815" d="M44.1,325.9c0-43.5,22.9-141.9,34.8-166.7c4.2-8.4,11.4-12.6,18.2-12.6c7.8,0,15.1,5.6,15.1,15.9
		c0,41.7-29.6,82.4-41.5,97.4c-2.1,10.3-4.2,20.1-5.7,29.5c17.7-2.3,28.6-13.1,35.8-30.9c1.6,0,6.2,1.4,6.2,2.8
		c-7.8,17.8-17.1,31.4-34.8,36.1c8.8,8.4,12.5,19.2,12.5,28.6c0,14.5-8.3,26.7-20.3,26.7C54.5,353.1,44.1,348.9,44.1,325.9z
		 M73.7,329.7c0-8.4-3.1-18.7-10.9-25.8c-1,9.4-1.6,17.3-1.6,23.9c0,9.8,1.6,15.5,5.2,15.5C71.1,343.3,73.7,337.2,73.7,329.7z
		 M99.7,159.7c-4.7,0-15.6,38.9-24.9,79.6c10.9-18.3,27-51,27-75.4C101.8,161.6,101.3,159.7,99.7,159.7z"/>
	<path fill="#E18815" d="M179.7,261.8c-5.2,12.2-15.1,20.6-26,23.9c-7.8,14.5-18.7,23.4-33.2,23.4c-15.6,0-21.8-14.5-21.8-32.8
		c0-11.2,2.6-23.9,6.8-35.6l7.8,1.9c2.6-15.5,11.9-29,27.5-29c15.1,0,22.9,15.5,22.9,33.7c0,9.8-2.6,20.1-5.7,29
		c5.7-2.3,10.9-7.5,15.1-16.9C175,259,179.7,260.4,179.7,261.8z M134,285.7c-9.3-3.3-15.6-11.2-18.7-21.1c-0.5,2.8-0.5,6.1-0.5,8.4
		c0,11.7,3.6,20.1,9.3,20.1c0.5,0,1,0,1.6,0C128.3,292.7,130.9,289.9,134,285.7z M124.6,253.4c0,10.8,3.6,21.1,13.5,23.9
		c4.7-10.8,8.3-24.8,8.3-35.1c0-8.9-2.6-15.9-8.8-15.9c-0.5,0-1,0-1.6,0C129.8,227.6,124.6,240.7,124.6,253.4z"/>
	<path fill="#E18815" d="M223.8,259c1,0,5.2,1.4,5.2,2.8l0,0c-13,32.3-23.4,47.3-37.9,47.3c-13.5,0-18.7-11.7-18.7-32.8
		c0-14.5,2.6-33.7,7.3-56.7c10.4-50.6,23.9-73,36.9-73c11.4,0,15.1,8.4,15.1,18.7c0,11.7-4.7,26.2-6.8,32.3
		c-9.3,26.2-23.9,45.9-32.7,55.7c-1,8.4-1.6,16.4-1.6,22.9c0,13.6,3.1,17.8,8.3,17.8C205.7,293.6,214.5,281,223.8,259z M219.7,159.7
		c-6.2,0-19.2,43.1-25.4,80.5c10.9-18.3,27.5-51.5,28-76.3C221.8,161.6,220.7,159.7,219.7,159.7z"/>
	<path fill="#E18815" d="M274.2,259c1,0,5.2,1.4,5.2,2.8l0,0c-13,32.3-23.4,47.3-37.9,47.3c-13.5,0-18.7-11.7-18.7-32.8
		c0-14.5,2.6-33.7,7.3-56.7c9.9-50.6,23.9-73,36.9-73c11.4,0,15.1,8.4,15.1,18.7c0,11.7-4.7,26.2-6.8,32.3
		c-9.3,26.2-23.9,45.9-32.7,55.7c-1,8.4-1.6,16.4-1.6,22.9c0,13.6,3.1,17.8,8.3,17.8C256,293.6,264.3,281,274.2,259z M270.1,159.7
		c-6.2,0-19.2,43.1-25.4,80.5c10.9-18.3,27.5-51.5,28-76.3C272.1,161.6,271.1,159.7,270.1,159.7z"/>
	<path fill="#E18815" d="M353.2,261.8c-5.2,12.2-15.1,20.6-26,23.9c-7.8,14.5-18.7,23.4-33.2,23.4c-15.6,0-21.8-14.5-21.8-32.8
		c0-11.2,2.6-23.9,6.8-35.6l7.8,1.9c2.6-15.5,11.9-29,27.5-29c15.1,0,22.9,15.5,22.9,33.7c0,9.8-2.6,20.1-5.7,29
		c5.7-2.3,10.9-7.5,15.1-16.9C348.5,259,353.2,260.4,353.2,261.8z M307.4,285.7c-9.3-3.3-15.6-11.2-18.7-21.1
		c-0.5,2.8-0.5,6.1-0.5,8.4c0,11.7,3.6,20.1,9.3,20.1c0.5,0,1,0,1.6,0C301.7,292.7,304.3,289.9,307.4,285.7z M298.1,253.4
		c0,10.8,3.6,21.1,13.5,23.9c4.7-10.8,8.3-24.8,8.3-35.1c0-8.9-2.6-15.9-8.8-15.9c-0.5,0-1,0-1.6,0
		C303.3,227.6,298.1,240.7,298.1,253.4z"/>
	<path fill="#E18815" d="M374.4,215.4c-6.2,30.4-12.5,58.1-12.5,70.7c0,4.2,0.5,7,2.6,7c4.7,0,13-11.7,18.7-35.6
		c1.6-13.1,4.7-28.1,7.8-42.1h18.7c-5.7,27.6-10.9,52.9-10.9,67c0,7,1.6,11.2,4.7,11.2c4.2,0,10.4-8,16.1-19.7
		c-3.6-7-5.2-15.9-5.2-25.3c0-22.5,8.8-46.4,21.8-46.4c8.8,0,13,6.6,13,17.8c0,15.5-6.2,39.3-16.6,58.1c1.6,0.5,3.1,0.9,5.2,0.9
		c9.9,0,15.6-8.4,20.3-19.7c1.6,0,6.2,1.4,6.2,2.8c-5.2,13.6-13.5,22.9-28,22.9c-2.6,0-4.7-0.5-6.8-1.4c-8.3,14-18.7,24.3-30.1,24.3
		c-11.9,0-16.6-9.4-17.7-23.9c-6.2,14-13.5,23.9-21.8,23.9c-11.4,0-15.6-9.8-15.6-25.3c0-18.3,5.7-43.5,10.9-67h19.2L374.4,215.4
		L374.4,215.4z M422.2,249.6c0,5.2,0.5,10.3,1.6,15c6.8-16.4,11.9-36.1,11.9-50.1c0-2.8-1.6-4.2-3.1-4.2
		C427.9,210.8,422.2,231.4,422.2,249.6z"/>
	<path fill="#E18815" d="M487.1,306.7c0,0,2.1-18.3,8.3-33.2c4.7-22.5,8.3-43.1,10.9-58.1h19.2l-3.1,15
		c6.8-10.3,15.1-17.3,23.9-17.3c8.8,0,12.5,6.1,12.5,14c0,1.4,0,3.3-0.5,5.2c7.8-11.7,17.1-18.7,28-18.7c7.8,0,13,4.7,13,14
		c0,18.7-14.5,42.6-14.5,59c0,5.6,2.6,7,4.7,7c5.7,0,13-11.2,22.9-34.2c1.6,0,6.2,1.4,6.2,2.8c-9.9,22.9-19.7,45.9-37.9,45.9
		c-7.8,0-15.1-5.6-15.1-17.8c0-21.5,14.5-44,14.5-58.5c0-2.3-1-4.2-3.6-4.2c-5.7,0-15.6,9.8-23.4,38.9c-3.1,16.4-7.3,32.8-9.3,40.3
		h-20.3c5.2-22,15.6-65.1,15.6-73.5c0-3.3-1-4.2-3.1-4.2c-7.3,0-16.6,15.5-22.3,44.5l-7.3,33.7h-19.2L487.1,306.7L487.1,306.7z"/>
	<path fill="#E18815" d="M675.7,259c1.6,0,6.2,1.4,6.2,2.8c-10.9,26.2-22.3,47.3-44.1,47.3c-19.2,0-27.5-15.9-27.5-35.1
		c0-27.2,16.6-60.4,41.5-60.4c10.9,0,16.6,7,16.6,16.4c0,14-13.5,33.7-39.5,37.5c0,0.9,0,1.9,0,2.8c0,12.2,3.6,21.5,14,21.5
		C656.5,291.8,667.4,279.1,675.7,259z M630,259.5c16.6-7.5,23.9-21.1,23.9-28.6c0-2.8-1.6-5.2-3.6-5.2
		C641.4,225.7,632.6,242.6,630,259.5z"/>
</g>
<g>
	<path fill="#E18815" d="M685.8,297.1c0-7.7,6.2-17.1,16.9-17.1c8.1,0,11.4,5.2,11.4,11.2c0,7.7-6.2,16.9-16.9,16.9
		C689.2,308.1,685.8,303,685.8,297.1z M756.2,152.9c-17.9,38.9-29.9,71.2-42.8,116.1l-13.5-1.9c10.9-47.8,20.3-80.1,34.3-119.4
		L756.2,152.9z"/>
</g>
<path fill="none" stroke="#E08826" stroke-width="6" stroke-linecap="round" stroke-linejoin="round" stroke-miterlimit="10" d="
	M685.9,325.8c0,0-356-5-355.3,117c0,0-19.8-16.5-17.9-28.5"/>
<path fill="none" stroke="#E08826" stroke-width="6" stroke-linecap="round" stroke-linejoin="round" stroke-miterlimit="10" d="
	M330.7,442.8c0,0,12-1.5,24.3-16.5"/>
</svg>
