<?xml version="1.0" encoding="utf-8"?>
<!-- Generator: Adobe Illustrator 18.1.0, SVG Export Plug-In . SVG Version: 6.00 Build 0)  -->
<svg version="1.1" id="Layer_1" xmlns="http://www.w3.org/2000/svg" xmlns:xlink="http://www.w3.org/1999/xlink" x="0px" y="0px"
	 viewBox="0 162 792 288" enable-background="new 0 162 792 288" xml:space="preserve">
<g>
	<path fill="#E18815" d="M31.6,404.1c0-51.1,24.2-166.6,36.9-195.8c4.4-9.9,12.1-14.9,19.2-14.9c8.2,0,15.9,6.6,15.9,18.7
		c0,48.9-31.3,96.8-44,114.4c-2.2,12.1-4.4,23.6-6.1,34.6c18.7-2.8,30.2-15.4,37.9-36.3c1.6,0,6.6,1.6,6.6,3.3
		c-8.2,20.9-18.2,36.9-36.9,42.4c9.4,9.9,13.2,22.5,13.2,33.5c0,17-8.8,31.4-21.4,31.4C42.6,436,31.6,431.1,31.6,404.1z M63,408.5
		c0-9.9-3.3-22-11.5-30.2c-1.1,11-1.7,20.4-1.7,28c0,11.5,1.7,18.1,5.5,18.1C60.2,424.5,63,417.4,63,408.5z M90.5,208.9
		c-5,0-16.5,45.7-26.4,93.5c11.5-21.4,28.6-59.9,28.6-88.6C92.7,211.1,92.1,208.9,90.5,208.9z"/>
	<path fill="#E18815" d="M175.2,328.8c-5.5,14.3-15.9,24.2-27.5,28c-8.2,17-19.8,27.5-35.2,27.5c-16.5,0-23.1-17-23.1-38.5
		c0-13.2,2.8-28,7.1-41.8l8.2,2.2c2.8-18.1,12.7-34.1,29.1-34.1c15.9,0,24.2,18.1,24.2,39.6c0,11.5-2.8,23.6-6.1,34.1
		c6.1-2.8,11.6-8.8,16-19.8C170.2,325.5,175.2,327.1,175.2,328.8z M126.8,356.9c-9.9-3.9-16.5-13.2-19.8-24.8
		c-0.6,3.3-0.6,7.1-0.6,9.9c0,13.8,3.8,23.6,9.9,23.6c0.6,0,1.1,0,1.6,0C120.7,365.1,123.5,361.8,126.8,356.9z M116.9,318.9
		c0,12.6,3.9,24.8,14.3,28c4.9-12.6,8.8-29.1,8.8-41.2c0-10.4-2.8-18.7-9.4-18.7c-0.6,0-1.1,0-1.6,0
		C122.4,288.6,116.9,304,116.9,318.9z"/>
	<path fill="#E18815" d="M221.9,325.5c1.1,0,5.5,1.6,5.5,3.3l0,0c-13.8,38-24.8,55.5-40.1,55.5c-14.3,0-19.8-13.8-19.8-38.5
		c0-17,2.8-39.6,7.7-66.5c11-59.4,25.3-85.8,39.1-85.8c12.1,0,15.9,9.9,15.9,22c0,13.8-4.9,30.8-7.1,37.9
		c-9.9,30.8-25.3,53.9-34.6,65.5c-1.1,9.9-1.6,19.2-1.6,27c0,16,3.3,20.9,8.8,20.9C202.7,366.2,212,351.4,221.9,325.5z M217.5,208.9
		c-6.6,0-20.4,50.6-27,94.6c11.6-21.5,29.2-60.5,29.7-89.6C219.7,211.1,218.6,208.9,217.5,208.9z"/>
	<path fill="#E18815" d="M275.3,325.5c1.1,0,5.5,1.6,5.5,3.3l0,0c-13.8,38-24.8,55.5-40.1,55.5c-14.3,0-19.8-13.8-19.8-38.5
		c0-17,2.8-39.6,7.7-66.5c10.4-59.4,25.3-85.8,39-85.8c12.1,0,16,9.9,16,22c0,13.8-5,30.8-7.1,37.9c-9.9,30.8-25.3,53.9-34.6,65.4
		c-1.1,9.9-1.6,19.2-1.6,27c0,16,3.3,20.9,8.8,20.9C256,366.2,264.8,351.4,275.3,325.5z M270.9,208.9c-6.6,0-20.4,50.6-27,94.6
		c11.6-21.5,29.1-60.5,29.7-89.6C273.1,211.1,272,208.9,270.9,208.9z"/>
	<path fill="#E18815" d="M358.9,328.8c-5.5,14.3-16,24.2-27.5,28c-8.2,17-19.8,27.5-35.2,27.5c-16.5,0-23.1-17-23.1-38.5
		c0-13.2,2.8-28,7.1-41.8l8.2,2.2c2.8-18.1,12.6-34.1,29.1-34.1c16,0,24.2,18.1,24.2,39.6c0,11.5-2.8,23.6-6.1,34.1
		c6.1-2.8,11.6-8.8,16-19.8C353.9,325.5,358.9,327.1,358.9,328.8z M310.5,356.9c-9.9-3.9-16.5-13.2-19.8-24.8
		c-0.5,3.3-0.5,7.1-0.5,9.9c0,13.8,3.9,23.6,9.9,23.6c0.5,0,1.1,0,1.6,0C304.4,365.1,307.2,361.8,310.5,356.9z M300.6,318.9
		c0,12.6,3.9,24.8,14.3,28c5-12.6,8.8-29.1,8.8-41.2c0-10.4-2.8-18.7-9.3-18.7c-0.6,0-1.1,0-1.7,0
		C306.1,288.6,300.6,304,300.6,318.9z"/>
	<path fill="#E18815" d="M381.4,274.4c-6.6,35.8-13.2,68.2-13.2,83.1c0,5,0.5,8.2,2.8,8.2c5,0,13.8-13.8,19.8-41.8
		c1.7-15.4,5-33,8.2-49.5h19.8c-6,32.4-11.5,62.1-11.5,78.6c0,8.2,1.7,13.2,5,13.2c4.4,0,11-9.4,17-23.1c-3.8-8.2-5.5-18.7-5.5-29.7
		c0-26.4,9.3-54.5,23.1-54.5c9.4,0,13.8,7.7,13.8,20.9c0,18.1-6.6,46.2-17.6,68.2c1.7,0.5,3.3,1.1,5.5,1.1
		c10.5,0,16.5-9.9,21.5-23.1c1.7,0,6.6,1.6,6.6,3.3c-5.5,16-14.3,27-29.7,27c-2.8,0-5-0.5-7.1-1.6c-8.8,16.5-19.8,28.6-31.9,28.6
		c-12.7,0-17.6-11-18.7-28c-6.6,16.5-14.3,28-23.1,28c-12.1,0-16.5-11.5-16.5-29.7c0-21.5,6-51.1,11.5-78.6h20.3L381.4,274.4
		L381.4,274.4z M432,314.5c0,6,0.5,12.1,1.7,17.6c7.2-19.2,12.7-42.4,12.7-58.9c0-3.3-1.7-5-3.3-5C438.1,268.9,432,293,432,314.5z"
		/>
	<path fill="#E18815" d="M500.8,381.6c0,0,2.2-21.5,8.8-39c5-26.4,8.8-50.6,11.5-68.2h20.3l-3.3,17.6c7.2-12.1,16-20.4,25.3-20.4
		s13.2,7.1,13.2,16.5c0,1.6,0,3.9-0.5,6.1c8.2-13.8,18.2-22,29.7-22c8.2,0,13.8,5.5,13.8,16.5c0,22-15.4,50-15.4,69.3
		c0,6.6,2.8,8.2,5,8.2c6,0,13.8-13.2,24.2-40.1c1.7,0,6.6,1.6,6.6,3.3c-10.5,27-20.9,53.9-40.2,53.9c-8.2,0-16-6.6-16-20.9
		c0-25.3,15.4-51.7,15.4-68.8c0-2.8-1.1-5-3.8-5c-6,0-16.5,11.6-24.8,45.7c-3.3,19.2-7.7,38.5-9.9,47.3h-21.5
		c5.5-25.9,16.5-76.5,16.5-86.4c0-3.9-1.1-5-3.3-5c-7.7,0-17.6,18.1-23.7,52.3l-7.7,39.6h-20.3L500.8,381.6L500.8,381.6z"/>
	<path fill="#E18815" d="M700.4,325.5c1.7,0,6.6,1.6,6.6,3.3c-11.5,30.8-23.7,55.5-46.8,55.5c-20.3,0-29.2-18.7-29.2-41.2
		c0-31.9,17.6-70.9,44-70.9c11.5,0,17.6,8.2,17.6,19.2c0,16.5-14.3,39.6-41.8,44c0,1.1,0,2.2,0,3.3c0,14.3,3.8,25.3,14.8,25.3
		C680.1,364,691.6,349.1,700.4,325.5z M652,326c17.6-8.8,25.3-24.8,25.3-33.5c0-3.3-1.7-6.1-3.8-6.1
		C664.1,286.5,654.8,306.2,652,326z"/>
</g>
<g>
	<path fill="#E18815" d="M711.1,370.3c0-9.1,6.6-20.1,17.9-20.1c8.5,0,12.1,6,12.1,13.2c0,9.1-6.6,19.8-17.9,19.8
		C714.7,383.2,711.1,377.2,711.1,370.3z M785.7,200.9c-19,45.7-31.6,83.6-45.4,136.4l-14.3-2.2c11.6-56.1,21.4-94.1,36.3-140.2
		L785.7,200.9z"/>
</g>
</svg>
