<?xml version="1.0" encoding="utf-8"?>
<!-- Generator: Adobe Illustrator 18.1.0, SVG Export Plug-In . SVG Version: 6.00 Build 0)  -->
<svg version="1.1" id="Layer_1" xmlns="http://www.w3.org/2000/svg" xmlns:xlink="http://www.w3.org/1999/xlink" x="0px" y="0px"
	 viewBox="0 0 720 216" enable-background="new 0 0 720 216" xml:space="preserve">
<g>
	<g>
		<path fill="#168E8E" d="M342.2,14L331,27.1l-1-1.4c-2.8-4.1-7.9-6.3-14.9-6.3c-35.4,0-56.1,80.3-74.3,162.4l-0.3,1.2l-17.4-2.3
			l-0.2-0.9c-2.1-9.5-3.3-23.3-3.3-40c0-29.7,3.3-63.7,5.2-81c-9.7,29.2-19.6,74.3-29.3,118.1l-1.1,5.2l-14.1-3.2l-0.2-0.7
			c-4.7-16.8-5.1-33.2-5.1-47.3c0-3.4,0-7,0.1-10.3c0-3.4,0.1-7,0.1-10.5c0-14.8-0.8-36.4-7.6-52.8c-7-16.9-18.9-25.1-36.2-25.1
			c-26.3,0-44.7,21.3-44.7,51.8c0,24.2,13.9,35.1,27.7,35.1c15.7,0,26.5-11.6,29.7-31.8l0.2-1.4l16.8,4l-0.2,1.2
			c-4.7,25.2-21.5,39.7-46.1,39.7c-12.9,0-24.5-4.6-32.6-13.1c-8.4-8.7-12.8-20.7-12.8-34.9c0-37,25.2-61.9,62.8-61.9
			c27.3,0,46.7,13.8,54.6,38.8c5.4,17,6,37.5,6,53.3c0,4.8,0,9.5-0.1,14c0,4.2-0.1,8.2-0.1,11.9c0,4.3,0,8.6,0.3,12.3
			c8.1-40.7,22.6-105.2,37.3-132.3l0.5-0.9l13.6,3.1l-0.2,1.2c-5.9,41.8-7.2,76.4-7.2,98c0,15,0.6,26.6,1.1,33.9
			C259.2,51.7,284.6,4,317.9,4c10.3,0,17.8,2.9,23.5,9.2L342.2,14z"/>
	</g>
	<g>
		<path fill="#38938A" d="M317.2,104.8c0,0.4-0.1,0.9-0.1,1.3c0.3,0,0.8,0.1,1.3,0.3c0-0.4,0.1-0.9,0.1-1.3
			C317.9,104.9,317.4,104.8,317.2,104.8z M316.4,120.3c-0.4,0.9-0.8,1.8-1.2,2.7c0,0.9,0.1,1.8,0.2,2.6c0.4-0.8,0.8-1.6,1.1-2.4
			c0,0,0,0,0,0C316.4,122.3,316.4,121.3,316.4,120.3z"/>
	</g>
	<g>
		<path fill="#168E8E" d="M317.2,104.8c0,0.4-0.1,0.9-0.1,1.3c0.3,0,0.8,0.1,1.3,0.3c0-0.4,0.1-0.9,0.1-1.3
			C317.9,104.9,317.4,104.8,317.2,104.8z M351.7,106.1C351.7,106.1,351.7,106.1,351.7,106.1c-0.7,1.6-1.3,3.2-1.9,4.7
			c-0.1,1.3-0.2,2.6-0.3,3.9c0.5-1.2,1-2.3,1.5-3.6c0,0,0,0,0,0c0.5-1.1,0.9-2.3,1.4-3.5c0.1,0,0.2,0.1,0.3,0.1
			c0.1-0.4,0.1-0.9,0.2-1.3C352.5,106.3,352,106.1,351.7,106.1z"/>
		<path fill="#38938A" d="M317.2,104.8c0,0.4-0.1,0.9-0.1,1.3c0.3,0,0.8,0.1,1.3,0.3c0-0.4,0.1-0.9,0.1-1.3
			C317.9,104.9,317.4,104.8,317.2,104.8z M352,104.8c-0.1,0-0.2,0-0.3,0h-0.9l-0.2,0.6l0,0c-0.3,1.8-0.6,3.6-0.8,5.4
			c-0.1,1.3-0.2,2.6-0.3,3.9c0.5-1.2,1-2.3,1.5-3.6c0,0,0,0,0,0c0.5-1.1,0.9-2.3,1.4-3.5c0.1,0,0.2,0.1,0.3,0.1
			c0.1-0.4,0.1-0.9,0.2-1.3c0.1-0.4,0.1-0.9,0.2-1.3C352.7,105,352.3,104.9,352,104.8z M316.4,120.3c-0.4,0.9-0.8,1.8-1.2,2.7
			c0,0.9,0.1,1.8,0.2,2.6c0.4-0.8,0.8-1.6,1.1-2.4c0,0,0,0,0,0C316.4,122.3,316.4,121.3,316.4,120.3z"/>
	</g>
	<g>
		<path fill="#168E8E" d="M352,104.8c-0.1,0.4-0.2,0.8-0.2,1.3c-0.3,1.7-0.5,3.3-0.7,5c0.5-1.1,0.9-2.3,1.4-3.5
			c0.1,0,0.2,0.1,0.3,0.1c0.1-0.4,0.1-0.9,0.2-1.3c0.1-0.4,0.1-0.9,0.2-1.3C352.7,105,352.3,104.9,352,104.8z M397.4,107.7
			c0.1-0.4,0.1-0.9,0.2-1.3c-0.5-0.2-1-0.3-1.2-0.3c0,0.1-0.1,0.2-0.1,0.2c-0.6,1.6-1.3,3.1-1.9,4.5c-0.1,1.2-0.2,2.4-0.3,3.6
			c0.5-1,1.1-2.1,1.6-3.2c-0.2,2.2-0.4,4.3-0.4,6.4c0.5-1,1-2,1.4-3l0,0c1.2-2.6,2.1-4.8,2.6-6.1C398.7,108.2,398,107.9,397.4,107.7
			z"/>
		<path fill="#38938A" d="M352,104.8c-0.1,0-0.2,0-0.3,0h-0.9l-0.2,0.6l0,0c-0.3,1.8-0.6,3.6-0.8,5.4c-0.1,1.3-0.2,2.6-0.3,3.9
			c0.5-1.2,1-2.3,1.5-3.6c0,0,0,0,0,0c0.5-1.1,0.9-2.3,1.4-3.5c0.1,0,0.2,0.1,0.3,0.1c0.1-0.4,0.1-0.9,0.2-1.3
			c0.1-0.4,0.1-0.9,0.2-1.3C352.7,105,352.3,104.9,352,104.8z M396.5,104.8c-0.1,0-0.1,0-0.2,0h-0.9l-0.3,0.8c0,0.1-0.1,0.2-0.1,0.3
			c0,0,0,0,0,0c-0.3,1.6-0.5,3.3-0.7,4.9c-0.1,1.2-0.2,2.4-0.3,3.6c0.5-1,1.1-2.1,1.6-3.2c0,0,0,0,0,0c0.5-1.2,1.1-2.4,1.6-3.6
			c0.1,0,0.1,0,0.2,0.1c0.1-0.4,0.1-0.9,0.2-1.3c0.1-0.4,0.1-0.9,0.2-1.3C397.3,104.9,396.8,104.8,396.5,104.8z"/>
	</g>
	<g>
		<path fill="#168E8E" d="M397.4,107.7c0.1-0.4,0.1-0.9,0.2-1.3c0.1-0.4,0.1-0.9,0.2-1.3c-0.5-0.1-1-0.2-1.3-0.3
			c-0.1,0.5-0.2,1-0.3,1.5c-0.3,1.6-0.5,3.2-0.7,4.8c0,0,0,0,0,0c-0.2,2.2-0.4,4.3-0.4,6.4c0.5-1,1-2,1.4-3l0,0
			c1.2-2.6,2.1-4.8,2.6-6.1C398.7,108.2,398,107.9,397.4,107.7z"/>
		<path fill="#38938A" d="M422.1,81.1c-0.3,0-0.8,0.1-1.1,0.1c-4.5,0.9-8,10.9-8,20.7c0,8.3,2.5,16.3,9.4,18.3
			c3.4-8.1,5.7-18.9,5.7-27C428.1,86.3,426.4,81.1,422.1,81.1z M421.7,118.6c-6.6-2.8-7.3-12.5-7.3-16.6c0-10.1,3.7-18.6,6.9-19.4
			c0.2,0,0.4-0.1,0.6-0.1c0.1,0,0.2,0,0.3,0c4.2,0,4.7,7.6,4.7,10.8C426.8,100.7,424.8,110.7,421.7,118.6z M422.1,81.1
			c-0.3,0-0.8,0.1-1.1,0.1c-4.5,0.9-8,10.9-8,20.7c0,8.3,2.5,16.3,9.4,18.3c3.4-8.1,5.7-18.9,5.7-27
			C428.1,86.3,426.4,81.1,422.1,81.1z M421.7,118.6c-6.6-2.8-7.3-12.5-7.3-16.6c0-10.1,3.7-18.6,6.9-19.4c0.2,0,0.4-0.1,0.6-0.1
			c0.1,0,0.2,0,0.3,0c4.2,0,4.7,7.6,4.7,10.8C426.8,100.7,424.8,110.7,421.7,118.6z M422.1,81.1c-0.3,0-0.8,0.1-1.1,0.1
			c-4.5,0.9-8,10.9-8,20.7c0,8.3,2.5,16.3,9.4,18.3c3.4-8.1,5.7-18.9,5.7-27C428.1,86.3,426.4,81.1,422.1,81.1z M421.7,118.6
			c-6.6-2.8-7.3-12.5-7.3-16.6c0-10.1,3.7-18.6,6.9-19.4c0.2,0,0.4-0.1,0.6-0.1c0.1,0,0.2,0,0.3,0c4.2,0,4.7,7.6,4.7,10.8
			C426.8,100.7,424.8,110.7,421.7,118.6z M442,121.3c-0.2,0.7-0.4,1.4-0.6,2.2c0.6-0.5,1.2-1,1.8-1.5c0.3-0.9,0.5-1.7,0.8-2.6
			C443.3,120.1,442.6,120.7,442,121.3z M446.9,104.8c-0.1,0.5-0.2,0.9-0.2,1.4c0-0.1,0-0.1,0.1-0.1c0.3,0,0.7,0.1,1.2,0.3
			c0.1-0.4,0.2-0.9,0.2-1.3C447.6,104.9,447.1,104.9,446.9,104.8z M396.5,104.8c-0.1,0-0.1,0-0.2,0h-0.9l-0.3,0.8
			c0,0.1-0.1,0.2-0.1,0.3c0,0,0,0,0,0c-0.3,1.6-0.5,3.3-0.7,4.9c-0.1,1.2-0.2,2.4-0.3,3.6c0.5-1,1.1-2.1,1.6-3.2
			c-0.2,2.2-0.4,4.3-0.4,6.4c0.5-1,1-2,1.4-3l0,0c0.2-2.3,0.4-4.6,0.8-7c0.1-0.4,0.1-0.9,0.2-1.3c0.1-0.4,0.1-0.9,0.2-1.3
			C397.3,104.9,396.8,104.8,396.5,104.8z M422.1,81.1c-0.3,0-0.8,0.1-1.1,0.1c-4.5,0.9-8,10.9-8,20.7c0,8.3,2.5,16.3,9.4,18.3
			c3.4-8.1,5.7-18.9,5.7-27C428.1,86.3,426.4,81.1,422.1,81.1z M421.7,118.6c-6.6-2.8-7.3-12.5-7.3-16.6c0-10.1,3.7-18.6,6.9-19.4
			c0.2,0,0.4-0.1,0.6-0.1c0.1,0,0.2,0,0.3,0c4.2,0,4.7,7.6,4.7,10.8C426.8,100.7,424.8,110.7,421.7,118.6z M422.1,81.1
			c-0.3,0-0.8,0.1-1.1,0.1c-4.5,0.9-8,10.9-8,20.7c0,8.3,2.5,16.3,9.4,18.3c3.4-8.1,5.7-18.9,5.7-27
			C428.1,86.3,426.4,81.1,422.1,81.1z M421.7,118.6c-6.6-2.8-7.3-12.5-7.3-16.6c0-10.1,3.7-18.6,6.9-19.4c0.2,0,0.4-0.1,0.6-0.1
			c0.1,0,0.2,0,0.3,0c4.2,0,4.7,7.6,4.7,10.8C426.8,100.7,424.8,110.7,421.7,118.6z M422.1,81.1c-0.3,0-0.8,0.1-1.1,0.1
			c-4.5,0.9-8,10.9-8,20.7c0,8.3,2.5,16.3,9.4,18.3c3.4-8.1,5.7-18.9,5.7-27C428.1,86.3,426.4,81.1,422.1,81.1z M421.7,118.6
			c-6.6-2.8-7.3-12.5-7.3-16.6c0-10.1,3.7-18.6,6.9-19.4c0.2,0,0.4-0.1,0.6-0.1c0.1,0,0.2,0,0.3,0c4.2,0,4.7,7.6,4.7,10.8
			C426.8,100.7,424.8,110.7,421.7,118.6z M422.1,81.1c-0.3,0-0.8,0.1-1.1,0.1c-4.5,0.9-8,10.9-8,20.7c0,8.3,2.5,16.3,9.4,18.3
			c3.4-8.1,5.7-18.9,5.7-27C428.1,86.3,426.4,81.1,422.1,81.1z M421.7,118.6c-6.6-2.8-7.3-12.5-7.3-16.6c0-10.1,3.7-18.6,6.9-19.4
			c0.2,0,0.4-0.1,0.6-0.1c0.1,0,0.2,0,0.3,0c4.2,0,4.7,7.6,4.7,10.8C426.8,100.7,424.8,110.7,421.7,118.6z"/>
	</g>
	<g>
		<path fill="#168E8E" d="M525.4,115c-0.4,1.1-0.9,2.2-1.4,3.3c-0.4,1-0.8,1.9-1.2,2.8c0,0,0,0,0,0c0.1,0.9,0.1,1.8,0.2,2.6
			c0.4-0.8,0.7-1.6,1.1-2.4c0.4-0.9,0.8-1.8,1.2-2.8c0-0.3,0-0.6,0-0.9C525.3,116.7,525.3,115.9,525.4,115z M525.1,106.1
			c-0.3,1.8-0.6,3.7-0.8,5.5c0.5-1.3,1-2.6,1.6-4c0.1,0,0.1,0,0.2,0.1c0.1-0.4,0.1-0.9,0.2-1.3C525.8,106.2,525.4,106.1,525.1,106.1
			z M446.9,104.8c-0.1,0.5-0.2,0.9-0.2,1.4c0-0.1,0-0.1,0.1-0.1c0.3,0,0.7,0.1,1.2,0.3c0.1-0.4,0.2-0.9,0.2-1.3
			C447.6,104.9,447.1,104.9,446.9,104.8z"/>
		<path fill="#38938A" d="M525.3,118.5c0-0.3,0-0.6,0-0.9c0-0.9,0-1.8,0.1-2.6c-0.4,1.1-0.9,2.2-1.4,3.3c-0.4,1-0.8,1.9-1.2,2.8
			c0,0,0,0,0,0c0.1,0.9,0.1,1.8,0.2,2.6c0.1,0.8,0.2,1.6,0.3,2.3c0.3-0.7,0.7-1.4,1-2.2c0,0,0,0,0,0c0.4-0.8,0.7-1.6,1.1-2.4
			C525.4,120.4,525.3,119.4,525.3,118.5z M442,121.3c-0.2,0.7-0.4,1.4-0.6,2.2c0.6-0.5,1.2-1,1.8-1.5c0.3-0.9,0.5-1.7,0.8-2.6
			C443.3,120.1,442.6,120.7,442,121.3z M525.3,104.8c-0.1,0-0.2,0-0.3,0h-0.9l-0.3,0.8c0,0,0,0.1,0,0.1c0,0,0,0,0,0
			c-0.3,1.9-0.6,3.7-0.8,5.6c0.7-1.6,1.3-3.4,2-5.2c-0.3,1.8-0.6,3.7-0.8,5.5c0.5-1.3,1-2.6,1.6-4c0.1,0,0.1,0,0.2,0.1
			c0.1-0.4,0.1-0.9,0.2-1.3c0.1-0.4,0.2-0.8,0.2-1.3C526.1,105,525.6,104.9,525.3,104.8z M446.9,104.8c-0.1,0.5-0.2,0.9-0.2,1.4
			c0-0.1,0-0.1,0.1-0.1c0.3,0,0.7,0.1,1.2,0.3c0.1-0.4,0.2-0.9,0.2-1.3C447.6,104.9,447.1,104.9,446.9,104.8z"/>
	</g>
	<g>
		<path fill="#168E8E" d="M525.3,104.8c-0.1,0.4-0.2,0.8-0.3,1.3c-0.3,1.8-0.6,3.7-0.8,5.5c0.5-1.3,1-2.6,1.6-4c0.1,0,0.1,0,0.2,0.1
			c0.1-0.4,0.1-0.9,0.2-1.3c0.1-0.4,0.2-0.8,0.2-1.3C526.1,105,525.6,104.9,525.3,104.8z M525.3,118.5c0-0.3,0-0.6,0-0.9
			c0-0.9,0-1.8,0.1-2.6c-0.4,1.1-0.9,2.2-1.4,3.3c0,1,0.1,2,0.1,3c0.1,0.9,0.1,1.7,0.3,2.6c0.4-0.8,0.7-1.6,1.1-2.4
			C525.4,120.4,525.3,119.4,525.3,118.5z"/>
		<path fill="#38938A" d="M525.3,104.8c-0.1,0-0.2,0-0.3,0h-0.9l-0.3,0.8c0,0,0,0.1,0,0.1c0,0,0,0,0,0c-0.3,1.9-0.6,3.7-0.8,5.6
			c0.7-1.6,1.3-3.4,2-5.2c-0.3,1.8-0.6,3.7-0.8,5.5c0.5-1.3,1-2.6,1.6-4c0.1,0,0.1,0,0.2,0.1c0.1-0.4,0.1-0.9,0.2-1.3
			c0.1-0.4,0.2-0.8,0.2-1.3C526.1,105,525.6,104.9,525.3,104.8z M525.3,118.5c0-0.3,0-0.6,0-0.9c0-0.9,0-1.8,0.1-2.6
			c-0.4,1.1-0.9,2.2-1.4,3.3c-0.4,1-0.8,1.9-1.2,2.8c0,0,0,0,0,0c0.1,0.9,0.1,1.8,0.2,2.6c0.1,0.8,0.2,1.6,0.3,2.3
			c0.3-0.7,0.7-1.4,1-2.2c0,0,0,0,0,0c0.4-0.8,0.7-1.6,1.1-2.4C525.4,120.4,525.3,119.4,525.3,118.5z"/>
		<path fill="#168E8E" d="M569,104.8h-0.9l-0.3,0.8c-4.1,11.1-11.2,24.3-21.2,24.3c-7.3,0-8.4-9.6-8.4-15.3v-1.2
			c10.2-1.9,16.6-7.3,20.1-11.5c4.6-5.4,7.2-12,7.2-18.1c0-8.4-5-13.9-12.8-13.9c-8.4,0-16.2,5.7-21.9,16
			c-3.2,5.8-5.6,12.7-6.9,19.7c0,0,0-0.1,0-0.1l0.3-0.8h0.9c0.1,0,0.1,0,0.3,0c0.3,0,0.7,0.1,1.2,0.3c-0.1,0.4-0.2,0.8-0.2,1.3
			c-0.1,0.4-0.2,0.9-0.2,1.3c-0.1,0-0.1-0.1-0.2-0.1c-0.5,1.4-1.1,2.7-1.6,4c0.2-1.8,0.4-3.7,0.8-5.5c-0.7,1.8-1.4,3.6-2,5.2
			c0.2-1.9,0.5-3.7,0.8-5.6c-8,20.9-12.3,25.3-14.6,25.3c-0.4,0-1.8,0-1.8-3.9c0-5.9,2.3-13.1,4.7-20.8c2.6-8.2,5.3-16.8,5.3-24.3
			c0-11-7.1-12.2-10.2-12.2c-6.3,0-12.3,3.8-17.6,11c-0.3-6.9-3.9-11-9.7-11c-4.9,0-9.8,3-14.3,8.7l1.2-7h-15.8l-0.2,1.1
			c-1.5,9.3-3.4,20.9-5.6,33.3c0,0,0,0,0,0c-1.8,4.7-4.1,8.1-7,10.3c1.5-5.4,3-12.4,3-19.3c0-16.1-6.8-26.9-17-26.9
			c-10,0-17.8,8.5-20.1,21.8l-5.3-1.3l-0.4,1.1c-1.6,4.7-2.8,9.6-3.6,14.4c0-0.1,0.1-0.2,0.1-0.3l0.3-0.8h0.9c0.1,0,0.1,0,0.2,0
			c0.3,0,0.7,0.1,1.3,0.3c-0.1,0.4-0.2,0.9-0.2,1.3c-0.1,0.4-0.1,0.9-0.2,1.3c0.6,0.2,1.4,0.5,1.8,0.8c-0.5,1.4-1.4,3.6-2.6,6.1l0,0
			c-0.4,1-0.9,1.9-1.4,3c0.1-2.1,0.2-4.2,0.4-6.4c-0.5,1.1-1,2.2-1.6,3.2c0.1-1.2,0.2-2.4,0.3-3.6c0.2-1.6,0.4-3.2,0.7-4.9
			c-6.1,15-13.9,24-21.1,24c-8.7,0-9.6-11.4-9.6-16.4c0-15,7.1-31.5,13.6-31.5c1.5,0,1.8,2.6,1.8,4.1c0,4.5-2,11-4.9,15.9l-0.7,1.2
			l12.2,6.5l0.6-1.2c3.3-7.1,5.2-14.8,5.2-21.3c0-11-5-17.3-13.6-17.3c-8.3,0-15.9,5.7-21.4,16c-3,5.7-5.3,12.5-6.5,19.5l0.2-0.6
			h0.9c0.1,0,0.2,0,0.3,0c0.3,0.1,0.7,0.2,1.2,0.3c-0.1,0.4-0.2,0.8-0.2,1.3c-0.1,0.4-0.1,0.9-0.2,1.3c-0.1-0.1-0.2-0.1-0.3-0.1
			c-0.5,1.2-0.9,2.4-1.4,3.5c0,0,0,0,0,0c-0.5,1.3-1,2.4-1.5,3.6c0-1.3,0.1-2.6,0.3-3.9c0.2-1.8,0.4-3.6,0.8-5.4l-0.1,0.2
			c-8.7,22.4-13.8,25.7-16.1,25.7c-1.2,0-4.5,0-4.5-12.2c0-4.5,0.4-10.2,1.2-17c4.8-5.9,16-21.2,22.7-42.8
			c1.1-3.4,4.7-15.2,4.7-25.1c0-7.1-2-15.6-11.6-15.6c-10.7,0-20.2,20.2-26.8,56.9c-2,11.7-3.5,21.6-4.2,30c0,0,0,0,0,0
			c-4.1,11.1-11.2,24.3-21.2,24.3c-7.3,0-8.4-9.6-8.4-15.3v-1.2c10.2-1.9,16.6-7.3,20.1-11.5c4.6-5.4,7.2-12,7.2-18.1
			c0-8.4-5-13.9-12.8-13.9c-8.4,0-16.1,5.7-21.9,16c-5,9-8.1,20.9-8.1,31.6c0,17.5,7.5,28,20.2,28c11.2,0,18.5-8.4,24.4-20
			c-0.1-0.9-0.1-1.7-0.2-2.6c0.4-0.9,0.8-1.8,1.2-2.7c0,1,0,2,0.1,2.9c0,0,0,0,0,0c-0.4,0.8-0.8,1.6-1.1,2.4c1,13.5,5.6,20,14,20
			c8.4,0,14.6-7.4,20.7-20.6c1.8,12.9,8.3,20.6,18,20.6c7.6,0,14.9-4.7,21.8-13.9c1.6-2.2,3.1-4.4,4.4-6.6
			c1.3,13,7.2,20.6,16.2,20.6c9.9,0,18.2-6.2,23.8-18.1c2.6-1,5-2.3,7.2-4.1c-2.6,9.6-3.6,18.7-3.6,19.2l-0.1,1.4h15.9l5.1-26.7
			c1.9-10.3,4.5-18.9,7.4-24.9c3.6-7.4,6.2-8,6.9-8c0.2,0,0.7,0,0.7,1.9c0,4.6-3.6,23.5-10.7,56l-0.3,1.6H479l0.2-1
			c1.5-6.1,4.1-19,6.3-30.7c4.9-21.2,11.5-28.9,14.7-28.9c0.8,0,1.2,0.6,1.2,1.8c0,4.8-2,11-4.2,17.5c-2.7,8.3-5.8,17.8-5.8,27.1
			c0,10.3,5.9,15,11.7,15c9,0,15.1-8.1,20.2-18.8c-0.1-0.8-0.3-1.5-0.3-2.3c-0.1-0.9-0.2-1.7-0.2-2.6c0,0,0,0,0,0
			c0.4-0.9,0.8-1.8,1.2-2.8c0.5-1.1,0.9-2.2,1.4-3.3c-0.1,0.9-0.1,1.8-0.1,2.6c0,0.3,0,0.6,0,0.9c0,0.8,0.1,1.8,0.2,3
			c-0.4,0.8-0.7,1.6-1.1,2.4c0,0,0,0,0,0c-0.3,0.7-0.7,1.5-1,2.2c2.1,12.4,9.1,19.5,19.5,19.5c16.2,0,24.2-17.4,31.6-36.9l0.1-0.2
			v-0.2C574.6,106,569.9,104.8,569,104.8z M551.5,82.1c0.8,0,1.2,1.3,1.2,2.5c0,5-4.2,14-13.6,19.5
			C541.3,92.1,546.9,82.1,551.5,82.1z M348.6,31.7c0.2,0.3,0.4,0.9,0.4,1.9c-0.1,14.8-7.6,35-15.3,50.5
			C338.6,56.9,345.7,34.2,348.6,31.7z M299.5,82.1c0.8,0,1.2,1.3,1.2,2.5c0,5-4.2,14-13.6,19.5C289.4,92.1,294.9,82.1,299.5,82.1z
			 M318.3,106.4c-0.5-0.2-1-0.3-1.3-0.3c0-0.4,0.1-0.8,0.1-1.3c0.3,0,0.7,0.1,1.3,0.3C318.4,105.5,318.4,106,318.3,106.4z
			 M413.1,131.3c-0.2,0.1-0.4,0.1-0.8,0.1c-2.5,0-5-4.8-5-14.1c0-0.2,0-0.5,0-0.7c2.4,5,5.8,8.6,10,10.7
			C415.8,129.6,414.4,130.9,413.1,131.3z M422.4,120.2c-6.9-2-9.4-10-9.4-18.3c0-9.8,3.5-19.8,8-20.7c0.3,0,0.8-0.1,1.1-0.1
			c4.3,0,6,5.2,6,12.1C428.1,101.3,425.8,112.1,422.4,120.2z M448.1,105.1c-0.1,0.4-0.1,0.8-0.2,1.3c-0.5-0.2-1-0.3-1.2-0.3
			c0,0.1,0,0.1-0.1,0.1c0.1-0.5,0.2-1,0.2-1.4C447.1,104.9,447.6,104.9,448.1,105.1z M443.1,122c-0.6,0.5-1.2,1-1.8,1.5
			c0.2-0.7,0.4-1.4,0.6-2.2c0.7-0.6,1.3-1.2,2-1.9C443.6,120.3,443.4,121.1,443.1,122z"/>
	</g>
	<g>
		<path fill="#168E8E" d="M590.4,132.4c0,6.4-4.6,13.3-12,13.3c-5.9,0-8.5-4.6-8.5-9.1c0-6.5,4.8-13.4,12-13.4
			C587.1,123.1,590.4,126.6,590.4,132.4z"/>
		<path fill="#168E8E" d="M617.9,33.6l-0.6,1.4C605.8,62.8,598.1,85.8,590,117l-0.3,1.1l-11.1-1.8l0.3-1.3
			c6.8-33,12.7-55.9,21.8-84.7l0.4-1.2L617.9,33.6z"/>
	</g>
</g>
</svg>
