<?xml version="1.0" encoding="utf-8"?>
<!-- Generator: Adobe Illustrator 18.1.0, SVG Export Plug-In . SVG Version: 6.00 Build 0)  -->
<svg version="1.1" id="Layer_1" xmlns="http://www.w3.org/2000/svg" xmlns:xlink="http://www.w3.org/1999/xlink" x="0px" y="0px"
	 viewBox="-144 0 1080 612" enable-background="new -144 0 1080 612" xml:space="preserve">
<path fill="#2F1A45" d="M587.7,314.6c-0.7,0.8-1.3,1.4-1.8,1.8C586.6,315.9,587.1,315.3,587.7,314.6z"/>
<path fill="#91BCBC" d="M588.5,418.1c-1,0.8-1.9,1.5-2.9,2.2c-18.7,14.8-39.9,22.9-64.7,21c-21.7-1.6-39.8-12.2-50.9-28.4
	c-19.6,13.9-41.8,21.5-67.5,19.5c-32.8-2.5-58-22.8-65.6-51.4l44.8-26.7c8,15.7,15.9,21.7,29.2,22.7c17.5,1.3,28.1-10.2,30-34.6
	c2.7-36.2-9.5-72.6-20.5-113.4c-0.2-0.6-0.4-1.2-0.5-1.9c-1.1-4-2.1-8.1-3.2-12.3c-0.1-0.5-0.3-0.9-0.3-1.4
	c-9.1-35.8-8.8-46.1-8.7-47.7c0-0.2,0-0.3,0-0.3c-2.3-17.6-3.4-36.1-2-55.3c2-27.2,9.2-56.7,22.8-89.1l46.8,12.4
	c-8.3,36.2-17.7,68.3-28.3,97.6c-2,54,53.8,124.4,55.4,196.1c0,0,2.7,18-0.8,37.8l0.3-0.2c7.3,15.3,14.7,21.2,27,22.2
	c16.2,1.2,26.2-10.1,28-34.1c3.1-40.7-12.1-81.4-22.8-128.7c-1.4-5.8-3.4-18.7-5-30.7c0-0.1,0-0.1,0-0.1c-1.6-11-2.9-21.2-3.3-24.6
	c0-0.4-0.1-0.7-0.1-0.8l0-0.2l0-0.1c-1.2-13.8-1.5-28.1-0.4-42.8c2-26.7,8.7-55.8,21.5-87.7l43.5,12c-7.9,35.6-16.8,67.2-26.8,96
	c-2.3,56.2,56,130.4,50.4,205.2l-0.1,1.5C613.6,351.8,610.9,397,588.5,418.1z"/>
<g>
	<path fill="#1C5663" d="M333.9,124.6c0-17.8,11.2-39,30.1-39c14.2,0,20.2,11.9,20.2,25.7c0,17.8-11.2,38.5-30.1,38.5
		C340.4,149.7,333.9,137.9,333.9,124.6z"/>
	<path fill="#1C5663" d="M370.8,338.3c-9.5,21.1-17.5,31.6-24.3,31.6c-3.9,0-8.6-2.5-8.6-16.8c0-40.5,12.5-97.7,27.5-174.7h-36.5
		c-5,24.1-15.2,67.7-21.3,110.5c-18,52.7-33.9,82-47.4,82c-9.9,0-16.3-10.4-16.3-43.4c0-15.8,1.3-35,3.4-56.3
		c17.2-24.2,46-72.5,63.6-137.2c4.3-15.3,12.9-50.3,12.9-79.5c0-25.1-6.4-45.9-28.8-45.9c-24.9,0-52,55.8-71.4,179.6
		c-5.6,36.3-9.7,68.9-11.9,97.2h-0.1c-20.7,61.2-38.7,84.9-43.5,84.9c-2.1,0-3.4-3.4-3.4-10.9c0-3.4,0-7.4,0.9-12.8
		c6-48.8,14.2-102.1,27.1-167.7H162l-4.8,27.6c-3-22.2-12-33.1-27.9-33.1c-40.8,0-73.9,102.6-73.9,172.2c0,36,8.6,62.7,29.7,62.7
		c24.9,0,40-26.2,49.8-56.3v5.4c0,23.5,3.7,37.6,10.5,44c0,0,0.1,0.1,0.3,0.3c2.6,2.5,20.7,18.1,38.9-9.8
		c3.7-9.3,8.8-22.1,13.5-33.5c0-0.1,0-0.1,0.1-0.2c5-12.2,9.4-22.9,11-26.3v0c0-0.1,0.1-0.1,0.1-0.2c0-0.1,0-0.1,0.1-0.2
		c0,0,0,0,0,0c0.2-0.3,0.3-0.6,0.4-0.6c0.3,33.2,5.1,56.8,15.9,68.6c0,0,7.1,8.3,20.9,8.7c21.4-0.4,38-22.9,56.1-69.5
		c-0.1,2.9-0.1,5.7-0.1,8.4c0,34.1,7.8,58.7,30.9,58.7c25.2,0,40-29.2,53.4-66.4C377.3,335.8,370.8,338.3,370.8,338.3z M300.4,41.7
		c2.2,0,4.3,3.9,4.3,10.9c-0.4,60.2-32.3,142.6-53.7,187.5C263.4,148.3,288.8,41.7,300.4,41.7z M100.6,366.4c-6.5,0-9-10.4-9-25.7
		c0-44.9,21.9-131.7,40-131.7c9.5,0,13.4,12.8,13.4,31.1C144.9,286,120.3,366.4,100.6,366.4z"/>
	<path fill="#1C5663" d="M629.2,408.3c24.9,0,40-26.2,49.9-56.3v5.4c0,34.1,7.7,48.4,21.5,48.4c19.7,0,40.8-34.5,67-113.5
		c0-3-9.4-6.9-12-6.9c-20.6,61.2-38.7,84.9-43.4,84.9c-2.2,0-3.4-3.4-3.4-10.9c0-3.4,0-7.4,0.8-12.8c6-48.8,14.2-102.1,27.1-167.7
		h-30.5l-4.7,27.6c-3-22.2-12-33.1-27.9-33.1c-29.3,0-54.5,52.7-66.5,108.2c0,0,0,0,0,0c0,0,0,0.1,0,0.2c0,0.1,0,0.2-0.1,0.3
		c-1.3,4.4-10,35.1-7.3,64.2C599.7,382,608.3,408.3,629.2,408.3z M675.7,209c9.4,0,13.3,12.8,13.3,31.1
		c0,45.9-24.5,126.3-44.3,126.3c-6.4,0-9-10.4-9-25.7C635.7,295.8,657.6,209,675.7,209z"/>
</g>
<g>
	<path fill="#91BCBC" d="M67.4,458.4h52.1c39.3,0,71.7,30.9,71.7,70.6c0,39.7-32.6,70.6-71.7,70.6H67.4V458.4z M104.1,568.6h8.2
		c21.9,0,40.6-12,40.6-39.5c0-25.3-16.7-39.5-40.3-39.5h-8.6V568.6z"/>
	<path fill="#91BCBC" d="M237.4,599.6h-36.7V458.4h36.7V599.6z"/>
	<path fill="#91BCBC" d="M354.9,505.8c-7.5-10.1-19.7-15.5-32.2-15.5c-22.5,0-37.6,17.2-37.6,39.1c0,22.3,15.4,38.4,38.2,38.4
		c12,0,24-5.8,31.7-15v44c-12.2,3.7-21,6.6-32.4,6.6c-19.7,0-38.4-7.5-53-20.8c-15.5-14-22.7-32.4-22.7-53.4
		c0-19.3,7.3-37.8,20.8-51.7c13.9-14.2,33.9-22.8,53.8-22.8c11.8,0,22.7,2.6,33.5,7.1V505.8z"/>
	<path fill="#91BCBC" d="M406,575.1l-9.7,24.5h-39l54.3-141.2h40.1l53.2,141.2h-39.1l-9.2-24.5H406z M431.7,502.1h-0.4L416.1,547
		h30.5L431.7,502.1z"/>
	<path fill="#91BCBC" d="M545.5,599.6h-36.7V458.4h36.7V599.6z"/>
	<path fill="#91BCBC" d="M679.4,599.6h-45.7l-34.6-54.3h-0.4v54.3H562V458.4h54.9c27.9,0,49.1,13.3,49.1,43.4
		c0,19.5-10.9,36.3-30.9,39.9L679.4,599.6z M598.7,521.7h3.6c12,0,25.5-2.2,25.5-17.6c0-15.4-13.5-17.6-25.5-17.6h-3.6V521.7z"/>
	<path fill="#91BCBC" d="M718.6,489.5v23.6H760v31.1h-41.4v24.3h43.6v31.1h-80.3V458.4h80.3v31.1H718.6z"/>
</g>
</svg>
