<?xml version="1.0" encoding="utf-8"?>
<!-- Generator: Adobe Illustrator 18.1.0, SVG Export Plug-In . SVG Version: 6.00 Build 0)  -->
<svg version="1.1" id="Layer_1" xmlns="http://www.w3.org/2000/svg" xmlns:xlink="http://www.w3.org/1999/xlink" x="0px" y="0px"
	 viewBox="0 0 792 612" enable-background="new 0 0 792 612" xml:space="preserve">
<path fill="#2F1A45" d="M533.2,312.5c-0.5,0.6-1,1.1-1.4,1.4C532.3,313.4,532.7,313,533.2,312.5z"/>
<path fill="#8B83BE" d="M533.8,390.2c-0.7,0.6-1.4,1.1-2.2,1.7c-14,11.1-30,17.2-48.6,15.8c-16.3-1.2-29.9-9.2-38.2-21.4
	C430,396.8,413.4,402.5,394,401c-24.6-1.8-43.5-17.2-49.3-38.6l33.7-20.1c6,11.8,12,16.3,21.9,17c13.1,1,21.1-7.6,22.5-26
	c2-27.2-7.2-54.5-15.4-85.2c-0.2-0.4-0.3-0.9-0.4-1.4c-0.8-3-1.6-6.1-2.4-9.2c-0.1-0.4-0.2-0.7-0.2-1c-6.8-26.9-6.6-34.7-6.5-35.8
	c0-0.2,0-0.2,0-0.2c-1.8-13.2-2.6-27.1-1.5-41.6c1.5-20.4,6.9-42.6,17.1-66.9l35.1,9.3c-6.3,27.2-13.3,51.3-21.3,73.3
	c-1.5,40.6,40.4,93.5,41.6,147.3c0,0,2,13.5-0.6,28.4l0.2-0.1c5.5,11.5,11,16,20.3,16.7c12.2,0.9,19.7-7.6,21-25.6
	c2.3-30.5-9.1-61.1-17.1-96.7c-1-4.4-2.5-14.1-3.8-23.1c0,0,0-0.1,0-0.1c-1.2-8.3-2.2-15.9-2.5-18.4c0-0.3,0-0.5-0.1-0.6l0-0.1
	l0-0.1c-0.9-10.3-1.1-21.1-0.3-32.1c1.5-20.1,6.6-41.9,16.2-65.9l32.7,9c-5.9,26.8-12.7,50.5-20.1,72.1
	c-1.7,42.2,42.1,97.9,37.8,154.1l-0.1,1.1C552.6,340.4,550.5,374.3,533.8,390.2z"/>
<g>
	<path fill="#2F1A45" d="M342.5,169.7c0-13.4,8.4-29.3,22.6-29.3c10.7,0,15.2,8.9,15.2,19.3c0,13.4-8.4,28.9-22.6,28.9
		C347.4,188.6,342.5,179.7,342.5,169.7z"/>
	<path fill="#2F1A45" d="M370.2,330.2c-7.2,15.8-13.1,23.7-18.3,23.7c-2.9,0-6.5-1.9-6.5-12.6c0-30.4,9.4-73.4,20.6-131.2h-27.4
		c-3.7,18.1-11.4,50.9-16,83c-13.5,39.6-25.5,61.6-35.6,61.6c-7.4,0-12.2-7.8-12.2-32.6c0-11.9,1-26.3,2.6-42.3
		c12.9-18.2,34.5-54.5,47.8-103c3.2-11.5,9.7-37.8,9.7-59.7c0-18.9-4.8-34.5-21.6-34.5c-18.7,0-39.1,41.9-53.6,134.9
		c-4.2,27.3-7.3,51.8-8.9,73h-0.1c-15.5,46-29.1,63.8-32.6,63.8c-1.6,0-2.6-2.6-2.6-8.2c0-2.6,0-5.6,0.7-9.6
		c4.5-36.7,10.7-76.7,20.3-126h-22.9l-3.6,20.8c-2.3-16.7-9-24.8-21-24.8c-30.7,0-55.5,77.1-55.5,129.4c0,27.1,6.5,47.1,22.3,47.1
		c18.7,0,30-19.7,37.4-42.3v4.1c0,17.6,2.8,28.2,7.9,33.1c0,0,0.1,0.1,0.2,0.2c1.9,1.9,15.5,13.6,29.2-7.3c2.8-7,6.6-16.6,10.1-25.2
		c0-0.1,0-0.1,0.1-0.1c3.7-9.2,7.1-17.2,8.3-19.8v0c0-0.1,0.1-0.1,0.1-0.1c0-0.1,0-0.1,0.1-0.1c0,0,0,0,0,0c0.1-0.2,0.2-0.4,0.3-0.5
		c0.2,24.9,3.8,42.6,11.9,51.5c0,0,5.3,6.2,15.7,6.5c16.1-0.3,28.5-17.2,42.2-52.2c-0.1,2.2-0.1,4.3-0.1,6.3
		c0,25.6,5.8,44.1,23.2,44.1c18.9,0,30.1-21.9,40.1-49.9C375.1,328.3,370.2,330.2,370.2,330.2z M317.3,107.5c1.6,0,3.2,3,3.2,8.2
		c-0.3,45.2-24.2,107.1-40.4,140.9C289.6,187.5,308.6,107.5,317.3,107.5z M167.2,351.3c-4.9,0-6.8-7.8-6.8-19.3
		c0-33.7,16.5-99,30-99c7.1,0,10,9.6,10,23.4C200.5,290.9,182.1,351.3,167.2,351.3z"/>
	<path fill="#2F1A45" d="M564.3,382.9c18.7,0,30-19.7,37.5-42.3v4.1c0,25.6,5.8,36.3,16.2,36.3c14.8,0,30.7-25.9,50.3-85.3
		c0-2.2-7.1-5.2-9-5.2c-15.5,46-29.1,63.8-32.6,63.8c-1.6,0-2.6-2.6-2.6-8.2c0-2.6,0-5.6,0.6-9.6c4.5-36.7,10.7-76.7,20.4-126h-22.9
		l-3.5,20.7c-2.3-16.7-9-24.8-21-24.8c-22,0-40.9,39.6-50,81.2c0,0,0,0,0,0c0,0,0,0.1,0,0.2c0,0.1,0,0.2-0.1,0.2
		c-1,3.3-7.5,26.4-5.5,48.2C542.1,363.1,548.6,382.9,564.3,382.9z M599.2,233.1c7.1,0,10,9.6,10,23.4c0,34.5-18.4,94.9-33.3,94.9
		c-4.8,0-6.8-7.8-6.8-19.3C569.2,298.4,585.6,233.1,599.2,233.1z"/>
</g>
<g>
	<path fill="#8B83BE" d="M142.3,420.5h39.1c29.5,0,53.9,23.2,53.9,53s-24.5,53-53.9,53h-39.1V420.5z M169.9,503.2h6.2
		c16.5,0,30.5-9,30.5-29.7c0-19-12.5-29.7-30.2-29.7h-6.5V503.2z"/>
	<path fill="#8B83BE" d="M270,526.6h-27.6V420.5H270V526.6z"/>
	<path fill="#8B83BE" d="M358.3,456.1c-5.6-7.6-14.8-11.7-24.2-11.7c-16.9,0-28.3,12.9-28.3,29.4c0,16.7,11.5,28.8,28.7,28.8
		c9,0,18-4.4,23.8-11.3v33.1c-9.1,2.8-15.8,4.9-24.3,4.9c-14.8,0-28.8-5.6-39.8-15.6c-11.7-10.5-17-24.3-17-40.1
		c0-14.5,5.5-28.4,15.6-38.8c10.4-10.7,25.5-17.2,40.4-17.2c8.9,0,17,2,25.2,5.3V456.1z"/>
	<path fill="#8B83BE" d="M396.7,508.1l-7.3,18.4h-29.3l40.8-106.1H431l40,106.1h-29.4l-6.9-18.4H396.7z M415.9,453.3h-0.3L404.3,487
		h22.9L415.9,453.3z"/>
	<path fill="#8B83BE" d="M501.5,526.6h-27.6V420.5h27.6V526.6z"/>
	<path fill="#8B83BE" d="M602,526.6h-34.3l-26-40.8h-0.3v40.8h-27.6V420.5h41.2c21,0,36.9,10,36.9,32.6c0,14.6-8.2,27.3-23.2,30
		L602,526.6z M541.4,468h2.7c9,0,19.1-1.7,19.1-13.2c0-11.5-10.1-13.2-19.1-13.2h-2.7V468z"/>
	<path fill="#8B83BE" d="M631.4,443.8v17.7h31.1v23.4h-31.1v18.3h32.8v23.4h-60.3V420.5h60.3v23.4H631.4z"/>
</g>
</svg>
