<?xml version="1.0" encoding="utf-8"?>
<!-- Generator: Adobe Illustrator 17.1.0, SVG Export Plug-In . SVG Version: 6.00 Build 0)  -->
<!DOCTYPE svg PUBLIC "-//W3C//DTD SVG 1.1//EN" "http://www.w3.org/Graphics/SVG/1.1/DTD/svg11.dtd">
<svg version="1.1" id="Layer_1" xmlns="http://www.w3.org/2000/svg" xmlns:xlink="http://www.w3.org/1999/xlink" x="0px" y="0px"
	 viewBox="-36 -108 360 360" style="enable-background:new -36 -108 360 360;" xml:space="preserve">
<style type="text/css">
	.st0{opacity:0.6;fill:#FFFFFF;}
	.st1{fill:#444444;}
	.st2{fill:#BB99C1;}
</style>
<circle class="st0" cx="155.4" cy="67.7" r="129.5"/>
<g>
	<g>
		<path class="st1" d="M152.6,86.6l-7.4-2.7l-0.6,1.6c-2.5,6.4-6.4,9.7-11.7,9.7c-2.9,0-5.6-1-7.8-3.1c-5.5-5.3-8.4-17.1-8.4-35.7
			c0-22.8,4.1-54.2,12.7-99.8l0.4-1.4l-5.3-2.3l-5.1-2.3l-0.8,1c-11.9,8.8-20.1,30.4-28.8,53c-0.8,2.1-1.8,4.3-2.5,6.6
			c-5.5-2.3-11.5-3.9-17.5-4.5c-0.4-0.6-0.6-1.4-0.8-1.9C66.3-1.1,62-5.6,56.6-8.5c-5.1-2.7-11.1-4.1-18.1-4.1
			c-3.3,0-6.4,0.4-9.4,0.8c-0.6,0.2-1.4,0.2-1.8,0.4C3.2-6-9.7,17.2-9.7,39.2c0,4.9,0.6,9.5,1.8,13.8c1.8,6.6,4.9,12.9,9,17.7
			c7.6,9.2,19.1,14,32.9,14c32.3,0,48.3-28.6,59.6-57.7c2.7,2.7,4.7,5.6,6,9.2l0,0c1.4,3.5,2.1,7.4,2.3,11.3c-0.2,3.1-0.2,6.2-0.2,9
			c0,10.3,1,19.1,2.9,26.1c4.5,16.6,14.4,24.7,29.8,24.7c10.7,0,18.7-6,23.2-17.5l0.6-1.8L152.6,86.6z M19.2,34.2
			c-0.4,1-0.6,1.9-0.8,2.9L18,38.6l13.4,4.1l0.4-1.8c2.9-12.3,13.6-19.1,24-21.8c0.6-0.2,1.2-0.4,1.8-0.6
			c-0.2,8.6-4.7,18.3-14.6,21.6l-1.2,0.4l-0.6,0.2l5.3,12.7l1.6-0.6C62,48.6,71.8,34.5,71.8,19v-1.2c3.1,0.4,6.2,1,9,1.8
			c0.8,0.4,1.8,0.6,2.5,0.8c-9.9,24.4-22.4,49.9-42.5,54.2c-0.4,0-0.6,0.2-1,0.2c-1.8,0.4-3.5,0.6-5.5,0.6c-7.6,0-13.4-2.1-18.1-5.6
			C7.5,62.6,4,50.3,4,39.6C4,18.2,16.6-4,37.7-4c7.2,0,12.9,2.9,16.6,8.6c0.6,0.8,1,1.8,1.4,2.5C37.5,10,23.9,20.3,19.2,34.2z
			 M103.9,25c-0.6-0.6-1-1.6-1.6-2.1c-1.6-1.9-3.1-3.7-5.3-5.3c1.8-4.7,3.1-9.2,4.9-13.6c1.9-6,4.1-11.7,6-17.1
			c1.4-3.7,2.7-7,4.1-10.3C108.2-4.6,105.5,11.2,103.9,25z"/>
	</g>
	<g>
		<path class="st1" d="M172.3,26.2l-0.4,1.2C172.1,26.8,172.3,26.4,172.3,26.2L172.3,26.2z"/>
	</g>
	<g>
		<path class="st1" d="M173.5-13.2c0,5.3-3.9,10.9-9.9,10.9c-4.3,0-7.2-2.9-7.2-7.6c0-0.6,0-1.6,0.2-2.1c0-0.2,0.2-0.6,0.2-0.6
			c1.2-4.1,4.5-8,9.5-8C170.6-21,173.5-17.9,173.5-13.2z"/>
		<path class="st1" d="M272.3,26.2h-1.2l-0.6,1.2c-4.1,10.5-7.6,15.8-9.4,17.9c0-0.6,0-1.6,0.2-2.5c0.2-1.4,0.4-2.7,0.6-4.1
			c1.8-11.5,3.9-22.8,6.6-35.5l0.6-2.1h-11.7L257.1,3c-0.6-0.6-1.2-1.4-1.8-1.8c-0.8-0.6-1.8-1-2.7-1.2c-0.8-0.2-1.8-0.4-2.7-0.4
			c-9.4,0-16.9,14-20.1,28.2c-1,2.5-1.8,4.7-2.9,6.4c-0.4-1.4-0.6-2.9-1.2-4.1c-1.4-4.1-3.1-7.8-5.1-11.5c-2.5-5.1-4.9-9.7-5.1-13.6
			c1.6-5.3,2.5-10.9,3.5-16.9l0.2-1.8l-5.3-1l-5.6-1.2l-0.6,1.6c-1.8,5.6-2.9,11.1-2.9,16c0,3.5,0.6,7,1.4,11.1
			c-0.2,0.6-0.4,0.8-0.6,1.4c-0.6,1.8-1.6,3.5-2.1,5.3c-1,2.3-1.8,4.7-2.7,6.6c0,0.2,0,0.2-0.2,0.4l0,0l-0.4,0.8
			c-1,2.9-1.9,5.3-2.9,7.2c-0.4-1.4-0.6-2.9-1.2-4.1c-1.4-4.1-3.1-7.8-5.1-11.5c-2.5-5.1-4.9-9.7-5.1-13.6
			c1.4-5.3,2.5-10.9,3.5-16.9l0.2-1.8l-5.3-1l-5.6-1.2l-0.6,1.6c-1.8,5.6-2.9,11.1-2.9,16c0,3.5,0.6,7,1.4,11.1
			c-0.2,0.6-0.4,0.8-0.6,1.4c-0.6,1.8-1.6,3.7-2.1,5.3c-1,2.3-1.8,4.7-2.7,6.6c-0.2,0.4-0.4,0.6-0.6,1.2l0,0l0,0
			c-6.6,17.3-9.7,18.9-10.3,18.9c-0.6,0-0.6-1.9-0.6-2.1c0-0.6,0-1,0-1.4c0.4-8,2.9-19.1,5.8-32.7c0.6-2.1,1-4.3,1.6-6.6l0.6-2.1
			h-12.9l-0.4,1.4c-0.4,1.2-0.6,2.7-1,4.3c-1.4,5.6-3.3,13.4-4.7,21.6c-1.2,3.1-2.3,5.8-3.5,8c-0.2,0.4-0.2,0.6-0.4,0.8
			c-0.4,0.8-0.6,1.6-1.2,2.1c-3.5,6.6-5.6,7.4-6.4,7.4c-1,0-1.8-0.8-2.1-2.5c-0.4-1.4-0.6-3.5-0.6-6c0-3.3,0.4-7.6,0.8-12.5
			c3.7-4.7,12.3-16.2,17.1-32.5c0.4-1,1-2.9,1.6-5.3l0,0c0-0.2,0-0.4,0.2-0.4l0,0c0.6-1.8,0.8-3.7,1.2-5.8c0.6-2.5,0.6-5.3,0.6-7.6
			c0-8.2-3.3-11.3-6.8-12.3c-0.8-0.2-1.8-0.4-2.7-0.4c-8.6,0-15.8,15.6-21,43.6c-2.5,14.4-3.7,25.1-3.7,33.3c0,1.9,0,5.8,0.8,9.7
			l0,0c1.2,5.5,3.9,11.1,10.7,11.1c5.5,0,9.9-3.9,13.8-11.1c0-0.2,0.2-0.2,0.2-0.4c0,0.4,0.2,0.6,0.2,1c1.6,7.8,5.8,9.7,9.7,9.7
			c4.7,0,8.2-2.7,11.1-6.8c2.3,4.5,7,7.6,12.5,7.6c6.8,0,12.1-3.5,16.2-8.8c1.8,5.3,7,8.8,13.1,8.8c7.8,0,13.4-4.5,17.7-11.1
			c0-0.2,0.2-0.2,0.2-0.4c0,0.6,0.2,1,0.2,1.4l0,0c1.6,8.6,6.2,9.9,9.2,9.9c4.9,0,9-2.7,12.3-8.2c1,5.1,3.3,7.6,7.2,7.6
			c6.4,0,12.3-8.4,19.7-27.9l0.2-0.4v-0.2C277.3,26.9,273,26.2,272.3,26.2z M148.5-26.4c-0.2,9.4-4.3,21.6-9,32.1
			C142.5-9.7,146.2-22.1,148.5-26.4z M211.5,45.5c-1.4,0-2.1-0.4-3.5-2.3c-1,0-1.8-0.4-2.7-0.8l-5.3,3.9c1.2-1.9,2.3-4.1,3.3-6.2
			c1.4-2.9,2.5-5.6,3.7-8.6c0.2-0.6,0.4-0.8,0.6-1.4l0.2-0.4c0.2-0.6,0.6-1.2,0.6-1.8c0.2-0.6,0.6-1.2,0.6-1.8
			c0.4-0.8,0.6-1.8,1-2.3c0.2,0.6,0.4,1.2,0.6,1.8c0.4,1,0.6,1.9,1,2.9c1.6,4.5,2.7,8.6,2.7,12.7C214.2,45.5,212.3,45.5,211.5,45.5z
			 M182.2,45.5c-1.4,0-2.1-0.4-3.5-2.3c-1,0-1.8-0.4-2.7-0.8l-3.9,2.7c0.6-1.6,1.4-2.9,1.9-4.7c0.8-1.9,1.8-4.1,2.5-6.4
			c0.4-0.8,0.6-1.8,1-2.5l0,0l0.6-1.4c0.6-1.4,1-2.5,1.6-3.9c0.4-0.8,0.6-1.8,0.8-2.3c0.2,0.6,0.4,1.2,0.6,1.8c0.4,1,0.6,1.9,1,2.9
			c1.6,4.3,2.7,8.4,2.7,12.5C185.2,45.5,183,45.5,182.2,45.5z M252.6,17c0,9.4-6.2,28.1-10.1,28.1c0,0-0.6-0.6-0.8-3.5
			c0-0.4,0-0.6,0-0.8c0-12.1,6.4-29.4,9-29.4c0.2,0,0.4,0,0.6,0.2C252.2,12.3,252.6,14.7,252.6,17z"/>
	</g>
	<g>
		<path class="st1" d="M201.5,26.2l-0.2,0.4C201.5,26.4,201.5,26.2,201.5,26.2L201.5,26.2z"/>
	</g>
	<g>
		<path class="st1" d="M207.6,30.1c-0.2,0.6-0.4,0.8-0.6,1.4l0,0L207.6,30.1c0-0.2,0.2-0.2,0.2-0.4L207.6,30.1z M207.6,30.1
			c-0.2,0.6-0.4,0.8-0.6,1.4l0,0L207.6,30.1c0-0.2,0.2-0.2,0.2-0.4L207.6,30.1z"/>
	</g>
</g>
<g>
	<path class="st1" d="M153,122c2.3-2.3,4.1-6.8,5.5-13.1c-9.9-1.4-14.8-9.9-14.8-18.7c0-14.8,11.1-22.6,22.4-22.6
		c12.5,0,23.8,8.4,23.8,26.9c0,15.8-9,32.9-23.4,32.9c-6.4,0-10.3-1.2-13.1-2.1c-2.7,1.8-5.6,2.5-8.6,2.5l1.4-7.6
		C148.4,120.1,150.7,120.9,153,122z M184,95.9c0-18.1-8-25.5-18.1-25.5c-9.7,0-17.9,8.4-17.9,20.3c0,7.4,3.5,14.6,10.7,15.8
		c0.6-2.9,1.2-6.4,1.8-9.9c1.4-9.9,2.5-16.6,4.1-20.8l4.9,1.2c-1.6,4.1-2.9,9.9-4.1,19.5c-0.6,3.7-1,7-1.8,9.9
		c5.3-1.2,8.4-6,8.4-10.5c0-1.9-0.6-3.9-1.8-5.5l3.9-3.5c1.8,2.3,2.7,5.3,2.7,8c0,6.8-5.3,13.6-14,14.6c-1.8,6.6-4.5,11.1-7.2,14
		c2.7,1,6,1.8,10.3,1.8C177.8,124.8,184,109.8,184,95.9z"/>
	<path class="st1" d="M198.6,91c-1.8,8.2-3.3,14.4-3.3,18.7c0,1.6,0.6,1.8,1,1.8c1.4,0,3.1-2.9,5.5-9c0.4,0,1.6,0.4,1.6,0.6l0,0
		c-2.3,6-4.1,12.3-8.6,12.3c-2.9,0-3.9-2.7-3.9-6.4c0-5.8,2.3-14.4,3.1-18.1h4.7V91z M194.9,85.4c0-1.8,1.4-4.1,3.7-4.1
		c1.8,0,2.5,1.4,2.5,2.7c0,1.8-1.4,4.1-3.7,4.1C195.7,88.1,194.9,86.8,194.9,85.4z"/>
	<path class="st1" d="M210.1,101.4c1-1.8,1.8-4.1,1.8-5.6c0-1.2-0.4-1.8-1-1.8c-2.7,0-5.3,6.4-5.3,11.3c0,3.3,1,6,3.9,6
		c2.5,0,5.3-2.9,7.6-8.8c0.4,0,1.6,0.6,1.6,0.6c-1.8,4.1-5.6,12.5-11.3,12.5c-4.1,0-6-4.1-6-9.2c0-7.2,3.7-15.8,9.5-15.8
		c2.9,0,4.1,2.5,4.1,5.5c0,2.3-0.6,4.9-1.8,7.2L210.1,101.4z"/>
	<path class="st1" d="M229.6,91h3.9c-1.8,7-2.7,12.7-3.3,18.1c-0.2,0.6-0.2,1-0.2,1.4c0,0.8,0.2,1.2,0.6,1.2c0.6,0,2.9-2.5,5.3-9.2
		c0.4,0,1.6,0.6,1.6,0.6c-3.1,8.6-5.8,12.3-8.2,12.3c-1.8,0-2.7-1.6-2.7-5.3c0-0.2,0-0.4,0-0.6c-1.2,3.1-2.9,6-6.2,6
		c-2.7,0-3.7-2.9-3.7-6.6c0-7.6,4.1-18.5,9.2-18.5c1.9,0,2.9,1.2,3.5,3.5L229.6,91z M220.8,108.4c0,1.8,0.4,2.7,1.2,2.7
		c2.5,0,5.5-8.8,5.5-13.4c0-1.9-0.6-3.3-1.8-3.3C223.6,94.4,220.8,103.7,220.8,108.4z"/>
	<path class="st1" d="M242.6,91c-1.8,8.2-3.3,14.4-3.3,18.7c0,1.6,0.6,1.8,1,1.8c1.4,0,3.1-2.9,5.5-9c0.4,0,1.6,0.4,1.6,0.6l0,0
		c-2.3,6-4.1,12.3-8.6,12.3c-2.9,0-3.9-2.7-3.9-6.4c0-5.8,2.3-14.4,3.1-18.1h4.7V91z M238.7,85.4c0-1.8,1.4-4.1,3.7-4.1
		c1.8,0,2.5,1.4,2.5,2.7c0,1.8-1.4,4.1-3.7,4.1C239.5,88.1,238.7,86.8,238.7,85.4z"/>
	<path class="st1" d="M253.2,111.5c1.2,0,2.9-2.9,5.3-8.8c0.4,0,1.6,0.4,1.6,0.6l0,0c-2.3,6-4.1,12.3-8.6,12.3
		c-2.5,0-3.5-1.8-3.5-4.1c0-3.5,2.5-7.2,2.5-9.9c0-1.8-0.6-2.9-1-3.9l-2.1,5.6c0,0-1.6-0.4-1.6-0.6l0,0c1-2.5,1.8-5.3,2.1-7.6
		c-0.6-1.2-1-2.7-1-4.5s0.4-3.9,1.2-6.4l4.1,1.2c-0.2,3.5-0.6,6-1.6,8.8c1.8,1.8,4.1,3.9,4.1,7c0,3.3-2.5,7.8-2.5,9.7
		C252.2,111.1,252.6,111.5,253.2,111.5z"/>
	<path class="st1" d="M273.6,102.5c0.4,0,1.6,0.6,1.6,0.6c-2.7,7-5.3,12.5-10.5,12.5c-4.7,0-6.4-4.1-6.4-9.2c0-7.2,4.1-16,9.9-16
		c2.7,0,4.1,1.8,4.1,4.3c0,3.9-3.1,8.8-9.4,9.9c0,0.4,0,0.6,0,0.8c0,3.1,0.8,5.6,3.3,5.6C268.9,111.3,271.7,108,273.6,102.5z
		 M262.7,102.7c4.1-1.9,5.6-5.6,5.6-7.6c0-0.8-0.4-1.4-0.8-1.4C265.4,94,263.5,98.5,262.7,102.7z"/>
</g>
<g>
	<path class="st2" d="M143.5,80.9c-2.7,6.6-6.8,10.9-13.2,10.9c-1.8,0-3.3-0.4-4.9-0.8c-9.5-3.5-13.2-18.5-13.2-39.7
		c0-26.3,5.6-62.5,12.7-99.4c0-0.2,0.2-0.6,0.2-0.6l-8-3.7c-12.9,9.7-21.6,35.3-31.6,60.6c-5.1-2.5-10.5-4.1-16.4-4.9
		C67.9,3.2,66.7,3,65.5,3c-1.8-5.1-4.7-9.5-9-12.9c-5.1-4.1-12.1-6.6-21.2-6.6C5-16.5-11.2,9-11.2,33.6c0,6.2,1,12.3,3.1,17.9
		c5.5,14.8,18.3,26.3,39.2,26.3c3.3,0,6.4-0.4,9.5-1c0.4,0,0.6-0.2,1-0.2c24.7-5.6,38-31,48.3-57.7c4.7,3.9,8.2,9.4,9.9,16.2l0,0
		c0.6,2.3,0.8,4.9,1,7.6c-0.2,2.9-0.2,6-0.2,9c0,12.1,1.4,22.2,4.3,30.2c4.5,12.1,13.1,18.9,26.7,18.9c9.7,0,16.9-5.3,21.2-15.4
		c0.2-0.4,0.4-0.6,0.4-1L143.5,80.9z M-0.7,34.5c0-19.3,10.1-40.3,28.6-44.4c0.6-0.2,1.2-0.4,1.8-0.4c1.8-0.4,3.3-0.4,5.3-0.4
		c10.7,0,17.5,6.2,20.5,14.2c-0.4,0-0.6,0-0.8,0.2c-17.3,2.1-33.3,12.1-37,28.4l2.1,0.6l7.8,2.5c2.9-13.2,15.6-21.6,29.2-24v1.8
		c0,1.8-0.2,3.3-0.6,5.1c-1.6,8.4-6.6,16-15.4,18.7l1.2,2.9l2.9,6.6C59.5,42,67.5,27.7,67.5,14.1c0-1,0-1.9-0.2-2.9
		c5.5,0.4,10.9,1.6,15.6,3.7c-0.6,1.4-1.2,2.7-1.8,4.1C69.4,47.2,55.2,72.5,31.6,72.5c-5.8,0-10.9-1.4-15-3.5
		C5,62.4-0.7,48.8-0.7,34.5z M92.4,12.5c7.4-20.3,13.2-40.3,21.2-53.6h0.2c-1.9,9-3.7,17.7-5.3,26.3c-2.3,12.7-4.3,24.9-5.6,36.2
		c-0.2,1.2-0.4,2.5-0.4,3.7C99.8,20.1,96.5,15.8,92.4,12.5z"/>
	<path class="st2" d="M168.2-22.1c-0.8-1.6-2.3-2.5-4.7-2.5c-3.1,0-5.5,1.8-6.8,4.3c-0.8,1.6-1.4,3.1-1.4,4.9c0,0.4,0,0.6,0,1
		c0.2,1.2,0.6,2.3,1.4,3.1c0.8,1,2.3,1.8,4.1,1.8c5.3,0,8.2-4.9,8.2-9C169.2-19.8,168.8-21.2,168.2-22.1z"/>
	<path class="st2" d="M269.5,22.5c-2.7,6.6-5.1,11.5-7,14.6c-2.3,3.7-4.1,5.3-4.7,5.3c-0.6,0-1-0.8-1-2.5c0-0.8,0-1.8,0.2-2.9
		c1.6-10.9,3.7-22.8,6.8-37.2c0.2-0.8,0.4-1.6,0.6-2.3h-8.2l-0.6,2.7l-0.8,4.1c-0.4-2.1-1-3.9-1.8-5.3c-1.4-1.8-3.1-2.7-5.6-2.7
		c-8.2,0-15.2,13.3-18.3,26.7c-0.8,2.1-1.8,4.1-2.5,6.2c-1,2.1-1.9,4.1-3.1,6v-0.6c0-13.1-11.3-25.1-11.7-34.9
		c1.4-4.7,2.3-9.7,3.1-15.4c0.2-0.6,0.2-1.2,0.4-1.8l-7.8-1.6c-1.8,5.6-2.7,10.9-2.7,15.6c0,4.1,0.6,7.6,1.4,11.1
		c-0.6,1.3-1.1,2.8-1.7,3.9c0,0.1,0,0.1-0.1,0.2l2.3,1.2L207,13l0.4,0.1c1.6,5.1,3.3,9.5,4.7,13.8c0.8,2.9,1.4,5.6,1.4,8.6
		c0,4.1-1.7,6.4-4.5,6.4c-0.2,0-0.2,0-0.4,0c-1,0-1.8-0.4-2.7-0.8c-0.6-0.6-1.4-1.4-1.9-2.3c0,0-0.2-0.2-0.2-0.4l-7,5.3
		c0.6,1.6,1.4,2.9,2.3,4.1c2.1,2.5,5.5,4.1,9.2,4.1c8.4,0,14-5.8,18.5-14c0.4-0.6,0.6-1.2,0.8-1.8v0.8c0,3.7,0.6,7,1.6,9.6
		c0.2,0.4,0.4,0.6,0.6,1c0.7,1.4,1.5,2.4,2.5,3.1c1,0.7,2.2,1,3.7,1c6.6,0,10.9-6.2,13.4-13.3v1.4c0,4.5,0.6,7.6,2,9.4
		c1,1.4,2.1,1.9,3.9,1.9c5.3,0,10.9-8,17.9-26.1c0.2-0.2,0.2-0.6,0.4-0.6C272.8,23.4,270.3,22.5,269.5,22.5z M251.4,11.9
		c0,9.2-4.9,24.3-9.6,28.6c-0.8,0.6-1.4,1-2.3,1c-1.8,0-2.5-2.5-2.5-6c0-10.5,6-31,10.9-31c2.3,0,3.3,2.3,3.5,5.8V11.9z"/>
	<path class="st2" d="M207,13l-0.2-0.1l-2.3-1.2c0-0.1,0.1-0.1,0.1-0.2l-0.5-0.2c-1.6,4.1-3.1,7.8-4.3,10.7c-1,2.3-1.7,4.5-2.7,6.4
		c-1,2.1-1.9,4.3-3.1,6V34c0-13.1-11.3-24.9-11.7-34.9c1.2-4.7,2.3-9.7,3.1-15.4c0.2-0.6,0.4-1.2,0.4-1.8l-7.8-1.6
		c-0.8,2.3-1.2,4.7-1.8,6.8c-0.4,3.3-0.8,6-0.8,8.8c0,3.9,0.6,7.6,1.4,11.1c-0.6,1.4-1.2,2.7-1.8,4.1l-0.9,3
		c-1.3,3.1-2.3,5.9-3.1,8.3c-1.9,5-3.7,9-5.2,12c-1.6,3.1-3,5.2-4.3,6.5c-0.8,0.8-1.8,1.4-2.5,1.4c-1,0-2.3-0.6-2.3-4.1
		c0-9.1,3.1-21.8,6.8-39c0.2-0.8,0.4-1.6,0.6-2.3H154c-1.4,5.6-4.1,15.8-5.6,25.9c-1.9,5.1-3.9,9.1-5.6,12.3
		c-2.1,3.9-4.3,6.4-6.2,6.8c-0.4,0.2-0.6,0.2-1,0.2c-2.7,0-4.5-2.5-4.5-10.1c0-3.7,0.4-8.2,1-13.2c4.7-5.6,12.3-16.9,17.1-32.3
		c1.2-3.7,3.5-11.9,3.5-18.7c0-3.1-0.6-6.2-1.9-8.2c-1.2-1.8-2.9-2.7-5.8-2.7c-6.6,0-14,13.2-19.3,42.3c-2.3,13.3-3.7,24.4-3.7,32.9
		c0,5.8,0.6,10.5,2.1,13.6c0.8,1.7,1.8,3,3.1,3.9c1.3,0.9,2.8,1.4,4.5,1.4c5.6,0,10.1-5.1,14.8-15.4c0.2-0.4,0.4-0.6,0.6-1v2
		c0,3.7,0.6,6.8,1.6,9.1c0.2,0.2,0.2,0.6,0.4,0.6c1.4,2.5,3.3,3.9,6.4,3.9c4.2,0,7.2-2.6,10-6.8c0.2-0.3,0.4-0.6,0.6-0.9
		c3.1-5.3,5.4-12.3,8.2-19.3c1.3-3.4,2.8-6.8,4-10.5c0,0,0,0,0,0l0,0l0.1,0c1.8,5.1,3.5,9.7,4.7,14c0.8,2.9,1.4,5.6,1.4,8.6
		c0,4.5-1.6,6.4-4.5,6.4c-0.2,0-0.2,0-0.4,0c-1,0-1.9-0.2-2.7-0.8c-0.6-0.4-1.2-1.2-1.8-1.9c0,0-0.2-0.4-0.4-0.6l-7,5.3
		c0.8,2.1,1.9,3.9,3.7,5.3c1.9,1.8,4.9,2.7,7.8,2.7c6,0,10.9-3.3,14.8-8.6c0.2-0.3,0.5-0.6,0.7-1c1.6-2.3,3.1-4.9,4.5-7.7
		c1.6-3.2,3-6.7,4.3-10.2c1.2-3.3,2.7-7,4.1-10.9L207,13z M146.4-35c0.6,0,1.2,1,1.2,2.5C147.4-18.3,138.8,1,133,11.8
		C136.5-9.7,143.3-35,146.4-35z"/>
	<path class="st2" d="M207,13l-0.2-0.1l-2.3-1.2c0-0.1,0.1-0.1,0.1-0.2l1.9,0.9L207,13z"/>
</g>
<g>
	<path d="M86.2,150.2c0,1.5-0.2,2.8-1.3,4c-1.1,1.2-2.9,1.9-4.5,1.9c-3.3,0-6.1-2.8-6.1-6.1c0-3.4,2.8-6.2,6.2-6.2
		c2.2,0,3.9,1.1,5.2,2.8l-0.6,0.5c-1.1-1.6-2.7-2.6-4.6-2.6c-2.9,0-5.4,2.6-5.4,5.4c0,3,2.4,5.4,5.4,5.4c1.3,0,2.5-0.5,3.5-1.3
		c1-0.9,1.4-1.9,1.5-3.2h-4.3v-0.7H86.2z"/>
	<path d="M94,155.9h-0.9l-3.9-5.7h-0.4v5.7H88v-12h1.5c1,0,1.9,0,2.7,0.6c0.9,0.6,1.2,1.6,1.2,2.6c0,2.1-1.4,3.2-3.4,3.1L94,155.9z
		 M89.8,149.6c0.7,0,1.5,0,2.1-0.6c0.6-0.5,0.8-1.2,0.8-1.9c0-0.9-0.4-1.8-1.3-2.2c-0.6-0.3-1.4-0.3-2.1-0.3h-0.5v4.9H89.8z"/>
	<path d="M97,152l-1.6,3.9h-0.8l5-12.4l5,12.4h-0.8l-1.6-3.9H97z M99.6,145.5l-2.3,5.8h4.7L99.6,145.5z"/>
	<path d="M106.7,155.9H106v-12h2.1c0.9,0,1.8,0.1,2.6,0.7c0.7,0.6,1.1,1.5,1.1,2.5c0,0.9-0.3,1.8-1,2.4c-0.7,0.6-1.7,0.8-2.7,0.8
		h-1.3V155.9z M108.1,149.5c0.8,0,1.5-0.1,2.1-0.7c0.5-0.5,0.8-1.1,0.8-1.8c0-0.7-0.3-1.5-0.9-1.9c-0.6-0.5-1.4-0.5-2.1-0.5h-1.3
		v4.9H108.1z"/>
	<path d="M121.5,149V144h0.8v12h-0.8v-6.2h-7.3v6.2h-0.8v-12h0.8v5.1H121.5z"/>
	<path d="M125.6,155.9h-0.8v-12h0.8V155.9z"/>
	<path d="M137.7,146.4c-0.9-1.1-2.5-1.9-4-1.9c-3,0-5.4,2.6-5.4,5.5c0,1.4,0.6,2.7,1.6,3.7c1,1,2.4,1.7,3.8,1.7c1.4,0,3.1-0.7,4-1.8
		v1c-1.1,0.9-2.5,1.5-4,1.5c-3.3,0-6.2-2.8-6.2-6.1c0-3.4,2.9-6.2,6.3-6.2c1.4,0,2.9,0.6,4,1.6V146.4z"/>
	<path d="M144.8,144h2.2c1.7,0,3.1,0.3,4.4,1.5c1.3,1.2,1.9,2.8,1.9,4.5c0,1.7-0.6,3.2-1.8,4.4c-1.3,1.3-2.7,1.6-4.5,1.6h-2.2V144z
		 M147,155.2c1.6,0,2.9-0.3,4-1.4c1-1,1.6-2.4,1.6-3.8c0-1.5-0.6-3-1.7-4c-1.1-1-2.4-1.3-3.9-1.3h-1.4v10.5H147z"/>
	<path d="M155.9,144.7v4.3h4.8v0.7h-4.8v5.5h5v0.7h-5.7v-12h5.7v0.7H155.9z"/>
	<path d="M168.8,145.9c-0.5-0.9-1.3-1.4-2.4-1.4c-1.3,0-2.3,1-2.3,2.3c0,1.3,1.2,1.8,2.2,2.2l2.3,1.2c0.9,0.6,1.4,1.3,1.4,2.4
		c0,2-1.8,3.5-3.7,3.5c-1.7,0-3-1-3.5-2.6l0.7-0.3c0.5,1.3,1.4,2.2,2.9,2.2c1.6,0,3-1.2,3-2.8c0-1.3-1.4-1.9-2.4-2.4l-2.2-1.1
		c-0.8-0.5-1.2-1.2-1.2-2.1c0-1.8,1.3-3,3.1-3c1.2,0,2.3,0.7,2.9,1.7L168.8,145.9z"/>
	<path d="M172.6,155.9h-0.8v-12h0.8V155.9z"/>
	<path d="M186.4,150.2c0,1.5-0.2,2.8-1.3,4c-1.1,1.2-2.9,1.9-4.5,1.9c-3.3,0-6.1-2.8-6.1-6.1c0-3.4,2.8-6.2,6.2-6.2
		c2.2,0,3.9,1.1,5.2,2.8l-0.6,0.5c-1.1-1.6-2.7-2.6-4.6-2.6c-2.9,0-5.4,2.6-5.4,5.4c0,3,2.4,5.4,5.4,5.4c1.3,0,2.5-0.5,3.5-1.3
		c1-0.9,1.4-1.9,1.5-3.2h-4.3v-0.7H186.4z"/>
	<path d="M199.1,156.3l-10-10.7v10.3h-0.8v-12.1l10,10.6V144h0.8V156.3z"/>
	<path d="M202.4,144.7v4.3h4.8v0.7h-4.8v5.5h5v0.7h-5.7v-12h5.7v0.7H202.4z"/>
	<path d="M215.6,155.9h-0.9l-3.9-5.7h-0.4v5.7h-0.8v-12h1.5c1,0,1.9,0,2.7,0.6c0.9,0.6,1.2,1.6,1.2,2.6c0,2.1-1.4,3.2-3.4,3.1
		L215.6,155.9z M211.4,149.6c0.7,0,1.5,0,2.1-0.6c0.6-0.5,0.8-1.2,0.8-1.9c0-0.9-0.4-1.8-1.3-2.2c-0.6-0.3-1.4-0.3-2.1-0.3h-0.5v4.9
		H211.4z"/>
</g>
<path class="st2" d="M178.1,12.7L178.1,12.7C178,12.7,178,12.7,178.1,12.7L178.1,12.7z"/>
</svg>
