<?xml version="1.0" encoding="utf-8"?>
<!-- Generator: Adobe Illustrator 18.1.0, SVG Export Plug-In . SVG Version: 6.00 Build 0)  -->
<svg version="1.1" id="Layer_1" xmlns="http://www.w3.org/2000/svg" xmlns:xlink="http://www.w3.org/1999/xlink" x="0px" y="0px"
	 viewBox="0 0 630 324" enable-background="new 0 0 630 324" xml:space="preserve">
<g enable-background="new    ">
	<path fill="#333333" d="M61.8,85.8h11.3c-4.8,25.3-7.8,45.9-10,64.7c-0.3,2.1-0.3,3.6-0.3,4.9c0,2.9,0.5,4.2,1.3,4.2
		c1.8,0,8.4-9.1,16.1-32.7c1,0,4.5,1.5,4.5,2.7c-9.7,30.5-17.5,43.8-24.8,43.8c-5.1,0-8-5.5-8-18.7c0-0.6,0-1.3,0-2.1
		c-3.7,11.6-9.2,21.7-18.5,21.7c-7.8,0-11-10.3-11-24.2c0-26.8,12.3-66.4,27.4-66.4c5.9,0,9.2,4.2,10.3,12.8L61.8,85.8z M35.7,148.2
		c0,5.9,1,9.9,3.3,9.9c7.3,0,16.4-31,16.4-48.7c0-7-1.4-12-4.9-12C43.8,97.4,35.7,130.9,35.7,148.2z"/>
	<path fill="#333333" d="M116.1,126.9c0.8,0,3.8,1.5,3.8,2.5c0,0.2,0,0.2,0,0.2c-9.4,30.5-16.7,44.7-27.1,44.7
		c-9.6,0-13.4-11.2-13.4-31c0-13.9,1.9-32.2,5.1-53.9c7.2-47.8,17.2-69.3,26.4-69.3c8.3,0,10.7,8,10.7,17.7
		c0,11.2-3.2,24.7-4.8,30.6c-6.5,24.9-17.2,43.6-23.6,52.9c-0.8,8.2-1.3,15.6-1.3,21.7c0,12.8,2.4,16.8,6,16.8
		C103.2,159.8,109.3,148,116.1,126.9z M113.1,32.9c-4.3,0-13.7,41.1-18.3,76.5c8-17.3,19.7-49.1,19.9-72.3
		C114.7,34.4,113.9,32.9,113.1,32.9z"/>
	<path fill="#333333" d="M137.1,85.6c-5.6,29.7-10.2,51.8-10.2,67.4c0,5.5,1.8,6.5,3.2,6.5c4.1,0,9.4-10.7,16.4-32.5
		c0.8,0,4.5,1.3,4.5,2.5v0.2c-7,21.7-12.6,43.8-25.6,43.8c-8.6,0-11.5-9.5-11.5-22.7c0-21.1,7-51.4,9.7-65.1H137.1z M125.5,64.8
		c0-6.9,4.1-15,11.1-15c5.3,0,7.5,4.6,7.5,9.9c0,6.9-4.1,14.8-11.1,14.8C127.9,74.5,125.5,70,125.5,64.8z"/>
	<path fill="#333333" d="M151.5,153c2.1,4.2,4,5.7,7,5.7c4,0,6.2-3.4,6.2-10.3c0-11.8-4.6-23.2-8.1-36.7c-1.8,6.3-3.8,12.2-5.6,17.9
		c0,0-4.5-1-4.5-2.5v-0.2c2.1-6.5,5.1-15,8.1-24.2c-1.1-5.7-1.9-11.8-1.9-18.3c0-7.6,1.1-16,3.7-25.3l10.8,2.5
		c-1.3,10.3-2.9,19.4-4.8,27.8c0.5,16,16.1,35.8,16.1,57.1v0.8c3-5.9,5.6-12.9,8-20.4c1,0,4.5,1.5,4.5,2.7
		c-7.3,22.8-16.2,44.7-33.4,44.7c-7.5,0-13.5-5.1-15.8-12.9L151.5,153z"/>
	<path fill="#333333" d="M191.4,153c2.1,4.2,4,5.7,7,5.7c4,0,6.2-3.4,6.2-10.3c0-11.8-4.6-23.2-8.1-36.7c-1.8,6.3-3.8,12.2-5.6,17.9
		c0,0-4.5-1-4.5-2.5v-0.2c2.1-6.5,5.1-15,8.1-24.2c-1.1-5.7-1.9-11.8-1.9-18.3c0-7.6,1.1-16,3.7-25.3l10.8,2.5
		c-1.3,10.3-2.9,19.4-4.8,27.8c0.5,16,16.1,35.8,16.1,57.1v0.8c3-5.9,5.6-12.9,8-20.4c1,0,4.5,1.5,4.5,2.7
		c-7.3,22.8-16.2,44.7-33.4,44.7c-7.5,0-13.5-5.1-15.8-12.9L191.4,153z"/>
	<path fill="#333333" d="M263.4,85.8h11.3c-4.8,25.3-7.8,45.9-10,64.7c-0.3,2.1-0.3,3.6-0.3,4.9c0,2.9,0.5,4.2,1.3,4.2
		c1.8,0,8.4-9.1,16.1-32.7c1,0,4.5,1.5,4.5,2.7c-9.7,30.5-17.5,43.8-24.8,43.8c-5.1,0-8-5.5-8-18.7c0-0.6,0-1.3,0-2.1
		c-3.7,11.6-9.2,21.7-18.5,21.7c-7.8,0-11-10.3-11-24.2c0-26.8,12.3-66.4,27.4-66.4c5.9,0,9.2,4.2,10.3,12.8L263.4,85.8z
		 M237.3,148.2c0,5.9,1,9.9,3.3,9.9c7.3,0,16.4-31,16.4-48.7c0-7-1.4-12-4.9-12C245.4,97.4,237.3,130.9,237.3,148.2z"/>
	<path fill="#333333" d="M356.8,22.6h12.6c-0.6,16.2-6.4,55.2-13.2,86.8c-3,20.4-4.3,32.4-4.3,38.6c0,4,0.5,5.5,1.6,5.5
		c3.7,0,8.4-10.8,13.5-26.6c1,0,4.5,1.5,4.5,2.7c-9.7,30.5-18.8,43.8-26.1,43.8c-5.1,0-8-5.5-8-18.7c0-0.6,0-1.3,0-2.1
		c-3.7,11.6-9.2,21.7-18.3,21.7c-7.8,0-11-10.5-11-24.2c0-26.8,12.1-66.4,27.2-66.4c5.9,0,9.2,4.2,10.3,12.8L356.8,22.6z
		 M321.5,148.2c0,5.9,1,9.9,3.2,9.9c7.3,0,16.4-31,16.4-48.7c0-7-1.4-12-4.9-12C329.3,97.4,321.5,131.1,321.5,148.2z"/>
	<path fill="#333333" d="M388,85.6c-5.6,29.7-10.2,51.8-10.2,67.4c0,5.5,1.8,6.5,3.2,6.5c4.1,0,9.4-10.7,16.4-32.5
		c0.8,0,4.5,1.3,4.5,2.5v0.2c-7,21.7-12.6,43.8-25.6,43.8c-8.6,0-11.5-9.5-11.5-22.7c0-21.1,7-51.4,9.7-65.1H388z M376.4,64.8
		c0-6.9,4.1-15,11.1-15c5.3,0,7.5,4.6,7.5,9.9c0,6.9-4.1,14.8-11.1,14.8C378.8,74.5,376.4,70,376.4,64.8z"/>
	<path fill="#333333" d="M422.6,122.7c3.2-6.5,5.3-14.8,5.3-20.6c0-4-1-6.7-3.2-6.7c-8.3,0-15.4,22.7-15.4,40.7
		c0,12,3.2,21.9,11.3,21.9c7.6,0,16.2-10.3,23.2-31.2c1,0,4.5,1.5,4.5,2.7c-4.8,15.2-17,44.7-33.9,44.7c-12.4,0-17.8-15.2-17.8-33.3
		c0-25.9,11.1-57.3,28.8-57.3c9.1,0,12.7,8.8,12.7,19.8c0,8.2-2.1,17.5-5.3,25.7L422.6,122.7z"/>
	<path fill="#333333" d="M480.7,85.8H492c-4.8,25.3-7.8,45.9-10,64.7c-0.3,2.1-0.3,3.6-0.3,4.9c0,2.9,0.5,4.2,1.3,4.2
		c1.8,0,8.4-9.1,16.1-32.7c1,0,4.5,1.5,4.5,2.7c-9.7,30.5-17.5,43.8-24.8,43.8c-5.1,0-8-5.5-8-18.7c0-0.6,0-1.3,0-2.1
		c-3.7,11.6-9.2,21.7-18.5,21.7c-7.8,0-11-10.3-11-24.2c0-26.8,12.3-66.4,27.4-66.4c5.9,0,9.2,4.2,10.3,12.8L480.7,85.8z
		 M454.6,148.2c0,5.9,1,9.9,3.3,9.9c7.3,0,16.4-31,16.4-48.7c0-7-1.4-12-4.9-12C462.7,97.4,454.6,130.9,454.6,148.2z"/>
	<path fill="#333333" d="M520,85.6c-5.6,29.7-10.2,51.8-10.2,67.4c0,5.5,1.8,6.5,3.2,6.5c4.1,0,9.4-10.7,16.4-32.5
		c0.8,0,4.5,1.3,4.5,2.5v0.2c-7,21.7-12.6,43.8-25.6,43.8c-8.6,0-11.5-9.5-11.5-22.7c0-21.1,7-51.4,9.7-65.1H520z M508.4,64.8
		c0-6.9,4.1-15,11.1-15c5.3,0,7.5,4.6,7.5,9.9c0,6.9-4.1,14.8-11.1,14.8C510.8,74.5,508.4,70,508.4,64.8z"/>
	<path fill="#333333" d="M551.5,158.9c3.5,0,9.1-10.1,16.1-32c0.8,0,4.5,1.3,4.5,2.5v0.2c-7,21.7-12.6,43.8-25.6,43.8
		c-7.5,0-10.3-5.7-10.3-14.3c0-12.4,7.3-25.9,7.3-35.6c0-5.7-1.4-10.1-3.2-14.1l-6.4,20.2c0,0-4.5-1-4.5-2.5v-0.2
		c2.9-9.1,4.9-18.7,6.5-27.8c-1.6-4.2-2.9-9.3-2.9-16c0-6.1,1.1-13.7,3.7-23.6l11.9,4.2c-0.6,12.6-1.9,21.7-4.5,31.6
		c5.3,6.5,12.1,14.1,12.1,24.9c0,12.2-7.3,28-7.3,34.6C549,157.7,549.9,158.9,551.5,158.9z"/>
	<path fill="#333333" d="M613.1,126.9c1,0,4.5,1.5,4.5,2.7c-8,24.9-15.9,44.7-31.5,44.7c-13.9,0-19.6-15.2-19.6-33.1
		c0-25.9,11.9-57.5,29.8-57.5c8,0,11.9,6.9,11.9,15.6c0,13.5-9.6,31.8-28.3,35.4c0,1,0,1.9,0,2.9c0,11.4,2.7,20.6,10,20.6
		C599.3,158.1,607.1,146.3,613.1,126.9z M580.3,127.5c11.9-7,17.2-20.2,17.2-27.2c0-2.9-1-4.8-2.5-4.8
		C588.5,95.5,582.3,111.7,580.3,127.5z"/>
</g>
<g enable-background="new    ">
	<path fill="none" stroke="#383838" stroke-width="2" stroke-miterlimit="10" d="M61.8,85.8h11.3c-4.8,25.3-7.8,45.9-10,64.7
		c-0.3,2.1-0.3,3.6-0.3,4.9c0,2.9,0.5,4.2,1.3,4.2c1.8,0,8.4-9.1,16.1-32.7c1,0,4.5,1.5,4.5,2.7c-9.7,30.5-17.5,43.8-24.8,43.8
		c-5.1,0-8-5.5-8-18.7c0-0.6,0-1.3,0-2.1c-3.7,11.6-9.2,21.7-18.5,21.7c-7.8,0-11-10.3-11-24.2c0-26.8,12.3-66.4,27.4-66.4
		c5.9,0,9.2,4.2,10.3,12.8L61.8,85.8z M35.7,148.2c0,5.9,1,9.9,3.3,9.9c7.3,0,16.4-31,16.4-48.7c0-7-1.4-12-4.9-12
		C43.8,97.4,35.7,130.9,35.7,148.2z"/>
	<path fill="none" stroke="#383838" stroke-width="2" stroke-miterlimit="10" d="M116.1,126.9c0.8,0,3.8,1.5,3.8,2.5
		c0,0.2,0,0.2,0,0.2c-9.4,30.5-16.7,44.7-27.1,44.7c-9.6,0-13.4-11.2-13.4-31c0-13.9,1.9-32.2,5.1-53.9
		c7.2-47.8,17.2-69.3,26.4-69.3c8.3,0,10.7,8,10.7,17.7c0,11.2-3.2,24.7-4.8,30.6c-6.5,24.9-17.2,43.6-23.6,52.9
		c-0.8,8.2-1.3,15.6-1.3,21.7c0,12.8,2.4,16.8,6,16.8C103.2,159.8,109.3,148,116.1,126.9z M113.1,32.9c-4.3,0-13.7,41.1-18.3,76.5
		c8-17.3,19.7-49.1,19.9-72.3C114.7,34.4,113.9,32.9,113.1,32.9z"/>
	<path fill="none" stroke="#383838" stroke-width="2" stroke-miterlimit="10" d="M137.1,85.6c-5.6,29.7-10.2,51.8-10.2,67.4
		c0,5.5,1.8,6.5,3.2,6.5c4.1,0,9.4-10.7,16.4-32.5c0.8,0,4.5,1.3,4.5,2.5v0.2c-7,21.7-12.6,43.8-25.6,43.8
		c-8.6,0-11.5-9.5-11.5-22.7c0-21.1,7-51.4,9.7-65.1H137.1z M125.5,64.8c0-6.9,4.1-15,11.1-15c5.3,0,7.5,4.6,7.5,9.9
		c0,6.9-4.1,14.8-11.1,14.8C127.9,74.5,125.5,70,125.5,64.8z"/>
	<path fill="none" stroke="#383838" stroke-width="2" stroke-miterlimit="10" d="M151.5,153c2.1,4.2,4,5.7,7,5.7
		c4,0,6.2-3.4,6.2-10.3c0-11.8-4.6-23.2-8.1-36.7c-1.8,6.3-3.8,12.2-5.6,17.9c0,0-4.5-1-4.5-2.5v-0.2c2.1-6.5,5.1-15,8.1-24.2
		c-1.1-5.7-1.9-11.8-1.9-18.3c0-7.6,1.1-16,3.7-25.3l10.8,2.5c-1.3,10.3-2.9,19.4-4.8,27.8c0.5,16,16.1,35.8,16.1,57.1v0.8
		c3-5.9,5.6-12.9,8-20.4c1,0,4.5,1.5,4.5,2.7c-7.3,22.8-16.2,44.7-33.4,44.7c-7.5,0-13.5-5.1-15.8-12.9L151.5,153z"/>
	<path fill="none" stroke="#383838" stroke-width="2" stroke-miterlimit="10" d="M191.4,153c2.1,4.2,4,5.7,7,5.7
		c4,0,6.2-3.4,6.2-10.3c0-11.8-4.6-23.2-8.1-36.7c-1.8,6.3-3.8,12.2-5.6,17.9c0,0-4.5-1-4.5-2.5v-0.2c2.1-6.5,5.1-15,8.1-24.2
		c-1.1-5.7-1.9-11.8-1.9-18.3c0-7.6,1.1-16,3.7-25.3l10.8,2.5c-1.3,10.3-2.9,19.4-4.8,27.8c0.5,16,16.1,35.8,16.1,57.1v0.8
		c3-5.9,5.6-12.9,8-20.4c1,0,4.5,1.5,4.5,2.7c-7.3,22.8-16.2,44.7-33.4,44.7c-7.5,0-13.5-5.1-15.8-12.9L191.4,153z"/>
	<path fill="none" stroke="#383838" stroke-width="2" stroke-miterlimit="10" d="M263.4,85.8h11.3c-4.8,25.3-7.8,45.9-10,64.7
		c-0.3,2.1-0.3,3.6-0.3,4.9c0,2.9,0.5,4.2,1.3,4.2c1.8,0,8.4-9.1,16.1-32.7c1,0,4.5,1.5,4.5,2.7c-9.7,30.5-17.5,43.8-24.8,43.8
		c-5.1,0-8-5.5-8-18.7c0-0.6,0-1.3,0-2.1c-3.7,11.6-9.2,21.7-18.5,21.7c-7.8,0-11-10.3-11-24.2c0-26.8,12.3-66.4,27.4-66.4
		c5.9,0,9.2,4.2,10.3,12.8L263.4,85.8z M237.3,148.2c0,5.9,1,9.9,3.3,9.9c7.3,0,16.4-31,16.4-48.7c0-7-1.4-12-4.9-12
		C245.4,97.4,237.3,130.9,237.3,148.2z"/>
	<path fill="none" stroke="#383838" stroke-width="2" stroke-miterlimit="10" d="M356.8,22.6h12.6c-0.6,16.2-6.4,55.2-13.2,86.8
		c-3,20.4-4.3,32.4-4.3,38.6c0,4,0.5,5.5,1.6,5.5c3.7,0,8.4-10.8,13.5-26.6c1,0,4.5,1.5,4.5,2.7c-9.7,30.5-18.8,43.8-26.1,43.8
		c-5.1,0-8-5.5-8-18.7c0-0.6,0-1.3,0-2.1c-3.7,11.6-9.2,21.7-18.3,21.7c-7.8,0-11-10.5-11-24.2c0-26.8,12.1-66.4,27.2-66.4
		c5.9,0,9.2,4.2,10.3,12.8L356.8,22.6z M321.5,148.2c0,5.9,1,9.9,3.2,9.9c7.3,0,16.4-31,16.4-48.7c0-7-1.4-12-4.9-12
		C329.3,97.4,321.5,131.1,321.5,148.2z"/>
	<path fill="none" stroke="#383838" stroke-width="2" stroke-miterlimit="10" d="M388,85.6c-5.6,29.7-10.2,51.8-10.2,67.4
		c0,5.5,1.8,6.5,3.2,6.5c4.1,0,9.4-10.7,16.4-32.5c0.8,0,4.5,1.3,4.5,2.5v0.2c-7,21.7-12.6,43.8-25.6,43.8
		c-8.6,0-11.5-9.5-11.5-22.7c0-21.1,7-51.4,9.7-65.1H388z M376.4,64.8c0-6.9,4.1-15,11.1-15c5.3,0,7.5,4.6,7.5,9.9
		c0,6.9-4.1,14.8-11.1,14.8C378.8,74.5,376.4,70,376.4,64.8z"/>
	<path fill="none" stroke="#383838" stroke-width="2" stroke-miterlimit="10" d="M422.6,122.7c3.2-6.5,5.3-14.8,5.3-20.6
		c0-4-1-6.7-3.2-6.7c-8.3,0-15.4,22.7-15.4,40.7c0,12,3.2,21.9,11.3,21.9c7.6,0,16.2-10.3,23.2-31.2c1,0,4.5,1.5,4.5,2.7
		c-4.8,15.2-17,44.7-33.9,44.7c-12.4,0-17.8-15.2-17.8-33.3c0-25.9,11.1-57.3,28.8-57.3c9.1,0,12.7,8.8,12.7,19.8
		c0,8.2-2.1,17.5-5.3,25.7L422.6,122.7z"/>
	<path fill="none" stroke="#383838" stroke-width="2" stroke-miterlimit="10" d="M480.7,85.8H492c-4.8,25.3-7.8,45.9-10,64.7
		c-0.3,2.1-0.3,3.6-0.3,4.9c0,2.9,0.5,4.2,1.3,4.2c1.8,0,8.4-9.1,16.1-32.7c1,0,4.5,1.5,4.5,2.7c-9.7,30.5-17.5,43.8-24.8,43.8
		c-5.1,0-8-5.5-8-18.7c0-0.6,0-1.3,0-2.1c-3.7,11.6-9.2,21.7-18.5,21.7c-7.8,0-11-10.3-11-24.2c0-26.8,12.3-66.4,27.4-66.4
		c5.9,0,9.2,4.2,10.3,12.8L480.7,85.8z M454.6,148.2c0,5.9,1,9.9,3.3,9.9c7.3,0,16.4-31,16.4-48.7c0-7-1.4-12-4.9-12
		C462.7,97.4,454.6,130.9,454.6,148.2z"/>
	<path fill="none" stroke="#383838" stroke-width="2" stroke-miterlimit="10" d="M520,85.6c-5.6,29.7-10.2,51.8-10.2,67.4
		c0,5.5,1.8,6.5,3.2,6.5c4.1,0,9.4-10.7,16.4-32.5c0.8,0,4.5,1.3,4.5,2.5v0.2c-7,21.7-12.6,43.8-25.6,43.8
		c-8.6,0-11.5-9.5-11.5-22.7c0-21.1,7-51.4,9.7-65.1H520z M508.4,64.8c0-6.9,4.1-15,11.1-15c5.3,0,7.5,4.6,7.5,9.9
		c0,6.9-4.1,14.8-11.1,14.8C510.8,74.5,508.4,70,508.4,64.8z"/>
	<path fill="none" stroke="#383838" stroke-width="2" stroke-miterlimit="10" d="M551.5,158.9c3.5,0,9.1-10.1,16.1-32
		c0.8,0,4.5,1.3,4.5,2.5v0.2c-7,21.7-12.6,43.8-25.6,43.8c-7.5,0-10.3-5.7-10.3-14.3c0-12.4,7.3-25.9,7.3-35.6
		c0-5.7-1.4-10.1-3.2-14.1l-6.4,20.2c0,0-4.5-1-4.5-2.5v-0.2c2.9-9.1,4.9-18.7,6.5-27.8c-1.6-4.2-2.9-9.3-2.9-16
		c0-6.1,1.1-13.7,3.7-23.6l11.9,4.2c-0.6,12.6-1.9,21.7-4.5,31.6c5.3,6.5,12.1,14.1,12.1,24.9c0,12.2-7.3,28-7.3,34.6
		C549,157.7,549.9,158.9,551.5,158.9z"/>
	<path fill="none" stroke="#383838" stroke-width="2" stroke-miterlimit="10" d="M613.1,126.9c1,0,4.5,1.5,4.5,2.7
		c-8,24.9-15.9,44.7-31.5,44.7c-13.9,0-19.6-15.2-19.6-33.1c0-25.9,11.9-57.5,29.8-57.5c8,0,11.9,6.9,11.9,15.6
		c0,13.5-9.6,31.8-28.3,35.4c0,1,0,1.9,0,2.9c0,11.4,2.7,20.6,10,20.6C599.3,158.1,607.1,146.3,613.1,126.9z M580.3,127.5
		c11.9-7,17.2-20.2,17.2-27.2c0-2.9-1-4.8-2.5-4.8C588.5,95.5,582.3,111.7,580.3,127.5z"/>
</g>
<path fill="#FFFFFF" stroke="#000000" stroke-miterlimit="10" d="M475.6,0L475.6,0C475.1,0,475.1,0,475.6,0L475.6,0z"/>
<g enable-background="new    ">
	<path fill="#F40B6A" d="M53.8,90.2h11.3c-4.8,25.3-7.8,45.9-10,64.7c-0.3,2.1-0.3,3.6-0.3,4.9c0,2.9,0.5,4.2,1.3,4.2
		c1.8,0,8.4-9.1,16.1-32.7c1,0,4.5,1.5,4.5,2.7c-9.7,30.5-17.5,43.8-24.8,43.8c-5.1,0-8-5.5-8-18.7c0-0.6,0-1.3,0-2.1
		c-3.7,11.6-9.2,21.7-18.5,21.7c-7.8,0-11-10.3-11-24.2c0-26.8,12.3-66.4,27.4-66.4c5.9,0,9.2,4.2,10.3,12.8L53.8,90.2z M27.7,152.7
		c0,5.9,1,9.9,3.3,9.9c7.3,0,16.4-31,16.4-48.7c0-7-1.4-12-4.9-12C35.8,101.8,27.7,135.3,27.7,152.7z"/>
	<path fill="#F40B6A" d="M108,131.3c0.8,0,3.8,1.5,3.8,2.5c0,0.2,0,0.2,0,0.2c-9.4,30.5-16.7,44.7-27.1,44.7
		c-9.6,0-13.4-11.2-13.4-31c0-13.9,1.9-32.2,5.1-53.9c7.2-47.8,17.2-69.3,26.4-69.3c8.3,0,10.7,8,10.7,17.7
		c0,11.2-3.2,24.7-4.8,30.6c-6.5,24.9-17.2,43.6-23.6,52.9c-0.8,8.2-1.3,15.6-1.3,21.7c0,12.8,2.4,16.8,6,16.8
		C95.2,164.3,101.2,152.5,108,131.3z M105,37.3c-4.3,0-13.7,41.1-18.3,76.5c8-17.3,19.7-49.1,19.9-72.3
		C106.6,38.8,105.8,37.3,105,37.3z"/>
	<path fill="#F40B6A" d="M129.1,90c-5.6,29.7-10.2,51.8-10.2,67.4c0,5.5,1.8,6.5,3.2,6.5c4.1,0,9.4-10.7,16.4-32.5
		c0.8,0,4.5,1.3,4.5,2.5v0.2c-7,21.7-12.6,43.8-25.6,43.8c-8.6,0-11.5-9.5-11.5-22.7c0-21.1,7-51.4,9.7-65.1H129.1z M117.4,69.3
		c0-6.9,4.1-15,11.1-15c5.3,0,7.5,4.6,7.5,9.9c0,6.9-4.1,14.8-11.1,14.8C119.8,79,117.4,74.4,117.4,69.3z"/>
	<path fill="#F40B6A" d="M143.4,157.4c2.1,4.2,4,5.7,7,5.7c4,0,6.2-3.4,6.2-10.3c0-11.8-4.6-23.2-8.1-36.7
		c-1.8,6.3-3.8,12.2-5.6,17.9c0,0-4.5-1-4.5-2.5v-0.2c2.1-6.5,5.1-15,8.1-24.2c-1.1-5.7-1.9-11.8-1.9-18.3c0-7.6,1.1-16,3.7-25.3
		l10.8,2.5c-1.3,10.3-2.9,19.4-4.8,27.8c0.5,16,16.1,35.8,16.1,57.1v0.8c3-5.9,5.6-12.9,8-20.4c1,0,4.5,1.5,4.5,2.7
		c-7.3,22.8-16.2,44.7-33.4,44.7c-7.5,0-13.5-5.1-15.8-12.9L143.4,157.4z"/>
	<path fill="#F40B6A" d="M183.3,157.4c2.1,4.2,4,5.7,7,5.7c4,0,6.2-3.4,6.2-10.3c0-11.8-4.6-23.2-8.1-36.7
		c-1.8,6.3-3.8,12.2-5.6,17.9c0,0-4.5-1-4.5-2.5v-0.2c2.1-6.5,5.1-15,8.1-24.2c-1.1-5.7-1.9-11.8-1.9-18.3c0-7.6,1.1-16,3.7-25.3
		l10.8,2.5c-1.3,10.3-2.9,19.4-4.8,27.8c0.5,16,16.1,35.8,16.1,57.1v0.8c3-5.9,5.6-12.9,8-20.4c1,0,4.5,1.5,4.5,2.7
		c-7.3,22.8-16.2,44.7-33.4,44.7c-7.5,0-13.5-5.1-15.8-12.9L183.3,157.4z"/>
	<path fill="#F40B6A" d="M255.3,90.2h11.3c-4.8,25.3-7.8,45.9-10,64.7c-0.3,2.1-0.3,3.6-0.3,4.9c0,2.9,0.5,4.2,1.3,4.2
		c1.8,0,8.4-9.1,16.1-32.7c1,0,4.5,1.5,4.5,2.7c-9.7,30.5-17.5,43.8-24.8,43.8c-5.1,0-8-5.5-8-18.7c0-0.6,0-1.3,0-2.1
		c-3.7,11.6-9.2,21.7-18.5,21.7c-7.8,0-11-10.3-11-24.2c0-26.8,12.3-66.4,27.4-66.4c5.9,0,9.2,4.2,10.3,12.8L255.3,90.2z
		 M229.2,152.7c0,5.9,1,9.9,3.3,9.9c7.3,0,16.4-31,16.4-48.7c0-7-1.4-12-4.9-12C237.3,101.8,229.2,135.3,229.2,152.7z"/>
	<path fill="#F40B6A" d="M348.8,27h12.6c-0.6,16.2-6.4,55.2-13.2,86.8c-3,20.4-4.3,32.4-4.3,38.6c0,4,0.5,5.5,1.6,5.5
		c3.7,0,8.4-10.8,13.5-26.6c1,0,4.5,1.5,4.5,2.7c-9.7,30.5-18.8,43.8-26.1,43.8c-5.1,0-8-5.5-8-18.7c0-0.6,0-1.3,0-2.1
		c-3.7,11.6-9.2,21.7-18.3,21.7c-7.8,0-11-10.5-11-24.2c0-26.8,12.1-66.4,27.2-66.4c5.9,0,9.2,4.2,10.3,12.8L348.8,27z M313.4,152.7
		c0,5.9,1,9.9,3.2,9.9c7.3,0,16.4-31,16.4-48.7c0-7-1.4-12-4.9-12C321.2,101.8,313.4,135.5,313.4,152.7z"/>
	<path fill="#F40B6A" d="M380,90c-5.6,29.7-10.2,51.8-10.2,67.4c0,5.5,1.8,6.5,3.2,6.5c4.1,0,9.4-10.7,16.4-32.5
		c0.8,0,4.5,1.3,4.5,2.5v0.2c-7,21.7-12.6,43.8-25.6,43.8c-8.6,0-11.5-9.5-11.5-22.7c0-21.1,7-51.4,9.7-65.1H380z M368.3,69.3
		c0-6.9,4.1-15,11.1-15c5.3,0,7.5,4.6,7.5,9.9c0,6.9-4.1,14.8-11.1,14.8C370.7,79,368.3,74.4,368.3,69.3z"/>
	<path fill="#F40B6A" d="M414.5,127.1c3.2-6.5,5.3-14.8,5.3-20.6c0-4-1-6.7-3.2-6.7c-8.3,0-15.4,22.7-15.4,40.7
		c0,12,3.2,21.9,11.3,21.9c7.6,0,16.2-10.3,23.2-31.2c1,0,4.5,1.5,4.5,2.7c-4.8,15.2-17,44.7-33.9,44.7c-12.4,0-17.8-15.2-17.8-33.3
		c0-25.9,11.1-57.3,28.8-57.3c9.1,0,12.7,8.8,12.7,19.8c0,8.2-2.1,17.5-5.3,25.7L414.5,127.1z"/>
	<path fill="#F40B6A" d="M472.6,90.2h11.3c-4.8,25.3-7.8,45.9-10,64.7c-0.3,2.1-0.3,3.6-0.3,4.9c0,2.9,0.5,4.2,1.3,4.2
		c1.8,0,8.4-9.1,16.1-32.7c1,0,4.5,1.5,4.5,2.7c-9.7,30.5-17.5,43.8-24.8,43.8c-5.1,0-8-5.5-8-18.7c0-0.6,0-1.3,0-2.1
		c-3.7,11.6-9.2,21.7-18.5,21.7c-7.8,0-11-10.3-11-24.2c0-26.8,12.3-66.4,27.4-66.4c5.9,0,9.2,4.2,10.3,12.8L472.6,90.2z
		 M446.5,152.7c0,5.9,1,9.9,3.3,9.9c7.3,0,16.4-31,16.4-48.7c0-7-1.4-12-4.9-12C454.6,101.8,446.5,135.3,446.5,152.7z"/>
	<path fill="#F40B6A" d="M511.9,90c-5.6,29.7-10.2,51.8-10.2,67.4c0,5.5,1.8,6.5,3.2,6.5c4.1,0,9.4-10.7,16.4-32.5
		c0.8,0,4.5,1.3,4.5,2.5v0.2c-7,21.7-12.6,43.8-25.6,43.8c-8.6,0-11.5-9.5-11.5-22.7c0-21.1,7-51.4,9.7-65.1H511.9z M500.3,69.3
		c0-6.9,4.1-15,11.1-15c5.3,0,7.5,4.6,7.5,9.9c0,6.9-4.1,14.8-11.1,14.8C502.7,79,500.3,74.4,500.3,69.3z"/>
	<path fill="#F40B6A" d="M543.5,163.3c3.5,0,9.1-10.1,16.1-32c0.8,0,4.5,1.3,4.5,2.5v0.2c-7,21.7-12.6,43.8-25.6,43.8
		c-7.5,0-10.3-5.7-10.3-14.3c0-12.4,7.3-25.9,7.3-35.6c0-5.7-1.4-10.1-3.2-14.1l-6.4,20.2c0,0-4.5-1-4.5-2.5v-0.2
		c2.9-9.1,4.9-18.7,6.5-27.8c-1.6-4.2-2.9-9.3-2.9-16c0-6.1,1.1-13.7,3.7-23.6l11.9,4.2c-0.6,12.6-1.9,21.7-4.5,31.6
		c5.3,6.5,12.1,14.1,12.1,24.9c0,12.2-7.3,28-7.3,34.6C540.9,162.2,541.9,163.3,543.5,163.3z"/>
	<path fill="#F40B6A" d="M605.1,131.3c1,0,4.5,1.5,4.5,2.7c-8,24.9-15.9,44.7-31.5,44.7c-13.9,0-19.6-15.2-19.6-33.1
		c0-25.9,11.9-57.5,29.8-57.5c8,0,11.9,6.9,11.9,15.6c0,13.5-9.6,31.8-28.3,35.4c0,1,0,1.9,0,2.9c0,11.4,2.7,20.6,10,20.6
		C591.2,162.6,599,150.8,605.1,131.3z M572.3,131.9c11.9-7,17.2-20.2,17.2-27.2c0-2.9-1-4.8-2.5-4.8
		C580.4,99.9,574.2,116.1,572.3,131.9z"/>
</g>
<g>
	<g enable-background="new    ">
		<path fill="#2D2D2D" d="M163.6,246.3c-5.9,2.6-10.2,6.6-12.5,13.3c1.4-1.9,3-3.1,4.9-3.1c3.9,0,5.7,4.7,5.7,9.8
			c0,7.2-3.5,15.8-9.6,15.8c-5.1,0-7.3-5.5-7.3-11.7c0-14.1,8.5-25.7,17-28.9L163.6,246.3z M149.4,270.6c0,4.1,0.9,7,2.7,7
			c2.6,0,4.2-6.5,4.2-11.5c0-3.1-0.7-5.7-2.1-5.7C151.9,260.4,149.6,264.3,149.4,270.6z"/>
		<path fill="#2D2D2D" d="M164.4,281.6l0.4-3.7h3.5c1.8-14.1,3.6-21.5,3.6-21.5s-1.3,2.2-4.3,5.5l-1.7-4.2c4.1-3.2,8.8-9.6,8.8-9.6
			l3.1,1.2c-0.2,1.5-2.1,12.1-4.3,28.6h3.7l-0.4,3.7H164.4z"/>
		<path fill="#2D2D2D" d="M188,265.3c1,0.1,1.9,0.2,2.7,0.4c1.6-2.3,2.6-5.8,2.6-8.8c0-3-1-5.3-3.2-5.3c-1.8,0-3.5,2-3.5,5.2
			c0,0.9,0.2,2,0.5,3.1l-4.3,1.9c-0.5-1.3-0.7-2.8-0.7-4.4c0-4.8,2.6-9.8,8.2-9.8c5.5,0,7.9,4.5,7.9,9.6c0,3.9-1.4,8-4,10.6
			c2,2,2.9,5.1,2.9,8.2c0,6.6-4,13.8-10.7,13.8c-4.8,0-7.2-4.2-7.2-8.7c0-3,1.1-6.1,3.3-8.3l3.4,4.1c-1.3,1.4-2.1,3.4-2.1,5.1
			c0,1.9,0.9,3.4,2.9,3.4c3.2,0,5.2-5.6,5.2-10.5c0-1.8-0.3-3.6-0.9-5c-0.9,0.4-1.9,0.6-3,0.6c-0.3,0-0.5,0-0.9-0.1L188,265.3z"/>
	</g>
	<g enable-background="new    ">
		<path fill="#EA9F07" d="M231.9,265.1C231.9,265.2,231.9,265.2,231.9,265.1c-2.3,7.2-5.7,12.4-9,16.5l-1.3,9.4
			c-1,7.4-3.4,12.8-7.3,12.8c-2.7,0-4.7-1.9-4.7-5.8c0-5,3.9-9.2,8.4-14.4c0.4-2.2,0.6-4.5,1-6.8c-1.5,3.3-3.5,5.5-6,5.5
			c-3,0-4.2-3.9-4.2-9.3c0-10.3,4.7-25.4,10.5-25.4c1.9,0,2.9,1.3,3.4,3.9l0.5-3.1h5c-0.7,3.2-2.7,16.8-4.5,28.4
			c2.6-3.5,4.9-7.6,6.5-12.5C230.7,264.2,231.9,264.7,231.9,265.1z M214.3,299.9c1,0,1.5-1.5,1.9-3.7l1.2-7.8
			c-2.6,3.2-4.3,6.1-4.3,9.6C213,299.3,213.6,299.9,214.3,299.9z M213.9,272.4c0,2.3,0.4,3.8,1.3,3.8c2.8,0,6.3-11.9,6.3-18.7
			c0-2.7-0.5-4.6-1.9-4.6C217,252.9,213.9,265.7,213.9,272.4z"/>
		<path fill="#EA9F07" d="M238.6,276.5c1.3,0,3.5-3.9,6.2-12.3c0.3,0,1.7,0.5,1.7,0.9v0.1c-2.7,8.3-4.8,16.8-9.8,16.8
			c-2.9,0-4-2.2-4-5.5c0-4.7,2.8-9.9,2.8-13.6c0-2.2-0.5-3.9-1.2-5.4l-2.4,7.7c0,0-1.7-0.4-1.7-0.9v-0.1c1.1-3.5,1.9-7.1,2.5-10.6
			c-0.6-1.6-1.1-3.6-1.1-6.1c0-2.3,0.4-5.2,1.4-9l4.6,1.6c-0.2,4.8-0.7,8.3-1.7,12.1c2,2.5,4.6,5.4,4.6,9.6c0,4.7-2.8,10.7-2.8,13.3
			C237.7,276,238,276.5,238.6,276.5z"/>
		<path fill="#EA9F07" d="M259,248.4h4.3c-1.8,9.7-3,17.6-3.8,24.8c-0.1,0.8-0.1,1.4-0.1,1.9c0,1.1,0.2,1.6,0.5,1.6
			c0.7,0,3.2-3.5,6.2-12.5c0.4,0,1.7,0.6,1.7,1c-3.7,11.7-6.7,16.8-9.5,16.8c-2,0-3-2.1-3-7.1c0-0.2,0-0.5,0-0.8
			c-1.4,4.4-3.5,8.3-7.1,8.3c-3,0-4.2-3.9-4.2-9.3c0-10.3,4.7-25.4,10.5-25.4c2.3,0,3.5,1.6,4,4.9L259,248.4z M249,272.4
			c0,2.3,0.4,3.8,1.3,3.8c2.8,0,6.3-11.9,6.3-18.7c0-2.7-0.5-4.6-1.9-4.6C252.1,252.9,249,265.7,249,272.4z"/>
		<path fill="#EA9F07" d="M272.4,248.4l-0.5,3.9c1.6-2.9,3.4-4.7,5.4-4.7c3.4,0,4.9,4.3,4.9,9.9c0,7.1-2.3,16.3-5.8,21.6
			c5.3-1.5,8.2-7.8,10.4-14.9c0.4,0,1.7,0.6,1.7,1c-2.8,8.8-6.5,17.1-14,17.1c-2.6,0-4.9-1.2-6.2-4.2l-3.5,25.2h-4.1
			c0-0.2,0-0.4,0-0.7c0-5.6,1.3-12.9,2.5-18c1.9-13.7,4.3-31.4,4.6-36.3H272.4z M261,300.6c-0.1,0.4-0.1,0.9-0.1,1
			C260.9,301.5,261,301.1,261,300.6z M261.3,298.8c-0.1,0.4-0.1,0.6-0.1,0.9C261.1,299.4,261.2,299.1,261.3,298.8z M269.4,270.3
			c-0.1,0.4-0.1,0.9-0.1,1.4c0,2.3,0.5,4.5,2.1,4.5c2.8,0,5.4-12,5.4-18.7c0-2.7-0.4-4.6-1.3-4.6c-1.8,0-3.7,3.9-5.2,11.2
			L269.4,270.3z"/>
		<path fill="#EA9F07" d="M284.4,281.6c-0.1-0.7-0.1-1.3-0.1-2c0-5.8,1.9-11.7,1.9-11.7c2.1-15.5,4.8-33.2,7.3-40
			c1.2-3.1,3.3-4.5,5.1-4.5c3,0,4.2,1.8,4.2,4.6c0,5.9-5.2,15.9-9,21.4c-0.2,1.3-0.4,2.6-0.7,4c2-3.6,4.5-5.9,7.1-5.9
			c2.1,0,3.5,1.7,3.5,5.2c0,6.8-4,15.5-4,21.4c0,2.1,0.7,2.5,1.2,2.5c1.6,0,3.6-4.1,6.3-12.5c0.4,0,1.7,0.6,1.7,1
			c-2.7,8.3-5.4,16.8-10.4,16.8c-2.1,0-4.1-2-4.1-6.5c0-7.9,4-16,4-21.2c0-0.8-0.3-1.5-1-1.5c-2.6,0-5.9,7.1-8.2,28.8H284.4z
			 M299,228.2c-1,0-1.8,3.1-4,15.2c1.7-3.9,4.5-10.4,4.5-14.1C299.5,228.5,299.3,228.2,299,228.2z"/>
		<path fill="#EA9F07" d="M315.4,248.4c-2.1,11.4-3.9,19.8-3.9,25.8c0,2.1,0.7,2.5,1.2,2.5c1.6,0,3.6-4.1,6.3-12.5
			c0.3,0,1.7,0.5,1.7,0.9v0.1c-2.7,8.3-4.8,16.8-9.8,16.8c-3.3,0-4.4-3.6-4.4-8.7c0-8.1,2.7-19.7,3.7-24.9H315.4z M311,240.4
			c0-2.6,1.6-5.8,4.3-5.8c2,0,2.9,1.8,2.9,3.8c0,2.6-1.6,5.7-4.3,5.7C311.9,244.1,311,242.4,311,240.4z"/>
		<path fill="#EA9F07" d="M328.7,262.6c1.2-2.5,2-5.7,2-7.9c0-1.5-0.4-2.6-1.2-2.6c-3.2,0-5.9,8.7-5.9,15.6c0,4.6,1.2,8.4,4.3,8.4
			c2.9,0,6.2-3.9,8.9-12c0.4,0,1.7,0.6,1.7,1c-1.8,5.8-6.5,17.1-13,17.1c-4.8,0-6.8-5.8-6.8-12.8c0-9.9,4.3-21.9,11-21.9
			c3.5,0,4.9,3.4,4.9,7.6c0,3.1-0.8,6.7-2,9.8L328.7,262.6z"/>
		<path fill="#EA9F07" d="M365.6,224.2h4.8c-0.2,6.2-2.4,21.1-5.1,33.3c-1.2,7.8-1.6,12.4-1.6,14.8c0,1.5,0.2,2.1,0.6,2.1
			c1.4,0,3.2-4.2,5.2-10.2c0.4,0,1.7,0.6,1.7,1c-3.7,11.7-7.2,16.8-10,16.8c-2,0-3-2.1-3-7.1c0-0.2,0-0.5,0-0.8
			c-1.4,4.4-3.5,8.3-7,8.3c-3,0-4.2-4-4.2-9.3c0-10.3,4.6-25.4,10.4-25.4c2.3,0,3.5,1.6,4,4.9L365.6,224.2z M352,272.4
			c0,2.3,0.4,3.8,1.2,3.8c2.8,0,6.3-11.9,6.3-18.7c0-2.7-0.5-4.6-1.9-4.6C355,252.9,352,265.8,352,272.4z"/>
		<path fill="#EA9F07" d="M386.9,264.2c0.4,0,1.7,0.6,1.7,1c-3,9.6-6.1,17.1-12.1,17.1c-5.3,0-7.5-5.8-7.5-12.7
			c0-9.9,4.6-22,11.4-22c3,0,4.6,2.6,4.6,6c0,5.2-3.7,12.2-10.9,13.6c0,0.4,0,0.7,0,1.1c0,4.4,1,7.9,3.8,7.9
			C381.6,276.2,384.6,271.6,386.9,264.2z M374.3,264.4c4.6-2.7,6.6-7.7,6.6-10.4c0-1.1-0.4-1.8-1-1.8
			C377.4,252.2,375.1,258.4,374.3,264.4z"/>
		<path fill="#EA9F07" d="M388.8,274.2c0.8,1.6,1.5,2.2,2.7,2.2c1.5,0,2.4-1.3,2.4-3.9c0-4.5-1.8-8.9-3.1-14.1
			c-0.7,2.4-1.5,4.7-2.1,6.9c0,0-1.7-0.4-1.7-0.9v-0.1c0.8-2.5,2-5.8,3.1-9.3c-0.4-2.2-0.7-4.5-0.7-7c0-2.9,0.4-6.1,1.4-9.7l4.1,0.9
			c-0.5,3.9-1.1,7.4-1.8,10.6c0.2,6.1,6.2,13.7,6.2,21.9v0.3c1.2-2.3,2.1-5,3-7.8c0.4,0,1.7,0.6,1.7,1c-2.8,8.8-6.2,17.1-12.8,17.1
			c-2.9,0-5.2-2-6-5L388.8,274.2z"/>
		<path fill="#EA9F07" d="M410.3,248.4c-2.1,11.4-3.9,19.8-3.9,25.8c0,2.1,0.7,2.5,1.2,2.5c1.6,0,3.6-4.1,6.3-12.5
			c0.3,0,1.7,0.5,1.7,0.9v0.1c-2.7,8.3-4.8,16.8-9.8,16.8c-3.3,0-4.4-3.6-4.4-8.7c0-8.1,2.7-19.7,3.7-24.9H410.3z M405.8,240.4
			c0-2.6,1.6-5.8,4.3-5.8c2,0,2.9,1.8,2.9,3.8c0,2.6-1.6,5.7-4.3,5.7C406.7,244.1,405.8,242.4,405.8,240.4z"/>
		<path fill="#EA9F07" d="M436,265.1C436,265.2,436,265.2,436,265.1c-2.3,7.2-5.7,12.4-9,16.5l-1.3,9.4c-1,7.4-3.4,12.8-7.3,12.8
			c-2.7,0-4.7-1.9-4.7-5.8c0-5,3.9-9.2,8.4-14.4c0.4-2.2,0.6-4.5,1-6.8c-1.5,3.3-3.5,5.5-6,5.5c-3,0-4.2-3.9-4.2-9.3
			c0-10.3,4.7-25.4,10.5-25.4c1.9,0,2.9,1.3,3.4,3.9l0.5-3.1h5c-0.7,3.2-2.7,16.8-4.5,28.4c2.6-3.5,4.9-7.6,6.5-12.5
			C434.8,264.2,436,264.7,436,265.1z M418.4,299.9c1,0,1.5-1.5,1.9-3.7l1.2-7.8c-2.6,3.2-4.3,6.1-4.3,9.6
			C417.2,299.3,417.8,299.9,418.4,299.9z M418,272.4c0,2.3,0.4,3.8,1.3,3.8c2.8,0,6.3-11.9,6.3-18.7c0-2.7-0.5-4.6-1.9-4.6
			C421.1,252.9,418,265.7,418,272.4z"/>
		<path fill="#EA9F07" d="M431.2,281.6c0,0,0.5-6.6,2.3-12.1c1.2-8.2,2.3-15.6,3-21.1h5.2l-0.7,4.9c2-3.5,4.4-5.7,7-5.7
			c2.1,0,3.5,1.7,3.5,5.2c0,6.8-4,15.5-4,21.4c0,2.1,0.7,2.5,1.2,2.5c1.6,0,3.6-4.1,6.3-12.5c0.4,0,1.7,0.6,1.7,1
			c-2.7,8.3-5.4,16.8-10.4,16.8c-2.1,0-4.1-2-4.1-6.5c0-7.9,4-16,4-21.2c0-0.8-0.3-1.5-1-1.5c-1.5,0-4.2,3.4-6.2,13.7l-2.4,15.1
			H431.2z"/>
		<path fill="#EA9F07" d="M472.5,264.2c0.4,0,1.7,0.6,1.7,1c-3,9.6-6.1,17.1-12.1,17.1c-5.3,0-7.5-5.8-7.5-12.7
			c0-9.9,4.6-22,11.4-22c3,0,4.6,2.6,4.6,6c0,5.2-3.7,12.2-10.9,13.6c0,0.4,0,0.7,0,1.1c0,4.4,1,7.9,3.8,7.9
			C467.2,276.2,470.2,271.6,472.5,264.2z M460,264.4c4.6-2.7,6.6-7.7,6.6-10.4c0-1.1-0.4-1.8-1-1.8
			C463.1,252.2,460.7,258.4,460,264.4z"/>
		<path fill="#EA9F07" d="M481,276.5c1.3,0,3.5-3.9,6.2-12.3c0.3,0,1.7,0.5,1.7,0.9v0.1c-2.7,8.3-4.8,16.8-9.8,16.8
			c-2.9,0-4-2.2-4-5.5c0-4.7,2.8-9.9,2.8-13.6c0-2.2-0.5-3.9-1.2-5.4l-2.4,7.7c0,0-1.7-0.4-1.7-0.9v-0.1c1.1-3.5,1.9-7.1,2.5-10.6
			c-0.6-1.6-1.1-3.6-1.1-6.1c0-2.3,0.4-5.2,1.4-9l4.6,1.6c-0.2,4.8-0.7,8.3-1.7,12.1c2,2.5,4.6,5.4,4.6,9.6c0,4.7-2.8,10.7-2.8,13.3
			C480,276,480.4,276.5,481,276.5z"/>
	</g>
</g>
</svg>
