<?xml version="1.0" encoding="utf-8"?>
<!-- Generator: Adobe Illustrator 17.1.0, SVG Export Plug-In . SVG Version: 6.00 Build 0)  -->
<!DOCTYPE svg PUBLIC "-//W3C//DTD SVG 1.1//EN" "http://www.w3.org/Graphics/SVG/1.1/DTD/svg11.dtd">
<svg version="1.1" id="Layer_1" xmlns="http://www.w3.org/2000/svg" xmlns:xlink="http://www.w3.org/1999/xlink" x="0px" y="0px"
	 viewBox="0 0 216 216" enable-background="new 0 0 216 216" xml:space="preserve">
<circle fill="#FFFFFF" cx="125.8" cy="109.2" r="81.5"/>
<g>
	<g>
		<path fill="#444444" d="M120.2,130.9l-4.4-1.6l-0.4,0.9c-1.5,3.9-3.8,5.8-7,5.8c-1.8,0-3.4-0.6-4.7-1.9c-3.3-3.2-5-10.3-5-21.4
			c0-13.6,2.4-32.5,7.6-59.7l0.2-0.8l-3.1-1.4l-3-1.4L99.9,50c-7.1,5.3-12,18.2-17.3,31.7c-0.5,1.3-1,2.6-1.5,4
			c-3.3-1.4-6.9-2.3-10.5-2.7c-0.2-0.4-0.3-0.8-0.5-1.2c-1.6-3.5-4.2-6.2-7.5-7.9c-3-1.6-6.7-2.5-10.8-2.5c-2,0-3.8,0.2-5.6,0.5
			c-0.4,0.1-0.8,0.1-1.1,0.2c-14.5,3.3-22.2,17.2-22.2,30.3c0,2.9,0.4,5.7,1,8.3c1.1,4,2.9,7.7,5.4,10.6c4.7,5.6,11.6,8.5,19.9,8.5
			c19.4,0,29-17.2,35.7-34.5c1.6,1.6,2.8,3.4,3.6,5.5c0,0,0,0,0,0c0.8,2.1,1.3,4.4,1.4,6.8c-0.1,1.9-0.1,3.7-0.1,5.4
			c0,6.2,0.6,11.4,1.8,15.6c2.7,9.9,8.6,14.8,17.9,14.8c6.4,0,11.2-3.6,13.9-10.5l0.4-1L120.2,130.9z M40.3,99.5
			c-0.2,0.6-0.4,1.2-0.5,1.8l-0.2,0.9l8,2.5l0.2-1.1c1.7-7.3,8.2-11.4,14.4-13.1c0.4-0.1,0.7-0.2,1.1-0.3c-0.1,5.1-2.8,11-8.7,12.9
			l-0.8,0.3l-0.3,0.1l3.2,7.6l0.9-0.3c8.4-2.6,14.2-11,14.2-20.3v-0.7c1.9,0.2,3.7,0.6,5.4,1.1c0.5,0.2,1,0.3,1.5,0.5
			c-6,14.6-13.4,29.9-25.5,32.5c-0.2,0-0.4,0.1-0.6,0.1c-1.1,0.2-2.1,0.3-3.3,0.3c-4.6,0-8.1-1.3-10.8-3.4c-5.3-4.2-7.4-11.5-7.4-18
			c0-12.8,7.6-26.1,20.2-26.1c4.3,0,7.7,1.8,9.9,5.1c0.3,0.5,0.6,1,0.8,1.5C51.3,85.1,43.1,91.2,40.3,99.5z M91,94
			c-0.3-0.4-0.6-0.9-0.9-1.3c-0.9-1.2-1.9-2.2-3.1-3.2c1-2.8,1.9-5.5,2.9-8.2c1.2-3.6,2.4-7,3.6-10.3c0.8-2.2,1.6-4.2,2.5-6.2
			C93.6,76.3,92,85.8,91,94z"/>
	</g>
	<g>
		<path fill="#444444" d="M132,94.7l-0.2,0.7C131.9,95.1,132,94.9,132,94.7L132,94.7z"/>
	</g>
	<g>
		<path fill="#444444" d="M132.7,71.1c0,3.1-2.3,6.5-5.9,6.5c-2.6,0-4.3-1.8-4.3-4.6c0-0.4,0-0.9,0.1-1.3c0-0.1,0.1-0.3,0.1-0.4
			c0.7-2.5,2.7-4.8,5.7-4.8C131,66.5,132.7,68.3,132.7,71.1z"/>
		<path fill="#444444" d="M191.9,94.7h-0.7l-0.3,0.7c-2.4,6.3-4.5,9.4-5.6,10.7c0-0.4,0-0.9,0.1-1.5c0.1-0.8,0.2-1.6,0.3-2.4
			c1-6.9,2.3-13.7,4-21.2l0.3-1.3H183l-0.2,1.2c-0.3-0.4-0.7-0.8-1.1-1c-0.5-0.3-1-0.6-1.6-0.7c-0.5-0.1-1-0.2-1.6-0.2
			c-5.6,0-10.1,8.4-12,16.9c-0.6,1.5-1.1,2.8-1.7,3.9c-0.2-0.8-0.4-1.7-0.7-2.5c-0.8-2.4-1.9-4.7-3-6.9c-1.5-3-2.9-5.8-3-8.2
			c0.9-3.1,1.5-6.5,2.1-10.1l0.1-1l-3.2-0.6l-3.4-0.7l-0.3,0.9c-1.1,3.4-1.7,6.6-1.7,9.6c0,2.1,0.3,4.2,0.8,6.6
			c-0.1,0.3-0.2,0.5-0.3,0.8c-0.4,1.1-0.9,2.1-1.3,3.2c-0.6,1.4-1.1,2.8-1.6,4c0,0.1,0,0.1-0.1,0.2v0l-0.2,0.5
			c-0.6,1.7-1.2,3.1-1.8,4.3c-0.2-0.8-0.4-1.7-0.7-2.5c-0.8-2.4-1.9-4.7-3-6.9c-1.5-3-2.9-5.8-3-8.2c0.8-3.1,1.5-6.5,2.1-10.1l0.1-1
			l-3.2-0.6l-3.4-0.7l-0.3,0.9c-1.1,3.4-1.7,6.6-1.7,9.6c0,2.1,0.3,4.2,0.8,6.6c-0.1,0.3-0.2,0.5-0.3,0.8c-0.4,1.1-0.9,2.2-1.3,3.2
			c-0.6,1.4-1.1,2.8-1.6,4c-0.1,0.2-0.2,0.4-0.3,0.7v0h0c-4,10.4-5.8,11.3-6.2,11.3c-0.3,0-0.4-1.2-0.4-1.3c0-0.3,0-0.6,0-0.8
			c0.2-4.8,1.7-11.4,3.5-19.6c0.3-1.3,0.6-2.6,0.9-4l0.3-1.3h-8l-0.2,0.8c-0.2,0.7-0.4,1.6-0.6,2.6c-0.8,3.4-2,8.1-2.8,12.9
			c-0.7,1.9-1.4,3.5-2.1,4.8c-0.1,0.2-0.1,0.3-0.2,0.5c-0.2,0.5-0.4,0.9-0.7,1.3c-2.1,4-3.4,4.4-3.8,4.4c-0.6,0-1-0.5-1.3-1.5
			c-0.2-0.8-0.3-2.1-0.3-3.6c0-2,0.2-4.5,0.5-7.5c2.2-2.8,7.3-9.7,10.3-19.5c0.2-0.6,0.6-1.7,0.9-3.2v0c0-0.1,0-0.2,0.1-0.2
			c0,0,0,0,0,0c0.3-1,0.5-2.2,0.7-3.5c0.3-1.5,0.4-3.1,0.4-4.6c0-4.9-2-6.8-4.1-7.3c-0.5-0.1-1.1-0.2-1.6-0.2
			c-5.1,0-9.5,9.3-12.6,26.2c-1.5,8.6-2.2,15.1-2.2,19.9c0,1.2,0,3.5,0.5,5.8c0,0,0,0,0,0c0.7,3.3,2.3,6.6,6.4,6.6
			c3.3,0,5.9-2.3,8.3-6.6c0-0.1,0.1-0.1,0.1-0.2c0,0.2,0.1,0.4,0.1,0.6c0.9,4.7,3.5,5.8,5.8,5.8c2.8,0,4.9-1.6,6.6-4.1
			c1.4,2.7,4.2,4.5,7.5,4.5c4.1,0,7.2-2.1,9.7-5.3c1.1,3.2,4.2,5.3,7.8,5.3c4.7,0,8-2.7,10.6-6.6c0-0.1,0.1-0.1,0.1-0.2
			c0,0.3,0.1,0.6,0.1,0.8c0,0,0,0,0,0c0.9,5.1,3.7,6,5.5,6c2.9,0,5.4-1.6,7.3-4.9c0.6,3,2,4.5,4.3,4.5c3.8,0,7.4-5,11.8-16.7
			l0.1-0.2v-0.2C194.9,95.2,192.3,94.7,191.9,94.7z M117.8,63.2c-0.1,5.6-2.6,12.9-5.4,19.2C114.2,73.3,116.4,65.8,117.8,63.2z
			 M155.5,106.3c-0.8,0-1.3-0.2-2.1-1.4c-0.6,0-1.1-0.2-1.6-0.5l-3.2,2.3c0.7-1.2,1.4-2.4,2-3.7c0.8-1.7,1.5-3.4,2.2-5.1
			c0.1-0.3,0.2-0.5,0.3-0.8l0.1-0.2c0.1-0.4,0.3-0.7,0.4-1.1c0.1-0.3,0.3-0.7,0.4-1.1c0.2-0.5,0.4-1,0.6-1.4c0.1,0.3,0.2,0.7,0.3,1
			c0.2,0.6,0.4,1.2,0.6,1.7c0.9,2.7,1.6,5.1,1.6,7.6C157.1,106.3,155.9,106.3,155.5,106.3z M138,106.3c-0.8,0-1.3-0.2-2.1-1.4
			c-0.6,0-1.1-0.2-1.6-0.5l-2.3,1.6c0.4-0.9,0.8-1.8,1.2-2.8c0.5-1.2,1-2.5,1.5-3.8c0.2-0.5,0.4-1,0.6-1.5h0l0.3-0.8
			c0.3-0.8,0.6-1.5,0.9-2.3c0.2-0.5,0.4-1,0.5-1.4c0.1,0.3,0.2,0.7,0.4,1c0.2,0.6,0.4,1.2,0.6,1.8c0.9,2.6,1.6,5,1.6,7.5
			C139.7,106.3,138.4,106.3,138,106.3z M180.1,89.3c0,5.6-3.7,16.8-6.1,16.8c0,0-0.4-0.3-0.5-2.1c0-0.2,0-0.3,0-0.5
			c0-7.2,3.8-17.6,5.4-17.6c0.1,0,0.2,0,0.3,0.1C179.8,86.4,180.1,87.9,180.1,89.3z"/>
	</g>
	<g>
		<path fill="#444444" d="M149.5,94.7l-0.1,0.2C149.5,94.8,149.5,94.7,149.5,94.7L149.5,94.7z"/>
	</g>
	<g>
		<path fill="#444444" d="M153.1,97.1c-0.1,0.3-0.2,0.5-0.3,0.8l0,0L153.1,97.1c0-0.1,0.1-0.1,0.1-0.2L153.1,97.1z M153.1,97.1
			c-0.1,0.3-0.2,0.5-0.3,0.8l0,0L153.1,97.1c0-0.1,0.1-0.1,0.1-0.2L153.1,97.1z"/>
	</g>
</g>
<g>
	<path fill="#444444" d="M120.4,152.1c1.4-1.4,2.5-4.1,3.3-7.8c-6-0.8-8.9-5.9-8.9-11.2c0-8.9,6.7-13.5,13.4-13.5
		c7.5,0,14.2,5,14.2,16.1c0,9.4-5.4,19.7-14,19.7c-3.8,0-6.2-0.7-7.8-1.3c-1.6,1.1-3.4,1.5-5.1,1.5l0.8-4.6
		C117.7,151,119,151.5,120.4,152.1z M139,136.5c0-10.8-4.8-15.3-10.8-15.3c-5.8,0-10.7,5-10.7,12.1c0,4.4,2.1,8.7,6.4,9.4
		c0.3-1.8,0.7-3.8,1-5.9c0.8-5.9,1.5-9.9,2.4-12.5l2.9,0.7c-0.9,2.5-1.7,5.9-2.4,11.7c-0.3,2.2-0.6,4.2-1,5.9c3.2-0.7,5-3.6,5-6.3
		c0-1.2-0.3-2.3-1.1-3.3l2.3-2.1c1.1,1.4,1.6,3.1,1.6,4.8c0,4.1-3.1,8.2-8.4,8.7c-1.1,4-2.7,6.7-4.3,8.4c1.6,0.6,3.6,1,6.2,1
		C135.3,153.8,139,144.8,139,136.5z"/>
	<path fill="#444444" d="M147.8,133.6c-1.1,4.9-2,8.6-2,11.2c0,0.9,0.3,1.1,0.6,1.1c0.8,0,1.9-1.8,3.3-5.4c0.2,0,0.9,0.2,0.9,0.4v0
		c-1.4,3.6-2.5,7.3-5.1,7.3c-1.7,0-2.3-1.6-2.3-3.8c0-3.5,1.4-8.6,1.9-10.8H147.8z M145.5,130.2c0-1.1,0.8-2.5,2.2-2.5
		c1,0,1.5,0.8,1.5,1.6c0,1.1-0.8,2.5-2.2,2.5C146,131.8,145.5,131,145.5,130.2z"/>
	<path fill="#444444" d="M154.7,139.8c0.6-1.1,1-2.5,1-3.4c0-0.7-0.2-1.1-0.6-1.1c-1.6,0-3.1,3.8-3.1,6.8c0,2,0.6,3.6,2.3,3.6
		c1.5,0,3.2-1.7,4.6-5.2c0.2,0,0.9,0.3,0.9,0.4c-1,2.5-3.4,7.5-6.8,7.5c-2.5,0-3.6-2.5-3.6-5.5c0-4.3,2.2-9.5,5.7-9.5
		c1.8,0,2.5,1.5,2.5,3.3c0,1.4-0.4,2.9-1,4.3L154.7,139.8z"/>
	<path fill="#444444" d="M166.3,133.6h2.3c-1,4.2-1.6,7.6-2,10.8c-0.1,0.3-0.1,0.6-0.1,0.8c0,0.5,0.1,0.7,0.3,0.7
		c0.3,0,1.7-1.5,3.2-5.5c0.2,0,0.9,0.3,0.9,0.4c-1.9,5.1-3.5,7.3-4.9,7.3c-1,0-1.6-0.9-1.6-3.1c0-0.1,0-0.2,0-0.3
		c-0.7,1.9-1.8,3.6-3.7,3.6c-1.6,0-2.2-1.7-2.2-4c0-4.5,2.4-11.1,5.5-11.1c1.2,0,1.8,0.7,2.1,2.1L166.3,133.6z M161.1,144
		c0,1,0.2,1.6,0.7,1.6c1.5,0,3.3-5.2,3.3-8.1c0-1.2-0.3-2-1-2C162.7,135.6,161.1,141.2,161.1,144z"/>
	<path fill="#444444" d="M174.1,133.6c-1.1,4.9-2,8.6-2,11.2c0,0.9,0.3,1.1,0.6,1.1c0.8,0,1.9-1.8,3.3-5.4c0.2,0,0.9,0.2,0.9,0.4v0
		c-1.4,3.6-2.5,7.3-5.1,7.3c-1.7,0-2.3-1.6-2.3-3.8c0-3.5,1.4-8.6,1.9-10.8H174.1z M171.8,130.2c0-1.1,0.8-2.5,2.2-2.5
		c1,0,1.5,0.8,1.5,1.6c0,1.1-0.8,2.5-2.2,2.5C172.3,131.8,171.8,131,171.8,130.2z"/>
	<path fill="#444444" d="M180.4,145.8c0.7,0,1.8-1.7,3.2-5.3c0.2,0,0.9,0.2,0.9,0.4v0c-1.4,3.6-2.5,7.3-5.1,7.3
		c-1.5,0-2.1-1-2.1-2.4c0-2.1,1.5-4.3,1.5-5.9c0-1-0.3-1.7-0.6-2.3l-1.3,3.4c0,0-0.9-0.2-0.9-0.4v0c0.6-1.5,1-3.1,1.3-4.6
		c-0.3-0.7-0.6-1.6-0.6-2.7c0-1,0.2-2.3,0.7-3.9l2.4,0.7c-0.1,2.1-0.4,3.6-0.9,5.3c1,1.1,2.4,2.3,2.4,4.2c0,2-1.5,4.7-1.5,5.8
		C179.9,145.6,180.1,145.8,180.4,145.8z"/>
	<path fill="#444444" d="M192.7,140.5c0.2,0,0.9,0.3,0.9,0.4c-1.6,4.2-3.2,7.5-6.3,7.5c-2.8,0-3.9-2.5-3.9-5.5
		c0-4.3,2.4-9.6,5.9-9.6c1.6,0,2.4,1.1,2.4,2.6c0,2.3-1.9,5.3-5.6,5.9c0,0.2,0,0.3,0,0.5c0,1.9,0.5,3.4,2,3.4
		C189.9,145.7,191.5,143.7,192.7,140.5z M186.2,140.6c2.4-1.2,3.4-3.4,3.4-4.5c0-0.5-0.2-0.8-0.5-0.8
		C187.8,135.3,186.6,138,186.2,140.6z"/>
</g>
<g>
	<path fill="#BB99C1" d="M114.7,127.5c-1.6,4-4.1,6.5-7.9,6.5c-1,0-2-0.2-2.9-0.5c-5.7-2.1-7.9-11.1-7.9-23.8
		c0-15.8,3.4-37.5,7.6-59.5c0-0.1,0.1-0.3,0.1-0.4l-4.8-2.2c-7.7,5.8-13,21.1-18.9,36.3c-3-1.5-6.3-2.4-9.8-2.9
		c-0.7-0.1-1.4-0.2-2.1-0.2c-1-3-2.8-5.7-5.4-7.7c-3.1-2.4-7.3-3.9-12.7-3.9c-18.2,0-27.9,15.3-27.9,30c0,3.7,0.6,7.3,1.9,10.7
		c3.3,8.9,11,15.7,23.5,15.7c2,0,3.9-0.2,5.7-0.6c0.2,0,0.4-0.1,0.6-0.1c14.8-3.4,22.8-18.5,28.9-34.5c2.8,2.3,4.9,5.6,5.9,9.7
		c0,0,0,0,0,0c0.3,1.4,0.5,2.9,0.6,4.5c-0.1,1.8-0.1,3.6-0.1,5.4c0,7.2,0.8,13.3,2.6,18.1c2.7,7.2,7.8,11.3,16,11.3
		c5.8,0,10.1-3.1,12.7-9.2c0.1-0.2,0.2-0.4,0.2-0.6L114.7,127.5z M28.4,99.7c0-11.6,6.1-24.1,17.1-26.6c0.4-0.1,0.7-0.2,1.1-0.2
		c1-0.2,2-0.2,3.1-0.2c6.4,0,10.5,3.7,12.2,8.5c-0.2,0-0.3,0-0.5,0.1C51,82.6,41.5,88.5,39.2,98.3l1.3,0.4l4.7,1.5
		c1.8-7.9,9.3-13,17.5-14.3v1c0,1-0.1,2-0.3,3c-0.9,5-4,9.6-9.2,11.2l0.7,1.7l1.7,4c8.7-2.7,13.5-11.2,13.5-19.4
		c0-0.6,0-1.2-0.1-1.8c3.3,0.2,6.5,0.9,9.3,2.2c-0.3,0.8-0.7,1.6-1,2.4c-7,16.9-15.5,32.1-29.7,32.1c-3.5,0-6.5-0.8-9-2.1
		C31.7,116.4,28.4,108.3,28.4,99.7z M84.1,86.6c4.4-12.1,7.9-24.2,12.7-32.1h0.1c-1.2,5.4-2.2,10.6-3.2,15.7
		c-1.4,7.6-2.6,14.9-3.4,21.7c-0.1,0.7-0.2,1.5-0.2,2.2C88.6,91.1,86.6,88.6,84.1,86.6z"/>
	<path fill="#BB99C1" d="M129.6,65.8c-0.5-0.9-1.4-1.5-2.8-1.5c-1.9,0-3.3,1.1-4.1,2.6c-0.5,0.9-0.8,1.9-0.8,2.9c0,0.2,0,0.4,0,0.6
		c0.1,0.7,0.3,1.4,0.8,1.9c0.5,0.6,1.4,1.1,2.5,1.1c3.1,0,4.9-2.9,4.9-5.4C130.1,67.2,129.9,66.4,129.6,65.8z"/>
	<path fill="#BB99C1" d="M190.3,92.5c-1.6,4-3,6.9-4.2,8.8c-1.4,2.2-2.4,3.1-2.8,3.1c-0.3,0-0.6-0.5-0.6-1.5c0-0.5,0-1,0.1-1.8
		c0.9-6.5,2.2-13.7,4.1-22.3c0.1-0.5,0.2-0.9,0.3-1.4h-4.9L182,79l-0.5,2.4c-0.2-1.3-0.6-2.3-1.1-3.1c-0.8-1.1-1.9-1.6-3.4-1.6
		c-4.9,0-9.1,7.9-11,16c0,0,0,0,0,0c-0.5,1.3-1,2.5-1.5,3.7c-0.6,1.3-1.2,2.5-1.9,3.6v-0.3c0-7.8-6.8-15-7-20.9
		c0.8-2.8,1.4-5.8,1.9-9.2c0.1-0.3,0.1-0.7,0.2-1l-4.7-0.9c-1.1,3.4-1.6,6.5-1.6,9.3c0,2.4,0.3,4.6,0.8,6.7c-0.3,0.8-0.7,1.7-1,2.5
		l1.4,0.7L153,87c0.9,3,2,5.7,2.8,8.3c0.5,1.7,0.8,3.4,0.8,5.1c0,2.5-1,3.8-2.7,3.8c-0.1,0-0.1,0-0.2,0c-0.6,0-1.1-0.2-1.6-0.5
		c-0.4-0.3-0.8-0.8-1.2-1.4c0,0-0.1-0.1-0.1-0.2l-4.2,3.1c0.3,0.9,0.8,1.7,1.4,2.4c1.3,1.5,3.3,2.4,5.5,2.4c5,0,8.4-3.5,11.1-8.4
		c0.2-0.3,0.3-0.7,0.5-1c0,0.2,0,0.3,0,0.5c0,2.2,0.3,4.2,0.9,5.7c0.1,0.2,0.2,0.4,0.3,0.6c0,0,0,0,0,0c0.8,1.6,2,2.5,3.7,2.5
		c4,0,6.5-3.7,8.1-7.9v0.8c0,2.7,0.4,4.6,1.2,5.6c0.6,0.8,1.3,1.2,2.3,1.2c3.2,0,6.5-4.8,10.7-15.6c0.1-0.1,0.1-0.3,0.2-0.4
		C192.2,93.1,190.7,92.5,190.3,92.5z M172.3,104c-1,0-1.5-1.5-1.5-3.6c0-6.3,3.6-18.6,6.5-18.6c1.4,0,2,1.4,2.1,3.5
		c0,0.3,0,0.6,0,0.9c0,5.5-2.9,14.6-5.7,17.2C173.2,103.7,172.8,104,172.3,104z"/>
	<path fill="#BB99C1" d="M135.1,86.8l-1.5-0.6c-1,2.4-1.9,4.6-2.5,6.3h0c-2.3,6-4.1,9.6-5.7,11.1c-0.5,0.5-1,0.8-1.5,0.8
		c-0.6,0-1.4-0.3-1.4-2.4c0-5.5,1.9-13.1,4.1-23.3c0.1-0.5,0.2-0.9,0.3-1.4h-5.9c-0.8,3.4-2.4,9.5-3.4,15.5c-1.2,3-2.3,5.5-3.4,7.4
		c-1.3,2.3-2.6,3.8-3.7,4.1c-0.2,0.1-0.4,0.1-0.6,0.1c-1.6,0-2.7-1.5-2.7-6.1c0-2.2,0.2-4.9,0.6-7.9c2.8-3.4,7.4-10.2,10.3-19.4
		c0.7-2.2,2.1-7.1,2.1-11.2c0-1.9-0.3-3.7-1.2-4.9c-0.7-1-1.8-1.6-3.5-1.6c-4,0-8.4,7.9-11.6,25.3c-1.4,7.9-2.2,14.6-2.2,19.7
		c0,3.5,0.4,6.3,1.3,8.2c0,0,0,0,0,0c0.9,2,2.4,3.1,4.6,3.1c3.4,0,6.1-3,8.9-9.2c0.1-0.2,0.2-0.4,0.3-0.6c0,0.4,0,0.8,0,1.2
		c0,2.2,0.3,4.1,0.9,5.5c0.1,0.1,0.1,0.3,0.2,0.4c0.8,1.5,2,2.3,3.9,2.3c2.7,0,4.6-1.8,6.3-4.5c1.9-3.1,3.3-7.3,4.9-11.5
		c0,0,0,0,0,0c0.8-2.1,1.7-4.2,2.4-6.5L135.1,86.8z M116.5,58.1c0.4,0,0.7,0.6,0.7,1.5c-0.1,8.5-5.2,20.1-8.7,26.5
		C110.5,73.2,114.6,58.1,116.5,58.1z"/>
	<path fill="#BB99C1" d="M153,87c-0.8,2.3-1.7,4.5-2.4,6.5c0,0,0,0,0,0c-1.6,4.2-3.4,8.3-5.7,11.3c-2.3,3.1-5.2,5.1-8.9,5.1
		c-1.8,0-3.5-0.6-4.7-1.6c-1-0.8-1.7-1.9-2.2-3.1l4.2-3.1c0.1,0.1,0.2,0.3,0.2,0.4c0.3,0.5,0.7,0.9,1,1.2c0.5,0.3,1,0.5,1.6,0.5
		c0.1,0,0.1,0,0.2,0c1.7,0,2.7-1.2,2.7-3.8c0-1.7-0.3-3.4-0.8-5.1c-0.7-2.6-1.8-5.4-2.8-8.4l-0.4-0.2l-1.5-0.6c0,0,0,0,0-0.1
		c0.3-0.8,0.7-1.6,1-2.5c-0.5-2.1-0.8-4.3-0.8-6.7c0-1.6,0.2-3.3,0.5-5.2c0.3-1.3,0.6-2.7,1.1-4.1l4.7,0.9c0,0.3-0.1,0.7-0.2,1
		c-0.5,3.4-1.2,6.4-1.9,9.2c0.2,5.9,7,13.1,7,20.9v0.3c0.7-1.1,1.3-2.3,1.9-3.6c0.6-1.2,1.1-2.5,1.6-3.9h0c0.7-1.8,1.6-4,2.6-6.4
		l1.4,0.7L153,87z"/>
</g>
<rect x="79" y="164" fill="none" width="83.5" height="12"/>
<text transform="matrix(1 0 0 1 78.9628 170.5996)" font-family="'FuturaStd-Light'" font-size="8">GRAPHIC DESIGNER</text>
</svg>
