<?xml version="1.0" encoding="utf-8"?>
<!-- Generator: Adobe Illustrator 17.1.0, SVG Export Plug-In . SVG Version: 6.00 Build 0)  -->
<!DOCTYPE svg PUBLIC "-//W3C//DTD SVG 1.1//EN" "http://www.w3.org/Graphics/SVG/1.1/DTD/svg11.dtd">
<svg version="1.1" id="Layer_1" xmlns="http://www.w3.org/2000/svg" xmlns:xlink="http://www.w3.org/1999/xlink" x="0px" y="0px"
	 viewBox="0 0 216 216" enable-background="new 0 0 216 216" xml:space="preserve">
<polygon fill="#2F0466" points="104.9,103.8 104.5,106 105.6,107 106.2,104.8 "/>
<polygon fill="#2F0466" points="142,89 136.5,103.8 138,104.5 143.6,89.8 "/>
<polygon fill="#2F0466" points="124.3,89 119.3,101.8 120.7,102.6 126.5,89.5 "/>
<polygon fill="#2F0466" points="105.7,102.1 104.6,104.4 106.1,106.4 107.8,103.6 "/>
<ellipse fill="#2F0466" cx="99.5" cy="89" rx="1.4" ry="1.8"/>
<g>
	<path d="M107.2,141.3c-0.6,0.5-1.2,1-1.9,1.4c-0.1-0.1-0.2-0.2-0.3-0.3c0.6-0.5,1.2-1.1,1.7-1.8C106.9,140.8,107.1,141,107.2,141.3
		z"/>
	<path d="M146.2,145.5c-0.9,1.2-1.9,1.8-2.8,1.8c-1.6,0-2.3-1.7-2.3-3.8c0-3.2,1.5-7.1,3.2-7.1c0.5,0,0.7,0.5,0.7,1.2
		c0,1-0.4,2.5-1.1,3.6l2,1.2c0.7-1.5,1.1-3.1,1.1-4.5c0-1.9-0.7-3.4-2.6-3.4c-3.1,0-5.2,3.8-5.8,7.7c-1.4,3.6-2.4,5.4-3.3,5.4
		c-0.3,0-0.7-0.1-0.7-1.1c0-2.7,0.9-6.5,2.1-11.7v-0.1h-2.8c-0.5,2.4-2,7.6-2,11.3c0,2.2,0.6,3.9,2.4,3.9c1.3,0,2.3-1,3.1-2.4
		c0.4-0.7,0.7-1.4,1-2.2c0.2,2.8,1.3,4.9,3.7,4.9c2.3,0,4.1-2.2,5.4-4.4L146.2,145.5z"/>
	<path d="M172.8,144.8c-0.1,0.2-0.2,0.4-0.3,0.6c-0.7,1.4-1.3,2-1.7,2c-0.4,0-0.6-0.2-0.4-0.8c0-1.1,1.5-3.9,1.5-6
		c0-1.9-1.4-3.2-2.5-4.3c0.5-1.7,0.8-3.3,0.9-5.5l-2.5-0.7c-0.6,1.7-0.8,3-0.8,4.1c0,1.2,0.3,2.1,0.6,2.8c-0.4,1.6-0.8,3.2-1.4,4.8
		c-1.5,3.8-2.5,5.7-3.4,5.7c-0.3,0-0.7-0.1-0.7-1.1c0-2.7,0.9-6.5,2.1-11.7v-0.1h-2.8c-0.3,1.6-1.1,4.4-1.6,7.2c0,0-0.1,0-0.1,0
		c-1.5,4.1-2.9,5.7-3.3,5.7c-0.2,0-0.3-0.2-0.3-0.7c0-0.3,0-0.5,0.1-0.9c0.5-3.2,1.1-6.8,2.1-11.2h-2.3l-0.6,1.9
		c-0.2-1.5-0.9-2.2-2.1-2.2c-2.5,0-4.6,4.2-5.4,8.3c-0.5,1.1-1,2-1.6,2.8l1.3,0.2c0,0.1,0,0.2,0,0.2c0,2.4,0.7,4.2,2.3,4.2
		c1.9,0,3-1.8,3.8-3.8v0.4c0,2.2,0.6,3.2,1.7,3.2c1.3,0,2.5-1.5,4-4.7c0,0.2,0,0.5,0,0.7c0,2.2,0.6,3.9,2.4,3.9c1.4,0,2.3-1,3.1-2.4
		c0.8-1.4,1.5-3.3,2.2-5.2l0-0.1l1.3-3.4c0.4,0.6,0.7,1.4,0.7,2.4c0,1.7-1.5,4.1-1.5,6.2c0,1.5,0.5,2.5,2.1,2.5c1.3,0,2.3-1,3.1-2.4
		l0.7-1.6l0.3-0.6l0.1-0.2L172.8,144.8z M151.2,147.3c-0.5,0-0.7-0.7-0.7-1.7c0-3,1.7-8.8,3.1-8.9c0.7,0,1,0.9,1,2.1
		C154.6,141.9,152.7,147.3,151.2,147.3z"/>
	<path d="M134.3,131.2c0-1.2,0.9-2.6,2.3-2.6c1.1,0,1.6,0.8,1.6,1.7c0,1.2-0.9,2.6-2.3,2.6C134.8,132.8,134.3,132.1,134.3,131.2z"/>
	<path d="M161.7,131.2c0-1.2,0.9-2.6,2.3-2.6c1.1,0,1.6,0.8,1.6,1.7c0,1.2-0.9,2.6-2.3,2.6C162.2,132.8,161.7,132.1,161.7,131.2z"/>
</g>
<path fill="#91C84A" d="M67.1,132.4L67.1,132.4L67.1,132.4L67.1,132.4z"/>
<path fill="#00A7BC" d="M121.9,102.1L121.9,102.1L121.9,102.1L121.9,102.1z"/>
<g>
	<g>
		<path d="M104.3,94.1C104.3,94.1,104.3,94.2,104.3,94.1c0,0.1,0,0.2-0.1,0.3c0-0.2,0.1-0.3,0.2-0.5C104.4,94,104.3,94,104.3,94.1z"
			/>
	</g>
	<g>
		<path d="M115.1,79.5L115.1,79.5L115.1,79.5C115.1,79.4,115.1,79.4,115.1,79.5z"/>
		<path d="M104.3,94.1C104.3,94.1,104.3,94.2,104.3,94.1c0,0.1,0,0.2-0.1,0.3c0-0.2,0.1-0.3,0.2-0.5C104.4,94,104.3,94,104.3,94.1z
			 M115.1,79.5L115.1,79.5L115.1,79.5C115.1,79.4,115.1,79.4,115.1,79.5z"/>
		<path d="M110.2,69.7c0.7-2.7,3-5.2,6.2-5.2c2.9,0,4.8,2.1,4.8,5.2c0,0.5,0,0.9-0.1,1.4c-0.6,2.9-2.9,5.6-6.4,5.6
			c-2.8,0-4.8-2.1-4.8-5.1C110,71,110,70.4,110.2,69.7z"/>
	</g>
	<g>
		<path d="M116.5,119c0,0-0.1,0-0.1,0h-0.1c0,0-0.1,0-0.1,0c-0.1,0-0.2,0-0.3,0c-6.1,0-12.2,3.6-13.7,10.7c-0.6,0-1.2,0.3-1.4,0.9
			c-1.6,3.9-3.7,5.7-6.7,5.7c-0.8,0-1.5-0.1-2.2-0.4c-4.8-1.7-7.2-9.3-7.2-22.8c0-17.9,4.4-43.2,7.8-60.6c0.1-0.3,0-0.7-0.1-1
			c-0.2-0.3-0.4-0.5-0.7-0.7l-4.9-2.2c-0.5-0.2-1.1-0.2-1.5,0.2c-7.3,5.5-12.4,18.6-17.8,32.4c-0.5,1.2-1,2.4-1.4,3.7
			c-2.7-1.2-5.7-2-8.7-2.4c-0.5-0.1-1-0.1-1.5-0.2c-1.4-3.4-3.5-6.1-6.4-8c-3.5-2.4-7.9-3.7-13.1-3.7c-19.4,0-29.9,16.5-29.9,32
			C6.3,110,8.7,117,13,122c4.9,5.8,12,8.8,20.6,8.8c5.5,0,10.2-1.3,14.4-3.7c10.6-6,17.1-18.4,22.1-31c0.4,0.4,0.7,0.8,1,1.2
			c2.2,2.8,3.3,6.5,3.5,10.6c0,0.9,0,1.9-0.1,2.8c0,0.9,0,1.8,0,2.7c0,21.1,6.7,31.4,20.4,31.4c3,0,5.7-0.8,8-2.3
			c0.6-0.4,1.1-0.8,1.6-1.2c0.6-0.5,1.2-1.1,1.7-1.8c1.3-1.5,2.4-3.4,3.2-5.6c0.1-0.3,0.1-0.7,0-1c0,0,0-0.1,0-0.1
			c-0.2-0.4-0.5-0.7-0.9-0.8l-3.7-1.3c1-5.9,5.5-9.9,10.9-9.9c0.1,0,0.2,0,0.3,0c0,0,0.1,0,0.1,0h0c0,0,0.1,0,0.1,0
			c5.9,0.3,10.6,5,10.6,15.9c0,8.8-3.8,18.1-11.1,18.1v1.7h0.1c9,0,14.6-10.8,14.6-20.6C130.7,124.5,124.1,119.3,116.5,119z
			 M34,124.3c-3.3,0-6.1-0.7-8.4-1.9c-7-3.7-9.7-12-9.7-19.5c0-10.6,5.1-21.4,14-24.9c0,0,0,0,0,0c1.9-0.7,3.9-1.1,6.1-1.1
			c5.8,0,8.8,3.2,10.2,5.9c-11.4,2-20.1,9-22.4,18.3c-0.2,0.8,0.3,1.6,1,1.8l6.2,1.9c0.4,0.1,0.8,0.1,1.2-0.1c0.4-0.2,0.6-0.5,0.7-1
			c0.1-0.2,0.1-0.4,0.2-0.6c1.4-5,5.4-9.1,11-11.4c1.1-0.5,2.4-0.9,3.6-1.2c-0.2,4.6-2.6,10.3-8.5,12.1c-0.4,0.1-0.7,0.4-0.9,0.8
			c-0.2,0.4-0.2,0.8,0,1.2l2.4,5.7c0.3,0.7,1.1,1.1,1.8,0.9c1.3-0.4,2.5-0.9,3.6-1.6c6.7-3.7,11.1-11.3,11.1-19.5V90
			c0.5,0.1,1.1,0.2,1.6,0.2c1.5,0.3,3,0.7,4.3,1.2C56.5,107.6,48.2,124.3,34,124.3z M78.5,77.1c-0.9,5.2-1.7,10.1-2.2,14.5
			c0,0.3-0.1,0.6-0.1,1c-0.9-1.3-2-2.4-3.3-3.5c1-2.8,2-5.7,3-8.5c1.4-4.1,2.8-8,4.2-11.7C79.4,71.8,78.9,74.5,78.5,77.1z"/>
		<path d="M114,144.8c-1.2,4.2-2.8,6.9-4.5,8.8c1.7,0.6,3.7,1.1,6.5,1.1v1.7h0c-3.9,0-6.4-0.7-8.1-1.4c-1.7,1.1-3.5,1.6-5.3,1.6
			l0.8-4.8c1.5,0,2.8,0.5,4.3,1.1c1.5-1.5,2.6-4.2,3.5-8.1c-2.7-0.3-4.8-1.5-6.3-3.2c0.7-0.4,1.3-0.9,1.9-1.4
			c1.1,1.5,2.6,2.6,4.7,2.9c0.4-1.8,0.7-3.9,1-6.2c0.9-6.2,1.6-10.3,2.5-13l3.1,0.8c-0.9,2.6-1.8,6.2-2.5,12.2
			c-0.3,2.3-0.6,4.3-1.1,6.1c3.3-0.7,5.3-3.7,5.3-6.6c0-1.2-0.4-2.4-1.1-3.5l2.4-2.2c1.2,1.5,1.7,3.2,1.7,5
			C122.8,139.9,119.5,144.2,114,144.8z"/>
		<path d="M183.1,142.8c-1.3,3.4-2.9,5.5-4.8,5.4c-1.5,0-2.1-1.6-2.1-3.6v-0.5c3.9-0.6,5.9-3.8,5.9-6.1c0-1.5-0.8-2.7-2.5-2.7
			c-3,0-5.3,3.7-6,7.5h0c-0.4,1.2-0.9,2.2-1.2,3l1.1,0.2c0.2,2.9,1.4,5.1,4.1,5.1c3.2,0,4.8-3.5,6.5-7.8
			C183.9,143.1,183.2,142.8,183.1,142.8z M179.4,137.4c0.3,0,0.5,0.3,0.5,0.8c0,1.2-1.1,3.5-3.6,4.7
			C176.6,140.2,177.9,137.4,179.4,137.4z"/>
		<path d="M179.9,94.1c-0.6,0-1.2,0.4-1.4,1c-1.9,5-3.6,8.1-4.7,9.7c0,0,0-0.1,0-0.2c0.8-5.6,1.8-11.3,3.1-17.5
			c0.4-2.1,0.9-4.2,1.4-6.5c0.1-0.5,0-0.9-0.3-1.3c-0.3-0.3-0.7-0.6-1.2-0.6h-5c-0.6,0-1.1,0.3-1.3,0.8c-1.3-1.2-2.9-1.5-4-1.5
			c-5.5,0-10,7.5-12.2,15.7c-0.1,0.3-0.1,0.5-0.2,0.8l0,0c-0.1,0.1-0.2,0.2-0.2,0.4c-0.4,1.1-0.8,2.1-1.2,3.1
			c-0.8-2.9-2.2-5.7-3.4-8.3c-1.5-3-2.8-5.8-3-8.1c0.8-3.2,1.5-6.5,2.1-10.2c0.1-0.8-0.4-1.5-1.2-1.7l-4.8-0.9
			c-0.8-0.1-1.5,0.3-1.7,1c-1.1,3.6-1.7,6.8-1.7,9.8c0,2.2,0.2,4.5,0.7,6.7c-0.6,1.6-1.2,3.1-1.8,4.5c-0.5,1.2-0.9,2.3-1.3,3.3h0
			c-0.2,0.2-0.4,0.4-0.5,0.7c-0.4,1.1-0.8,2.1-1.2,3.1c-0.8-2.9-2.2-5.7-3.4-8.3c-1.5-3-2.8-5.8-3-8.1c0.8-3.2,1.5-6.5,2.1-10.2
			c0.1-0.8-0.4-1.5-1.2-1.7l-4.8-0.9c-0.8-0.1-1.5,0.3-1.7,1c-0.3,0.9-0.5,1.8-0.7,2.6c-0.6,2.6-0.9,4.9-0.9,7.2
			c0,2.1,0.3,4.2,0.8,6.7c-0.6,1.6-1.2,3.1-1.8,4.5c-0.6,1.5-1.2,2.9-1.6,4c-0.1,0.2-0.1,0.3-0.1,0.5v0.1c-3.2,8.4-5,10.2-5.5,10.5
			c0-0.2-0.1-0.4-0.1-0.8c0-5.2,1.7-12.8,3.9-22.3l0.5-2.1c0.1-0.2,0.1-0.4,0.1-0.6v-0.1c0-0.7-0.5-1.4-1.3-1.5
			c-0.3,0-0.5,0-0.8,0.1h-5.5c-0.7,0-1.3,0.5-1.5,1.2c-0.2,0.8-0.4,1.6-0.6,2.6c-0.8,3.3-2,7.9-2.7,12.4c0,0,0,0,0-0.1
			c0-0.1,0.1-0.2,0.1-0.2c-0.1,0.2-0.2,0.3-0.2,0.5c0-0.1,0-0.1,0-0.2c-1.3,3.4-2.4,5.8-3.3,7.5c-2,3.7-3.1,3.8-3.2,3.8
			c-0.7,0-1.2-1.8-1.2-4.7c0-2.2,0.2-4.8,0.5-7.5c2.3-2.8,7.4-9.9,10.5-19.9c0.3-0.8,0.7-2.1,1-3.7c0.6-2.4,1.1-5.4,1.1-8.2
			c0-6.7-3.4-8.1-6.2-8.1c-6.9,0-11,14.7-13.2,27c-1.5,8.2-2.3,15.1-2.3,20.3c0,8.6,2.5,13,7.4,13c3.6,0,6.2-2.6,8.3-6.1
			c1,4.7,3.8,5.9,6.2,5.9c2.5,0,4.7-1.2,6.6-3.7c1.6,2.4,4.3,3.8,7.4,3.8c4.1,0,7.3-2,9.8-5.1c1.4,3.1,4.5,5.1,8.1,5.1
			c4.7,0,8.1-2.6,10.7-6.3c1,5.6,4.1,6.5,6.1,6.5c2.8,0,5.2-1.4,7.2-4.3c0.7,2.6,2.2,3.9,4.5,3.9c4.1,0,7.8-5.2,12.4-17.3
			c0.1-0.2,0.1-0.4,0.1-0.5C183.4,94.7,180.3,94.1,179.9,94.1z M115.7,80.3L115.7,80.3L115.7,80.3C115.7,80.4,115.7,80.3,115.7,80.3
			z M125.2,105.9c-0.6,0-1.1-0.1-1.8-1.3c-0.2-0.4-0.6-0.6-1-0.7c-0.4-0.1-0.8,0-1.2,0.2l-0.7,0.5c0.7-1.6,1.3-3.3,2-5.1
			c0.3-0.7,0.5-1.4,0.8-2.2c0.1-0.2,0.1-0.4,0.1-0.5v-0.1c0.3-0.7,0.5-1.4,0.8-2.1c0,0.1,0.1,0.2,0.1,0.3c1.1,3.2,2.1,6,2.1,8.9
			C126.4,105.9,125.6,105.9,125.2,105.9z M142.9,105.9c-0.6,0-1.1-0.1-1.8-1.3c-0.2-0.4-0.6-0.6-1-0.7c-0.4-0.1-0.8,0-1.2,0.2
			l-1.9,1.3c1.3-2.4,2.4-5,3.5-7.6c0.2-0.2,0.4-0.4,0.5-0.7c0.3-0.9,0.7-1.8,1-2.7c0,0.1,0.1,0.2,0.1,0.3c1.1,3.2,2.1,6.1,2.1,8.9
			C144.2,105.9,143.4,105.9,142.9,105.9z M162,105.7c-0.1-0.3-0.2-0.9-0.2-2.1c0-6.7,3.5-16.6,5.1-17.4c0.2,0.1,0.7,0.9,0.7,3
			C167.5,95.6,163.8,104.8,162,105.7z"/>
	</g>
</g>
<g>
	<path fill="#A83FA8" d="M110.2,133.8l-4.3-1.5c-1.7,4.1-4.2,6.6-8.1,6.6c-2.1,0-3.8-0.7-5.3-2c-4-3.6-5.6-11.8-5.6-22.7
		c0-16.2,3.5-38.4,7.8-60.9l-1.8-0.8l-3.1-1.4C82,57,76.6,72.6,70.5,88c-3.7-1.8-7.8-2.8-12.1-3.2c-0.2-0.5-0.3-0.9-0.5-1.3
		c-1.5-3.4-4.1-6.3-7.9-8.2c-2.7-1.3-6-2.1-10-2.1c-18.6,0-28.4,15.6-28.4,30.5c0,13.7,8.3,26.8,25.8,26.8c4.2,0,7.9-0.8,11.3-2.3
		c11-4.8,17.8-16.7,23.2-29.8c0.5-1.2,1-2.5,1.5-3.7c3.8,3.1,6.4,7.9,6.6,14.4c0,1.9-0.1,3.7-0.1,5.5c0,18.3,5,29.9,18.9,29.9
		c1.8,0,3.4-0.3,4.9-0.9c0.7-0.2,1.3-0.6,1.9-0.9c0.7-0.4,1.3-0.9,1.9-1.4c1.8-1.7,3.3-3.9,4.5-6.8L110.2,133.8z M37.7,127
		c-4.7,0-8.5-1.4-11.5-3.6c-5.5-4.2-8.1-11.6-8.1-19.3c0-9.9,4.4-20.4,12.4-25.1c0,0,0,0,0,0c2.7-1.5,5.7-2.4,9.2-2.4
		c6.5,0,10.6,3.7,12.4,8.6c-10.8,1.2-20.7,7.3-23.1,17.5l4.7,1.4l1.5,0.5c1.2-5.3,4.8-9.3,9.5-11.8c2.5-1.4,5.3-2.3,8.3-2.8v1
		c0,6.1-3.2,12.4-9.6,14.4l2.4,5.7c0.3-0.1,0.7-0.2,1-0.3c8.2-3.1,12.7-11.4,12.7-19.4v-0.1c0-0.6,0-1.1-0.1-1.7
		c3.3,0.2,6.6,1,9.5,2.3C61.5,110,52.8,127,37.7,127z M76.8,92.6c-0.7-0.7-1.4-1.4-2.1-2c1.5-4.2,3-8.5,4.4-12.6
		c2.7-7.7,5.3-14.8,8.5-20c-3,14.5-5.6,28.2-6.9,40.2C79.7,96.1,78.4,94.2,76.8,92.6z"/>
	<path fill="#C07AC4" d="M109,96.8c0.4,0,1.7,0.6,1.7,0.9c0,0.1,0,0.1,0,0.1c-4.2,11.3-7.4,16.6-12,16.6c-4.2,0-5.9-4.2-5.9-11.5
		c0-5.2,0.8-12,2.3-20c3.2-17.8,7.6-25.8,11.7-25.8c3.7,0,4.7,3,4.7,6.6c0,4.2-1.4,9.2-2.1,11.4c-2.9,9.3-7.6,16.2-10.5,19.7
		c-0.4,3-0.6,5.8-0.6,8.1c0,4.7,1.1,6.2,2.7,6.2C103.2,109,105.9,104.6,109,96.8z M107.6,61.8c-1.9,0-6.1,15.3-8.1,28.5
		c3.5-6.4,8.8-18.3,8.8-26.9C108.3,62.4,108,61.8,107.6,61.8z"/>
	<path fill="#C07AC4" d="M118.3,81.4c-2.5,11-4.5,19.3-4.5,25.1c0,2.1,0.8,2.4,1.4,2.4c1.8,0,4.2-4,7.3-12.1c0.4,0,2,0.5,2,0.9v0.1
		c-3.1,8.1-5.6,16.3-11.4,16.3c-3.8,0-5.1-3.5-5.1-8.4c0-7.9,3.1-19.1,4.3-24.2L118.3,81.4L118.3,81.4z M113.2,73.7
		c0-2.5,1.8-5.6,5-5.6c2.3,0,3.3,1.7,3.3,3.7c0,2.5-1.8,5.5-5,5.5C114.2,77.3,113.2,75.6,113.2,73.7z"/>
	<path fill="#C07AC4" d="M124.7,106.5c0.9,1.6,1.8,2.1,3.1,2.1c1.8,0,2.8-1.3,2.8-3.8c0-4.4-2.1-8.6-3.6-13.7
		c-0.8,2.3-1.7,4.5-2.5,6.7c0,0-2-0.4-2-0.9v-0.1c0.9-2.4,2.3-5.6,3.6-9c-0.5-2.1-0.8-4.4-0.8-6.8c0-2.8,0.5-5.9,1.6-9.4l4.8,0.9
		c-0.6,3.8-1.3,7.2-2.1,10.3c0.2,5.9,7.1,13.3,7.1,21.2v0.3c1.3-2.2,2.5-4.8,3.5-7.6c0.4,0,2,0.6,2,1c-3.3,8.5-7.2,16.6-14.9,16.6
		c-3.3,0-6-1.9-7-4.8L124.7,106.5z"/>
	<path fill="#C07AC4" d="M142.5,106.5c0.9,1.6,1.8,2.1,3.1,2.1c1.8,0,2.8-1.3,2.8-3.8c0-4.4-2.1-8.6-3.6-13.7
		c-0.8,2.3-1.7,4.5-2.5,6.7c0,0-2-0.4-2-0.9v-0.1c0.9-2.4,2.3-5.6,3.6-9c-0.5-2.1-0.9-4.4-0.9-6.8c0-2.8,0.5-5.9,1.6-9.4l4.8,0.9
		c-0.6,3.8-1.3,7.2-2.1,10.3c0.2,5.9,7.1,13.3,7.1,21.2v0.3c1.3-2.2,2.5-4.8,3.5-7.6c0.4,0,2,0.6,2,1c-3.3,8.5-7.2,16.6-14.9,16.6
		c-3.3,0-6-1.9-7-4.8L142.5,106.5z"/>
	<path fill="#C07AC4" d="M174.5,81.5h5c-2.1,9.4-3.5,17.1-4.5,24.1c-0.1,0.8-0.1,1.3-0.1,1.8c0,1.1,0.2,1.6,0.6,1.6
		c0.8,0,3.8-3.4,7.1-12.2c0.4,0,2,0.6,2,1c-4.3,11.3-7.8,16.3-11,16.3c-2.3,0-3.5-2.1-3.5-6.9c0-0.2,0-0.5,0-0.8
		c-1.6,4.3-4.1,8.1-8.2,8.1c-3.5,0-4.9-3.8-4.9-9c0-10,5.4-24.7,12.2-24.7c2.6,0,4.1,1.6,4.6,4.7L174.5,81.5z M162.9,104.7
		c0,2.2,0.4,3.7,1.5,3.7c3.3,0,7.3-11.5,7.3-18.1c0-2.6-0.6-4.5-2.2-4.5C166.5,85.8,162.9,98.3,162.9,104.7z"/>
</g>
</svg>
