<?xml version="1.0" encoding="utf-8"?>
<!-- Generator: Adobe Illustrator 18.1.0, SVG Export Plug-In . SVG Version: 6.00 Build 0)  -->
<svg version="1.1" id="Layer_1" xmlns="http://www.w3.org/2000/svg" xmlns:xlink="http://www.w3.org/1999/xlink" x="0px" y="0px"
	 viewBox="0 0 576 720" enable-background="new 0 0 576 720" xml:space="preserve">
<path fill="#333333" d="M310.7,297.6l-5.3,3.5c0,0,1.4,6.7,2.7,6.2c1.3-0.5,2.7-2.6,2.7-2.6V297.6z"/>
<path fill="#333333" d="M431.8,298.5c0,0-6.6,3.2-6.1,3.5c0.5,0.3,3.8,4.1,3.8,4.1l4.1-1.3L431.8,298.5z"/>
<path fill="#333333" d="M46.1,298.3c0,0-5.3,3-4.6,3.2c0.7,0.2,5.8,5.5,5.8,5.5s6.4-3.9,5.3-4.4C51.5,302.2,46.1,298.3,46.1,298.3z"
	/>
<path fill="#333333" d="M164.5,335.5c0.4-1.9,7.3-21.1,7.3-21.1l2.8,3.6l-6.9,18L164.5,335.5z"/>
<polygon fill="#333333" points="135.1,314.4 127.8,340.1 130.7,341 138.1,313 "/>
<rect x="228.8" y="298.6" fill="#333333" width="5.8" height="7.3"/>
<rect x="100.4" y="240.4" fill="#333333" width="10.5" height="12.3"/>
<g enable-background="new    ">
	<path fill="#333333" d="M56.5,290.3h10.3c-4.4,23.1-7.1,42-9.1,59.2c-0.3,1.9-0.3,3.3-0.3,4.5c0,2.7,0.5,3.8,1.2,3.8
		c1.6,0,7.7-8.3,14.7-29.9c0.9,0,4.1,1.4,4.1,2.5c-8.9,27.9-16,40-22.7,40c-4.7,0-7.3-5-7.3-17.1c0-0.5,0-1.2,0-1.9
		c-3.4,10.6-8.4,19.8-16.9,19.8c-7.1,0-10.1-9.4-10.1-22.1c0-24.5,11.2-60.7,25.1-60.7c5.4,0,8.4,3.8,9.4,11.7L56.5,290.3z
		 M32.6,347.4c0,5.4,0.9,9.1,3,9.1c6.7,0,15-28.3,15-44.5c0-6.4-1.3-11-4.5-11C40,300.9,32.6,331.6,32.6,347.4z"/>
	<path fill="#333333" d="M106.1,327.9c0.7,0,3.5,1.4,3.5,2.3c0,0.2,0,0.2,0,0.2c-8.6,27.9-15.3,40.9-24.8,40.9
		c-8.8,0-12.3-10.2-12.3-28.3c0-12.7,1.7-29.4,4.7-49.3c6.6-43.7,15.7-63.4,24.1-63.4c7.6,0,9.8,7.3,9.8,16.2
		c0,10.2-2.9,22.6-4.4,28c-5.9,22.8-15.7,39.9-21.6,48.4c-0.7,7.5-1.2,14.3-1.2,19.8c0,11.7,2.2,15.4,5.5,15.4
		C94.4,358,99.9,347.2,106.1,327.9z M103.4,242c-3.9,0-12.5,37.6-16.7,69.9c7.3-15.8,18-44.9,18.2-66.1
		C104.9,243.3,104.1,242,103.4,242z"/>
	<path fill="#333333" d="M125.3,290.1c-5.1,27.2-9.3,47.4-9.3,61.6c0,5,1.6,5.9,2.9,5.9c3.7,0,8.6-9.8,15-29.7
		c0.7,0,4.1,1.2,4.1,2.3v0.2c-6.4,19.8-11.5,40-23.4,40c-7.9,0-10.5-8.7-10.5-20.8c0-19.3,6.4-47,8.9-59.5L125.3,290.1L125.3,290.1z
		 M114.7,271.1c0-6.3,3.7-13.7,10.1-13.7c4.8,0,6.9,4.2,6.9,9.1c0,6.3-3.7,13.5-10.1,13.5C116.9,280,114.7,275.9,114.7,271.1z"/>
	<path fill="#333333" d="M138.5,351.8c1.9,3.8,3.7,5.2,6.4,5.2c3.7,0,5.7-3.1,5.7-9.4c0-10.8-4.2-21.2-7.4-33.6
		c-1.6,5.8-3.5,11.2-5.1,16.4c0,0-4.1-0.9-4.1-2.3v-0.2c1.9-5.9,4.7-13.7,7.4-22.1c-1-5.2-1.7-10.8-1.7-16.7c0-6.9,1-14.6,3.4-23.1
		l9.9,2.3c-1.2,9.4-2.7,17.7-4.4,25.4c0.5,14.6,14.7,32.7,14.7,52.2v0.7c2.7-5.4,5.1-11.8,7.3-18.7c0.9,0,4.1,1.4,4.1,2.5
		c-6.7,20.8-14.8,40.9-30.5,40.9c-6.9,0-12.3-4.7-14.4-11.8L138.5,351.8z"/>
	<path fill="#333333" d="M175,351.8c1.9,3.8,3.7,5.2,6.4,5.2c3.7,0,5.7-3.1,5.7-9.4c0-10.8-4.2-21.2-7.4-33.6
		c-1.6,5.8-3.5,11.2-5.1,16.4c0,0-4.1-0.9-4.1-2.3v-0.2c1.9-5.9,4.7-13.7,7.4-22.1c-1-5.2-1.7-10.8-1.7-16.7c0-6.9,1-14.6,3.4-23.1
		l9.9,2.3c-1.2,9.4-2.7,17.7-4.4,25.4c0.5,14.6,14.7,32.7,14.7,52.2v0.7c2.7-5.4,5.1-11.8,7.3-18.7c0.9,0,4.1,1.4,4.1,2.5
		c-6.7,20.8-14.8,40.9-30.5,40.9c-6.9,0-12.3-4.7-14.4-11.8L175,351.8z"/>
	<path fill="#333333" d="M240.8,290.3h10.3c-4.4,23.1-7.1,42-9.1,59.2c-0.3,1.9-0.3,3.3-0.3,4.5c0,2.7,0.5,3.8,1.2,3.8
		c1.6,0,7.7-8.3,14.7-29.9c0.9,0,4.1,1.4,4.1,2.5c-8.9,27.9-16,40-22.7,40c-4.7,0-7.3-5-7.3-17.1c0-0.5,0-1.2,0-1.9
		c-3.4,10.6-8.4,19.8-16.9,19.8c-7.1,0-10.1-9.4-10.1-22.1c0-24.5,11.2-60.7,25.1-60.7c5.4,0,8.4,3.8,9.4,11.7L240.8,290.3z
		 M217,347.4c0,5.4,0.9,9.1,3,9.1c6.7,0,15-28.3,15-44.5c0-6.4-1.3-11-4.5-11C224.4,300.9,217,331.6,217,347.4z"/>
	<path fill="#333333" d="M326.2,232.5h11.5c-0.5,14.8-5.9,50.5-12.1,79.4c-2.7,18.7-3.9,29.6-3.9,35.3c0,3.7,0.5,5,1.5,5
		c3.4,0,7.7-9.9,12.3-24.3c0.9,0,4.1,1.4,4.1,2.5c-8.9,27.9-17.2,40-23.9,40c-4.7,0-7.3-5-7.3-17.1c0-0.5,0-1.2,0-1.9
		c-3.4,10.6-8.4,19.8-16.7,19.8c-7.1,0-10.1-9.6-10.1-22.1c0-24.5,11.1-60.7,24.9-60.7c5.4,0,8.4,3.8,9.4,11.7L326.2,232.5z
		 M293.9,347.4c0,5.4,0.9,9.1,2.9,9.1c6.7,0,15-28.3,15-44.5c0-6.4-1.3-11-4.5-11C301.1,300.9,293.9,331.7,293.9,347.4z"/>
	<path fill="#333333" d="M354.7,290.1c-5.1,27.2-9.3,47.4-9.3,61.6c0,5,1.6,5.9,2.9,5.9c3.7,0,8.6-9.8,15-29.7
		c0.7,0,4.1,1.2,4.1,2.3v0.2c-6.4,19.8-11.5,40-23.4,40c-7.9,0-10.5-8.7-10.5-20.8c0-19.3,6.4-47,8.9-59.5L354.7,290.1L354.7,290.1z
		 M344.1,271.1c0-6.3,3.7-13.7,10.1-13.7c4.8,0,6.9,4.2,6.9,9.1c0,6.3-3.7,13.5-10.1,13.5C346.3,280,344.1,275.9,344.1,271.1z"/>
	<path fill="#333333" d="M386.4,324.1c2.9-5.9,4.8-13.5,4.8-18.8c0-3.7-0.9-6.1-2.9-6.1c-7.6,0-14.1,20.8-14.1,37.2
		c0,11,2.9,20,10.3,20c6.9,0,14.8-9.4,21.2-28.5c0.9,0,4.1,1.4,4.1,2.5c-4.4,13.9-15.5,40.9-31,40.9c-11.3,0-16.3-13.9-16.3-30.4
		c0-23.7,10.1-52.4,26.3-52.4c8.3,0,11.6,8,11.6,18.1c0,7.5-1.9,16-4.8,23.5L386.4,324.1z"/>
	<path fill="#333333" d="M439.5,290.3h10.3c-4.4,23.1-7.1,42-9.1,59.2c-0.3,1.9-0.3,3.3-0.3,4.5c0,2.7,0.5,3.8,1.2,3.8
		c1.6,0,7.7-8.3,14.7-29.9c0.9,0,4.1,1.4,4.1,2.5c-8.9,27.9-16,40-22.7,40c-4.7,0-7.3-5-7.3-17.1c0-0.5,0-1.2,0-1.9
		c-3.4,10.6-8.4,19.8-16.9,19.8c-7.1,0-10.1-9.4-10.1-22.1c0-24.5,11.2-60.7,25.1-60.7c5.4,0,8.4,3.8,9.4,11.7L439.5,290.3z
		 M415.6,347.4c0,5.4,0.9,9.1,3,9.1c6.7,0,15-28.3,15-44.5c0-6.4-1.3-11-4.5-11C423,300.9,415.6,331.6,415.6,347.4z"/>
	<path fill="#333333" d="M475.4,290.1c-5.1,27.2-9.3,47.4-9.3,61.6c0,5,1.6,5.9,2.9,5.9c3.7,0,8.6-9.8,15-29.7
		c0.7,0,4.1,1.2,4.1,2.3v0.2c-6.4,19.8-11.5,40-23.4,40c-7.9,0-10.5-8.7-10.5-20.8c0-19.3,6.4-47,8.9-59.5L475.4,290.1L475.4,290.1z
		 M464.8,271.1c0-6.3,3.7-13.7,10.1-13.7c4.8,0,6.9,4.2,6.9,9.1c0,6.3-3.7,13.5-10.1,13.5C467,280,464.8,275.9,464.8,271.1z"/>
	<path fill="#333333" d="M504.2,357.2c3.2,0,8.3-9.2,14.7-29.3c0.7,0,4.1,1.2,4.1,2.3v0.2c-6.4,19.8-11.5,40-23.4,40
		c-6.9,0-9.4-5.2-9.4-13.1c0-11.3,6.7-23.7,6.7-32.5c0-5.2-1.3-9.2-2.9-12.9l-5.9,18.5c0,0-4.1-0.9-4.1-2.3v-0.2
		c2.7-8.3,4.5-17.1,5.9-25.4c-1.5-3.8-2.7-8.5-2.7-14.6c0-5.6,1-12.5,3.4-21.6l10.9,3.8c-0.5,11.5-1.7,19.8-4.1,28.9
		c4.8,5.9,11.1,12.9,11.1,22.8c0,11.2-6.7,25.6-6.7,31.6C501.9,356.1,502.8,357.2,504.2,357.2z"/>
	<path fill="#333333" d="M560.5,327.9c0.9,0,4.1,1.4,4.1,2.5c-7.3,22.8-14.5,40.9-28.8,40.9c-12.7,0-17.9-13.9-17.9-30.3
		c0-23.7,10.9-52.6,27.2-52.6c7.3,0,10.9,6.3,10.9,14.3c0,12.3-8.8,29.1-25.9,32.4c0,0.9,0,1.7,0,2.7c0,10.4,2.5,18.8,9.1,18.8
		C547.9,356.4,555.1,345.6,560.5,327.9z M530.6,328.5c10.9-6.4,15.7-18.5,15.7-24.9c0-2.7-0.9-4.4-2.3-4.4
		C538.1,299.2,532.4,314,530.6,328.5z"/>
</g>
<g enable-background="new    ">
	<path fill="none" stroke="#383838" stroke-width="2" stroke-miterlimit="10" d="M56.5,290.3h10.3c-4.4,23.1-7.1,42-9.1,59.2
		c-0.3,1.9-0.3,3.3-0.3,4.5c0,2.7,0.5,3.8,1.2,3.8c1.6,0,7.7-8.3,14.7-29.9c0.9,0,4.1,1.4,4.1,2.5c-8.9,27.9-16,40-22.7,40
		c-4.7,0-7.3-5-7.3-17.1c0-0.5,0-1.2,0-1.9c-3.4,10.6-8.4,19.8-16.9,19.8c-7.1,0-10.1-9.4-10.1-22.1c0-24.5,11.2-60.7,25.1-60.7
		c5.4,0,8.4,3.8,9.4,11.7L56.5,290.3z M32.6,347.4c0,5.4,0.9,9.1,3,9.1c6.7,0,15-28.3,15-44.5c0-6.4-1.3-11-4.5-11
		C40,300.9,32.6,331.6,32.6,347.4z"/>
	<path fill="none" stroke="#383838" stroke-width="2" stroke-miterlimit="10" d="M106.1,327.9c0.7,0,3.5,1.4,3.5,2.3
		c0,0.2,0,0.2,0,0.2c-8.6,27.9-15.3,40.9-24.8,40.9c-8.8,0-12.3-10.2-12.3-28.3c0-12.7,1.7-29.4,4.7-49.3
		c6.6-43.7,15.7-63.4,24.1-63.4c7.6,0,9.8,7.3,9.8,16.2c0,10.2-2.9,22.6-4.4,28c-5.9,22.8-15.7,39.9-21.6,48.4
		c-0.7,7.5-1.2,14.3-1.2,19.8c0,11.7,2.2,15.4,5.5,15.4C94.4,358,99.9,347.2,106.1,327.9z M103.4,242c-3.9,0-12.5,37.6-16.7,69.9
		c7.3-15.8,18-44.9,18.2-66.1C104.9,243.3,104.1,242,103.4,242z"/>
	<path fill="none" stroke="#383838" stroke-width="2" stroke-miterlimit="10" d="M125.3,290.1c-5.1,27.2-9.3,47.4-9.3,61.6
		c0,5,1.6,5.9,2.9,5.9c3.7,0,8.6-9.8,15-29.7c0.7,0,4.1,1.2,4.1,2.3v0.2c-6.4,19.8-11.5,40-23.4,40c-7.9,0-10.5-8.7-10.5-20.8
		c0-19.3,6.4-47,8.9-59.5L125.3,290.1L125.3,290.1z M114.7,271.1c0-6.3,3.7-13.7,10.1-13.7c4.8,0,6.9,4.2,6.9,9.1
		c0,6.3-3.7,13.5-10.1,13.5C116.9,280,114.7,275.9,114.7,271.1z"/>
	<path fill="none" stroke="#383838" stroke-width="2" stroke-miterlimit="10" d="M138.5,351.8c1.9,3.8,3.7,5.2,6.4,5.2
		c3.7,0,5.7-3.1,5.7-9.4c0-10.8-4.2-21.2-7.4-33.6c-1.6,5.8-3.5,11.2-5.1,16.4c0,0-4.1-0.9-4.1-2.3v-0.2c1.9-5.9,4.7-13.7,7.4-22.1
		c-1-5.2-1.7-10.8-1.7-16.7c0-6.9,1-14.6,3.4-23.1l9.9,2.3c-1.2,9.4-2.7,17.7-4.4,25.4c0.5,14.6,14.7,32.7,14.7,52.2v0.7
		c2.7-5.4,5.1-11.8,7.3-18.7c0.9,0,4.1,1.4,4.1,2.5c-6.7,20.8-14.8,40.9-30.5,40.9c-6.9,0-12.3-4.7-14.4-11.8L138.5,351.8z"/>
	<path fill="none" stroke="#383838" stroke-width="2" stroke-miterlimit="10" d="M175,351.8c1.9,3.8,3.7,5.2,6.4,5.2
		c3.7,0,5.7-3.1,5.7-9.4c0-10.8-4.2-21.2-7.4-33.6c-1.6,5.8-3.5,11.2-5.1,16.4c0,0-4.1-0.9-4.1-2.3v-0.2c1.9-5.9,4.7-13.7,7.4-22.1
		c-1-5.2-1.7-10.8-1.7-16.7c0-6.9,1-14.6,3.4-23.1l9.9,2.3c-1.2,9.4-2.7,17.7-4.4,25.4c0.5,14.6,14.7,32.7,14.7,52.2v0.7
		c2.7-5.4,5.1-11.8,7.3-18.7c0.9,0,4.1,1.4,4.1,2.5c-6.7,20.8-14.8,40.9-30.5,40.9c-6.9,0-12.3-4.7-14.4-11.8L175,351.8z"/>
	<path fill="none" stroke="#383838" stroke-width="2" stroke-miterlimit="10" d="M240.8,290.3h10.3c-4.4,23.1-7.1,42-9.1,59.2
		c-0.3,1.9-0.3,3.3-0.3,4.5c0,2.7,0.5,3.8,1.2,3.8c1.6,0,7.7-8.3,14.7-29.9c0.9,0,4.1,1.4,4.1,2.5c-8.9,27.9-16,40-22.7,40
		c-4.7,0-7.3-5-7.3-17.1c0-0.5,0-1.2,0-1.9c-3.4,10.6-8.4,19.8-16.9,19.8c-7.1,0-10.1-9.4-10.1-22.1c0-24.5,11.2-60.7,25.1-60.7
		c5.4,0,8.4,3.8,9.4,11.7L240.8,290.3z M217,347.4c0,5.4,0.9,9.1,3,9.1c6.7,0,15-28.3,15-44.5c0-6.4-1.3-11-4.5-11
		C224.4,300.9,217,331.6,217,347.4z"/>
	<path fill="none" stroke="#383838" stroke-width="2" stroke-miterlimit="10" d="M326.2,232.5h11.5c-0.5,14.8-5.9,50.5-12.1,79.4
		c-2.7,18.7-3.9,29.6-3.9,35.3c0,3.7,0.5,5,1.5,5c3.4,0,7.7-9.9,12.3-24.3c0.9,0,4.1,1.4,4.1,2.5c-8.9,27.9-17.2,40-23.9,40
		c-4.7,0-7.3-5-7.3-17.1c0-0.5,0-1.2,0-1.9c-3.4,10.6-8.4,19.8-16.7,19.8c-7.1,0-10.1-9.6-10.1-22.1c0-24.5,11.1-60.7,24.9-60.7
		c5.4,0,8.4,3.8,9.4,11.7L326.2,232.5z M293.9,347.4c0,5.4,0.9,9.1,2.9,9.1c6.7,0,15-28.3,15-44.5c0-6.4-1.3-11-4.5-11
		C301.1,300.9,293.9,331.7,293.9,347.4z"/>
	<path fill="none" stroke="#383838" stroke-width="2" stroke-miterlimit="10" d="M354.7,290.1c-5.1,27.2-9.3,47.4-9.3,61.6
		c0,5,1.6,5.9,2.9,5.9c3.7,0,8.6-9.8,15-29.7c0.7,0,4.1,1.2,4.1,2.3v0.2c-6.4,19.8-11.5,40-23.4,40c-7.9,0-10.5-8.7-10.5-20.8
		c0-19.3,6.4-47,8.9-59.5L354.7,290.1L354.7,290.1z M344.1,271.1c0-6.3,3.7-13.7,10.1-13.7c4.8,0,6.9,4.2,6.9,9.1
		c0,6.3-3.7,13.5-10.1,13.5C346.3,280,344.1,275.9,344.1,271.1z"/>
	<path fill="none" stroke="#383838" stroke-width="2" stroke-miterlimit="10" d="M386.4,324.1c2.9-5.9,4.8-13.5,4.8-18.8
		c0-3.7-0.9-6.1-2.9-6.1c-7.6,0-14.1,20.8-14.1,37.2c0,11,2.9,20,10.3,20c6.9,0,14.8-9.4,21.2-28.5c0.9,0,4.1,1.4,4.1,2.5
		c-4.4,13.9-15.5,40.9-31,40.9c-11.3,0-16.3-13.9-16.3-30.4c0-23.7,10.1-52.4,26.3-52.4c8.3,0,11.6,8,11.6,18.1
		c0,7.5-1.9,16-4.8,23.5L386.4,324.1z"/>
	<path fill="none" stroke="#383838" stroke-width="2" stroke-miterlimit="10" d="M439.5,290.3h10.3c-4.4,23.1-7.1,42-9.1,59.2
		c-0.3,1.9-0.3,3.3-0.3,4.5c0,2.7,0.5,3.8,1.2,3.8c1.6,0,7.7-8.3,14.7-29.9c0.9,0,4.1,1.4,4.1,2.5c-8.9,27.9-16,40-22.7,40
		c-4.7,0-7.3-5-7.3-17.1c0-0.5,0-1.2,0-1.9c-3.4,10.6-8.4,19.8-16.9,19.8c-7.1,0-10.1-9.4-10.1-22.1c0-24.5,11.2-60.7,25.1-60.7
		c5.4,0,8.4,3.8,9.4,11.7L439.5,290.3z M415.6,347.4c0,5.4,0.9,9.1,3,9.1c6.7,0,15-28.3,15-44.5c0-6.4-1.3-11-4.5-11
		C423,300.9,415.6,331.6,415.6,347.4z"/>
	<path fill="none" stroke="#383838" stroke-width="2" stroke-miterlimit="10" d="M475.4,290.1c-5.1,27.2-9.3,47.4-9.3,61.6
		c0,5,1.6,5.9,2.9,5.9c3.7,0,8.6-9.8,15-29.7c0.7,0,4.1,1.2,4.1,2.3v0.2c-6.4,19.8-11.5,40-23.4,40c-7.9,0-10.5-8.7-10.5-20.8
		c0-19.3,6.4-47,8.9-59.5L475.4,290.1L475.4,290.1z M464.8,271.1c0-6.3,3.7-13.7,10.1-13.7c4.8,0,6.9,4.2,6.9,9.1
		c0,6.3-3.7,13.5-10.1,13.5C467,280,464.8,275.9,464.8,271.1z"/>
	<path fill="none" stroke="#383838" stroke-width="2" stroke-miterlimit="10" d="M504.2,357.2c3.2,0,8.3-9.2,14.7-29.3
		c0.7,0,4.1,1.2,4.1,2.3v0.2c-6.4,19.8-11.5,40-23.4,40c-6.9,0-9.4-5.2-9.4-13.1c0-11.3,6.7-23.7,6.7-32.5c0-5.2-1.3-9.2-2.9-12.9
		l-5.9,18.5c0,0-4.1-0.9-4.1-2.3v-0.2c2.7-8.3,4.5-17.1,5.9-25.4c-1.5-3.8-2.7-8.5-2.7-14.6c0-5.6,1-12.5,3.4-21.6l10.9,3.8
		c-0.5,11.5-1.7,19.8-4.1,28.9c4.8,5.9,11.1,12.9,11.1,22.8c0,11.2-6.7,25.6-6.7,31.6C501.9,356.1,502.8,357.2,504.2,357.2z"/>
	<path fill="none" stroke="#383838" stroke-width="2" stroke-miterlimit="10" d="M560.5,327.9c0.9,0,4.1,1.4,4.1,2.5
		c-7.3,22.8-14.5,40.9-28.8,40.9c-12.7,0-17.9-13.9-17.9-30.3c0-23.7,10.9-52.6,27.2-52.6c7.3,0,10.9,6.3,10.9,14.3
		c0,12.3-8.8,29.1-25.9,32.4c0,0.9,0,1.7,0,2.7c0,10.4,2.5,18.8,9.1,18.8C547.9,356.4,555.1,345.6,560.5,327.9z M530.6,328.5
		c10.9-6.4,15.7-18.5,15.7-24.9c0-2.7-0.9-4.4-2.3-4.4C538.1,299.2,532.4,314,530.6,328.5z"/>
</g>
<path fill="#FFFFFF" stroke="#000000" stroke-miterlimit="10" d="M434.8,211.9L434.8,211.9C434.4,211.9,434.4,211.9,434.8,211.9
	L434.8,211.9z"/>
<g>
	<path fill="#FF1D6F" d="M49.2,294.4h10.3c-4.4,23.1-7.1,42-9.1,59.2c-0.3,1.9-0.3,3.3-0.3,4.5c0,2.7,0.5,3.8,1.2,3.8
		c1.6,0,7.7-8.3,14.7-29.9c0.9,0,4.1,1.4,4.1,2.5c-8.9,27.9-16,40-22.7,40c-4.7,0-7.3-5-7.3-17.1c0-0.5,0-1.2,0-1.9
		c-3.4,10.6-8.4,19.8-16.9,19.8c-7.1,0-10.1-9.4-10.1-22.1c0-24.5,11.2-60.7,25.1-60.7c5.4,0,8.4,3.8,9.4,11.7L49.2,294.4z
		 M25.3,351.5c0,5.4,0.9,9.1,3,9.1c6.7,0,15-28.3,15-44.5c0-6.4-1.3-11-4.5-11C32.7,305,25.3,335.6,25.3,351.5z"/>
	<path fill="#FF1D6F" d="M98.7,331.9c0.7,0,3.5,1.4,3.5,2.3c0,0.2,0,0.2,0,0.2c-8.6,27.9-15.3,40.9-24.8,40.9
		c-8.8,0-12.3-10.2-12.3-28.3c0-12.7,1.7-29.4,4.7-49.3c6.6-43.7,15.7-63.4,24.1-63.4c7.6,0,9.8,7.3,9.8,16.2
		c0,10.2-2.9,22.6-4.4,28c-5.9,22.8-15.7,39.9-21.6,48.4c-0.7,7.5-1.2,14.3-1.2,19.8c0,11.7,2.2,15.4,5.5,15.4
		C87,362.1,92.5,351.3,98.7,331.9z M96,246c-3.9,0-12.5,37.6-16.7,69.9c7.3-15.8,18-44.9,18.2-66.1C97.5,247.4,96.7,246,96,246z"/>
	<path fill="#FF1D6F" d="M118,294.2c-5.1,27.2-9.3,47.4-9.3,61.6c0,5,1.6,5.9,2.9,5.9c3.7,0,8.6-9.8,15-29.7c0.7,0,4.1,1.2,4.1,2.3
		v0.2c-6.4,19.8-11.5,40-23.4,40c-7.9,0-10.5-8.7-10.5-20.8c0-19.3,6.4-47,8.9-59.5L118,294.2L118,294.2z M107.3,275.2
		c0-6.3,3.7-13.7,10.1-13.7c4.8,0,6.9,4.2,6.9,9.1c0,6.3-3.7,13.5-10.1,13.5C109.5,284.1,107.3,279.9,107.3,275.2z"/>
	<path fill="#FF1D6F" d="M131.1,355.8c1.9,3.8,3.7,5.2,6.4,5.2c3.7,0,5.7-3.1,5.7-9.4c0-10.8-4.2-21.2-7.4-33.6
		c-1.6,5.8-3.5,11.2-5.1,16.4c0,0-4.1-0.9-4.1-2.3v-0.2c1.9-5.9,4.7-13.7,7.4-22.1c-1-5.2-1.7-10.8-1.7-16.7c0-6.9,1-14.6,3.4-23.1
		l9.9,2.3c-1.2,9.4-2.7,17.7-4.4,25.4c0.5,14.6,14.7,32.7,14.7,52.2v0.7c2.7-5.4,5.1-11.8,7.3-18.7c0.9,0,4.1,1.4,4.1,2.5
		c-6.7,20.8-14.8,40.9-30.5,40.9c-6.9,0-12.3-4.7-14.4-11.8L131.1,355.8z"/>
	<path fill="#FF1D6F" d="M167.6,355.8c1.9,3.8,3.7,5.2,6.4,5.2c3.7,0,5.7-3.1,5.7-9.4c0-10.8-4.2-21.2-7.4-33.6
		c-1.6,5.8-3.5,11.2-5.1,16.4c0,0-4.1-0.9-4.1-2.3v-0.2c1.9-5.9,4.7-13.7,7.4-22.1c-1-5.2-1.7-10.8-1.7-16.7c0-6.9,1-14.6,3.4-23.1
		l9.9,2.3c-1.2,9.4-2.7,17.7-4.4,25.4c0.5,14.6,14.7,32.7,14.7,52.2v0.7c2.7-5.4,5.1-11.8,7.3-18.7c0.9,0,4.1,1.4,4.1,2.5
		c-6.7,20.8-14.8,40.9-30.5,40.9c-6.9,0-12.3-4.7-14.4-11.8L167.6,355.8z"/>
	<path fill="#FF1D6F" d="M233.4,294.4h10.3c-4.4,23.1-7.1,42-9.1,59.2c-0.3,1.9-0.3,3.3-0.3,4.5c0,2.7,0.5,3.8,1.2,3.8
		c1.6,0,7.7-8.3,14.7-29.9c0.9,0,4.1,1.4,4.1,2.5c-8.9,27.9-16,40-22.7,40c-4.7,0-7.3-5-7.3-17.1c0-0.5,0-1.2,0-1.9
		c-3.4,10.6-8.4,19.8-16.9,19.8c-7.1,0-10.1-9.4-10.1-22.1c0-24.5,11.2-60.7,25.1-60.7c5.4,0,8.4,3.8,9.4,11.7L233.4,294.4z
		 M209.6,351.5c0,5.4,0.9,9.1,3,9.1c6.7,0,15-28.3,15-44.5c0-6.4-1.3-11-4.5-11C217,305,209.6,335.6,209.6,351.5z"/>
	<path fill="#FF1D6F" d="M318.9,236.6h11.5c-0.5,14.8-5.9,50.5-12.1,79.4c-2.7,18.7-3.9,29.6-3.9,35.3c0,3.7,0.5,5,1.5,5
		c3.4,0,7.7-9.9,12.3-24.3c0.9,0,4.1,1.4,4.1,2.5c-8.9,27.9-17.2,40-23.9,40c-4.7,0-7.3-5-7.3-17.1c0-0.5,0-1.2,0-1.9
		c-3.4,10.6-8.4,19.8-16.7,19.8c-7.1,0-10.1-9.6-10.1-22.1c0-24.5,11.1-60.7,24.9-60.7c5.4,0,8.4,3.8,9.4,11.7L318.9,236.6z
		 M286.5,351.5c0,5.4,0.9,9.1,2.9,9.1c6.7,0,15-28.3,15-44.5c0-6.4-1.3-11-4.5-11C293.7,305,286.5,335.8,286.5,351.5z"/>
	<path fill="#FF1D6F" d="M347.4,294.2c-5.1,27.2-9.3,47.4-9.3,61.6c0,5,1.6,5.9,2.9,5.9c3.7,0,8.6-9.8,15-29.7
		c0.7,0,4.1,1.2,4.1,2.3v0.2c-6.4,19.8-11.5,40-23.4,40c-7.9,0-10.5-8.7-10.5-20.8c0-19.3,6.4-47,8.9-59.5L347.4,294.2L347.4,294.2z
		 M336.7,275.2c0-6.3,3.7-13.7,10.1-13.7c4.8,0,6.9,4.2,6.9,9.1c0,6.3-3.7,13.5-10.1,13.5C338.9,284.1,336.7,279.9,336.7,275.2z"/>
	<path fill="#FF1D6F" d="M379,328.1c2.9-5.9,4.8-13.5,4.8-18.8c0-3.7-0.9-6.1-2.9-6.1c-7.6,0-14.1,20.8-14.1,37.2
		c0,11,2.9,20,10.3,20c6.9,0,14.8-9.4,21.2-28.5c0.9,0,4.1,1.4,4.1,2.5c-4.4,13.9-15.5,40.9-31,40.9c-11.3,0-16.3-13.9-16.3-30.4
		c0-23.7,10.1-52.4,26.3-52.4c8.3,0,11.6,8,11.6,18.1c0,7.5-1.9,16-4.8,23.5L379,328.1z"/>
	<path fill="#FF1D6F" d="M432.1,294.4h10.3c-4.4,23.1-7.1,42-9.1,59.2c-0.3,1.9-0.3,3.3-0.3,4.5c0,2.7,0.5,3.8,1.2,3.8
		c1.6,0,7.7-8.3,14.7-29.9c0.9,0,4.1,1.4,4.1,2.5c-8.9,27.9-16,40-22.7,40c-4.7,0-7.3-5-7.3-17.1c0-0.5,0-1.2,0-1.9
		c-3.4,10.6-8.4,19.8-16.9,19.8c-7.1,0-10.1-9.4-10.1-22.1c0-24.5,11.2-60.7,25.1-60.7c5.4,0,8.4,3.8,9.4,11.7L432.1,294.4z
		 M408.2,351.5c0,5.4,0.9,9.1,3,9.1c6.7,0,15-28.3,15-44.5c0-6.4-1.3-11-4.5-11C415.6,305,408.2,335.6,408.2,351.5z"/>
	<path fill="#FF1D6F" d="M468,294.2c-5.1,27.2-9.3,47.4-9.3,61.6c0,5,1.6,5.9,2.9,5.9c3.7,0,8.6-9.8,15-29.7c0.7,0,4.1,1.2,4.1,2.3
		v0.2c-6.4,19.8-11.5,40-23.4,40c-7.9,0-10.5-8.7-10.5-20.8c0-19.3,6.4-47,8.9-59.5L468,294.2L468,294.2z M457.4,275.2
		c0-6.3,3.7-13.7,10.1-13.7c4.8,0,6.9,4.2,6.9,9.1c0,6.3-3.7,13.5-10.1,13.5C459.6,284.1,457.4,279.9,457.4,275.2z"/>
	<path fill="#FF1D6F" d="M496.9,361.2c3.2,0,8.3-9.2,14.7-29.3c0.7,0,4.1,1.2,4.1,2.3v0.2c-6.4,19.8-11.5,40-23.4,40
		c-6.9,0-9.4-5.2-9.4-13.1c0-11.3,6.7-23.7,6.7-32.5c0-5.2-1.3-9.2-2.9-12.9l-5.9,18.5c0,0-4.1-0.9-4.1-2.3v-0.2
		c2.7-8.3,4.5-17.1,5.9-25.4c-1.5-3.8-2.7-8.5-2.7-14.6c0-5.6,1-12.5,3.4-21.6l10.9,3.8c-0.5,11.5-1.7,19.8-4.1,28.9
		c4.8,5.9,11.1,12.9,11.1,22.8c0,11.2-6.7,25.6-6.7,31.6C494.5,360.2,495.5,361.2,496.9,361.2z"/>
	<path fill="#FF1D6F" d="M553.2,331.9c0.9,0,4.1,1.4,4.1,2.5c-7.3,22.8-14.5,40.9-28.8,40.9c-12.7,0-17.9-13.9-17.9-30.3
		c0-23.7,10.9-52.6,27.2-52.6c7.3,0,10.9,6.3,10.9,14.3c0,12.3-8.8,29.1-25.9,32.4c0,0.9,0,1.7,0,2.7c0,10.4,2.5,18.8,9.1,18.8
		C540.5,360.5,547.7,349.8,553.2,331.9z M523.2,332.5c10.9-6.4,15.7-18.5,15.7-24.9c0-2.7-0.9-4.4-2.3-4.4
		C530.7,303.2,525,318,523.2,332.5z"/>
</g>
<g>
	<g enable-background="new    ">
		<path fill="#ED1111" d="M149.6,437.1c-5.4,2.4-9.3,6-11.4,12.2c1.3-1.7,2.7-2.8,4.5-2.8c3.6,0,5.2,4.3,5.2,9
			c0,6.6-3.2,14.4-8.8,14.4c-4.7,0-6.7-5-6.7-10.7c0-12.9,7.8-23.5,15.5-26.4L149.6,437.1z M136.6,459.3c0,3.7,0.8,6.4,2.5,6.4
			c2.4,0,3.8-5.9,3.8-10.5c0-2.8-0.6-5.2-1.9-5.2C138.9,450,136.8,453.5,136.6,459.3z"/>
		<path fill="#ED1111" d="M150.3,469.3l0.4-3.4h3.2c1.6-12.9,3.3-19.7,3.3-19.7s-1.2,2-3.9,5l-1.6-3.8c3.7-2.9,8-8.8,8-8.8l2.8,1.1
			c-0.2,1.4-1.9,11.1-3.9,26.1h3.4l-0.4,3.4L150.3,469.3L150.3,469.3z"/>
		<path fill="#ED1111" d="M171.9,454.4c0.9,0.1,1.7,0.2,2.5,0.4c1.5-2.1,2.4-5.3,2.4-8s-0.9-4.8-2.9-4.8c-1.6,0-3.2,1.8-3.2,4.8
			c0,0.8,0.2,1.8,0.5,2.8l-3.9,1.7c-0.5-1.2-0.6-2.6-0.6-4c0-4.4,2.4-9,7.5-9c5,0,7.2,4.1,7.2,8.8c0,3.6-1.3,7.3-3.7,9.7
			c1.8,1.8,2.7,4.7,2.7,7.5c0,6-3.7,12.6-9.8,12.6c-4.4,0-6.6-3.8-6.6-8c0-2.7,1-5.6,3-7.6l3.1,3.7c-1.2,1.3-1.9,3.1-1.9,4.7
			c0,1.7,0.8,3.1,2.7,3.1c2.9,0,4.8-5.1,4.8-9.6c0-1.6-0.3-3.3-0.8-4.6c-0.8,0.4-1.7,0.5-2.7,0.5c-0.3,0-0.5,0-0.8-0.1L171.9,454.4z
			"/>
	</g>
	<g enable-background="new    ">
		<path fill="#EA9F07" d="M212,454.3C212,454.4,212,454.4,212,454.3c-2.1,6.6-5.2,11.3-8.2,15.1l-1.2,8.6
			c-0.9,6.8-3.1,11.7-6.7,11.7c-2.5,0-4.3-1.7-4.3-5.3c0-4.6,3.6-8.4,7.7-13.2c0.4-2,0.5-4.1,0.9-6.2c-1.4,3-3.2,5-5.5,5
			c-2.7,0-3.8-3.6-3.8-8.5c0-9.4,4.3-23.2,9.6-23.2c1.7,0,2.7,1.2,3.1,3.6l0.5-2.8h4.6c-0.6,2.9-2.5,15.4-4.1,26
			c2.4-3.2,4.5-6.9,5.9-11.4C210.9,453.4,212,453.9,212,454.3z M195.9,486.1c0.9,0,1.4-1.4,1.7-3.4l1.1-7.1
			c-2.4,2.9-3.9,5.6-3.9,8.8C194.7,485.5,195.3,486.1,195.9,486.1z M195.6,460.9c0,2.1,0.4,3.5,1.2,3.5c2.6,0,5.8-10.9,5.8-17.1
			c0-2.5-0.5-4.2-1.7-4.2C198.4,443.1,195.6,454.8,195.6,460.9z"/>
		<path fill="#EA9F07" d="M218.1,464.7c1.2,0,3.2-3.6,5.7-11.2c0.3,0,1.6,0.5,1.6,0.8v0.1c-2.5,7.6-4.4,15.4-9,15.4
			c-2.7,0-3.7-2-3.7-5c0-4.3,2.6-9.1,2.6-12.4c0-2-0.5-3.6-1.1-4.9l-2.2,7c0,0-1.6-0.4-1.6-0.8v-0.1c1-3.2,1.7-6.5,2.3-9.7
			c-0.5-1.5-1-3.3-1-5.6c0-2.1,0.4-4.8,1.3-8.2l4.2,1.5c-0.2,4.4-0.6,7.6-1.6,11.1c1.8,2.3,4.2,4.9,4.2,8.8c0,4.3-2.6,9.8-2.6,12.2
			C217.3,464.2,217.6,464.7,218.1,464.7z"/>
		<path fill="#EA9F07" d="M236.8,439h3.9c-1.6,8.9-2.7,16.1-3.5,22.7c-0.1,0.7-0.1,1.3-0.1,1.7c0,1,0.2,1.5,0.5,1.5
			c0.6,0,2.9-3.2,5.7-11.4c0.4,0,1.6,0.5,1.6,0.9c-3.4,10.7-6.1,15.4-8.7,15.4c-1.8,0-2.7-1.9-2.7-6.5c0-0.2,0-0.5,0-0.7
			c-1.3,4-3.2,7.6-6.5,7.6c-2.7,0-3.8-3.6-3.8-8.5c0-9.4,4.3-23.2,9.6-23.2c2.1,0,3.2,1.5,3.7,4.5L236.8,439z M227.7,460.9
			c0,2.1,0.4,3.5,1.2,3.5c2.6,0,5.8-10.9,5.8-17.1c0-2.5-0.5-4.2-1.7-4.2C230.5,443.1,227.7,454.8,227.7,460.9z"/>
		<path fill="#EA9F07" d="M249.1,439l-0.5,3.6c1.5-2.7,3.1-4.3,4.9-4.3c3.1,0,4.5,3.9,4.5,9.1c0,6.5-2.1,14.9-5.3,19.7
			c4.8-1.4,7.5-7.1,9.5-13.6c0.4,0,1.6,0.5,1.6,0.9c-2.6,8-5.9,15.6-12.8,15.6c-2.4,0-4.5-1.1-5.7-3.8l-3.2,23h-3.7
			c0-0.2,0-0.4,0-0.6c0-5.1,1.2-11.8,2.3-16.5c1.7-12.5,3.9-28.7,4.2-33.2L249.1,439L249.1,439z M238.6,486.7
			c-0.1,0.4-0.1,0.8-0.1,0.9C238.5,487.5,238.6,487.2,238.6,486.7z M238.9,485.1c-0.1,0.4-0.1,0.5-0.1,0.8
			C238.7,485.6,238.8,485.3,238.9,485.1z M246.3,459c-0.1,0.4-0.1,0.8-0.1,1.3c0,2.1,0.5,4.1,1.9,4.1c2.6,0,4.9-11,4.9-17.1
			c0-2.5-0.4-4.2-1.2-4.2c-1.6,0-3.4,3.6-4.8,10.2L246.3,459z"/>
		<path fill="#EA9F07" d="M260,469.3c-0.1-0.6-0.1-1.2-0.1-1.8c0-5.3,1.7-10.7,1.7-10.7c1.9-14.2,4.4-30.4,6.7-36.6
			c1.1-2.8,3-4.1,4.7-4.1c2.7,0,3.8,1.6,3.8,4.2c0,5.4-4.8,14.5-8.2,19.6c-0.2,1.2-0.4,2.4-0.6,3.7c1.8-3.3,4.1-5.4,6.5-5.4
			c1.9,0,3.2,1.6,3.2,4.8c0,6.2-3.7,14.2-3.7,19.6c0,1.9,0.6,2.3,1.1,2.3c1.5,0,3.3-3.7,5.8-11.4c0.4,0,1.6,0.5,1.6,0.9
			c-2.5,7.6-4.9,15.4-9.5,15.4c-1.9,0-3.7-1.8-3.7-5.9c0-7.2,3.7-14.6,3.7-19.4c0-0.7-0.3-1.4-0.9-1.4c-2.4,0-5.4,6.5-7.5,26.3
			L260,469.3L260,469.3z M273.4,420.5c-0.9,0-1.6,2.8-3.7,13.9c1.6-3.6,4.1-9.5,4.1-12.9C273.8,420.8,273.6,420.5,273.4,420.5z"/>
		<path fill="#EA9F07" d="M288.4,439c-1.9,10.4-3.6,18.1-3.6,23.6c0,1.9,0.6,2.3,1.1,2.3c1.5,0,3.3-3.7,5.8-11.4
			c0.3,0,1.6,0.5,1.6,0.8v0.1c-2.5,7.6-4.4,15.4-9,15.4c-3,0-4-3.3-4-8c0-7.4,2.5-18,3.4-22.8L288.4,439L288.4,439z M284.3,431.7
			c0-2.4,1.5-5.3,3.9-5.3c1.8,0,2.7,1.6,2.7,3.5c0,2.4-1.5,5.2-3.9,5.2C285.2,435.1,284.3,433.5,284.3,431.7z"/>
		<path fill="#EA9F07" d="M300.5,452c1.1-2.3,1.8-5.2,1.8-7.2c0-1.4-0.4-2.4-1.1-2.4c-2.9,0-5.4,8-5.4,14.3c0,4.2,1.1,7.7,3.9,7.7
			c2.7,0,5.7-3.6,8.1-11c0.4,0,1.6,0.5,1.6,0.9c-1.6,5.3-5.9,15.6-11.9,15.6c-4.4,0-6.2-5.3-6.2-11.7c0-9.1,3.9-20,10.1-20
			c3.2,0,4.5,3.1,4.5,6.9c0,2.8-0.7,6.1-1.8,9L300.5,452z"/>
		<path fill="#EA9F07" d="M334.3,416.9h4.4c-0.2,5.7-2.2,19.3-4.7,30.4c-1.1,7.1-1.5,11.3-1.5,13.5c0,1.4,0.2,1.9,0.5,1.9
			c1.3,0,2.9-3.8,4.8-9.3c0.4,0,1.6,0.5,1.6,0.9c-3.4,10.7-6.6,15.4-9.1,15.4c-1.8,0-2.7-1.9-2.7-6.5c0-0.2,0-0.5,0-0.7
			c-1.3,4-3.2,7.6-6.4,7.6c-2.7,0-3.8-3.7-3.8-8.5c0-9.4,4.2-23.2,9.5-23.2c2.1,0,3.2,1.5,3.7,4.5L334.3,416.9z M321.8,460.9
			c0,2.1,0.4,3.5,1.1,3.5c2.6,0,5.8-10.9,5.8-17.1c0-2.5-0.5-4.2-1.7-4.2C324.6,443.1,321.8,454.9,321.8,460.9z"/>
		<path fill="#EA9F07" d="M353.7,453.4c0.4,0,1.6,0.5,1.6,0.9c-2.7,8.8-5.6,15.6-11.1,15.6c-4.8,0-6.9-5.3-6.9-11.6
			c0-9.1,4.2-20.1,10.4-20.1c2.7,0,4.2,2.4,4.2,5.5c0,4.8-3.4,11.2-10,12.4c0,0.4,0,0.6,0,1c0,4,0.9,7.2,3.5,7.2
			C348.9,464.4,351.6,460.2,353.7,453.4z M342.2,453.6c4.2-2.5,6-7,6-9.5c0-1-0.4-1.6-0.9-1.6C345.1,442.5,342.9,448.1,342.2,453.6z
			"/>
		<path fill="#EA9F07" d="M355.5,462.6c0.7,1.5,1.4,2,2.5,2c1.4,0,2.2-1.2,2.2-3.6c0-4.1-1.6-8.1-2.8-12.9c-0.6,2.2-1.4,4.3-1.9,6.3
			c0,0-1.6-0.4-1.6-0.8v-0.1c0.7-2.3,1.8-5.3,2.8-8.5c-0.4-2-0.6-4.1-0.6-6.4c0-2.7,0.4-5.6,1.3-8.9l3.7,0.8c-0.5,3.6-1,6.8-1.6,9.7
			c0.2,5.6,5.7,12.5,5.7,20v0.3c1.1-2.1,1.9-4.6,2.7-7.1c0.4,0,1.6,0.5,1.6,0.9c-2.6,8-5.7,15.6-11.7,15.6c-2.7,0-4.8-1.8-5.5-4.6
			L355.5,462.6z"/>
		<path fill="#EA9F07" d="M375.1,439c-1.9,10.4-3.6,18.1-3.6,23.6c0,1.9,0.6,2.3,1.1,2.3c1.5,0,3.3-3.7,5.8-11.4
			c0.3,0,1.6,0.5,1.6,0.8v0.1c-2.5,7.6-4.4,15.4-9,15.4c-3,0-4-3.3-4-8c0-7.4,2.5-18,3.4-22.8L375.1,439L375.1,439z M371,431.7
			c0-2.4,1.5-5.3,3.9-5.3c1.8,0,2.7,1.6,2.7,3.5c0,2.4-1.5,5.2-3.9,5.2C371.8,435.1,371,433.5,371,431.7z"/>
		<path fill="#EA9F07" d="M398.6,454.3C398.6,454.4,398.6,454.4,398.6,454.3c-2.1,6.6-5.2,11.3-8.2,15.1l-1.2,8.6
			c-0.9,6.8-3.1,11.7-6.7,11.7c-2.5,0-4.3-1.7-4.3-5.3c0-4.6,3.6-8.4,7.7-13.2c0.4-2,0.5-4.1,0.9-6.2c-1.4,3-3.2,5-5.5,5
			c-2.7,0-3.8-3.6-3.8-8.5c0-9.4,4.3-23.2,9.6-23.2c1.7,0,2.7,1.2,3.1,3.6l0.5-2.8h4.6c-0.6,2.9-2.5,15.4-4.1,26
			c2.4-3.2,4.5-6.9,5.9-11.4C397.5,453.4,398.6,453.9,398.6,454.3z M382.5,486.1c0.9,0,1.4-1.4,1.7-3.4l1.1-7.1
			c-2.4,2.9-3.9,5.6-3.9,8.8C381.4,485.5,382,486.1,382.5,486.1z M382.2,460.9c0,2.1,0.4,3.5,1.2,3.5c2.6,0,5.8-10.9,5.8-17.1
			c0-2.5-0.5-4.2-1.7-4.2C385,443.1,382.2,454.8,382.2,460.9z"/>
		<path fill="#EA9F07" d="M394.2,469.3c0,0,0.5-6,2.1-11.1c1.1-7.5,2.1-14.3,2.7-19.3h4.8l-0.6,4.5c1.8-3.2,4-5.2,6.4-5.2
			c1.9,0,3.2,1.6,3.2,4.8c0,6.2-3.7,14.2-3.7,19.6c0,1.9,0.6,2.3,1.1,2.3c1.5,0,3.3-3.7,5.8-11.4c0.4,0,1.6,0.5,1.6,0.9
			c-2.5,7.6-4.9,15.4-9.5,15.4c-1.9,0-3.7-1.8-3.7-5.9c0-7.2,3.7-14.6,3.7-19.4c0-0.7-0.3-1.4-0.9-1.4c-1.4,0-3.8,3.1-5.7,12.5
			l-2.2,13.8L394.2,469.3L394.2,469.3z"/>
		<path fill="#EA9F07" d="M432,453.4c0.4,0,1.6,0.5,1.6,0.9c-2.7,8.8-5.6,15.6-11.1,15.6c-4.8,0-6.9-5.3-6.9-11.6
			c0-9.1,4.2-20.1,10.4-20.1c2.7,0,4.2,2.4,4.2,5.5c0,4.8-3.4,11.2-10,12.4c0,0.4,0,0.6,0,1c0,4,0.9,7.2,3.5,7.2
			C427.2,464.4,429.9,460.2,432,453.4z M420.6,453.6c4.2-2.5,6-7,6-9.5c0-1-0.4-1.6-0.9-1.6C423.4,442.5,421.2,448.1,420.6,453.6z"
			/>
		<path fill="#EA9F07" d="M439.8,464.7c1.2,0,3.2-3.6,5.7-11.2c0.3,0,1.6,0.5,1.6,0.8v0.1c-2.5,7.6-4.4,15.4-9,15.4
			c-2.7,0-3.7-2-3.7-5c0-4.3,2.6-9.1,2.6-12.4c0-2-0.5-3.6-1.1-4.9l-2.2,7c0,0-1.6-0.4-1.6-0.8v-0.1c1-3.2,1.7-6.5,2.3-9.7
			c-0.5-1.5-1-3.3-1-5.6c0-2.1,0.4-4.8,1.3-8.2l4.2,1.5c-0.2,4.4-0.6,7.6-1.6,11.1c1.8,2.3,4.2,4.9,4.2,8.8c0,4.3-2.6,9.8-2.6,12.2
			C438.9,464.2,439.2,464.7,439.8,464.7z"/>
	</g>
</g>
</svg>
