<?xml version="1.0" encoding="utf-8"?>
<!-- Generator: Adobe Illustrator 18.1.0, SVG Export Plug-In . SVG Version: 6.00 Build 0)  -->
<svg version="1.1" id="Layer_1" xmlns="http://www.w3.org/2000/svg" xmlns:xlink="http://www.w3.org/1999/xlink" x="0px" y="0px"
	 viewBox="0 0 720 504" enable-background="new 0 0 720 504" xml:space="preserve">
<g>
	<path fill="#444444" d="M381.5,394c4.7-4.7,8.4-14,11.3-26.9c-20.4-2.9-30.4-20.4-30.4-38.5c0-30.4,22.8-46.5,46.1-46.5
		c25.7,0,48.9,17.3,48.9,55.3c0,32.5-18.5,67.7-48.1,67.7c-13.2,0-21.2-2.5-26.9-4.3c-5.6,3.7-11.5,5.1-17.7,5.1l2.9-15.6
		C372.1,390.1,376.8,391.7,381.5,394z M445.3,340.3c0-37.2-16.5-52.4-37.2-52.4c-19.9,0-36.8,17.3-36.8,41.7c0,15.2,7.2,30,22,32.5
		c1.2-6,2.5-13.2,3.7-20.4c2.9-20.4,5.1-34.1,8.4-42.8l10.1,2.5c-3.3,8.4-6,20.4-8.4,40.1c-1.2,7.6-2.1,14.4-3.7,20.4
		c10.9-2.5,17.3-12.3,17.3-21.6c0-3.9-1.2-8-3.7-11.3l8-7.2c3.7,4.7,5.6,10.9,5.6,16.5c0,14-10.9,28-28.8,30
		c-3.7,13.6-9.3,22.8-14.8,28.8c5.6,2.1,12.3,3.7,21.2,3.7C432.5,399.8,445.3,368.9,445.3,340.3z"/>
	<path fill="#444444" d="M475.3,330.2c-3.7,16.9-6.8,29.6-6.8,38.5c0,3.3,1.2,3.7,2.1,3.7c2.9,0,6.4-6,11.3-18.5
		c0.8,0,3.3,0.8,3.3,1.2l0,0c-4.7,12.3-8.4,25.3-17.7,25.3c-6,0-8-5.6-8-13.2c0-11.9,4.7-29.6,6.4-37.2h9.7v0.2H475.3z M467.7,318.7
		c0-3.7,2.9-8.4,7.6-8.4c3.7,0,5.1,2.9,5.1,5.6c0,3.7-2.9,8.4-7.6,8.4C469.3,324.3,467.7,321.6,467.7,318.7z"/>
	<path fill="#444444" d="M499,351.6c2.1-3.7,3.7-8.4,3.7-11.5c0-2.5-0.8-3.7-2.1-3.7c-5.6,0-10.9,13.2-10.9,23.2
		c0,6.8,2.1,12.3,8,12.3c5.1,0,10.9-6,15.6-18.1c0.8,0,3.3,1.2,3.3,1.2c-3.7,8.4-11.5,25.7-23.2,25.7c-8.4,0-12.3-8.4-12.3-18.9
		c0-14.8,7.6-32.5,19.5-32.5c6,0,8.4,5.1,8.4,11.3c0,4.7-1.2,10.1-3.7,14.8L499,351.6z"/>
	<path fill="#444444" d="M539.1,330.2h8c-3.7,14.4-5.6,26.1-6.8,37.2c-0.4,1.2-0.4,2.1-0.4,2.9c0,1.6,0.4,2.5,1.2,2.5
		c1.2,0,6-5.1,10.9-18.9c0.8,0,3.3,1.2,3.3,1.2c-6.4,17.7-11.9,25.3-16.9,25.3c-3.7,0-5.6-3.3-5.6-10.9c0-0.4,0-0.8,0-1.2
		c-2.5,6.4-6,12.3-12.7,12.3c-5.6,0-7.6-6-7.6-13.6c0-15.6,8.4-38,18.9-38c3.9,0,6,2.5,7.2,7.2L539.1,330.2z M521,366
		c0,3.7,0.8,5.6,2.5,5.6c5.1,0,11.3-18.1,11.3-27.6c0-3.9-1.2-6.8-3.7-6.8C526.7,337.2,521,356.4,521,366z"/>
	<path fill="#444444" d="M565.8,330.2c-3.7,16.9-6.8,29.6-6.8,38.5c0,3.3,1.2,3.7,2.1,3.7c2.9,0,6.4-6,11.3-18.5
		c0.8,0,3.3,0.8,3.3,1.2l0,0c-4.7,12.3-8.4,25.3-17.7,25.3c-6,0-8-5.6-8-13.2c0-11.9,4.7-29.6,6.4-37.2h9.7v0.2H565.8z M557.8,318.7
		c0-3.7,2.9-8.4,7.6-8.4c3.7,0,5.1,2.9,5.1,5.6c0,3.7-2.9,8.4-7.6,8.4C559.4,324.3,557.8,321.6,557.8,318.7z"/>
	<path fill="#444444" d="M587.6,372.4c2.5,0,6-6,10.9-18.1c0.8,0,3.3,0.8,3.3,1.2l0,0c-4.7,12.3-8.4,25.3-17.7,25.3
		c-5.1,0-7.2-3.7-7.2-8.4c0-7.2,5.1-14.8,5.1-20.4c0-3.7-1.2-6-2.1-8l-4.3,11.5c0,0-3.3-0.8-3.3-1.2l0,0c2.1-5.1,3.7-10.9,4.3-15.6
		c-1.2-2.5-2.1-5.6-2.1-9.3c0-3.7,0.8-8,2.5-13.2l8.4,2.5c-0.4,7.2-1.2,12.3-3.3,18.1c3.7,3.7,8.4,8,8.4,14.4c0,6.8-5.1,16-5.1,19.9
		C585.5,371.6,586.4,372.4,587.6,372.4z"/>
	<path fill="#444444" d="M629.5,353.9c0.8,0,3.3,1.2,3.3,1.2c-5.6,14.4-10.9,25.7-21.6,25.7c-9.7,0-13.2-8.4-13.2-18.9
		c0-14.8,8.4-32.9,20.4-32.9c5.6,0,8.4,3.7,8.4,8.8c0,8-6.4,18.1-19.3,20.4c0,0.8,0,1.2,0,1.6c0,6.4,1.6,11.5,6.8,11.5
		C619.9,372,625.6,365.2,629.5,353.9z M607.1,354.3c8.4-3.9,11.5-11.5,11.5-15.6c0-1.6-0.8-2.9-1.6-2.9
		C612.7,336.4,608.8,345.7,607.1,354.3z"/>
</g>
<g>
	<path fill="#444444" d="M362,309.5c-5.6,13.6-14,22.4-27.1,22.4c-3.7,0-6.8-0.8-10.1-1.6c-19.5-7.2-27.1-38-27.1-81.6
		c0-54.1,11.5-128.5,26.1-204.4c0-0.4,0.4-1.2,0.4-1.2l-16.5-7.6c-26.5,19.9-44.4,72.6-65,124.6c-10.5-5.1-21.6-8.4-33.7-10.1
		c-2.5-0.2-4.9-0.6-7.4-0.6c-3.7-10.5-9.7-19.5-18.5-26.5c-10.5-8.4-24.9-13.6-43.6-13.6c-62.3,0-95.6,52.4-95.6,103
		c0,12.7,2.1,25.3,6.4,36.8c11.3,30.4,37.6,54.1,80.6,54.1c6.8,0,13.2-0.8,19.5-2.1c0.8,0,1.2-0.4,2.1-0.4
		c50.8-11.5,78.1-63.7,99.3-118.7c9.7,8,16.9,19.3,20.4,33.3l0,0c1.2,4.7,1.6,10.1,2.1,15.6c-0.4,6-0.4,12.3-0.4,18.5
		c0,24.9,2.9,45.7,8.8,62.1c9.3,24.9,26.9,38.9,54.9,38.9c19.9,0,34.8-10.9,43.6-31.7c0.4-0.8,0.8-1.2,0.8-2.1L362,309.5z
		 M65.5,214.1c0-39.7,20.8-82.9,58.8-91.3c1.2-0.4,2.5-0.8,3.7-0.8c3.7-0.8,6.8-0.8,10.9-0.8c22,0,36,12.7,42.2,29.2
		c-0.8,0-1.2,0-1.6,0.4c-35.6,4.3-68.5,24.9-76.1,58.4l4.3,1.2l16,5.1c6-27.1,32.1-44.4,60-49.4v3.7c0,3.7-0.4,6.8-1.2,10.5
		c-3.3,17.3-13.6,32.9-31.7,38.5l2.5,6l6,13.6c30-8.8,46.5-38.2,46.5-66.2c0-2.1,0-3.9-0.4-6c11.3,0.8,22.4,3.3,32.1,7.6
		c-1.2,2.9-2.5,5.6-3.7,8.4c-24.1,58-53.3,110-101.8,110c-11.9,0-22.4-2.9-30.8-7.2C77.2,271.4,65.5,243.5,65.5,214.1z M256.9,168.8
		c15.2-41.7,27.1-82.9,43.6-110.2h0.4C297,77.1,293.3,95,290,112.7c-4.7,26.1-8.8,51.2-11.5,74.4c-0.4,2.5-0.8,5.1-0.8,7.6
		C272.1,184.4,265.3,175.6,256.9,168.8z"/>
	<path fill="#444444" d="M412.8,97.7c-1.6-3.3-4.7-5.1-9.7-5.1c-6.4,0-11.3,3.7-14,8.8c-1.6,3.3-2.9,6.4-2.9,10.1c0,0.8,0,1.2,0,2.1
		c0.4,2.5,1.2,4.7,2.9,6.4c1.6,2.1,4.7,3.7,8.4,3.7c10.9,0,16.9-10.1,16.9-18.5C414.8,102.4,414,99.5,412.8,97.7z"/>
	<path fill="#444444" d="M621.1,189.4c-5.6,13.6-10.5,23.6-14.4,30c-4.7,7.6-8.4,10.9-9.7,10.9s-2.1-1.6-2.1-5.1c0-1.6,0-3.7,0.4-6
		c3.3-22.4,7.6-46.9,14-76.5c0.4-1.6,0.8-3.3,1.2-4.7h-16.9l-1.2,5.6l-1.6,8.4c-0.8-4.3-2.1-8-3.7-10.9c-2.9-3.7-6.4-5.6-11.5-5.6
		c-16.9,0-31.3,27.4-37.6,54.9c-1.6,4.3-3.7,8.4-5.1,12.7c-2.1,4.3-3.9,8.4-6.4,12.3v-1.2c0-26.9-23.2-51.6-24.1-71.8
		c2.9-9.7,4.7-19.9,6.4-31.7c0.4-1.2,0.4-2.5,0.8-3.7l-16-3.3c-3.7,11.5-5.6,22.4-5.6,32.1c0,8.4,1.2,15.6,2.9,22.8
		c-1.2,2.7-2.3,5.8-3.5,8c0,0.2,0,0.2-0.2,0.4l4.7,2.5l0.6,0.2l0.8,0.2c3.3,10.5,6.8,19.5,9.7,28.4c1.6,6,2.9,11.5,2.9,17.7
		c0,8.4-3.5,13.2-9.3,13.2c-0.4,0-0.4,0-0.8,0c-2.1,0-3.7-0.8-5.6-1.6c-1.2-1.2-2.9-2.9-3.9-4.7c0,0-0.4-0.4-0.4-0.8L471.6,233
		c1.2,3.3,2.9,6,4.7,8.4c4.3,5.1,11.3,8.4,18.9,8.4c17.3,0,28.8-11.9,38-28.8c0.8-1.2,1.2-2.5,1.6-3.7v1.6c0,7.6,1.2,14.4,3.3,19.7
		c0.4,0.8,0.8,1.2,1.2,2.1c1.4,2.9,3.1,4.9,5.1,6.4c2.1,1.4,4.5,2.1,7.6,2.1c13.6,0,22.4-12.7,27.6-27.4v2.9
		c0,9.3,1.2,15.6,4.1,19.3c2.1,2.9,4.3,3.9,8,3.9c10.9,0,22.4-16.5,36.8-53.7c0.4-0.4,0.4-1.2,0.8-1.2
		C627.9,191.2,622.7,189.4,621.1,189.4z M583.9,167.6c0,18.9-10.1,50-19.7,58.8c-1.6,1.2-2.9,2.1-4.7,2.1c-3.7,0-5.1-5.1-5.1-12.3
		c0-21.6,12.3-63.7,22.4-63.7c4.7,0,6.8,4.7,7.2,11.9L583.9,167.6L583.9,167.6z"/>
	<path fill="#444444" d="M492.6,169.8l-0.4-0.2l-4.7-2.5c0-0.2,0.2-0.2,0.2-0.4l-1-0.4c-3.3,8.4-6.4,16-8.8,22
		c-2.1,4.7-3.5,9.3-5.6,13.2c-2.1,4.3-3.9,8.8-6.4,12.3V213c0-26.9-23.2-51.2-24.1-71.8c2.5-9.7,4.7-19.9,6.4-31.7
		c0.4-1.2,0.8-2.5,0.8-3.7l-16-3.3c-1.6,4.7-2.5,9.7-3.7,14c-0.8,6.8-1.6,12.3-1.6,18.1c0,8,1.2,15.6,2.9,22.8
		c-1.2,2.9-2.5,5.6-3.7,8.4l-1.9,6.2c-2.7,6.4-4.7,12.1-6.4,17.1c-3.9,10.3-7.6,18.5-10.7,24.7c-3.3,6.4-6.2,10.7-8.8,13.4
		c-1.6,1.6-3.7,2.9-5.1,2.9c-2.1,0-4.7-1.2-4.7-8.4c0-18.7,6.4-44.8,14-80.2c0.4-1.6,0.8-3.3,1.2-4.7h-20.8
		c-2.9,11.5-8.4,32.5-11.5,53.3c-3.9,10.5-8,18.7-11.5,25.3c-4.3,8-8.8,13.2-12.7,14c-0.8,0.4-1.2,0.4-2.1,0.4
		c-5.6,0-9.3-5.1-9.3-20.8c0-7.6,0.8-16.9,2.1-27.1c9.7-11.5,25.3-34.8,35.2-66.4c2.5-7.6,7.2-24.5,7.2-38.5
		c0-6.4-1.2-12.7-3.9-16.9c-2.5-3.7-6-5.6-11.9-5.6c-13.6,0-28.8,27.1-39.7,87c-4.7,27.4-7.6,50.2-7.6,67.7c0,11.9,1.2,21.6,4.3,28
		c1.6,3.5,3.7,6.2,6.4,8c2.7,1.9,5.8,2.9,9.3,2.9c11.5,0,20.8-10.5,30.4-31.7c0.4-0.8,0.8-1.2,1.2-2.1v4.1c0,7.6,1.2,14,3.3,18.7
		c0.4,0.4,0.4,1.2,0.8,1.2c2.9,5.1,6.8,8,13.2,8c8.6,0,14.8-5.3,20.6-14c0.4-0.6,0.8-1.2,1.2-1.9c6.4-10.9,11.1-25.3,16.9-39.7
		c2.7-7,5.8-14,8.2-21.6l0,0l0,0h0.2c3.7,10.5,7.2,19.9,9.7,28.8c1.6,6,2.9,11.5,2.9,17.7c0,9.3-3.3,13.2-9.3,13.2
		c-0.4,0-0.4,0-0.8,0c-2.1,0-3.9-0.4-5.6-1.6c-1.2-0.8-2.5-2.5-3.7-3.9c0,0-0.4-0.8-0.8-1.2L411.8,233c1.6,4.3,3.9,8,7.6,10.9
		c3.9,3.7,10.1,5.6,16,5.6c12.3,0,22.4-6.8,30.4-17.7c0.4-0.6,1-1.2,1.4-2.1c3.3-4.7,6.4-10.1,9.3-15.8c3.3-6.6,6.2-13.8,8.8-21
		c2.5-6.8,5.6-14.4,8.4-22.4L492.6,169.8z M368,71.1c1.2,0,2.5,2.1,2.5,5.1c-0.4,29.2-18.1,68.9-30,91.1
		C347.6,123.2,361.6,71.1,368,71.1z"/>
	<path fill="#444444" d="M492.6,169.8l-0.4-0.2l-4.7-2.5c0-0.2,0.2-0.2,0.2-0.4l3.9,1.9L492.6,169.8z"/>
</g>
<path fill="#BB99C1" d="M433.1,169.2L433.1,169.2C432.9,169.2,432.9,169.2,433.1,169.2L433.1,169.2z"/>
</svg>
