<?xml version="1.0" encoding="utf-8"?>
<!-- Generator: Adobe Illustrator 17.1.0, SVG Export Plug-In . SVG Version: 6.00 Build 0)  -->
<!DOCTYPE svg PUBLIC "-//W3C//DTD SVG 1.1//EN" "http://www.w3.org/Graphics/SVG/1.1/DTD/svg11.dtd">
<svg version="1.1" id="Layer_1" xmlns="http://www.w3.org/2000/svg" xmlns:xlink="http://www.w3.org/1999/xlink" x="0px" y="0px"
	 viewBox="0 0 792 612" enable-background="new 0 0 792 612" xml:space="preserve">
<path fill="#91C84A" d="M267.7,401.4L267.7,401.4c0,0,0-0.1-0.1-0.2C267.6,401.3,267.6,401.3,267.7,401.4z"/>
<g>
	<g>
		<g>
			<path fill="#4E0B3B" d="M438.2,352.3L438.2,352.3C438.2,352.3,438.2,352.3,438.2,352.3C438.2,352.3,438.2,352.3,438.2,352.3z
				 M445.8,349.3c0,0-0.1,0-0.1,0.1C445.8,349.3,445.8,349.3,445.8,349.3C445.9,349.3,445.9,349.3,445.8,349.3
				C445.9,349.3,445.9,349.3,445.8,349.3z M451.4,345.2C451.4,345.2,451.4,345.2,451.4,345.2L451.4,345.2
				C451.4,345.2,451.4,345.2,451.4,345.2z M628.1,391.5L628.1,391.5C628.1,391.5,628.1,391.5,628.1,391.5L628.1,391.5z M630.5,390.5
				c-0.3,0.1-0.6,0.3-0.9,0.4C629.8,390.8,630.2,390.7,630.5,390.5C630.5,390.5,630.5,390.5,630.5,390.5L630.5,390.5z M626,392.3
				L626,392.3c0.2-0.1,0.4-0.1,0.6-0.2C626.4,392.2,626.2,392.2,626,392.3z M626.9,392C626.9,392,626.9,392,626.9,392L626.9,392
				L626.9,392C627,392,627,392,626.9,392C626.9,392,626.9,392,626.9,392z M627,392L627,392L627,392c0,0,0.1,0,0.1,0v0
				C627,392,627,392,627,392z M627.1,391.9L627.1,391.9L627.1,391.9L627.1,391.9L627.1,391.9z M627.2,391.8L627.2,391.8
				C627.2,391.9,627.2,391.9,627.2,391.8L627.2,391.8z M627.3,391.8L627.3,391.8C627.3,391.8,627.3,391.8,627.3,391.8L627.3,391.8z
				 M627.4,391.8L627.4,391.8L627.4,391.8L627.4,391.8z M627.7,391.7L627.7,391.7L627.7,391.7L627.7,391.7
				C627.6,391.7,627.6,391.7,627.7,391.7L627.7,391.7C627.6,391.7,627.6,391.7,627.7,391.7L627.7,391.7
				C627.7,391.7,627.7,391.7,627.7,391.7C627.7,391.7,627.7,391.7,627.7,391.7z M627.7,391.6L627.7,391.6L627.7,391.6L627.7,391.6
				L627.7,391.6z M627.8,391.6L627.8,391.6L627.8,391.6L627.8,391.6L627.8,391.6z M628,391.5L628,391.5c-0.1,0-0.1,0-0.1,0.1
				L628,391.5L628,391.5L628,391.5L628,391.5C628,391.5,628,391.5,628,391.5z"/>
			<path fill="#4E0B3B" d="M438.2,352.3C438.2,352.3,438.2,352.3,438.2,352.3L438.2,352.3C438.2,352.3,438.2,352.3,438.2,352.3
				C438.2,352.3,438.2,352.3,438.2,352.3C438.2,352.3,438.2,352.3,438.2,352.3z M445.8,349.3c0,0-0.1,0-0.1,0.1
				C445.8,349.3,445.8,349.3,445.8,349.3C445.9,349.3,445.9,349.3,445.8,349.3C445.9,349.3,445.9,349.3,445.8,349.3z M451.4,345.2
				C451.4,345.2,451.4,345.2,451.4,345.2L451.4,345.2C451.4,345.2,451.4,345.2,451.4,345.2z M460,338.6L460,338.6
				C460,338.6,460,338.6,460,338.6L460,338.6z M625.6,390.2c-0.1,0-0.2,0.1-0.4,0.1c0,0-0.1,0-0.1,0c0.1,0,0.2-0.1,0.4-0.1
				C625.5,390.2,625.5,390.2,625.6,390.2L625.6,390.2C625.6,390.2,625.6,390.2,625.6,390.2z M626,392.3L626,392.3
				c0.2-0.1,0.4-0.1,0.6-0.2C626.4,392.2,626.2,392.2,626,392.3z M627.3,389.5C627.3,389.5,627.3,389.5,627.3,389.5
				c-0.1,0-0.1,0.1-0.1,0.1c0,0,0,0,0,0s0,0,0,0c0,0,0,0,0,0c0,0,0,0,0,0c0,0-0.1,0-0.1,0c0,0-0.1,0-0.1,0c0,0-0.1,0-0.1,0
				c0,0,0,0-0.1,0c0,0-0.1,0-0.1,0c0,0,0,0-0.1,0c0,0,0,0,0,0c0,0,0,0,0,0c-0.1,0-0.1,0-0.2,0.1c0,0,0,0-0.1,0l0,0
				c-0.1,0-0.1,0-0.2,0.1c0.1,0,0.1,0,0.2-0.1c0,0,0,0,0,0c0,0,0,0,0,0c0,0,0.1,0,0.1,0c0,0,0.1,0,0.2-0.1c0.1,0,0.2-0.1,0.3-0.1
				c0.1,0,0.1,0,0.2-0.1c0,0,0.1,0,0.1,0c0,0,0.1,0,0.1,0C627.2,389.6,627.2,389.6,627.3,389.5c0,0,0.1,0,0.1,0
				C627.4,389.5,627.3,389.5,627.3,389.5z M626.9,392C626.9,392,626.9,392,626.9,392L626.9,392L626.9,392C627,392,627,392,626.9,392
				C626.9,392,626.9,392,626.9,392z M627,392L627,392L627,392c0,0,0.1,0,0.1,0v0C627,392,627,392,627,392z M627.1,391.9L627.1,391.9
				L627.1,391.9L627.1,391.9L627.1,391.9z M627.2,391.8L627.2,391.8C627.2,391.9,627.2,391.9,627.2,391.8L627.2,391.8z M627.3,391.8
				L627.3,391.8C627.3,391.8,627.3,391.8,627.3,391.8L627.3,391.8z M627.4,391.8L627.4,391.8L627.4,391.8L627.4,391.8z M629.2,388.8
				L629.2,388.8l-0.1,0.1h0l-0.2,0.1l-0.1,0c0,0-0.1,0-0.1,0c0,0-0.1,0-0.1,0h0c0,0,0,0,0,0c0,0,0,0-0.1,0c-0.1,0-0.1,0-0.2,0h0
				c0,0,0,0,0,0c-0.1,0-0.1,0.1-0.2,0.1c0,0,0,0,0,0c0,0,0,0-0.1,0c0,0-0.1,0-0.2,0c0,0-0.1,0-0.2,0.1c0,0,0,0-0.1,0
				c0.4-0.1,0.7-0.1,1.1,0c0.2-0.3,0.4-0.6,0.8-0.8c0,0,0,0,0,0L629.2,388.8z M627.7,391.7L627.7,391.7L627.7,391.7L627.7,391.7
				C627.6,391.7,627.6,391.7,627.7,391.7L627.7,391.7C627.6,391.7,627.6,391.7,627.7,391.7L627.7,391.7
				C627.7,391.7,627.7,391.7,627.7,391.7C627.7,391.7,627.7,391.7,627.7,391.7z M627.7,391.6L627.7,391.6L627.7,391.6L627.7,391.6
				L627.7,391.6z M627.8,391.6L627.8,391.6L627.8,391.6L627.8,391.6L627.8,391.6z M628,391.5L628,391.5c-0.1,0-0.1,0-0.1,0.1
				L628,391.5L628,391.5L628,391.5L628,391.5C628,391.5,628,391.5,628,391.5z M628.1,391.5L628.1,391.5
				C628.1,391.5,628.1,391.5,628.1,391.5L628.1,391.5z M629.7,388.6L629.7,388.6L629.7,388.6l-0.2,0.1c0,0-0.1,0-0.1,0c0,0,0,0,0,0
				l0,0C629.5,388.6,629.5,388.6,629.7,388.6C629.6,388.6,629.7,388.6,629.7,388.6C629.7,388.5,629.7,388.5,629.7,388.6z
				 M630.5,390.5c-0.3,0.1-0.6,0.3-0.9,0.4C629.8,390.8,630.2,390.7,630.5,390.5C630.5,390.5,630.5,390.5,630.5,390.5L630.5,390.5z"
				/>
		</g>
		<g>
			<path fill="#4E0B3B" d="M627.7,391.6L627.7,391.6L627.7,391.6L627.7,391.6L627.7,391.6z M628,391.5
				C628,391.6,627.9,391.6,628,391.5L628,391.5L628,391.5L628,391.5L628,391.5z M627.4,391.8L627.4,391.8L627.4,391.8L627.4,391.8z
				 M628,391.5C628,391.6,627.9,391.6,628,391.5L628,391.5L628,391.5L628,391.5L628,391.5z M627.7,391.6L627.7,391.6L627.7,391.6
				L627.7,391.6L627.7,391.6z M626,392.3L626,392.3c0.2-0.1,0.4-0.1,0.6-0.2C626.4,392.2,626.2,392.2,626,392.3z M626.9,392
				L626.9,392C627,392,627,392,626.9,392C626.9,392,626.9,392,626.9,392z M627,392L627,392L627,392c0,0,0.1,0,0.1,0v0
				C627,392,627,392,627,392z M627.1,391.9L627.1,391.9L627.1,391.9L627.1,391.9L627.1,391.9z M627.2,391.8L627.2,391.8
				C627.2,391.9,627.2,391.9,627.2,391.8L627.2,391.8z M627.3,391.8L627.3,391.8C627.3,391.8,627.3,391.8,627.3,391.8L627.3,391.8z
				 M627.4,391.8L627.4,391.8L627.4,391.8L627.4,391.8z M627.7,391.7L627.7,391.7L627.7,391.7L627.7,391.7
				C627.7,391.7,627.7,391.7,627.7,391.7C627.7,391.7,627.7,391.7,627.7,391.7z M627.7,391.6L627.7,391.6L627.7,391.6L627.7,391.6
				L627.7,391.6z M628,391.5C628,391.6,627.9,391.6,628,391.5L628,391.5L628,391.5L628,391.5L628,391.5z M630.5,390.5L630.5,390.5
				C630.5,390.5,630.5,390.5,630.5,390.5L630.5,390.5z M627.7,391.6L627.7,391.6L627.7,391.6L627.7,391.6L627.7,391.6z M628,391.5
				C628,391.6,627.9,391.6,628,391.5L628,391.5L628,391.5L628,391.5L628,391.5z M627,392L627,392L627,392c0,0,0.1,0,0.1,0v0
				C627,392,627,392,627,392z M627.1,391.9L627.1,391.9L627.1,391.9L627.1,391.9L627.1,391.9z M627.2,391.8L627.2,391.8
				C627.2,391.9,627.2,391.9,627.2,391.8L627.2,391.8z M627.3,391.8L627.3,391.8C627.3,391.8,627.3,391.8,627.3,391.8L627.3,391.8z
				 M627.4,391.8L627.4,391.8L627.4,391.8L627.4,391.8z M627.7,391.6L627.7,391.6L627.7,391.6L627.7,391.6L627.7,391.6z M628,391.5
				C628,391.6,627.9,391.6,628,391.5L628,391.5L628,391.5L628,391.5L628,391.5z"/>
			<path fill="#4E0B3B" d="M230.6,286.5v1.7c0,2.9-0.2,5.8-0.7,8.6c-0.1,0.8-0.7,1.4-1.4,1.7c-10.8,3.7-29.6,13.1-34.5,34.5l-0.2,1
				c-0.1,0.6-0.5,1.1-1,1.4c-0.3,0.2-0.7,0.3-1.1,0.3c-0.2,0-0.4,0-0.6-0.1l-18.6-5.8c-0.2-0.1-0.4-0.2-0.6-0.3c0,0,0,0,0,0
				c-0.2-0.2-0.4-0.4-0.6-0.6c-0.2-0.3-0.3-0.6-0.3-1c0,0,0-0.1,0-0.1c0-0.2,0-0.3,0.1-0.5l0.2-0.9c0.2-1,0.5-2,0.8-2.9
				c0.2-0.5,0.5-1,1-1.3c0.5-0.3,1.1-0.3,1.6-0.2l5.7,1.7c6-23.4,28.5-35.6,47.8-39.1c0.1,0,0.2,0,0.2,0c0.2,0,0.5,0,0.7,0.1
				c0.3,0.1,0.6,0.2,0.8,0.4c0,0,0,0,0,0c0.2,0.2,0.4,0.5,0.6,0.8C230.5,286,230.6,286.3,230.6,286.5z"/>
			<path fill="#4E0B3B" d="M401.4,220.8c0,2.3-0.1,4.7-0.4,7c-0.1,0.6-0.4,1.2-0.9,1.6c-3.6,2.6-5.9,7.2-5.9,11.9
				c0,2.3,0.7,4.5,1.9,6c0.3,0.4,0.5,0.8,0.5,1.3c0,0.2,0,0.4-0.1,0.6c-0.4,1.4-0.8,2.6-1.1,3.6c-0.8,2.8-1.9,5.8-3.2,9.2
				c-0.2,0.5-0.4,1.1-0.6,1.6c-8.2,20.8-18.8,35.7-24.7,43c-1,8.6-1.4,15.4-1.4,20.7c0,2.7,0.1,5,0.4,7c0.1,0.7-0.2,1.5-0.8,2
				c-1.8,1.5-3.6,2.2-5.3,2.2c-7.6,0-8.5-10.3-8.5-18.1c0-5.7,0.5-12.6,1.5-21.8c0-0.4,0.2-0.8,0.5-1.1c2.8-3.5,8.4-10.8,14.2-21
				c0.5-0.9,1.6-1.3,2.6-1c0.3,0.1,0.5,0.2,0.7,0.4c6.2-13.5,14.6-34.9,15.7-52.9c0-0.1,0-0.1,0-0.2c0.5-3.3,0.7-6.4,0.7-9.1
				c0-4.6-0.6-8.2-1.9-10.9c-0.3-0.7-0.3-1.5,0.2-2.2c0.5-0.6,1.2-1,2-0.9C393.9,200.6,401.4,204.7,401.4,220.8z"/>
			<path fill="#4E0B3B" d="M630.5,390.5c-0.3,0.1-0.6,0.3-0.9,0.4C629.8,390.8,630.2,390.7,630.5,390.5
				C630.5,390.5,630.5,390.5,630.5,390.5L630.5,390.5z M629.7,388.6L629.7,388.6L629.7,388.6l-0.2,0.1c0,0-0.1,0-0.1,0c0,0,0,0,0,0
				l0,0C629.5,388.6,629.5,388.6,629.7,388.6C629.6,388.6,629.7,388.6,629.7,388.6C629.7,388.5,629.7,388.5,629.7,388.6z
				 M628.1,391.5L628.1,391.5C628.1,391.5,628.1,391.5,628.1,391.5L628.1,391.5z M628,391.5L628,391.5c-0.1,0-0.1,0-0.1,0.1
				L628,391.5L628,391.5L628,391.5L628,391.5C628,391.5,628,391.5,628,391.5z M627.8,391.6L627.8,391.6L627.8,391.6L627.8,391.6
				L627.8,391.6z M627.7,391.6L627.7,391.6L627.7,391.6L627.7,391.6L627.7,391.6z M627.7,391.7L627.7,391.7L627.7,391.7L627.7,391.7
				C627.6,391.7,627.6,391.7,627.7,391.7L627.7,391.7C627.6,391.7,627.6,391.7,627.7,391.7L627.7,391.7
				C627.7,391.7,627.7,391.7,627.7,391.7C627.7,391.7,627.7,391.7,627.7,391.7z M627.4,391.8L627.4,391.8L627.4,391.8L627.4,391.8z
				 M627.3,391.8L627.3,391.8C627.3,391.8,627.3,391.8,627.3,391.8L627.3,391.8z M627.2,391.8L627.2,391.8
				C627.2,391.9,627.2,391.9,627.2,391.8L627.2,391.8z M627.1,391.9L627.1,391.9L627.1,391.9L627.1,391.9L627.1,391.9z M627,392
				L627,392L627,392c0,0,0.1,0,0.1,0v0C627,392,627,392,627,392z M626.9,392C626.9,392,626.9,392,626.9,392L626.9,392L626.9,392
				C627,392,627,392,626.9,392C626.9,392,626.9,392,626.9,392z M627.3,389.5C627.3,389.5,627.3,389.5,627.3,389.5
				c-0.1,0-0.1,0.1-0.1,0.1c0,0,0,0,0,0s0,0,0,0c0,0,0,0,0,0c0,0,0,0,0,0c0,0-0.1,0-0.1,0c0,0-0.1,0-0.1,0c0,0-0.1,0-0.1,0
				c0,0,0,0-0.1,0c0,0-0.1,0-0.1,0c0,0,0,0-0.1,0v0c0.1,0,0.2-0.1,0.3-0.1c0.1,0,0.1,0,0.2-0.1c0,0,0.1,0,0.1,0c0,0,0.1,0,0.1,0
				C627.2,389.6,627.2,389.6,627.3,389.5c0,0,0.1,0,0.1,0C627.4,389.5,627.3,389.5,627.3,389.5z M626.5,389.8
				C626.5,389.8,626.5,389.8,626.5,389.8c-0.1,0-0.2,0.1-0.2,0.1c0,0,0,0-0.1,0l0,0c-0.1,0-0.1,0-0.2,0.1c0.1,0,0.1,0,0.2-0.1
				c0,0,0,0,0,0c0,0,0,0,0,0c0,0,0.1,0,0.1,0C626.4,389.9,626.4,389.9,626.5,389.8L626.5,389.8z M626,392.3L626,392.3
				c0.2-0.1,0.4-0.1,0.6-0.2C626.4,392.2,626.2,392.2,626,392.3z M625.9,390.1C625.9,390.1,625.9,390.1,625.9,390.1L625.9,390.1
				C625.9,390.1,625.9,390.1,625.9,390.1C626,390,626,390,625.9,390.1C626,390,625.9,390,625.9,390.1z M625.6,390.2
				c-0.1,0-0.2,0.1-0.4,0.1c0,0-0.1,0-0.1,0c0.1,0,0.2-0.1,0.4-0.1C625.5,390.2,625.5,390.2,625.6,390.2L625.6,390.2
				C625.6,390.2,625.6,390.2,625.6,390.2z"/>
			<path fill="#4E0B3B" d="M253.9,272.8c-0.4,0.6-1.1,0.9-1.7,0.9c-0.1,0-0.2,0-0.3,0c-2.4-0.4-4.7-0.6-7-0.8
				c-0.8-0.1-1.6-0.6-1.9-1.4c-2.5-7-6.3-12.9-11.5-17.6c-0.8-0.7-0.9-1.9-0.3-2.8c0.6-0.9,1.8-1.2,2.7-0.7
				c8.8,4.6,15.5,11.4,20.1,20.2C254.4,271.3,254.4,272.2,253.9,272.8z"/>
			<path fill="#4E0B3B" d="M273.7,291.1c0,0.1,0,0.2,0,0.3c0,0,0,0,0,0c0,0,0,0,0,0s0,0,0,0c0,0,0,0,0,0c0,0.1-0.1,0.3-0.1,0.4
				c0,0,0,0,0,0c0,0,0,0.1,0,0.1c-0.2,0.5-0.5,1.1-0.7,1.6c-0.2,0.6-0.5,1.1-0.7,1.7c-0.4,1-1.4,1.5-2.5,1.2c-3-0.7-6.2-1.3-9.6-1.6
				c0,0.5,0,1,0,1.5v0c0,26-16.3,49.3-39.6,56.6l-0.9,0.3c-0.2,0.1-0.4,0.1-0.6,0.1c-0.8,0-1.6-0.5-2-1.3l-3.8-9.1c0,0,0,0,0,0h0
				c-0.1-0.2-0.1-0.4-0.1-0.6v0c0,0,0-0.1,0-0.2c0-0.3,0.1-0.7,0.2-1c0.1-0.2,0.2-0.3,0.3-0.4c0,0,0,0,0,0c0.2-0.2,0.5-0.4,0.8-0.6
				c18.9-8.3,31.6-28.6,31.6-50.6c0,0,0,0,0,0v0c0-1.3,0-2.5-0.1-3.7c0-0.1,0-0.1,0-0.2v0c0-0.2,0-0.5,0.1-0.7
				c0.1-0.3,0.3-0.6,0.5-0.8c0,0,0,0,0,0c0.2-0.2,0.5-0.4,0.8-0.5c0.2-0.1,0.5-0.1,0.8-0.1h0.2c8.9,0.7,17,2.6,24.2,5.8
				c0.3,0.1,0.6,0.3,0.8,0.6c0,0,0,0,0,0c0,0,0,0,0,0v0h0v0l0,0c0,0,0,0,0,0c0.1,0.1,0.2,0.2,0.2,0.3c0,0,0,0,0,0c0,0,0,0,0,0
				c0,0,0,0,0,0v0c0,0,0,0,0,0c0,0,0,0,0,0v0c0,0,0,0,0,0C273.7,290.4,273.7,290.7,273.7,291.1z"/>
			<path fill="#4E0B3B" d="M381.2,213.1c-0.2,25.4-16.5,58.9-21.5,68.6c-0.4,0.7-1.1,1.2-1.9,1.2c-0.2,0-0.5,0-0.7-0.1
				c-1-0.3-1.6-1.4-1.4-2.4c2.7-15.8,6.4-32.8,10.3-46.5c7.2-25.4,10.6-25.9,11.7-26.1c0.4-0.1,0.8,0,1.2,0.1
				C380.3,208.4,381.2,210.5,381.2,213.1z"/>
		</g>
		<g>
			<path fill="#4E0B3B" d="M559.8,337c0-18.6,4.8-40,10.5-64.7c0.3-1.3,0.6-2.6,0.9-3.9l0.1-0.5c0.2-1,1.1-1.7,2.1-1.7h11.4
				c0.7,0,1.3,0.3,1.7,0.8c0.4,0.5,0.6,1.2,0.4,1.8l-0.3,1.2c-0.8,3.4-1.5,6.8-2.3,10.1c-5.6,24.5-10.4,45.7-10.4,63.8
				c0,8.4,1.6,24,12.4,34.7c0.7,0.7,0.8,1.9,0.2,2.8c-0.4,0.6-1.1,0.9-1.8,0.9c-0.3,0-0.6-0.1-0.9-0.2
				C568.6,374.8,559.8,358.3,559.8,337z"/>
			<path fill="#4E0B3B" d="M527.2,325.7c0-8.7,2.3-21.5,6-32.7c2.1-6.4,4.4-11.6,6.7-15c0.2-0.4,0.5-0.8,0.8-1.2
				c0.3-0.4,0.6-0.7,0.8-1c1.6-1.8,3.2-2.8,4.8-2.8c2.7,0,7.1,1.7,7.1,13.3c0,0,0,0,0,0c0,0,0,0,0,0v0.2c0,0.4-0.2,0.7-0.3,1
				c-2,3.1-4.1,8-6,13.8c-3,9.3-5.1,19.6-5.6,27.6c0,0.4-0.1,0.7-0.3,1c-2.9,4.7-5.8,7-8.7,7C530.1,336.8,527.2,334.9,527.2,325.7z"
				/>
			<path fill="#4E0B3B" d="M493.8,290.9c-4.3-8.7-8.4-16.9-8.8-24.6c0-0.2,0-0.5,0.1-0.7c2.1-7.9,3.8-15.7,5.1-23.9
				c0.1-0.6,0.4-1.1,0.9-1.4c0.5-0.3,1.1-0.5,1.6-0.4l10.6,2c1.2,0.2,1.9,1.3,1.7,2.5l-0.2,0.9c-1.4,9.9-3.3,19.1-5.7,28
				c0.4,6.6,4.3,14.3,8.3,22.5c2.2,4.4,4.4,8.8,6.3,13.5c0.2,0.5,0.2,1.1,0,1.6c-1.8,4.3-3.6,8-5.3,11.2c-0.4,0.7-1.1,1.1-1.9,1.1
				c-0.2,0-0.3,0-0.5-0.1c-0.9-0.2-1.6-1-1.7-1.9C503.7,310.8,498.4,300.2,493.8,290.9z"/>
			<path fill="#4E0B3B" d="M450.7,345.8C450.7,345.8,450.7,345.8,450.7,345.8C450.7,345.8,450.7,345.8,450.7,345.8
				C450.7,345.8,450.7,345.8,450.7,345.8z"/>
			<path fill="#4E0B3B" d="M445.3,290.7c-4.3-8.7-8.3-16.8-8.7-24.4c0-0.2,0-0.4,0.1-0.7c2-7.3,3.6-15.1,5.1-23.9
				c0.1-0.6,0.4-1.1,0.9-1.4c0.5-0.3,1.1-0.5,1.6-0.3l10.6,2c1.1,0.2,1.9,1.3,1.7,2.4l-0.1,0.9c-1.5,10.3-3.4,19.4-5.7,28
				c0.4,6.6,4.2,14.3,8.3,22.5l0.3,0.5c2.1,4.2,4.2,8.5,6,13.1c0.2,0.5,0.2,1.1,0,1.6c-1.8,4.3-3.6,8-5.3,11.2
				c-0.4,0.7-1.1,1.1-1.9,1.1c-0.2,0-0.3,0-0.5-0.1c-0.9-0.2-1.6-1-1.7-1.9c-0.7-10.6-5.9-21.1-10.5-30.4L445.3,290.7z"/>
			<path fill="#4E0B3B" d="M393.7,330.5c0-14,4.4-33.2,9.9-57.4c0.4-1.6,0.7-3.3,1.1-5l0.1-0.3c0.2-1,1.1-1.7,2.1-1.7h11.4
				c0.7,0,1.3,0.3,1.7,0.8c0.4,0.5,0.6,1.2,0.4,1.8l-0.3,1.2c-0.8,3.8-1.7,7.5-2.5,11.1c-4.3,19-8,35.4-9.3,48.2
				c0,0.3-0.1,0.6-0.3,0.9c-3.4,5.5-6.3,8.1-9.2,8.1C396.4,338.2,393.7,336.9,393.7,330.5z"/>
			<path fill="#4E0B3B" d="M321,332.1c1.8-35.8,8.3-81.9,20.4-145c0.1-0.6,0.5-1.2,1.1-1.5c0.6-0.3,1.3-0.3,1.9-0.1l10.3,4.6
				c0.9,0.4,1.4,1.4,1.2,2.4l-0.2,0.8c-9.3,48.2-15.3,86.9-18.5,118.3c0,0.3-0.1,0.7-0.3,1c-5.4,8.3-9.5,15.4-11.8,20.6
				c-0.4,0.8-1.1,1.3-2,1.3c-0.2,0-0.3,0-0.5-0.1C321.6,334.1,320.9,333.1,321,332.1z"/>
			<path fill="#4E0B3B" d="M287.7,288c-0.1-0.2-0.1-0.4-0.1-0.6c0-0.1,0-0.2,0-0.3c0-0.2,0.1-0.3,0.1-0.4c2.4-6.6,4.7-13.3,6.9-19.8
				l1.4-4c5.7-16.7,11.7-34.1,18.2-48.5c0,0,0-0.1,0.1-0.1c0,0,0-0.1,0-0.1c1.6-3.1,3.3-6,5-8.8c0.1-0.1,0.2-0.2,0.3-0.4
				c0.2-0.2,0.5-0.4,0.7-0.5c0.3-0.1,0.6-0.2,1-0.2c0.2,0,0.5,0.1,0.7,0.2c0.2,0.1,0.5,0.2,0.6,0.4c0.2,0.2,0.4,0.5,0.5,0.7
				c0.1,0.3,0.2,0.6,0.2,0.9v0.1c0,0.1,0,0.3-0.1,0.4c-4.5,21.1-8,39.8-10.9,57c0,0.1-0.1,0.2-0.1,0.3c-0.5,1.4-1,2.8-1.5,4.2
				l-2.7,7.8c-2,5.6-4,11.5-6,17.3c1.5,1.2,2.9,2.6,4.5,4.1c0,0,0.1,0.1,0.1,0.1c0.2,0.2,0.4,0.5,0.4,0.7c0.1,0.2,0.1,0.5,0.1,0.7
				c0,0.1,0,0.1,0,0.2c0,0,0,0.1,0,0.1c-0.2,1.7-0.4,3.3-0.6,5l-0.1,0.6c-0.1,0.9-0.8,1.7-1.7,1.9c-0.1,0-0.3,0-0.4,0
				c-0.8,0-1.5-0.4-1.9-1.1c-3.5-6.6-8.2-12.2-14-16.9c-0.1-0.1-0.2-0.2-0.3-0.3C288,288.5,287.8,288.3,287.7,288z"/>
			<path fill="#4E0B3B" d="M139.4,355.7c-3.3-7.8-5.4-16.9-6-26.3c-0.1-1.8-0.2-3.7-0.2-5.5c0-8.3,1.1-16.5,3.2-24.4
				c6-23,19.6-40.5,37.2-47.8c6.2-2.6,12.8-3.9,19.6-3.9c10.7,0,19.9,3.7,26.6,10.7c0.7,0.7,0.8,1.9,0.2,2.7
				c-0.6,0.8-1.7,1.1-2.6,0.7c-4.3-2-9.1-2.9-14.3-2.9c-34.9,0-55.7,36.6-55.7,71.9c0,19.6,6.4,36.8,17.5,47.2
				c0.8,0.7,0.9,1.9,0.3,2.8c-0.4,0.6-1.1,0.9-1.8,0.9c-0.3,0-0.7-0.1-1-0.2c-10.2-5.3-17.9-14-23-25.8
				C139.5,355.7,139.4,355.7,139.4,355.7z"/>
		</g>
		<g>
			<path fill="#4E0B3B" d="M445.9,349.3C445.9,349.3,445.9,349.3,445.9,349.3c-0.1,0.1-0.2,0.1-0.2,0.1
				C445.8,349.3,445.8,349.3,445.9,349.3C445.9,349.3,445.9,349.3,445.9,349.3z"/>
			<path fill="#4E0B3B" d="M450.7,345.8C450.7,345.8,450.7,345.8,450.7,345.8C450.7,345.8,450.7,345.8,450.7,345.8
				C450.7,345.8,450.7,345.8,450.7,345.8z"/>
			<path fill="#4E0B3B" d="M451.4,345.2L451.4,345.2C451.4,345.2,451.4,345.2,451.4,345.2C451.4,345.2,451.4,345.2,451.4,345.2z"/>
			<path fill="#4E0B3B" d="M630.5,390.5c-0.3,0.1-0.6,0.3-0.9,0.4C629.8,390.8,630.2,390.7,630.5,390.5
				C630.5,390.5,630.5,390.5,630.5,390.5L630.5,390.5z M628.1,391.5L628.1,391.5C628.1,391.5,628.1,391.5,628.1,391.5L628.1,391.5z
				 M628,391.5L628,391.5c-0.1,0-0.1,0-0.1,0.1L628,391.5L628,391.5L628,391.5L628,391.5C628,391.5,628,391.5,628,391.5z
				 M627.8,391.6L627.8,391.6L627.8,391.6L627.8,391.6L627.8,391.6z M627.7,391.6L627.7,391.6L627.7,391.6L627.7,391.6L627.7,391.6z
				 M627.7,391.7L627.7,391.7L627.7,391.7L627.7,391.7C627.6,391.7,627.6,391.7,627.7,391.7L627.7,391.7
				C627.6,391.7,627.6,391.7,627.7,391.7L627.7,391.7C627.7,391.7,627.7,391.7,627.7,391.7C627.7,391.7,627.7,391.7,627.7,391.7z
				 M629.2,388.8L629.2,388.8l-0.1,0.1h0l-0.2,0.1l-0.1,0c0,0-0.1,0-0.1,0c0,0-0.1,0-0.1,0h0c0,0,0,0,0,0c0,0,0,0,0,0
				c-0.1,0-0.1,0-0.2,0.1h0c0,0,0,0,0,0c-0.1,0-0.1,0.1-0.2,0.1c0,0,0,0,0,0c0,0,0,0-0.1,0c0,0-0.1,0-0.1,0.1c0,0,0,0,0,0
				c0,0-0.1,0-0.2,0c0,0,0,0-0.1,0c0.4-0.1,0.7-0.1,1.1,0c0.2-0.3,0.4-0.6,0.8-0.8C629.3,388.7,629.3,388.8,629.2,388.8z
				 M627.4,391.8L627.4,391.8L627.4,391.8L627.4,391.8z M627.3,391.8L627.3,391.8C627.3,391.8,627.3,391.8,627.3,391.8L627.3,391.8z
				 M627.2,391.8L627.2,391.8C627.2,391.9,627.2,391.9,627.2,391.8L627.2,391.8z M627.1,391.9L627.1,391.9L627.1,391.9L627.1,391.9
				L627.1,391.9z M627,392L627,392L627,392c0,0,0.1,0,0.1,0v0C627,392,627,392,627,392z M626.9,392C626.9,392,626.9,392,626.9,392
				L626.9,392L626.9,392C627,392,627,392,626.9,392C626.9,392,626.9,392,626.9,392z M626,392.3L626,392.3c0.2-0.1,0.4-0.1,0.6-0.2
				C626.4,392.2,626.2,392.2,626,392.3z M625.9,390.1C625.9,390.1,625.9,390.1,625.9,390.1c-0.1,0-0.1,0-0.1,0.1
				C625.8,390.1,625.8,390.1,625.9,390.1C625.8,390.1,625.8,390.1,625.9,390.1C625.9,390.1,625.9,390.1,625.9,390.1
				C626,390,626,390,625.9,390.1C626,390,625.9,390,625.9,390.1z M460,338.6L460,338.6C460,338.6,460,338.6,460,338.6L460,338.6z
				 M451.4,345.2C451.4,345.2,451.4,345.2,451.4,345.2L451.4,345.2C451.4,345.2,451.4,345.2,451.4,345.2z M445.7,349.4
				c0,0,0.1,0,0.1-0.1v0C445.8,349.3,445.8,349.3,445.7,349.4z M438.2,352.3C438.2,352.3,438.2,352.3,438.2,352.3L438.2,352.3
				C438.2,352.3,438.2,352.3,438.2,352.3C438.2,352.3,438.2,352.3,438.2,352.3C438.2,352.3,438.2,352.3,438.2,352.3z M431.8,350.9
				l0,1l0-0.1L431.8,350.9C431.8,350.9,431.8,350.9,431.8,350.9z M451.4,345.2C451.4,345.2,451.4,345.2,451.4,345.2L451.4,345.2
				C451.4,345.2,451.4,345.2,451.4,345.2z M438.2,352.3C438.2,352.3,438.2,352.3,438.2,352.3L438.2,352.3
				C438.2,352.3,438.2,352.3,438.2,352.3C438.2,352.3,438.2,352.3,438.2,352.3C438.2,352.3,438.2,352.3,438.2,352.3z"/>
			<path fill="#4E0B3B" d="M670.3,283.1c-1.1-1.3-2.2-2.4-3.2-3.4c-0.1-0.5-0.1-0.9-0.2-1.4c-0.1-1-0.3-2.1-0.4-3.1l-0.2-1.5
				c-9.5-63.2-41.5-121.2-90.2-163.4c-49.2-42.6-112.2-66-177.5-66c-128.5,0-240.1,90.9-265.4,216.1c-0.5,2.3-0.9,4.6-1.3,7
				c-0.2,1,0.4,2,1.3,2.3c0.9,0.4,2,0.1,2.6-0.7c0.5-0.7,1.1-1.4,1.8-2.3c1-1.2,2.1-2.4,3.3-3.6c1.6-1.8,3.3-3.4,5.1-4.9
				c0.4-0.3,0.6-0.7,0.7-1.2c12.7-56.4,44.9-107.5,90.6-143.8C283,76.8,340.2,56.7,398.5,56.7c62.3,0,122.5,22.4,169.4,63
				c45.1,39,75.3,92.4,85.2,150.8c-0.4,0.2-0.8,0.4-1,0.8c-0.6,0.9-0.5,2.1,0.3,2.8c0.6,0.6,1.3,1.2,2,1.9c0,0,0,0,0,0h0
				c0,0,0,0,0,0c0.5,0.5,1,1,1.6,1.7c0.4,0.4,0.7,0.8,1.1,1.2c1.4,1.6,2.5,3.2,3.5,4.7c0,0,0,0,0,0c0,0,0,0,0,0
				c1.2,1.8,2.2,3.6,3.2,5.4c4.7,9.1,7.1,19.9,7.1,32c0,12.9-3.5,26.3-9.9,37.9c-2.3,4.1-4.9,8-7.8,11.5c-0.4,0.5-0.9,1.1-1.4,1.7
				l-0.1,0.1c0,0-0.1,0.1-0.1,0.1c-0.7,0.8-1.4,1.6-2.3,2.5l-0.1,0.1c-0.5,0.5-1,1-1.5,1.5c-0.1,0.1-0.2,0.2-0.3,0.3
				c-0.1,0.1-0.2,0.2-0.3,0.3c-0.1,0.1-0.2,0.1-0.2,0.2l-0.1,0.1c-1,0.9-2,1.8-3.1,2.7c-0.6,0.5-1.3,1-2,1.6
				c-3.3,2.5-6.9,4.7-10.7,6.5l-0.8,0.4c-0.2,0.1-0.5,0.2-0.7,0.3c0,0,0,0,0,0c-0.1,0-0.1,0-0.2,0.1c0,0-0.1,0-0.1,0l0,0
				c0,0,0,0,0,0c0,0,0,0,0,0c-0.3,0.2-0.6,0.5-0.8,0.8c-0.3-0.1-0.7-0.1-1.1,0c0,0,0,0,0,0c0,0-0.1,0-0.1,0c0,0,0,0,0,0
				c0,0-0.1,0-0.1,0.1c0,0-0.1,0-0.1,0c0,0-0.1,0-0.1,0c0,0-0.1,0-0.1,0c-0.1,0-0.1,0-0.2,0.1c-0.1,0-0.2,0.1-0.3,0.1
				c-0.1,0-0.1,0.1-0.2,0.1c0,0-0.1,0-0.1,0c0,0,0,0,0,0c0,0,0,0,0,0c-0.1,0-0.1,0-0.2,0.1c0,0,0,0,0,0h0c0,0,0,0,0,0
				c0,0-0.1,0-0.1,0c0,0,0,0,0,0s0,0,0,0c0,0,0,0,0,0s0,0,0,0c0,0,0,0-0.1,0l-0.1,0c0,0-0.1,0-0.1,0c-0.1,0-0.2,0.1-0.4,0.1h0
				c-0.1,0.1-0.3,0.1-0.4,0.1l-0.2,0.1c-5.4,1.8-11.1,2.9-17.1,3.2c-1,0-2.1,0.1-3.1,0.1H604c-0.5,0-0.9,0-1.4,0c-0.7,0-1.3,0-1.8,0
				c-0.1,0-0.2,0-0.4,0c-0.1,0-0.3,0-0.4,0c-0.5,0-1-0.1-1.6-0.1c-1.2-0.1-2.4-0.2-3.5-0.3c-1-0.1-1.9-0.2-2.8-0.4
				c-6.4-1-12.2-2.9-17.2-5.5c-12.3-6.5-20.3-17.9-23.8-34c-1-4.6-1.6-9.6-1.9-14.9v-0.1c-0.1-1.1-0.1-2.4-0.1-3.5
				c0-0.9-0.7-1.7-1.6-2c-0.9-0.3-1.9,0.1-2.4,0.9c-0.1,0.1-0.1,0.2-0.2,0.3c-1,2.3-2,4-2.9,5.5c0,0.1-0.1,0.1-0.1,0.2l-0.3,0.5
				c-4.5,7.1-9.7,10.5-16,10.6c-0.1,0-0.2,0-0.3,0l-0.4,0c-0.1,0-0.2,0-0.3-0.1c-3.4-0.2-6-2-7.9-5.5c-2-3.6-3.2-8.7-3.4-15.4
				c0-1-0.7-1.8-1.6-2c-0.9-0.2-1.9,0.2-2.4,1c-0.3,0.5-0.6,1-1,1.6c-0.1,0.1-0.1,0.2-0.2,0.3c-8.1,13.6-17,20-28.1,20
				c-0.1,0-0.2,0-0.3,0c-0.1,0-0.2,0-0.2,0c-2.1,0-4.1-0.4-5.9-1c-2.5-0.8-4.8-2.1-6.6-3.9c-2-1.8-3.5-4.1-4.5-6.6l2.9-2.1
				c0.1,0,0.2-0.1,0.2-0.1l6.9-5c0.4,0.5,0.7,1,1,1.4c1.4,1.7,2.8,2.9,4.6,3.4l2.4,2.3c0,0,21.7-9.5,19.8-13.3
				c-1.2-2.5-10.6-18.8-17-29.7c-3.4-5.8-5.9-10.1-5.9-10.1c-0.3,0.7-13.2,36.1-13.6,37.2c0,0,0,0,0,0c-1.3,2.6-2.6,5.1-3.9,7.4
				c-0.7,1.2-1.5,2.5-2.4,3.9c-0.1,0-0.3,0-0.4,0c-0.7,0-1.3,0.4-1.7,0.9c-6.9,9.8-14.6,14.8-23.6,15.4c-0.1,0-0.3,0-0.4,0
				c0,0,0,0,0,0c0,0-0.1,0-0.1,0c-0.1,0-0.1,0-0.2,0H431c-1.9,0-3.8-0.4-5.7-1c-1.8-0.6-3.5-1.5-5-2.6c-2.6-1.9-4.7-4.4-6-7.4
				c-0.1-0.2-0.1-0.3-0.2-0.5l2.5-1.8l1.6,3.3l18.3,0.7l11.3-14.7l-10.1-20.5c-0.8-2.3-1.6-4.7-2.4-7l-0.2-0.5
				c-0.2-0.6-0.4-1.2-0.7-1.9c-0.3-0.8-1.1-1.4-2-1.4h0l-3.3-6.7L412,328l1.8,3.8c-0.1,0.1-0.2,0.2-0.3,0.3l-2,2.1
				c-0.2,0.1-0.3,0.3-0.4,0.5c-0.5,0.9-1,1.8-1.5,2.8c-0.1,0.1-0.1,0.2-0.2,0.4c0,0-0.1,0.1-0.1,0.2c0,0-0.1,0.1-0.1,0.2
				c-0.5,0.8-1,1.7-1.5,2.4c0,0,0,0.1-0.1,0.1c-0.3,0.5-0.6,0.8-0.8,1.2c-4.2,5.6-8.6,8.2-13.9,8.2c-0.3,0-0.5,0-0.7,0
				c-0.1,0-0.1,0-0.2,0l-0.3,0c0,0-0.1,0-0.1,0c-0.1,0-0.2,0-0.3-0.1c-3.1-0.3-5.5-1.8-7.3-4.3c-1.6-2.3-2.8-5.6-3.3-9.8
				c-0.2-1.7-0.3-3.2-0.4-4.6c0-0.9-0.7-1.7-1.6-2c-0.9-0.3-1.8,0.1-2.4,0.9l-1.7,2.5c-0.7,1-1.3,1.8-1.9,2.5
				c-0.1,0.1-0.2,0.2-0.2,0.3c-1.1,1.9-2.3,3.8-3.6,5.6c0,0,0,0,0,0c-0.3,0.3-0.5,0.7-0.8,1l-0.1,0.1c-4.6,6-9.2,8.8-14.5,8.8
				c-0.2,0-0.5,0-0.7,0c-0.1,0-0.2,0-0.3,0c-0.4,0-0.9-0.1-1.3-0.1c-5-0.8-8.4-4.3-10.4-10.7c-0.8-2.7-1.4-5.6-1.8-8.9
				c-0.3-2.5-0.5-5.5-0.5-9.1c0-0.9-0.6-1.8-1.5-2c-0.9-0.3-1.8,0.1-2.4,0.8c-1.1,1.6-2,2.8-2.7,3.9c-1,1.6-2,3.1-2.9,4.6
				c-1.2,2-2.2,3.8-3.1,5.5c-3.9,7.5-5.2,12.4-5.6,15.3c0,0,0,0.1,0,0.1c0,0.4,0,0.9,0,1.3c0,0.9,0,1.8,0,2.6c0,0.8,0,1.7,0,2.5
				c0.6,36.5,8.6,57.4,23.6,62.3c1.9,0.6,3.8,1,5.8,1.1h0.1c0.4,0,0.8,0,1.3,0c10.1,0,17.7-6,22.6-17.6l14.2,5
				c-0.1,0.3-0.3,0.6-0.4,0.9c-7.1,16.2-18.5,24.4-33.9,24.4c-0.2,0-0.4,0-0.6,0c-0.1,0-0.3,0-0.5,0c0,0,0,0,0,0c-0.1,0-0.2,0-0.3,0
				h0c-7.7-0.2-14.6-1.7-20.3-4.6c-19.2-9.6-28.6-34.4-28.6-75.5c0-4.4,0.2-8.9,0.3-13.4l0-1.4v-0.2c-0.4-10.7-3.1-20.2-8.2-28.4
				c0-0.1-0.1-0.2-0.1-0.2c-2.5-4-5.5-7.5-9-10.6c-0.5-0.5-1.2-0.7-1.9-0.5c-0.7,0.2-1.2,0.6-1.5,1.3c-0.1,0.3-0.3,0.7-0.4,1
				c-0.1,0.3-0.2,0.7-0.4,1c-7.1,18.2-18.4,44.7-34.9,64c-7.9,9.2-16.1,16.1-25.3,20.9c-0.4,0.2-0.8,0.5-1.2,0.7
				c-10.4,5.3-21.5,7.9-34,7.9c-0.4,0-0.8,0-1.2,0c-0.1,0-0.2,0-0.4,0h-0.1c-0.1,0-0.2,0-0.2,0c-12.9-0.3-24.4-3.2-34.2-8.9
				c-2.2-1.3-4.3-2.7-6.3-4.1c-1.8-1.4-3.5-2.8-5.1-4.3c-0.7-0.6-1.7-0.8-2.5-0.3c-0.8,0.5-1.2,1.4-1,2.3c0.1,0.6,0.3,1.2,0.5,1.9
				l0.2,0.9c0.3,1,0.5,1.9,0.8,2.9l0.4,1.3c0.1,0.2,0.2,0.4,0.3,0.6c15.6,54.2,49.2,103,94.6,137.4c47,35.7,103.1,54.6,162.4,54.6
				c57.9,0,113-18,159.3-52.2c45.2-33.3,78.1-78.9,95.3-131.8c6.3-3.9,11.9-9,16.8-14.9c11.8-14.4,18.6-33.4,18.6-52.1
				C685.1,310,680,294.4,670.3,283.1z M431.8,351.8L431.8,351.8l0-0.9c0,0,0,0,0,0V351.8z M438.2,352.3
				C438.2,352.3,438.2,352.3,438.2,352.3L438.2,352.3C438.2,352.3,438.2,352.3,438.2,352.3C438.2,352.3,438.2,352.3,438.2,352.3
				C438.2,352.3,438.2,352.3,438.2,352.3z M445.8,349.3c0,0-0.1,0-0.1,0.1C445.8,349.3,445.8,349.3,445.8,349.3
				C445.9,349.3,445.9,349.3,445.8,349.3C445.9,349.3,445.9,349.3,445.8,349.3z M450.7,345.9C450.7,345.8,450.7,345.8,450.7,345.9
				C450.7,345.8,450.7,345.8,450.7,345.9C450.7,345.8,450.7,345.8,450.7,345.9z M451.4,345.2C451.4,345.2,451.4,345.2,451.4,345.2
				C451.4,345.2,451.4,345.2,451.4,345.2L451.4,345.2z M460,338.6L460,338.6L460,338.6C460,338.6,460,338.6,460,338.6z M626,392.3
				L626,392.3c0.2-0.1,0.4-0.1,0.6-0.2C626.4,392.2,626.2,392.2,626,392.3z M627.1,391.9c0,0-0.1,0-0.1,0h0c0,0,0,0,0,0h0v0
				c0,0,0,0,0,0c0,0,0,0,0,0v0C627,392,627,392,627.1,391.9L627.1,391.9z M627.2,391.9L627.2,391.9L627.2,391.9L627.2,391.9
				L627.2,391.9z M627.2,391.9L627.2,391.9L627.2,391.9C627.2,391.9,627.2,391.9,627.2,391.9z M627.3,391.8L627.3,391.8L627.3,391.8
				C627.3,391.8,627.3,391.8,627.3,391.8z M627.4,391.8L627.4,391.8L627.4,391.8L627.4,391.8z M627.7,391.7L627.7,391.7
				c-0.1,0-0.1,0-0.1,0v0C627.6,391.7,627.6,391.7,627.7,391.7L627.7,391.7L627.7,391.7L627.7,391.7
				C627.7,391.7,627.7,391.7,627.7,391.7C627.7,391.7,627.7,391.7,627.7,391.7z M627.8,391.7L627.8,391.7L627.8,391.7L627.8,391.7
				L627.8,391.7z M627.9,391.6L627.9,391.6L627.9,391.6L627.9,391.6L627.9,391.6z M628,391.6L628,391.6L628,391.6l-0.1,0
				C627.9,391.6,628,391.6,628,391.6L628,391.6C628,391.5,628,391.5,628,391.6L628,391.6z M628.1,391.5L628.1,391.5L628.1,391.5
				C628.1,391.5,628.1,391.5,628.1,391.5z M630.5,390.6c-0.3,0.1-0.6,0.3-0.9,0.4C629.8,390.8,630.2,390.7,630.5,390.6L630.5,390.6
				C630.5,390.5,630.5,390.5,630.5,390.6z"/>
			<path fill="#4E0B3B" d="M620.6,283.2c-1.2-0.1-2-1.2-1.9-2.3l0.5-5.4c0.1-0.6,0.4-1.2,0.9-1.5c0.5-0.4,1.1-0.5,1.7-0.4
				c10.6,2.3,19.1,6.5,25.3,12.6c0.8,0.7,0.9,1.9,0.2,2.8c-0.4,0.6-1.1,0.9-1.7,0.9c-0.3,0-0.7-0.1-1-0.2c-6.3-3.2-14-5.4-23-6.3
				L620.6,283.2z"/>
		</g>
		<g>
			<path fill="#4E0B3B" d="M460,338.6L460,338.6C460,338.6,460,338.6,460,338.6L460,338.6z"/>
		</g>
		<g>
			<path fill="#4E0B3B" d="M438.2,352.3L438.2,352.3C438.2,352.3,438.2,352.3,438.2,352.3C438.2,352.3,438.2,352.3,438.2,352.3z
				 M445.8,349.3c0,0-0.1,0-0.1,0.1C445.8,349.3,445.8,349.3,445.8,349.3C445.9,349.3,445.9,349.3,445.8,349.3
				C445.9,349.3,445.9,349.3,445.8,349.3z M451.4,345.2C451.4,345.2,451.4,345.2,451.4,345.2L451.4,345.2
				C451.4,345.2,451.4,345.2,451.4,345.2z M628.1,391.5L628.1,391.5C628.1,391.5,628.1,391.5,628.1,391.5L628.1,391.5z M630.5,390.5
				c-0.3,0.1-0.6,0.3-0.9,0.4C629.8,390.8,630.2,390.7,630.5,390.5C630.5,390.5,630.5,390.5,630.5,390.5L630.5,390.5z M626,392.3
				L626,392.3c0.2-0.1,0.4-0.1,0.6-0.2C626.4,392.2,626.2,392.2,626,392.3z M626.9,392C626.9,392,626.9,392,626.9,392L626.9,392
				L626.9,392C627,392,627,392,626.9,392C626.9,392,626.9,392,626.9,392z M627,392L627,392L627,392c0,0,0.1,0,0.1,0v0
				C627,392,627,392,627,392z M627.1,391.9L627.1,391.9L627.1,391.9L627.1,391.9L627.1,391.9z M627.2,391.8L627.2,391.8
				C627.2,391.9,627.2,391.9,627.2,391.8L627.2,391.8z M627.3,391.8L627.3,391.8C627.3,391.8,627.3,391.8,627.3,391.8L627.3,391.8z
				 M627.4,391.8L627.4,391.8L627.4,391.8L627.4,391.8z M627.7,391.7L627.7,391.7L627.7,391.7L627.7,391.7
				C627.6,391.7,627.6,391.7,627.7,391.7L627.7,391.7C627.6,391.7,627.6,391.7,627.7,391.7L627.7,391.7
				C627.7,391.7,627.7,391.7,627.7,391.7C627.7,391.7,627.7,391.7,627.7,391.7z M627.7,391.6L627.7,391.6L627.7,391.6L627.7,391.6
				L627.7,391.6z M627.8,391.6L627.8,391.6L627.8,391.6L627.8,391.6L627.8,391.6z M628,391.5L628,391.5c-0.1,0-0.1,0-0.1,0.1
				L628,391.5L628,391.5L628,391.5L628,391.5C628,391.5,628,391.5,628,391.5z"/>
			<path fill="#4E0B3B" d="M438.2,352.3C438.2,352.3,438.2,352.3,438.2,352.3L438.2,352.3C438.2,352.3,438.2,352.3,438.2,352.3
				C438.2,352.3,438.2,352.3,438.2,352.3C438.2,352.3,438.2,352.3,438.2,352.3z M445.8,349.3c0,0-0.1,0-0.1,0.1
				C445.8,349.3,445.8,349.3,445.8,349.3C445.9,349.3,445.9,349.3,445.8,349.3C445.9,349.3,445.9,349.3,445.8,349.3z M451.4,345.2
				C451.4,345.2,451.4,345.2,451.4,345.2L451.4,345.2C451.4,345.2,451.4,345.2,451.4,345.2z M460,338.6L460,338.6
				C460,338.6,460,338.6,460,338.6L460,338.6z M625.6,390.2c-0.1,0-0.2,0.1-0.4,0.1c0,0-0.1,0-0.1,0c0.1,0,0.2-0.1,0.4-0.1
				C625.5,390.2,625.5,390.2,625.6,390.2L625.6,390.2C625.6,390.2,625.6,390.2,625.6,390.2z M626,392.3L626,392.3
				c0.2-0.1,0.4-0.1,0.6-0.2C626.4,392.2,626.2,392.2,626,392.3z M627.3,389.5C627.3,389.5,627.3,389.5,627.3,389.5
				c-0.1,0-0.1,0.1-0.1,0.1c0,0,0,0,0,0s0,0,0,0c0,0,0,0,0,0c0,0,0,0,0,0c0,0-0.1,0-0.1,0c0,0-0.1,0-0.1,0c0,0-0.1,0-0.1,0
				c0,0,0,0-0.1,0c0,0-0.1,0-0.1,0c0,0,0,0-0.1,0c0,0,0,0,0,0c0,0,0,0,0,0c-0.1,0-0.1,0-0.2,0.1c0,0,0,0-0.1,0l0,0
				c-0.1,0-0.1,0-0.2,0.1c0.1,0,0.1,0,0.2-0.1c0,0,0,0,0,0c0,0,0,0,0,0c0,0,0.1,0,0.1,0c0,0,0.1,0,0.2-0.1c0.1,0,0.2-0.1,0.3-0.1
				c0.1,0,0.1,0,0.2-0.1c0,0,0.1,0,0.1,0c0,0,0.1,0,0.1,0C627.2,389.6,627.2,389.6,627.3,389.5c0,0,0.1,0,0.1,0
				C627.4,389.5,627.3,389.5,627.3,389.5z M626.9,392C626.9,392,626.9,392,626.9,392L626.9,392L626.9,392C627,392,627,392,626.9,392
				C626.9,392,626.9,392,626.9,392z M627,392L627,392L627,392c0,0,0.1,0,0.1,0v0C627,392,627,392,627,392z M627.1,391.9L627.1,391.9
				L627.1,391.9L627.1,391.9L627.1,391.9z M627.2,391.8L627.2,391.8C627.2,391.9,627.2,391.9,627.2,391.8L627.2,391.8z M627.3,391.8
				L627.3,391.8C627.3,391.8,627.3,391.8,627.3,391.8L627.3,391.8z M627.4,391.8L627.4,391.8L627.4,391.8L627.4,391.8z M629.2,388.8
				L629.2,388.8l-0.1,0.1h0l-0.2,0.1l-0.1,0c0,0-0.1,0-0.1,0c0,0-0.1,0-0.1,0h0c0,0,0,0,0,0c0,0,0,0-0.1,0c-0.1,0-0.1,0-0.2,0h0
				c0,0,0,0,0,0c-0.1,0-0.1,0.1-0.2,0.1c0,0,0,0,0,0c0,0,0,0-0.1,0c0,0-0.1,0-0.2,0c0,0-0.1,0-0.2,0.1c0,0,0,0-0.1,0
				c0.4-0.1,0.7-0.1,1.1,0c0.2-0.3,0.4-0.6,0.8-0.8c0,0,0,0,0,0L629.2,388.8z M627.7,391.7L627.7,391.7L627.7,391.7L627.7,391.7
				C627.6,391.7,627.6,391.7,627.7,391.7L627.7,391.7C627.6,391.7,627.6,391.7,627.7,391.7L627.7,391.7
				C627.7,391.7,627.7,391.7,627.7,391.7C627.7,391.7,627.7,391.7,627.7,391.7z M627.7,391.6L627.7,391.6L627.7,391.6L627.7,391.6
				L627.7,391.6z M627.8,391.6L627.8,391.6L627.8,391.6L627.8,391.6L627.8,391.6z M628,391.5L628,391.5c-0.1,0-0.1,0-0.1,0.1
				L628,391.5L628,391.5L628,391.5L628,391.5C628,391.5,628,391.5,628,391.5z M628.1,391.5L628.1,391.5
				C628.1,391.5,628.1,391.5,628.1,391.5L628.1,391.5z M629.7,388.6L629.7,388.6L629.7,388.6l-0.2,0.1c0,0-0.1,0-0.1,0c0,0,0,0,0,0
				l0,0C629.5,388.6,629.5,388.6,629.7,388.6C629.6,388.6,629.7,388.6,629.7,388.6C629.7,388.5,629.7,388.5,629.7,388.6z
				 M630.5,390.5c-0.3,0.1-0.6,0.3-0.9,0.4C629.8,390.8,630.2,390.7,630.5,390.5C630.5,390.5,630.5,390.5,630.5,390.5L630.5,390.5z"
				/>
		</g>
	</g>
	<g>
		<g>
			<path fill="#4E0B3B" d="M428.6,243c0,1.1-0.1,2.1-0.3,3.2c-1.3,7.2-6.9,14.9-16.3,14.9c-5.6,0-9.9-3.2-11.6-8.5
				c-0.2-0.6-0.1-1.3,0.3-1.9c0.4-0.5,1-0.9,1.7-0.9c7.4-0.2,12-7.3,12-13.8c0-1.2-0.2-2.4-0.5-3.4c-0.2-0.6-0.1-1.2,0.2-1.7
				c0.3-0.5,0.8-0.9,1.3-1c0.4-0.1,0.7-0.1,0.9-0.1C423.8,229.8,428.6,235,428.6,243z"/>
		</g>
	</g>
</g>
<g>
	<g>
		<path fill="#74C044" d="M320.7,354.2L320.7,354.2c0,0,0,0,0-0.1C320.6,354.1,320.6,354.2,320.7,354.2z"/>
	</g>
	<g>
		<path fill="#74C044" d="M320.6,354.1c0,0.1,0,0.1,0,0.1v0C320.6,354.2,320.6,354.1,320.6,354.1z"/>
		<path fill="#74C044" d="M390,261.3l-0.2,0.7c-0.1,0.3-0.1,0.6-0.2,0.9c0.2-0.6,0.4-1.1,0.6-1.7H390z M457.2,336.7
			c-6.5,9.2-14.6,15.8-25.7,16.3c0.1,0,0.2,0,0.3,0c11.2,0,19.5-6.2,26.2-15.3L457.2,336.7z M416,335.5l0.1,0.2
			c0.1-0.2,0.2-0.4,0.3-0.6L416,335.5z M627.3,391.8L627.3,391.8C627.3,391.8,627.3,391.8,627.3,391.8L627.3,391.8z M627.2,391.8
			L627.2,391.8C627.2,391.9,627.2,391.9,627.2,391.8L627.2,391.8z M627.1,391.9L627.1,391.9L627.1,391.9L627.1,391.9L627.1,391.9z
			 M627,391.9L627,391.9L627,391.9c0.1,0,0.1,0,0.1,0v0C627,391.9,627,391.9,627,391.9z M626.9,392L626.9,392L626.9,392L626.9,392
			C626.9,392,626.9,392,626.9,392z M626,392.3L626,392.3c0.2-0.1,0.4-0.1,0.6-0.2C626.4,392.2,626.2,392.2,626,392.3z M627.4,391.8
			L627.4,391.8L627.4,391.8L627.4,391.8z M628.1,391.5L628.1,391.5C628.1,391.5,628.1,391.5,628.1,391.5L628.1,391.5z M627.8,391.6
			L627.8,391.6L627.8,391.6C627.9,391.6,627.9,391.6,627.8,391.6L627.8,391.6z M628.1,391.5C628,391.5,628,391.5,628.1,391.5
			L628.1,391.5c-0.1,0-0.1,0-0.1,0.1l0,0C627.9,391.6,627.9,391.6,628.1,391.5L628.1,391.5L628.1,391.5L628.1,391.5
			C628.1,391.5,628.1,391.5,628.1,391.5z M627.7,391.6L627.7,391.6L627.7,391.6L627.7,391.6L627.7,391.6z M627.7,391.7L627.7,391.7
			C627.6,391.7,627.6,391.7,627.7,391.7L627.7,391.7C627.6,391.7,627.7,391.7,627.7,391.7L627.7,391.7
			C627.7,391.7,627.7,391.7,627.7,391.7C627.7,391.7,627.7,391.7,627.7,391.7z M628.7,391.3C628.7,391.3,628.7,391.3,628.7,391.3
			L628.7,391.3C628.7,391.3,628.7,391.3,628.7,391.3z M628.7,391.3C628.8,391.3,628.8,391.3,628.7,391.3c0.1,0,0.1,0,0.1-0.1
			C628.8,391.2,628.8,391.3,628.7,391.3z"/>
		<path fill="#74C044" d="M665.9,288.1c-1-2-2.1-3.8-3.3-5.6c-1.1-1.7-2.4-3.3-3.7-4.9c-0.4-0.5-0.8-0.9-1.2-1.3
			c-0.6-0.6-1.1-1.2-1.7-1.8c-0.7-0.7-1.3-1.3-2.1-2c-10-9-23.6-14.2-40.4-15.5l-0.9-0.1l-1.5,17.1l0.9,0.1c3.3,0.3,6.4,0.8,9.4,1.5
			c10.2,2.2,18.3,6.2,24.3,12c8.3,8.1,12.5,19.5,12.5,34.3c0,1.1,0,2.1-0.1,3.2c-0.6,15.7-5.9,30.2-15,41.1
			c-9.9,11.7-23.4,18.2-38.1,18.2c-7.9,0-14.6-1.5-20.1-4.2c-16.5-7.9-22.9-26-22.9-43.2c0-18.3,4.8-39.6,10.4-64.3
			c0.3-1.4,0.6-2.9,1-4.3c0.4-1.9,0.9-3.8,1.3-5.8l0.3-1.2h-15.7l-1,5.1l-0.4,2c-0.2-0.8-0.5-1.5-0.9-2.2c-2.3-4.7-6.1-7.1-11.6-7.1
			c-6.7,0-13.3,5-19.2,14.3c-5.1,8.1-9.4,19.1-12.1,31c-0.8,2-1.6,3.9-2.3,5.7c-1.8,4.3-3.5,7.9-5.2,11c-0.8-11-6.1-21.8-10.8-31.3
			c-4.3-8.5-8.2-16.6-8.6-23.7c2-7.6,3.8-15.5,5.1-24.1c0.2-1.3,0.4-2.7,0.6-4.1l0.1-0.9l-14.9-2.9l-0.3,0.8c-3,9.1-4.5,17.8-4.5,26
			c0,5.7,0.7,11.8,2.3,18.4c-1.6,4-3.2,8-4.7,11.7c-0.2,0.6-0.5,1.1-0.7,1.7l7.3,2.7c0.5-1.3,1-2.5,1.4-3.9c0.7,2,1.3,4,2,6
			c0.2,0.6,0.5,1.3,0.7,1.9c1.1,3.2,2.3,6.4,3.2,9.5c1.8,5.7,3,11.2,3,16.7c0,5.5-1.7,8.6-5.1,9.3c-0.1,0-0.1,0-0.1,0.1
			c-0.2,0-0.4,0.1-0.5,0.1c-0.3,0-0.5,0.1-0.8,0.1c-2.6,0-4.4-0.8-6.1-3c-0.5-0.6-1-1.4-1.6-2.3l-0.5-0.9l-8.7,6.3h0l-4.4,3.2
			l-0.1,0.1l0.2,0.7c1.1,3.3,3,6.1,5.4,8.3c2.1,1.9,4.6,3.4,7.4,4.3c2,0.7,4.3,1.1,6.5,1.1h0c0.2,0,0.4,0,0.6,0
			c11.9,0,21.5-6.8,30-21.2v0c0.4-0.6,0.7-1.1,1-1.7c0.2,7,1.5,12.5,3.6,16.3c2.2,4,5.5,6.3,9.6,6.6c0.1,0,0.3,0,0.4,0h0.4
			c0.1,0,0.1,0,0.2,0c7.1,0,13-3.8,17.9-11.6c0.1-0.2,0.3-0.4,0.4-0.6v0c1.1-1.7,2-3.6,3-5.7c0-0.1,0-0.1,0.1-0.1c0,0,0,0,0,0.1
			c0,1.2,0.1,2.5,0.1,3.6v0c0.3,5.5,0.9,10.6,1.9,15.3c3.6,16.8,12,28.7,24.9,35.5c5.2,2.7,11.2,4.7,17.9,5.7
			c0.9,0.1,1.9,0.3,2.9,0.4c1.2,0.1,2.3,0.2,3.6,0.3c0.5,0.1,1.1,0.1,1.6,0.1h0c0,0,0,0,0,0c0.2,0,0.4,0,0.6,0
			c0.6,0.1,1.3,0.1,1.9,0.1c0.5,0,1,0,1.5,0h0.4c1.1,0,2.2,0,3.2-0.1c6.1-0.3,12-1.4,17.7-3.3c0.2-0.1,0.5-0.2,0.8-0.3
			c0.2-0.1,0.4-0.1,0.6-0.2c0.1-0.1,0.2-0.1,0.3-0.1h0v0c0,0,0,0,0,0c0,0,0,0,0,0v0c0.1,0,0.1,0,0.1-0.1v0h0c0,0,0,0,0,0v0h0v0
			c0,0,0,0,0.1,0v0h0.1c0,0,0,0,0,0v0h0c0,0,0,0,0.1,0v0h0.1l0,0h0.1c0,0,0,0,0,0h0v0c0,0,0,0,0.1,0h0c0,0,0,0,0.1,0v0h0.1v0h0.1
			l0,0c0,0,0.1,0,0.1-0.1h0c0,0,0,0,0,0c0,0,0,0,0,0h0v0h0c0,0,0.1,0,0.1-0.1c0,0,0.1,0,0.1,0c0.1,0,0.1-0.1,0.2-0.1s0.1,0,0.1-0.1
			h0c0,0,0.1,0,0.1,0c0.1,0,0.1,0,0.1-0.1c0.1-0.1,0.2-0.1,0.4-0.1c0.1-0.1,0.2-0.1,0.3-0.1c0.3-0.1,0.6-0.3,0.9-0.4h0
			c0.6-0.3,1.1-0.5,1.7-0.8c3.9-1.8,7.6-4.1,11-6.7c0.7-0.5,1.4-1,2-1.6c1.1-0.9,2.2-1.8,3.2-2.8c0,0,0,0,0,0
			c0.1-0.1,0.1-0.1,0.2-0.2c0.2-0.2,0.5-0.5,0.8-0.7c0.5-0.5,1-1,1.6-1.6c0.8-0.8,1.6-1.7,2.4-2.6c0,0,0.1-0.1,0.1-0.1
			c0.5-0.6,1.1-1.2,1.6-1.9c3-3.6,5.7-7.6,8-11.8c6.5-11.8,10.2-25.5,10.2-38.9C673.2,308.6,670.7,297.4,665.9,288.1z M551.3,286.3
			c0,12.8-5.8,32.6-12,42.4c-2.3,3.7-4.7,6-6.9,6c-1.9,0-3.1-3.3-3.1-9c0-8.5,2.3-21,5.9-32c2-6.3,4.3-11.3,6.4-14.5
			c0.2-0.4,0.5-0.7,0.7-1.1c0.2-0.3,0.5-0.6,0.7-0.9c1.2-1.3,2.2-2,3.2-2C550.7,275.1,551.3,282.1,551.3,286.3L551.3,286.3z"/>
		<path fill="#74C044" d="M470.3,292.9c-1.6,4-3.1,7.7-4.3,10.8c-0.9,2.4-1.8,4.6-2.6,6.6c-1.8,4.3-3.5,7.9-5.2,11
			c-0.8-11-6.1-21.8-10.8-31.3c-4.2-8.5-8.2-16.6-8.5-23.7c2-7.5,3.7-15.5,5.1-24.1c0.2-1.3,0.4-2.7,0.6-4.1l0.1-0.9l-14.9-2.9
			l-0.3,0.8c-1.2,3.7-2.2,7.3-2.9,10.9c-0.1,0.2-0.1,0.5-0.2,0.7c-1,5-1.5,9.8-1.5,14.4c0,5.8,0.8,11.8,2.3,18.4
			c-1.6,4-3.2,8-4.7,11.7c-0.2,0.6-0.5,1.1-0.7,1.7c-1.6,4-3.1,7.7-4.3,10.8l-0.1,0.2c-4.4,11.4-8.2,19.8-11.5,25.1
			c-2.9,4.7-5.4,7.1-7.4,7.1c-0.7,0-2.9,0-2.9-5.6c0-13.7,4.3-32.8,9.8-57c0.4-1.7,0.8-3.5,1.2-5.3c0.4-1.9,0.9-3.8,1.3-5.8l0.3-1.2
			h-18.1c-0.2,0.5-0.4,1.1-0.6,1.7c-0.5,1.8-1,4-1.6,6.3c-2.4,9.6-5.6,22.8-7.8,35.8c-7.3,18.5-12.7,26.6-16.5,29.7
			c-1.6,1.3-2.9,1.7-3.9,1.7c-2.7,0-6.4-1.7-6.4-16c0-5.7,0.5-12.8,1.5-21.6c3.2-3.9,8.6-11.2,14.4-21.3c5-8.8,10.2-19.7,14.2-32.4
			c1-3.2,3.8-12.4,5.1-21.9c0.4-3.2,0.7-6.4,0.7-9.4c0-4.9-0.7-8.8-2.1-11.8c-2.2-4.7-6.1-7.1-11.8-7.1c-12.8,0-24.9,25.9-33,70.9
			c-3,17.3-4.9,31.3-5.7,42.7c-0.6,0.9-1.2,1.8-1.8,2.7c-4.4,6.8-9.1,14.6-12,20.9l4.8,3.6c0.9-1.7,1.9-3.4,3-5.4
			c0.9-1.5,1.8-3,2.9-4.6c0.8-1.2,1.7-2.5,2.6-3.9c0.1,3.4,0.2,6.5,0.6,9.3c0.4,3.5,1,6.6,1.9,9.3c2.3,7.3,6.4,11.3,12.1,12.2
			c0.5,0.1,1,0.1,1.5,0.2c0,0,0,0,0.1,0c0.3,0.1,0.7,0.1,1,0.1c5.9,0,11.1-3,16.2-9.6c0.3-0.4,0.5-0.7,0.8-1.1c0,0,0,0,0,0
			c1.2-1.8,2.5-3.7,3.8-5.9c1.2-2.1,2.4-4.4,3.7-7c0,0.6,0,1.2,0.1,1.8c0.1,1.7,0.2,3.3,0.4,4.8c0.6,4.5,1.9,8.1,3.7,10.7
			c2.1,3.1,5,4.8,8.8,5.3c0.2,0.1,0.5,0.1,0.7,0.1h0.2c0.3,0,0.6,0,0.9,0c6,0,11-2.9,15.6-9c0.3-0.4,0.6-0.8,0.9-1.3
			c0.6-0.8,1.1-1.6,1.6-2.5c0.2-0.2,0.3-0.5,0.4-0.7c0.6-0.9,1.1-1.9,1.6-2.9c3.4-6.4,6.2-14,9.3-22c0.8-2.2,1.6-4.3,2.5-6.5
			l0.1-0.2v0c0.8-2,1.6-4.1,2.4-6.2c0.6-1.7,1.3-3.4,1.9-5.1c0.5-1.3,1-2.6,1.4-3.9c0.7,2,1.3,4,2,6c0.2,0.6,0.5,1.2,0.7,1.9
			c1.1,3.2,2.3,6.4,3.2,9.6c1.8,5.7,3,11.2,3,16.7c0,6.3-2.2,9.5-6.5,9.5c-2.3,0-4-0.7-5.6-2.4c-0.7-0.8-1.4-1.7-2.1-2.9l-0.5-0.9
			l-8.4,6.1c-0.1,0.2-0.2,0.4-0.3,0.6l-0.1-0.2l-4.4,3.1l0.2,0.7c0.2,0.5,0.4,1,0.6,1.5c1.5,3.4,3.7,6.2,6.7,8.3
			c1.7,1.2,3.6,2.2,5.6,2.9c2,0.7,4.1,1.1,6.3,1.1h0.1c0.3,0,0.5,0,0.8,0c-0.1,0-0.2,0-0.3,0c11-0.5,19.2-7.1,25.7-16.3l0.8,1
			c0.2-0.4,0.5-0.7,0.8-1c1.1-1.6,2.1-3.2,3.1-4.9c1.9-3.2,3.6-6.5,5.2-10c2.2-4.8,4.3-9.9,6.2-14.8c0.8-2.1,1.6-4.3,2.5-6.5
			c0.6-1.7,1.3-3.3,1.9-5.1v0L470.3,292.9z M368.1,234.4c6.7-23.8,9.9-24.6,10-24.6c0.2,0.1,0.9,1,0.9,3.3
			c-0.2,20-11,47.8-21.2,67.6C360.5,265,364.2,248.1,368.1,234.4z"/>
		<path fill="#74C044" d="M372.7,399.6l-0.3,0.7l-0.1,0.2c-4.6,11.6-11.5,17.3-21.1,17.3c-0.4,0-0.8,0-1.2,0H350
			c-1.9-0.1-3.6-0.4-5.3-1c-14.1-4.6-21.5-24.8-22.1-60.3c0-0.8,0-1.6,0-2.4c0-0.9,0-1.7,0-2.6c0-0.4,0-0.8,0-1.1
			c0.4-2.6,1.6-7.4,5.3-14.5l-4.8-3.6c1.8-35.6,8.3-81.9,20.4-144.7c0.1-0.5,0.2-1.1,0.3-1.6l0.2-0.8l-14.5-6.5l-0.5,0.4
			c-19.1,14.4-32.8,49.6-47.3,87c-1.7,4.3-3.3,8.6-5,12.9c-7.6-3.6-15.8-6-24.4-7.3c-2.4-0.4-4.7-0.6-7.2-0.8
			c-2.6-7.4-6.7-13.6-12-18.5c-9.5-8.8-22.8-13.5-38.8-13.5c-22.8,0-38.9,8.4-49.7,17.9c-1.9,1.6-3.7,3.3-5.3,5
			c-1.2,1.3-2.3,2.5-3.3,3.7c-0.6,0.8-1.3,1.6-1.9,2.4c-11.5,15-18,34.9-18,55c0,19.8,6.2,38,17.4,51.2c1.5,1.8,3.1,3.4,4.7,5
			c1.7,1.6,3.4,3.1,5.3,4.4c2.1,1.6,4.3,3,6.5,4.3c10.1,5.8,22,8.9,35.3,9.2c0.2,0,0.4,0,0.6,0c0.4,0,0.9,0,1.3,0
			c12.7,0,24.3-2.7,34.9-8.1c0.4-0.2,0.9-0.5,1.3-0.7c9.3-5,17.9-12.1,25.8-21.4c16-18.8,27.2-44,35.2-64.7c0.3-0.7,0.5-1.3,0.8-2
			c3.4,3,6.2,6.4,8.6,10.2v0c4.9,7.8,7.6,17.1,8,27.5c-0.2,4.9-0.4,10-0.4,14.9c0,41.8,9.8,67.4,29.8,77.4
			c6.1,3.1,13.2,4.7,21.2,4.8h0.1c0,0,0,0,0.1,0c0.2,0,0.4,0,0.5,0c0.3,0,0.5,0,0.8,0c16.4,0,28.4-8.6,35.9-25.7
			c0.3-0.7,0.6-1.4,0.9-2.1l0.4-0.9L372.7,399.6z M270.3,294.3c-18.4,44.7-41.7,90.9-82.4,90.9c-9.6,0-17.7-2-24.4-5.5
			c-10.5-5.4-17.6-14.4-22.1-24.8c0,0,0-0.1,0-0.1c-3.4-8.1-5.3-16.9-5.8-25.6c-0.1-1.8-0.2-3.6-0.2-5.4c0-8.1,1.1-16.2,3.1-23.9
			c5.4-20.7,17.9-38.9,35.9-46.4c5.7-2.4,12-3.7,18.8-3.7c10.2,0,18.8,3.6,25,10.1c3.1,3.2,5.5,7.1,7.4,11.7
			c-32.1,4.2-56.4,23-62.2,48.2l-0.2,0.9l10.7,3.3l7.9,2.4l0.2-1c5.3-23.3,27.3-35.2,46.5-38.8v1.5c0,2.9-0.2,5.6-0.7,8.2
			c-2.8,16.2-13.8,26.6-24.8,30l-1,0.3l7.3,17.4l0.8-0.2c1.8-0.6,3.5-1.2,5.1-1.9c19.6-8.6,32.9-29.5,32.9-52.6c0-1.3,0-2.6-0.1-4
			c8.7,0.6,16.6,2.6,23.5,5.6C271.1,292.1,270.7,293.2,270.3,294.3z M321.3,206.5c-4.5,21.3-8.1,40.1-11,57.1
			c-2.2,12.9-3.9,24.7-5.3,35.7c-0.2,1.9-0.5,3.8-0.7,5.7c-3.7-6.8-8.6-12.7-14.6-17.6c2.9-8,5.6-16,8.3-23.8
			c6-17.4,11.7-34.2,18.1-48.3c0,0,0,0,0-0.1c1.8-3.9,3.6-7.6,5.5-11.1C321.6,204.9,321.5,205.7,321.3,206.5z"/>
	</g>
	<g>
		<path fill="#74C044" d="M416.6,236c0,7.6-5.4,15.8-14.1,16c-0.1,0-0.2,0-0.3,0c-3.5,0-6-1.4-7.6-3.4v0c-1.6-2-2.4-4.7-2.4-7.4
			c0-5.1,2.5-10.5,6.8-13.6c2.2-1.6,4.8-2.6,7.7-2.6c4.8,0,8.3,2.6,9.5,7C416.4,233.2,416.6,234.6,416.6,236z"/>
	</g>
</g>
<g>
	<path fill="#65154C" d="M349,123.5c0.1,3.3-0.3,6-2.5,8.6c-2.2,2.6-5.6,4.1-9,4.1c-6.8,0-12.5-5.7-12.5-12.5
		c0-7,5.7-12.6,12.7-12.6c4.3,0,7.7,1.9,10.3,5.3l-2,1.8c-2-2.9-4.8-4.6-8.4-4.6c-5.5,0-9.9,4.7-9.9,10.2c0,2.6,1,5,2.8,6.9
		c1.8,1.8,4.4,3.1,6.9,3.1c4.2,0,8.7-3.1,8.7-7.6h-7.2v-2.5H349z"/>
	<path fill="#65154C" d="M355.5,135.8h-2.7v-24.3h3.5c4.6,0,8.9,1.2,8.9,6.7c0,3.7-2.4,6.4-6.1,6.7l7.7,10.9h-3.3l-7.4-10.7h-0.7
		V135.8z M355.5,122.7h0.8c3.1,0,6.2-0.6,6.2-4.4c0-4-2.9-4.4-6.2-4.4h-0.8V122.7z"/>
	<path fill="#65154C" d="M374,128.8l-2.9,6.9h-3l11.2-25.5l10.9,25.5h-3l-2.9-6.9H374z M379.2,116.6l-4.2,9.7h8.2L379.2,116.6z"/>
	<path fill="#65154C" d="M395.6,135.8h-2.7v-24.3h4c2.1,0,4.3,0.1,6,1.3c1.8,1.3,2.7,3.4,2.7,5.5c0,2-0.8,4-2.3,5.2
		c-1.6,1.4-3.7,1.6-5.8,1.6h-2V135.8z M395.6,122.6h1.8c3,0,5.5-0.9,5.5-4.4c0-4-3.2-4.3-6.4-4.3h-1V122.6z"/>
	<path fill="#65154C" d="M424.4,121.3v-9.9h2.7v24.3h-2.7v-11.9h-12.4v11.9h-2.7v-24.3h2.7v9.9H424.4z"/>
	<path fill="#65154C" d="M434.9,135.8h-2.7v-24.3h2.7V135.8z"/>
	<path fill="#65154C" d="M458.4,116.8c-1.9-2-4.6-3.2-7.4-3.2c-5.4,0-9.8,4.7-9.8,10.1c0,5.4,4.4,10.1,9.9,10.1
		c2.7,0,5.4-1.3,7.4-3.2v3.4c-2.1,1.5-4.7,2.4-7.3,2.4c-6.9,0-12.7-5.6-12.7-12.5c0-7,5.7-12.7,12.7-12.7c2.7,0,5.1,0.8,7.3,2.4
		V116.8z"/>
</g>
<g>
	<path fill="#74C044" d="M333.4,483.9h4.6c3.6,0,6.6,0.5,9.5,2.9c2.8,2.4,4,5.6,4,9.3c0,3.5-1.3,6.7-4,9.1c-2.9,2.6-5.8,3.1-9.6,3.1
		h-4.5V483.9z M338.1,505.7c3,0,5.5-0.4,7.7-2.5c2-1.9,3-4.4,3-7.1c0-2.8-1.1-5.5-3.2-7.3c-2.2-2-4.7-2.4-7.5-2.4h-2v19.3H338.1z"/>
	<path fill="#74C044" d="M355.3,483.9h12.6v2.5H358v7.2h9.6v2.5H358v9.5h9.9v2.5h-12.6V483.9z"/>
	<path fill="#74C044" d="M383.5,488.6c-1-1.7-2.1-2.6-4.2-2.6c-2.2,0-4,1.5-4,3.8c0,2.1,2.2,3.1,3.8,3.8l1.6,0.7
		c3.2,1.4,5.8,3,5.8,6.8c0,4.3-3.4,7.5-7.6,7.5c-3.9,0-6.8-2.5-7.6-6.3l2.6-0.7c0.4,2.5,2.3,4.5,4.9,4.5c2.6,0,5-2,5-4.7
		c0-2.8-2.2-3.8-4.5-4.8l-1.5-0.6c-2.8-1.3-5.3-2.7-5.3-6.2c0-3.8,3.2-6.2,6.8-6.2c2.7,0,5,1.4,6.3,3.8L383.5,488.6z"/>
	<path fill="#74C044" d="M393.3,508.2h-2.7v-24.3h2.7V508.2z"/>
	<path fill="#74C044" d="M420.9,496c0.1,3.3-0.3,6-2.5,8.6s-5.6,4.1-9,4.1c-6.8,0-12.5-5.7-12.5-12.5c0-7,5.7-12.6,12.7-12.6
		c4.3,0,7.7,1.9,10.3,5.3l-2,1.8c-2-2.9-4.8-4.6-8.4-4.6c-5.5,0-9.9,4.7-9.9,10.2c0,2.6,1,5,2.8,6.9c1.8,1.8,4.4,3.1,6.9,3.1
		c4.2,0,8.7-3.1,8.7-7.6h-7.2V496H420.9z"/>
	<path fill="#74C044" d="M424.9,482.9l19,19.9v-18.8h2.7v25.4l-19-19.8v18.7h-2.7V482.9z"/>
</g>
</svg>
