<?xml version="1.0" encoding="utf-8"?>
<!-- Generator: Adobe Illustrator 18.1.0, SVG Export Plug-In . SVG Version: 6.00 Build 0)  -->
<svg version="1.1" id="Layer_1" xmlns="http://www.w3.org/2000/svg" xmlns:xlink="http://www.w3.org/1999/xlink" x="0px" y="0px"
	 viewBox="0 0 504 360" enable-background="new 0 0 504 360" xml:space="preserve">
<g>
	<path fill="#FFFFFF" stroke="#000000" stroke-miterlimit="10" d="M286,306.1c3.9-3.9,6.9-11.5,9.3-22.2c-16.8-2.4-25-16.8-25-31.7
		c0-25,18.8-38.3,38-38.3c21.2,0,40.3,14.2,40.3,45.5c0,26.8-15.2,55.8-39.6,55.8c-10.9,0-17.5-2.1-22.2-3.5
		c-4.6,3-9.5,4.2-14.6,4.2l2.4-12.8C278.3,302.9,282.2,304.2,286,306.1z M338.6,261.9c0-30.6-13.6-43.2-30.6-43.2
		c-16.4,0-30.3,14.2-30.3,34.3c0,12.5,5.9,24.7,18.1,26.8c1-4.9,2.1-10.9,3-16.8c2.4-16.8,4.2-28.1,6.9-35.2l8.3,2.1
		c-2.7,6.9-4.9,16.8-6.9,33c-1,6.3-1.7,11.9-3,16.8c9-2.1,14.2-10.1,14.2-17.8c0-3.2-1-6.6-3-9.3l6.6-5.9c3,3.9,4.6,9,4.6,13.6
		c0,11.5-9,23.1-23.7,24.7c-3,11.2-7.7,18.8-12.2,23.7c4.6,1.7,10.1,3,17.5,3C328,310.9,338.6,285.4,338.6,261.9z"/>
	<path fill="#FFFFFF" stroke="#000000" stroke-miterlimit="10" d="M363.3,237.2c-3.9,0-6.3,3.9-6.3,6.9c0,2.4,1.3,4.6,4.2,4.6
		c3.9,0,6.3-3.9,6.3-6.9C367.5,239.6,366.3,237.2,363.3,237.2z"/>
	<path fill="#FFFFFF" stroke="#000000" stroke-miterlimit="10" d="M437.5,237.2c-3.9,0-6.3,3.9-6.3,6.9c0,2.4,1.3,4.6,4.2,4.6
		c3.9,0,6.3-3.9,6.3-6.9C441.7,239.6,440.5,237.2,437.5,237.2z"/>
	<path fill="#FFFFFF" stroke="#000000" stroke-miterlimit="10" d="M490.3,273.1c-3.2,9.3-7.9,14.9-12.5,14.3c-4.3,0-5.6-4.2-5.6-9.5
		v-1.3c10.6-1.9,15.9-10.2,15.9-16.8c0-4.2-2.3-7.2-6.9-7.2c-8.2,0-14.4,10.3-16.2,20.8c-0.1,0-0.1,0-0.2,0c-4,10-6.9,14.9-9,14.9
		c-1,0-1.7-0.7-1.8-1.1c0-3.2,4.2-10.8,4.2-16.4c0-5.3-3.9-8.8-6.9-11.9c1.7-4.8,2.4-9,2.7-14.9L447,242c-1.4,4.3-2.1,7.8-2.1,10.9
		s0.7,5.6,1.7,7.7c-0.2,1.9-0.7,4.1-1.3,6.3c-0.6,2.1-1.3,4.2-2.1,6.2h0c-4,10.3-6.9,15.2-9.3,15.2c-0.7,0-1.7-0.3-1.7-3
		c0-7.3,2.6-17.8,5.6-31.7h0.2v-0.2h-8c-1,4.6-3.4,13.9-4.6,22.3c-3.7,9.4-7.1,12.9-8,12.9c-0.7,0-1-0.7-1-2.1c0-0.7,0-1.4,0.3-2.4
		c1-9.1,2.6-18.8,5.6-30.6h-6.6l-0.4,4.9c-1-3.9-2.7-5.9-5.9-5.9c-6.4,0-11.8,10.1-14.2,20.6c-0.3-0.1-0.5-0.1-0.7-0.1
		c-3.9,10-8.7,14.9-12.9,14.9c-4.9,0-6.6-4.5-6.6-10.1c0-8.2,4.4-19.1,9-19.1c1.1,0,1.7,1,1.7,3c0,2.6-1.3,6.4-3,9.5l5.2,3.1
		c2.1-3.9,3-8.3,3-12.2c0-5.1-2-9.3-6.9-9.3c-8.2,0-13.9,10.2-15.6,20.7c-4,10-6.8,14.8-9.1,14.8c-0.7,0-1.7-0.3-1.7-3
		c0-7.3,2.6-17.8,5.6-31.7h0.2v-0.2h-8c-1.4,6.3-5.3,20.8-5.3,30.6c0,6.3,1.6,10.9,6.6,10.9c3.8,0,6.5-2.7,8.7-6.6
		c1-1.7,1.8-3.6,2.6-5.7c0.7,7.2,3.9,12.6,10,12.6c7,0,12.3-7.5,15.8-14.3c-0.1,1-0.1,2-0.1,3c0,6.3,1.7,11.2,6.3,11.2
		c5.5,0,8.4-4.9,10.5-10.1v1c0,6.3,1.6,9,4.6,9c2.9,0,6.1-3.2,9.6-10.3c0.1,6,1.8,10.3,6.6,10.3c3.8,0,6.5-2.7,8.7-6.6
		c2.2-3.9,3.9-8.9,5.8-13.9c0,0,0,0,0,0l3.5-9.5c0.8,1.7,1.7,3.5,1.7,6.6c0,4.6-4.2,10.9-4.2,16.8c0,3.9,1.7,6.9,5.9,6.9
		c3.8,0,6.5-2.7,8.7-6.6c1-1.8,2-4,2.9-6.2c0.6,7.3,3.6,12.8,10.8,12.8c8.8,0,13.2-9.3,17.8-21.2C493,274.1,490.9,273.1,490.3,273.1
		z M403,287.7c-1.4,0-2.1-1.6-2.1-4.6c0-7.9,4.7-23.7,8.3-23.7c2,0,3,2.4,3,5.6C412.3,272.8,407.2,287.7,403,287.7z M480,258.2
		c0.7,0,1.3,1.1,1.3,2.4c0,3.4-2.6,9.6-9.5,12.8C473.2,266.3,476.5,258.7,480,258.2z"/>
</g>
<g>
	<path fill="#FFFFFF" stroke="#000000" stroke-miterlimit="10" d="M268.3,236.5c-4.6,11.2-11.5,18.4-22.3,18.4c-3,0-5.6-0.7-8.3-1.3
		c-16.1-5.9-22.3-31.3-22.3-67.2c0-44.6,9.5-105.8,21.5-168.3c0-0.3,0.3-1,0.3-1l-13.6-6.3c-21.8,16.4-36.6,59.8-53.5,102.6
		c-8.6-4.2-17.8-6.9-27.8-8.3c-2.1-0.2-4-0.5-6.1-0.5c-3-8.6-8-16.1-15.2-21.8c-8.6-6.9-20.5-11.2-35.9-11.2
		c-51.3,0-78.7,43.2-78.7,84.8c0,10.5,1.7,20.8,5.3,30.3c9.3,25,31,44.6,66.4,44.6c5.6,0,10.9-0.7,16.1-1.7c0.7,0,1-0.3,1.7-0.3
		c41.8-9.5,64.3-52.5,81.8-97.8c8,6.6,13.9,15.9,16.8,27.4l0,0c1,3.9,1.3,8.3,1.7,12.8c-0.3,4.9-0.3,10.1-0.3,15.2
		c0,20.5,2.4,37.6,7.2,51.1c7.7,20.5,22.2,32,45.2,32c16.4,0,28.7-9,35.9-26.1c0.3-0.7,0.7-1,0.7-1.7L268.3,236.5z M24.2,158
		c0-32.7,17.1-68.3,48.4-75.2c1-0.3,2.1-0.7,3-0.7c3-0.7,5.6-0.7,9-0.7c18.1,0,29.6,10.5,34.8,24c-0.7,0-1,0-1.3,0.3
		c-29.3,3.5-56.4,20.5-62.7,48.1l3.5,1l13.2,4.2c4.9-22.3,26.4-36.6,49.4-40.7v3c0,3-0.3,5.6-1,8.6c-2.7,14.2-11.2,27.1-26.1,31.7
		l2.1,4.9l4.9,11.2c24.7-7.2,38.3-31.5,38.3-54.5c0-1.7,0-3.2-0.3-4.9c9.3,0.7,18.4,2.7,26.4,6.3c-1,2.4-2.1,4.6-3,6.9
		c-19.8,47.8-43.9,90.6-83.8,90.6c-9.8,0-18.4-2.4-25.4-5.9C33.8,205.2,24.2,182.2,24.2,158z M181.8,120.7
		c12.5-34.3,22.3-68.3,35.9-90.8h0.3c-3.2,15.2-6.3,30-9,44.6c-3.9,21.5-7.2,42.2-9.5,61.3c-0.3,2.1-0.7,4.2-0.7,6.3
		C194.3,133.5,188.7,126.3,181.8,120.7z"/>
	<path fill="#FFFFFF" stroke="#000000" stroke-miterlimit="10" d="M310.2,62.1c-1.3-2.7-3.9-4.2-8-4.2c-5.3,0-9.3,3-11.5,7.2
		c-1.3,2.7-2.4,5.3-2.4,8.3c0,0.7,0,1,0,1.7c0.3,2.1,1,3.9,2.4,5.3c1.3,1.7,3.9,3,6.9,3c9,0,13.9-8.3,13.9-15.2
		C311.8,66,311.2,63.6,310.2,62.1z"/>
	<path fill="#FFFFFF" stroke="#000000" stroke-miterlimit="10" d="M376.6,121.9c0,0.1,0.1,0.3,0.1,0.4c0-0.1,0.1-0.2,0.1-0.2
		L376.6,121.9z"/>
	<path fill="#FFFFFF" stroke="#000000" stroke-miterlimit="10" d="M481.7,137.6c-4.6,11.2-8.6,19.4-11.9,24.7c-3.9,6.3-6.9,9-8,9
		s-1.7-1.3-1.7-4.2c0-1.3,0-3,0.3-5c2.7-18.4,6.3-38.6,11.5-63c0.3-1.3,0.7-2.7,1-3.9h-13.9l-1,4.6l-1.3,6.9c-0.7-3.5-1.7-6.6-3-9
		c-2.4-3-5.3-4.6-9.5-4.6c-13.9,0-25.8,22.6-31,45.2c-1.3,3.5-3.1,6.9-4.2,10.5c-1.7,3.5-3.2,6.9-5.3,10.1v-1
		c0-22.2-19.1-42.5-19.8-59.1c2.4-8,3.9-16.4,5.3-26.1c0.3-1,0.3-2.1,0.7-3L376.7,67c-3,9.5-4.6,18.4-4.6,26.4
		c0,6.9,1,12.9,2.4,18.8c-1,2.2-1.9,4.8-2.9,6.6l-0.6-0.2c-2.7,6.9-5.3,13.2-7.2,18.1c-1.7,3.9-2.9,7.7-4.6,10.9
		c-1.7,3.5-3.2,7.2-5.3,10.1v-0.7c0-22.2-19.1-42.2-19.8-59.1c2.1-8,3.9-16.4,5.3-26.1c0.3-1,0.7-2.1,0.7-3l-13.2-2.7
		c-1.3,3.9-2.1,8-3,11.5c-0.7,5.6-1.3,10.1-1.3,14.9c0,6.6,1,12.9,2.4,18.8c-1,2.4-2.1,4.6-3,6.9l-1.6,5.1c-2.2,5.3-3.9,10-5.3,14.1
		c-3.2,8.5-6.3,15.2-8.8,20.3c-2.7,5.3-5.1,8.8-7.2,11c-1.3,1.3-3,2.4-4.2,2.4c-1.7,0-3.9-1-3.9-6.9c0-15.4,5.3-36.9,11.5-66
		c0.3-1.3,0.7-2.7,1-3.9h-17.1c-2.4,9.5-6.9,26.8-9.5,43.9c-3.2,8.6-6.6,15.4-9.5,20.8c-3.5,6.6-7.2,10.9-10.5,11.5
		c-0.7,0.3-1,0.3-1.7,0.3c-4.6,0-7.7-4.2-7.7-17.1c0-6.2,0.7-13.9,1.7-22.3c8-9.5,20.8-28.7,29-54.7c2.1-6.3,5.9-20.2,5.9-31.7
		c0-5.3-1-10.5-3.2-13.9c-2.1-3-5-4.6-9.8-4.6c-11.2,0-23.7,22.3-32.7,71.6c-3.9,22.6-6.3,41.3-6.3,55.8c0,9.8,1,17.8,3.5,23.1
		c1.3,2.9,3,5.1,5.3,6.6c2.2,1.6,4.8,2.4,7.7,2.4c9.5,0,17.1-8.6,25-26.1c0.3-0.7,0.7-1,1-1.7v3.4c0,6.2,1,11.5,2.7,15.4
		c0.3,0.3,0.3,1,0.7,1c2.4,4.2,5.6,6.6,10.9,6.6c7.1,0,12.2-4.4,17-11.5c0.3-0.5,0.7-1,1-1.6c5.3-9,9.1-20.8,13.9-32.7
		c2.2-5.8,4.8-11.5,6.8-17.8h0.2c3,8.6,5.9,16.4,8,23.7c1.3,4.9,2.4,9.5,2.4,14.6c0,7.7-2.7,10.9-7.7,10.9c-0.3,0-0.3,0-0.7,0
		c-1.7,0-3.2-0.3-4.6-1.3c-1-0.7-2.1-2.1-3-3.2c0,0-0.3-0.7-0.7-1l-12,9c1.3,3.5,3.2,6.6,6.3,9c3.2,3,8.3,4.6,13.2,4.6
		c10.1,0,18.4-5.6,25-14.6c0.3-0.5,0.8-1,1.1-1.7c2.7-3.9,5.3-8.3,7.7-13c2.7-5.4,5.1-11.4,7.2-17.3c2-5.5,4.5-11.7,6.8-18.2
		c0-0.1-0.1-0.3-0.1-0.4l-0.7-0.4l-0.3-0.2l0.2,0.1h0l0.6,0.2c0,0.1,0.1,0.2,0.1,0.4l0.2,0.1c0,0.1-0.1,0.2-0.1,0.2
		c2.6,8.3,5.4,15.5,7.8,22.6c1.3,4.9,2.4,9.5,2.4,14.6c0,6.9-2.9,10.9-7.7,10.9c-0.3,0-0.3,0-0.7,0c-1.7,0-3.1-0.7-4.6-1.3
		c-1-1-2.4-2.4-3.2-3.9c0,0-0.3-0.3-0.3-0.7l-11.8,9c1,2.7,2.4,4.9,3.9,6.9c3.5,4.2,9.3,6.9,15.6,6.9c14.2,0,23.7-9.8,31.3-23.7
		c0.7-1,1-2.1,1.3-3.1v1.3c0,6.3,1,11.9,2.7,16.2c0.3,0.7,0.7,1,1,1.7c1.2,2.4,2.6,4,4.2,5.3c1.7,1.1,3.7,1.7,6.3,1.7
		c11.2,0,18.5-10.5,22.7-22.6v2.4c0,7.7,1,12.8,3.4,15.9c1.7,2.4,3.5,3.2,6.6,3.2c9,0,18.4-13.6,30.3-44.2c0.3-0.3,0.3-1,0.7-1
		C487.3,139.1,483,137.6,481.7,137.6z M273.3,40.2c1,0,2.1,1.7,2.1,4.2c-0.3,24-14.9,56.7-24.7,75C256.5,83.1,268,40.2,273.3,40.2z
		 M451.1,119.7c0,15.6-8.3,41.2-16.2,48.4c-1.3,1-2.4,1.7-3.9,1.7c-3,0-4.2-4.2-4.2-10.1c0-17.8,10.1-52.5,18.4-52.5
		c3.9,0,5.6,3.9,5.9,9.8L451.1,119.7z"/>
	<path fill="#FFFFFF" stroke="#000000" stroke-miterlimit="10" d="M376.6,121.9c0,0.1,0.1,0.3,0.1,0.4c0-0.1,0.1-0.2,0.1-0.2
		L376.6,121.9z"/>
	<polygon fill="#FFFFFF" stroke="#000000" stroke-miterlimit="10" points="375.9,121.5 375.6,121.3 375.8,121.4 375.8,121.4 	"/>
</g>
<path fill="#FFFFFF" stroke="#000000" stroke-miterlimit="10" d="M326.9,121L326.9,121C326.7,121,326.7,121,326.9,121L326.9,121z"/>
</svg>
