<?xml version="1.0" encoding="utf-8"?>
<!-- Generator: Adobe Illustrator 19.2.0, SVG Export Plug-In . SVG Version: 6.00 Build 0)  -->
<svg version="1.1" id="Layer_1" xmlns="http://www.w3.org/2000/svg" xmlns:xlink="http://www.w3.org/1999/xlink" x="0px" y="0px"
	 viewBox="0 0 72 72" style="enable-background:new 0 0 72 72;" xml:space="preserve">
<style type="text/css">
	.st0{fill:#FFFFFF;}
</style>
<path class="st0" d="M51.7,35.8c-0.1,0.1-0.1,0.1-0.2,0.2C51.6,35.9,51.6,35.8,51.7,35.8z"/>
<path class="st0" d="M51.7,45c-0.1,0.1-0.2,0.1-0.3,0.2c-1.7,1.3-3.6,2-5.8,1.9C43.6,47,42,46,41,44.6c-1.7,1.2-3.8,1.9-6.1,1.7
	c-2.9-0.2-5.3-2-5.9-4.7l4.1-2.4c0.7,1.4,1.4,1.9,2.6,2c1.6,0.1,2.5-0.9,2.7-3.1c0.2-3.2-0.8-6.6-1.8-10.3c0-0.1,0-0.1,0-0.2
	c-0.1-0.4-0.2-0.7-0.3-1.1v-0.1c-0.8-3.2-0.8-4.2-0.8-4.3l0,0c-0.2-1.6-0.3-3.2-0.2-5c0.2-2.4,0.8-5.1,2-8l4.3,1.1
	c-0.7,3.2-1.6,6.2-2.5,8.8c-0.2,4.9,4.9,11.3,5,17.7c0,0,0.2,1.6-0.1,3.5l0,0c0.6,1.4,1.3,1.9,2.4,2c1.4,0.1,2.3-0.9,2.5-3
	c0.3-3.7-1.1-7.3-2-11.6c-0.1-0.5-0.3-1.7-0.4-2.7l0,0c-0.1-1-0.3-1.9-0.3-2.2v-0.1l0,0l0,0c-0.1-1.2-0.1-2.5,0-3.9
	c0.2-2.4,0.8-5.1,1.9-7.9l4,1.1c-0.7,3.2-1.5,6.1-2.4,8.6c-0.2,5.1,5.1,11.8,4.6,18.5v0.1C54,39,53.7,43,51.7,45z"/>
<g>
	<path class="st0" d="M29.1,18.9c0-1.6,1-3.5,2.7-3.5c1.3,0,1.8,1.1,1.8,2.3c0,1.6-1,3.4-2.7,3.4C29.7,21.1,29.1,20.1,29.1,18.9z"/>
	<path class="st0" d="M32.4,37.9c-0.8,1.9-1.6,2.8-2.2,2.8c-0.3,0-0.8-0.2-0.8-1.5c0-3.6,1.1-8.7,2.4-15.5h-3.2
		c-0.4,2.1-1.4,6-1.9,9.8c-1.6,4.7-3,7.3-4.2,7.3c-0.9,0-1.4-0.9-1.4-3.9c0-1.4,0.1-3.1,0.3-5c1.5-2.2,4.1-6.4,5.7-12.2
		c0.4-1.4,1.1-4.5,1.1-7.1c0-2.2-0.6-4.1-2.6-4.1c-2.2,0-4.6,5-6.3,16c-0.5,3.2-0.9,6.1-1.1,8.6l0,0c-1.8,5.4-3.4,7.5-3.9,7.5
		c-0.2,0-0.3-0.3-0.3-1c0-0.3,0-0.7,0.1-1.1c0.5-4.3,1.3-9.1,2.4-14.9h-2.7l-0.4,2.5c-0.3-2-1.1-2.9-2.5-2.9
		c-3.6,0-6.6,9.1-6.6,15.3c0,3.2,0.8,5.6,2.6,5.6c2.2,0,3.6-2.3,4.4-5v0.5c0,2.1,0.3,3.3,0.9,3.9l0,0c0.2,0.2,1.8,1.6,3.5-0.9
		c0.3-0.8,0.8-2,1.2-3l0,0c0.4-1.1,0.8-2,1-2.3l0,0l0,0l0,0l0,0v-0.1c0,2.9,0.5,5,1.4,6.1c0,0,0.6,0.7,1.9,0.8c1.9,0,3.4-2,5-6.2
		c0,0.3,0,0.5,0,0.7c0,3,0.7,5.2,2.7,5.2c2.2,0,3.6-2.6,4.7-5.9C33,37.6,32.4,37.9,32.4,37.9z M26.1,11.5c0.2,0,0.4,0.3,0.4,1
		c0,5.3-2.9,12.7-4.8,16.7C22.8,21,25.1,11.5,26.1,11.5z M8.4,40.4c-0.6,0-0.8-0.9-0.8-2.3c0-4,1.9-11.7,3.6-11.7
		c0.8,0,1.2,1.1,1.2,2.8C12.3,33.2,10.1,40.4,8.4,40.4z"/>
	<path class="st0" d="M55.3,44.1c2.2,0,3.6-2.3,4.4-5v0.5c0,3,0.7,4.3,1.9,4.3c1.8,0,3.6-3.1,6-10.1c0-0.3-0.8-0.6-1.1-0.6
		c-1.8,5.4-3.4,7.5-3.9,7.5c-0.2,0-0.3-0.3-0.3-1c0-0.3,0-0.7,0.1-1.1c0.5-4.3,1.3-9.1,2.4-14.9h-2.7l-0.4,2.5
		c-0.3-2-1.1-2.9-2.5-2.9c-2.6,0-4.8,4.7-5.9,9.6l0,0l0,0l0,0c-0.1,0.4-0.9,3.1-0.6,5.7C52.7,41.7,53.5,44.1,55.3,44.1z M59.5,26.4
		c0.8,0,1.2,1.1,1.2,2.8c0,4.1-2.2,11.2-3.9,11.2c-0.6,0-0.8-0.9-0.8-2.3C55.9,34.1,57.9,26.4,59.5,26.4z"/>
</g>
<g>
	<path class="st0" d="M5.4,48.5H10c3.5,0,6.4,2.7,6.4,6.3c0,3.5-2.9,6.3-6.4,6.3H5.4V48.5z M8.7,58.3h0.7c1.9,0,3.6-1.1,3.6-3.5
		c0-2.2-1.5-3.5-3.6-3.5H8.7V58.3L8.7,58.3z"/>
	<path class="st0" d="M20.5,61.1h-3.3V48.5h3.3V61.1z"/>
	<path class="st0" d="M31,52.7c-0.7-0.9-1.8-1.4-2.9-1.4c-2,0-3.3,1.5-3.3,3.5s1.4,3.4,3.4,3.4c1.1,0,2.1-0.5,2.8-1.3v3.9
		c-1.1,0.3-1.9,0.6-2.9,0.6c-1.8,0-3.4-0.7-4.7-1.8c-1.4-1.2-2-2.9-2-4.7c0-1.7,0.6-3.4,1.8-4.6c1.2-1.3,3-2,4.8-2c1,0,2,0.2,3,0.6
		V52.7L31,52.7z"/>
	<path class="st0" d="M35.5,58.9l-0.9,2.2h-3.5L36,48.5h3.6L44.3,61h-3.5L40,58.9H35.5z M37.8,52.4L37.8,52.4l-1.4,4h2.7L37.8,52.4z
		"/>
	<path class="st0" d="M47.9,61.1h-3.3V48.5h3.3V61.1z"/>
	<path class="st0" d="M59.8,61.1h-4.1l-3.1-4.8l0,0v4.8h-3.3V48.5h4.9c2.5,0,4.4,1.2,4.4,3.9c0,1.7-1,3.2-2.7,3.5L59.8,61.1z
		 M52.6,54.2H53c1.1,0,2.3-0.2,2.3-1.6c0-1.4-1.2-1.6-2.3-1.6h-0.3v3.2H52.6z"/>
	<path class="st0" d="M63.3,51.3v2.1H67v2.8h-3.7v2.2h3.9v2.8H60V48.5h7.1v2.8H63.3z"/>
</g>
</svg>
