<?xml version="1.0" encoding="utf-8"?>
<!-- Generator: Adobe Illustrator 17.1.0, SVG Export Plug-In . SVG Version: 6.00 Build 0)  -->
<!DOCTYPE svg PUBLIC "-//W3C//DTD SVG 1.1//EN" "http://www.w3.org/Graphics/SVG/1.1/DTD/svg11.dtd">
<svg version="1.1" id="Layer_1" xmlns="http://www.w3.org/2000/svg" xmlns:xlink="http://www.w3.org/1999/xlink" x="0px" y="0px"
	 viewBox="0 0 216 216" enable-background="new 0 0 216 216" xml:space="preserve">
<path fill="#F9DB9D" d="M179.1,109.5c0,38.5-32.1,69.8-71.8,69.8c-39.6,0-71.8-31.3-71.8-69.8s32.1-69.8,71.8-69.8
	C147,39.7,179.1,70.9,179.1,109.5z"/>
<path fill="#91C84A" d="M73,134L73,134C73,134,73,134,73,134C73,134,73,134,73,134z"/>
<g>
	<g>
		<g>
			<path fill="#600A5A" d="M170,130.3C170,130.3,170,130.3,170,130.3C170.1,130.3,170.1,130.3,170,130.3
				C170.1,130.2,170.1,130.2,170,130.3z M170,130.3C170,130.3,170,130.3,170,130.3C170,130.3,170,130.3,170,130.3
				C170,130.3,170,130.3,170,130.3z M120.8,118.6C120.8,118.6,120.8,118.6,120.8,118.6L120.8,118.6
				C120.8,118.5,120.8,118.5,120.8,118.6z M120.8,118.6L120.8,118.6C120.8,118.5,120.8,118.6,120.8,118.6
				C120.8,118.6,120.8,118.6,120.8,118.6z"/>
			<path fill="#600A5A" d="M170.7,129.4L170.7,129.4L170.7,129.4l0.1,0l0,0v0l0,0l0-0.1C170.8,129.3,170.8,129.3,170.7,129.4z
				 M170.7,129.4C170.6,129.4,170.6,129.4,170.7,129.4c-0.1,0-0.1,0-0.1,0c0,0,0,0,0,0c0,0,0,0-0.1,0c0,0,0,0,0,0
				C170.5,129.4,170.5,129.4,170.7,129.4C170.6,129.4,170.6,129.4,170.7,129.4C170.7,129.4,170.7,129.4,170.7,129.4L170.7,129.4
				C170.7,129.4,170.7,129.4,170.7,129.4z M170.3,129.5L170.3,129.5C170.3,129.5,170.3,129.5,170.3,129.5z M170.3,129.5
				C170.3,129.5,170.3,129.5,170.3,129.5L170.3,129.5C170.2,129.5,170.2,129.5,170.3,129.5c-0.1,0-0.1,0-0.1,0h0
				C170.2,129.6,170.2,129.6,170.3,129.5L170.3,129.5C170.3,129.6,170.3,129.5,170.3,129.5L170.3,129.5L170.3,129.5z M170,130.3
				C170,130.3,170,130.3,170,130.3C170.1,130.3,170.1,130.3,170,130.3C170.1,130.2,170.1,130.2,170,130.3z M170,130.3
				C170,130.3,170,130.3,170,130.3C170,130.3,170,130.3,170,130.3C170,130.3,170,130.3,170,130.3z M169.8,129.7
				C169.8,129.7,169.8,129.7,169.8,129.7C169.8,129.7,169.8,129.7,169.8,129.7C169.8,129.7,169.8,129.7,169.8,129.7z M169.7,129.7
				C169.8,129.7,169.8,129.7,169.7,129.7L169.7,129.7C169.8,129.7,169.7,129.7,169.7,129.7L169.7,129.7z M120.8,118.6
				C120.8,118.6,120.8,118.6,120.8,118.6L120.8,118.6C120.8,118.5,120.8,118.5,120.8,118.6z M120.8,118.6L120.8,118.6
				C120.8,118.5,120.8,118.6,120.8,118.6C120.8,118.6,120.8,118.6,120.8,118.6z"/>
		</g>
		<g>
			<path fill="#600A5A" d="M170,130.3C170,130.3,170,130.3,170,130.3C170.1,130.3,170.1,130.3,170,130.3
				C170.1,130.2,170.1,130.2,170,130.3z M170,130.3C170,130.3,170,130.3,170,130.3C170,130.3,170,130.3,170,130.3
				C170,130.3,170,130.3,170,130.3z"/>
			<path fill="#600A5A" d="M62.1,101.5v0.5c0,0.8-0.1,1.6-0.2,2.3c0,0.2-0.2,0.4-0.4,0.5c-2.9,1-8.1,3.6-9.4,9.4l-0.1,0.3
				c0,0.2-0.1,0.3-0.3,0.4c-0.1,0.1-0.2,0.1-0.3,0.1c-0.1,0-0.1,0-0.2,0l-5.1-1.6c-0.1,0-0.1-0.1-0.2-0.1l0,0
				c-0.1-0.1-0.1-0.1-0.2-0.2c-0.1-0.1-0.1-0.2-0.1-0.3v0c0-0.1,0-0.1,0-0.1l0.1-0.2c0.1-0.3,0.1-0.5,0.2-0.8
				c0.1-0.1,0.1-0.3,0.3-0.4s0.3-0.1,0.4-0.1l1.6,0.5c1.6-6.4,7.8-9.7,13-10.7c0,0,0.1,0,0.1,0c0.1,0,0.1,0,0.2,0
				c0.1,0,0.2,0.1,0.2,0.1l0,0c0.1,0.1,0.1,0.1,0.2,0.2C62.1,101.3,62.1,101.4,62.1,101.5z"/>
			<path fill="#600A5A" d="M108.7,83.5c0,0.6,0,1.3-0.1,1.9c0,0.2-0.1,0.3-0.2,0.4c-1,0.7-1.6,2-1.6,3.2c0,0.6,0.2,1.2,0.5,1.6
				c0.1,0.1,0.1,0.2,0.1,0.4c0,0.1,0,0.1,0,0.2c-0.1,0.4-0.2,0.7-0.3,1c-0.2,0.8-0.5,1.6-0.9,2.5c-0.1,0.1-0.1,0.3-0.2,0.4
				c-2.2,5.7-5.1,9.7-6.7,11.7c-0.3,2.3-0.4,4.2-0.4,5.6c0,0.7,0,1.4,0.1,1.9c0,0.2-0.1,0.4-0.2,0.5c-0.5,0.4-1,0.6-1.4,0.6
				c-2.1,0-2.3-2.8-2.3-4.9c0-1.6,0.1-3.4,0.4-5.9c0-0.1,0.1-0.2,0.1-0.3c0.8-1,2.3-2.9,3.9-5.7c0.1-0.2,0.4-0.4,0.7-0.3
				c0.1,0,0.1,0.1,0.2,0.1c1.7-3.7,4-9.5,4.3-14.4c0,0,0,0,0-0.1c0.1-0.9,0.2-1.7,0.2-2.5c0-1.3-0.2-2.2-0.5-3
				c-0.1-0.2-0.1-0.4,0.1-0.6c0.1-0.2,0.3-0.3,0.5-0.2C106.6,78,108.7,79.1,108.7,83.5z"/>
			<path fill="#600A5A" d="M169.8,129.7C169.8,129.7,169.8,129.7,169.8,129.7C169.8,129.7,169.8,129.7,169.8,129.7
				C169.8,129.7,169.8,129.7,169.8,129.7z M169.7,129.7C169.8,129.7,169.8,129.7,169.7,129.7L169.7,129.7
				C169.8,129.7,169.7,129.7,169.7,129.7L169.7,129.7z M170,130.3C170,130.3,170,130.3,170,130.3C170.1,130.3,170.1,130.3,170,130.3
				C170.1,130.2,170.1,130.2,170,130.3z M170,130.3C170,130.3,170,130.3,170,130.3C170,130.3,170,130.3,170,130.3
				C170,130.3,170,130.3,170,130.3z M170.3,129.5L170.3,129.5C170.3,129.5,170.3,129.5,170.3,129.5z M170.3,129.5
				C170.3,129.5,170.3,129.5,170.3,129.5L170.3,129.5C170.2,129.5,170.2,129.5,170.3,129.5c-0.1,0-0.1,0-0.1,0h0
				C170.2,129.6,170.2,129.6,170.3,129.5L170.3,129.5C170.3,129.6,170.3,129.5,170.3,129.5L170.3,129.5L170.3,129.5z"/>
			<path fill="#600A5A" d="M68.5,97.7C68.4,97.9,68.2,98,68,98c0,0-0.1,0-0.1,0c-0.7-0.1-1.3-0.2-1.9-0.2c-0.2,0-0.4-0.2-0.5-0.4
				c-0.7-1.9-1.7-3.5-3.1-4.8c-0.2-0.2-0.2-0.5-0.1-0.8c0.2-0.2,0.5-0.3,0.7-0.2c2.4,1.3,4.2,3.1,5.5,5.5
				C68.6,97.3,68.6,97.5,68.5,97.7z"/>
			<path fill="#600A5A" d="M73.9,102.7C73.9,102.7,73.9,102.7,73.9,102.7L73.9,102.7L73.9,102.7L73.9,102.7L73.9,102.7
				c0,0.1,0,0.2,0,0.2l0,0v0c-0.1,0.1-0.1,0.3-0.2,0.4c-0.1,0.2-0.1,0.3-0.2,0.5c-0.1,0.3-0.4,0.4-0.7,0.3c-0.8-0.2-1.7-0.4-2.6-0.4
				c0,0.1,0,0.3,0,0.4l0,0c0,7.1-4.4,13.4-10.8,15.4l-0.2,0.1c-0.1,0-0.1,0-0.2,0c-0.2,0-0.4-0.1-0.5-0.4l-1-2.5l0,0l0,0
				c0-0.1,0-0.1,0-0.2l0,0c0,0,0,0,0-0.1c0-0.1,0-0.2,0.1-0.3c0-0.1,0.1-0.1,0.1-0.1l0,0c0.1-0.1,0.1-0.1,0.2-0.2
				c5.2-2.3,8.6-7.8,8.6-13.8l0,0l0,0c0-0.4,0-0.7,0-1c0,0,0,0,0-0.1l0,0c0-0.1,0-0.1,0-0.2c0-0.1,0.1-0.2,0.1-0.2l0,0
				c0.1-0.1,0.1-0.1,0.2-0.1c0.1,0,0.1,0,0.2,0H67c2.4,0.2,4.6,0.7,6.6,1.6c0.1,0,0.2,0.1,0.2,0.2l0,0l0,0l0,0l0,0l0,0l0,0l0,0
				c0,0,0.1,0.1,0.1,0.1l0,0l0,0l0,0l0,0l0,0l0,0l0,0l0,0C73.9,102.5,73.9,102.6,73.9,102.7z"/>
			<path fill="#600A5A" d="M103.2,81.4c-0.1,6.9-4.5,16.1-5.9,18.7c-0.1,0.2-0.3,0.3-0.5,0.3c-0.1,0-0.1,0-0.2,0
				c-0.3-0.1-0.4-0.4-0.4-0.7C97,95.5,98,90.8,99,87.1c2-6.9,2.9-7.1,3.2-7.1c0.1,0,0.2,0,0.3,0C102.9,80.2,103.2,80.7,103.2,81.4z"
				/>
		</g>
		<g>
			<path fill="#600A5A" d="M151.9,115.2c0-5.1,1.3-10.9,2.9-17.6c0.1-0.4,0.2-0.7,0.2-1.1l0-0.1c0.1-0.3,0.3-0.5,0.6-0.5h3.1
				c0.2,0,0.4,0.1,0.5,0.2c0.1,0.1,0.2,0.3,0.1,0.5l-0.1,0.3c-0.2,0.9-0.4,1.9-0.6,2.8c-1.5,6.7-2.8,12.5-2.8,17.4
				c0,2.3,0.4,6.5,3.4,9.5c0.2,0.2,0.2,0.5,0.1,0.8c-0.1,0.2-0.3,0.2-0.5,0.2c-0.1,0-0.2,0-0.2-0.1
				C154.3,125.5,151.9,121,151.9,115.2z"/>
			<path fill="#600A5A" d="M143,112.1c0-2.4,0.6-5.9,1.6-8.9c0.6-1.7,1.2-3.2,1.8-4.1c0.1-0.1,0.1-0.2,0.2-0.3
				c0.1-0.1,0.2-0.2,0.2-0.3c0.4-0.5,0.9-0.8,1.3-0.8c0.7,0,1.9,0.5,1.9,3.6l0,0l0,0v0.1c0,0.1-0.1,0.2-0.1,0.3
				c-0.5,0.8-1.1,2.2-1.6,3.8c-0.8,2.5-1.4,5.3-1.5,7.5c0,0.1,0,0.2-0.1,0.3c-0.8,1.3-1.6,1.9-2.4,1.9
				C143.8,115.2,143,114.7,143,112.1z"/>
			<path fill="#600A5A" d="M133.9,102.6c-1.2-2.4-2.3-4.6-2.4-6.7c0-0.1,0-0.1,0-0.2c0.6-2.2,1-4.3,1.4-6.5c0-0.2,0.1-0.3,0.2-0.4
				c0.1-0.1,0.3-0.1,0.4-0.1l2.9,0.5c0.3,0.1,0.5,0.4,0.5,0.7l-0.1,0.2c-0.4,2.7-0.9,5.2-1.6,7.6c0.1,1.8,1.2,3.9,2.3,6.1
				c0.6,1.2,1.2,2.4,1.7,3.7c0.1,0.1,0.1,0.3,0,0.4c-0.5,1.2-1,2.2-1.4,3.1c-0.1,0.2-0.3,0.3-0.5,0.3c-0.1,0-0.1,0-0.1,0
				c-0.2-0.1-0.4-0.3-0.5-0.5C136.6,108.1,135.2,105.2,133.9,102.6z"/>
			<path fill="#600A5A" d="M122.2,117.6C122.2,117.6,122.1,117.6,122.2,117.6C122.1,117.6,122.1,117.6,122.2,117.6
				C122.1,117.6,122.2,117.6,122.2,117.6z"/>
			<path fill="#600A5A" d="M120.7,102.6c-1.2-2.4-2.3-4.6-2.4-6.7c0-0.1,0-0.1,0-0.2c0.5-2,1-4.1,1.4-6.5c0-0.2,0.1-0.3,0.2-0.4
				c0.1-0.1,0.3-0.1,0.4-0.1l2.9,0.5c0.3,0.1,0.5,0.4,0.5,0.7l0,0.2c-0.4,2.8-0.9,5.3-1.6,7.6c0.1,1.8,1.1,3.9,2.3,6.1l0.1,0.1
				c0.6,1.1,1.1,2.3,1.6,3.6c0.1,0.1,0.1,0.3,0,0.4c-0.5,1.2-1,2.2-1.4,3.1c-0.1,0.2-0.3,0.3-0.5,0.3c-0.1,0-0.1,0-0.1,0
				c-0.2-0.1-0.4-0.3-0.5-0.5C123.4,108,122,105.2,120.7,102.6L120.7,102.6z"/>
			<path fill="#600A5A" d="M106.6,113.4c0-3.8,1.2-9.1,2.7-15.7c0.1-0.4,0.2-0.9,0.3-1.4l0-0.1c0.1-0.3,0.3-0.5,0.6-0.5h3.1
				c0.2,0,0.4,0.1,0.5,0.2c0.1,0.1,0.2,0.3,0.1,0.5l-0.1,0.3c-0.2,1-0.5,2-0.7,3c-1.2,5.2-2.2,9.7-2.5,13.1c0,0.1,0,0.2-0.1,0.2
				c-0.9,1.5-1.7,2.2-2.5,2.2C107.3,115.6,106.6,115.2,106.6,113.4z"/>
			<path fill="#600A5A" d="M86.8,113.9c0.5-9.8,2.3-22.3,5.6-39.5c0-0.2,0.1-0.3,0.3-0.4c0.2-0.1,0.4-0.1,0.5,0l2.8,1.3
				c0.2,0.1,0.4,0.4,0.3,0.7L96.2,76c-2.5,13.1-4.2,23.7-5,32.3c0,0.1,0,0.2-0.1,0.3c-1.5,2.3-2.6,4.2-3.2,5.6
				c-0.1,0.2-0.3,0.4-0.5,0.4c-0.1,0-0.1,0-0.1,0C86.9,114.4,86.8,114.2,86.8,113.9z"/>
			<path fill="#600A5A" d="M77.7,101.8c0-0.1,0-0.1,0-0.2c0,0,0-0.1,0-0.1c0-0.1,0-0.1,0-0.1c0.7-1.8,1.3-3.6,1.9-5.4L80,95
				c1.6-4.6,3.2-9.3,5-13.2c0,0,0,0,0,0v0c0.4-0.8,0.9-1.6,1.4-2.4c0,0,0.1-0.1,0.1-0.1c0.1-0.1,0.1-0.1,0.2-0.1
				c0.1,0,0.2-0.1,0.3-0.1c0.1,0,0.1,0,0.2,0.1s0.1,0.1,0.2,0.1c0.1,0.1,0.1,0.1,0.1,0.2c0,0.1,0.1,0.2,0.1,0.2v0c0,0,0,0.1,0,0.1
				c-1.2,5.8-2.2,10.9-3,15.5c0,0,0,0.1,0,0.1c-0.1,0.4-0.3,0.8-0.4,1.1l-0.7,2.1c-0.5,1.5-1.1,3.1-1.6,4.7c0.4,0.3,0.8,0.7,1.2,1.1
				l0,0c0.1,0.1,0.1,0.1,0.1,0.2c0,0.1,0,0.1,0,0.2c0,0,0,0,0,0.1v0c-0.1,0.5-0.1,0.9-0.2,1.4l0,0.2c0,0.2-0.2,0.5-0.5,0.5
				c0,0-0.1,0-0.1,0c-0.2,0-0.4-0.1-0.5-0.3c-1-1.8-2.2-3.3-3.8-4.6c0,0-0.1-0.1-0.1-0.1C77.8,102,77.7,101.9,77.7,101.8z"/>
			<path fill="#600A5A" d="M37.3,120.3c-0.9-2.1-1.5-4.6-1.6-7.2c0-0.5-0.1-1-0.1-1.5c0-2.3,0.3-4.5,0.9-6.7c1.6-6.3,5.3-11,10.1-13
				c1.7-0.7,3.5-1.1,5.3-1.1c2.9,0,5.4,1,7.3,2.9c0.2,0.2,0.2,0.5,0.1,0.7c-0.2,0.2-0.5,0.3-0.7,0.2c-1.2-0.5-2.5-0.8-3.9-0.8
				c-9.5,0-15.2,10-15.2,19.6c0,5.3,1.7,10,4.8,12.9c0.2,0.2,0.2,0.5,0.1,0.8c-0.1,0.2-0.3,0.2-0.5,0.2c-0.1,0-0.2,0-0.3-0.1
				C40.7,125.9,38.6,123.5,37.3,120.3C37.3,120.3,37.3,120.3,37.3,120.3z"/>
		</g>
		<g>
			<path fill="#600A5A" d="M120.8,118.6C120.8,118.6,120.8,118.6,120.8,118.6C120.8,118.6,120.8,118.6,120.8,118.6
				C120.8,118.6,120.8,118.6,120.8,118.6C120.8,118.6,120.8,118.6,120.8,118.6z"/>
			<path fill="#600A5A" d="M122.2,117.6C122.2,117.6,122.1,117.6,122.2,117.6C122.1,117.6,122.1,117.6,122.2,117.6
				C122.1,117.6,122.2,117.6,122.2,117.6z"/>
			<path fill="#600A5A" d="M122.3,117.5L122.3,117.5C122.3,117.5,122.3,117.5,122.3,117.5L122.3,117.5z"/>
			<path fill="#600A5A" d="M170,130.3C170,130.3,170,130.3,170,130.3C170.1,130.3,170.1,130.3,170,130.3
				C170.1,130.2,170.1,130.2,170,130.3z M170,130.3C170,130.3,170,130.3,170,130.3C170,130.3,170,130.3,170,130.3
				C170,130.3,170,130.3,170,130.3z M170.9,129.3L170.9,129.3L170.9,129.3C170.9,129.3,170.9,129.3,170.9,129.3z M170.8,129.3
				C170.8,129.3,170.8,129.3,170.8,129.3C170.8,129.3,170.8,129.3,170.8,129.3L170.8,129.3z M170.7,129.4
				C170.7,129.4,170.7,129.4,170.7,129.4C170.6,129.4,170.6,129.4,170.7,129.4c-0.1,0.1-0.1,0.1-0.1,0.1
				C170.6,129.4,170.7,129.5,170.7,129.4c0.1,0,0.1,0,0.1,0L170.7,129.4L170.7,129.4z M170.5,129.5
				C170.5,129.5,170.5,129.5,170.5,129.5C170.5,129.5,170.5,129.5,170.5,129.5C170.5,129.5,170.5,129.5,170.5,129.5z"/>
			<path fill="#600A5A" d="M170,130.3C170,130.3,170,130.3,170,130.3C170,130.3,170,130.3,170,130.3C170,130.3,170,130.3,170,130.3
				C170,130.3,170,130.3,170,130.3z M182,100.5c-0.1-0.2-0.3-0.3-0.5-0.5l-2.4,0.3c0.1,0.1,0.1,0.2,0.2,0.3c0.3,0.5,0.6,1,0.9,1.5
				c1.3,2.5,1.9,5.4,1.9,8.7c0,3.5-1,7.2-2.7,10.3c-0.6,1.1-1.3,2.2-2.1,3.1c-0.1,0.1-0.2,0.3-0.4,0.5l0,0l0,0
				c-0.2,0.2-0.4,0.4-0.6,0.7l0,0c-0.1,0.1-0.3,0.3-0.4,0.4c0,0-0.1,0-0.1,0.1l-0.1,0.1c0,0-0.1,0-0.1,0l0,0
				c-0.3,0.2-0.5,0.5-0.8,0.7c-0.2,0.1-0.4,0.3-0.5,0.4c-0.9,0.7-1.9,1.3-2.9,1.8l-0.2,0.1c0,0-0.1,0-0.2,0.1c0,0,0,0,0,0h0
				c-0.1,0.1-0.2,0.1-0.2,0.2c-0.1,0-0.2,0-0.3,0h0c0,0,0,0,0,0h-0.1c0,0,0,0-0.1,0c0,0,0,0-0.1,0c0,0,0,0,0,0h0c0,0,0,0-0.1,0h0
				c0,0,0,0,0,0h-0.1c0,0,0,0,0,0c0,0,0,0,0,0c0,0,0,0,0,0c0,0,0,0,0,0c0,0,0,0,0,0c0,0,0,0,0,0c0,0-0.1,0-0.1,0l-0.1,0
				c-1.5,0.5-3,0.8-4.7,0.9c-0.3,0-0.6,0-0.8,0h-1.2c-0.1,0-0.3,0-0.4,0c-0.3,0-0.7,0-1-0.1c-0.3,0-0.5,0-0.8-0.1
				c-1.8-0.3-3.3-0.8-4.7-1.5c-3.4-1.8-5.5-4.9-6.5-9.3c-0.3-1.2-0.4-2.6-0.5-4.1v0c0-0.3,0-0.7,0-1c0-0.2-0.2-0.5-0.4-0.5
				c-0.2-0.1-0.5,0-0.6,0.2c0,0,0,0.1-0.1,0.1c-0.3,0.6-0.5,1.1-0.8,1.5c0,0,0,0,0,0l-0.1,0.1c-1.2,1.9-2.7,2.9-4.4,2.9h-0.2
				c0,0,0,0-0.1,0c-0.9,0-1.6-0.5-2.2-1.5c-0.5-1-0.9-2.4-0.9-4.2c0-0.3-0.2-0.5-0.4-0.5c-0.2-0.1-0.5,0-0.6,0.3
				c-0.1,0.1-0.2,0.3-0.3,0.4c0,0,0,0.1,0,0.1c-2.2,3.7-4.6,5.5-7.7,5.5h-0.1c0,0,0,0,0,0c-0.6,0-1.1-0.1-1.6-0.3
				c-0.7-0.2-1.3-0.6-1.8-1.1c-0.5-0.5-0.9-1.1-1.2-1.8l0.8-0.6c0,0,0.1,0,0.1,0l1.9-1.4c0.1,0.1,0.2,0.3,0.3,0.4
				c0.4,0.5,0.8,0.8,1.3,0.9l0.7,0.6c0,0,5.9-2.6,5.4-3.6c-0.3-0.7-2.9-5.1-4.6-8.1c-0.9-1.6-1.6-2.8-1.6-2.8
				c-0.1,0.2-3.6,9.8-3.7,10.1c-0.4,0.7-0.7,1.4-1.1,2c-0.2,0.3-0.4,0.7-0.6,1.1h-0.1c-0.2,0-0.4,0.1-0.5,0.2
				c-0.1,0.2-0.2,0.3-0.4,0.5c-1.8,2.3-3.8,3.5-6.1,3.7h-0.1c0,0,0,0,0,0h0c-0.5,0-1-0.1-1.6-0.3c-0.5-0.2-1-0.4-1.4-0.7
				c-0.7-0.5-1.3-1.2-1.6-2c0-0.1,0-0.1-0.1-0.1l0.7-0.5l0.4,0.9l5,0.2l3.1-4l-2.8-5.6c-0.2-0.6-0.4-1.3-0.7-1.9l0-0.1
				c-0.1-0.2-0.1-0.3-0.2-0.5c-0.1-0.2-0.3-0.4-0.6-0.4l-0.9-1.8l-4.7,10.7l0.5,1c0,0-0.1,0-0.1,0.1l-0.5,0.6
				c-0.1,0-0.1,0.1-0.1,0.1c-0.1,0.2-0.3,0.5-0.4,0.8c0,0,0,0.1,0,0.1c0,0,0,0,0,0c0,0,0,0,0,0.1c-0.1,0.2-0.3,0.5-0.4,0.7
				c0,0,0,0,0,0c-0.1,0.1-0.2,0.2-0.2,0.3c-1.2,1.5-2.3,2.2-3.8,2.2h-0.2c0,0,0,0-0.1,0H106c0,0,0,0-0.1,0c-0.9-0.1-1.5-0.5-2-1.2
				c-0.4-0.6-0.8-1.5-0.9-2.7c-0.1-0.5-0.1-0.9-0.1-1.2c0-0.2-0.2-0.5-0.4-0.5c-0.2-0.1-0.5,0-0.7,0.2l-0.5,0.7
				c-0.2,0.3-0.4,0.5-0.5,0.7c0,0-0.1,0.1-0.1,0.1c-0.3,0.5-0.6,1-1,1.5c-0.1,0.1-0.1,0.2-0.2,0.3l0,0c-1.3,1.6-2.5,2.4-4,2.4h-0.3
				c-0.1,0-0.2,0-0.4,0c-1.4-0.2-2.3-1.2-2.8-2.9c-0.2-0.7-0.4-1.5-0.5-2.4c-0.1-0.7-0.1-1.5-0.1-2.5c0-0.2-0.2-0.5-0.4-0.5
				c-0.2-0.1-0.5,0-0.7,0.2c-0.3,0.4-0.5,0.8-0.7,1.1c-0.3,0.4-0.5,0.9-0.8,1.3c-0.3,0.5-0.6,1-0.8,1.5c-1.1,2-1.4,3.4-1.5,4.2v1.8
				c0.2,10,2.3,15.7,6.4,17c0.5,0.2,1,0.3,1.6,0.3h0.4c2.8,0,4.8-1.6,6.2-4.8l3.9,1.4c0,0.1-0.1,0.2-0.1,0.2c-1.9,4.4-5,6.7-9.2,6.7
				h-0.4c-2.1-0.1-4-0.5-5.5-1.3c-5.2-2.6-7.8-9.4-7.8-20.6c0-1.2,0-2.4,0.1-3.7v-0.6c-0.1-2.9-0.8-5.5-2.2-7.7c0,0,0-0.1,0-0.1
				c-0.7-1.1-1.5-2-2.5-2.9c-0.1-0.1-0.3-0.2-0.5-0.1c-0.2,0.1-0.3,0.2-0.4,0.4c0,0.1-0.1,0.2-0.1,0.3c0,0.1-0.1,0.2-0.1,0.3
				c-1.9,5-5,12.2-9.5,17.5c-2.1,2.5-4.4,4.4-6.9,5.7c-0.1,0.1-0.2,0.1-0.3,0.2c-2.8,1.4-5.9,2.2-9.3,2.2h-0.5c0,0-0.1,0-0.1,0
				c-3.5-0.1-6.7-0.9-9.3-2.4c-0.6-0.4-1.2-0.7-1.7-1.1c-0.5-0.4-1-0.8-1.4-1.2c-0.2-0.2-0.5-0.2-0.7-0.1c-0.2,0.1-0.3,0.4-0.3,0.6
				c0,0.2,0.1,0.3,0.1,0.5l0,0.2c0.1,0.3,0.1,0.5,0.2,0.8l0.1,0.3c0,0.1,0,0.1,0.1,0.2c4.3,14.8,13.4,28.1,25.8,37.5
				c12.8,9.7,28.1,14.9,44.3,14.9c15.8,0,30.8-4.9,43.5-14.2c12.3-9.1,21.3-21.5,26-35.9c1.7-1.1,3.2-2.5,4.6-4.1
				c3.2-3.9,5.1-9.1,5.1-14.2C186.1,107.8,184.7,103.6,182,100.5z M170.4,130.2C170.4,130.2,170.4,130.1,170.4,130.2
				C170.4,130.1,170.4,130.1,170.4,130.2C170.4,130.2,170.4,130.2,170.4,130.2z"/>
			<path fill="#600A5A" d="M168.5,100.5c-0.3,0-0.5-0.3-0.5-0.6l0.1-1.5c0-0.2,0.1-0.3,0.2-0.4c0.1-0.1,0.3-0.1,0.5-0.1
				c2.9,0.6,5.2,1.8,6.9,3.4c0.2,0.2,0.2,0.5,0.1,0.8c-0.1,0.2-0.3,0.2-0.5,0.2c-0.1,0-0.2,0-0.3-0.1c-1.7-0.9-3.8-1.5-6.3-1.7
				L168.5,100.5z"/>
		</g>
		<g>
			<path fill="#600A5A" d="M124.7,115.6L124.7,115.6C124.7,115.6,124.7,115.6,124.7,115.6L124.7,115.6z"/>
		</g>
		<g>
			<path fill="#600A5A" d="M170,130.3C170,130.3,170,130.3,170,130.3C170.1,130.3,170.1,130.3,170,130.3
				C170.1,130.2,170.1,130.2,170,130.3z M170,130.3C170,130.3,170,130.3,170,130.3C170,130.3,170,130.3,170,130.3
				C170,130.3,170,130.3,170,130.3z M120.8,118.6C120.8,118.6,120.8,118.6,120.8,118.6L120.8,118.6
				C120.8,118.5,120.8,118.5,120.8,118.6z M120.8,118.6L120.8,118.6C120.8,118.5,120.8,118.6,120.8,118.6
				C120.8,118.6,120.8,118.6,120.8,118.6z"/>
			<path fill="#600A5A" d="M170.7,129.4L170.7,129.4L170.7,129.4l0.1,0l0,0v0l0,0l0-0.1C170.8,129.3,170.8,129.3,170.7,129.4z
				 M170.7,129.4C170.6,129.4,170.6,129.4,170.7,129.4c-0.1,0-0.1,0-0.1,0c0,0,0,0,0,0c0,0,0,0-0.1,0c0,0,0,0,0,0
				C170.5,129.4,170.5,129.4,170.7,129.4C170.6,129.4,170.6,129.4,170.7,129.4C170.7,129.4,170.7,129.4,170.7,129.4L170.7,129.4
				C170.7,129.4,170.7,129.4,170.7,129.4z M170.3,129.5L170.3,129.5C170.3,129.5,170.3,129.5,170.3,129.5z M170.3,129.5
				C170.3,129.5,170.3,129.5,170.3,129.5L170.3,129.5C170.2,129.5,170.2,129.5,170.3,129.5c-0.1,0-0.1,0-0.1,0h0
				C170.2,129.6,170.2,129.6,170.3,129.5L170.3,129.5C170.3,129.6,170.3,129.5,170.3,129.5L170.3,129.5L170.3,129.5z M170,130.3
				C170,130.3,170,130.3,170,130.3C170.1,130.3,170.1,130.3,170,130.3C170.1,130.2,170.1,130.2,170,130.3z M170,130.3
				C170,130.3,170,130.3,170,130.3C170,130.3,170,130.3,170,130.3C170,130.3,170,130.3,170,130.3z M169.8,129.7
				C169.8,129.7,169.8,129.7,169.8,129.7C169.8,129.7,169.8,129.7,169.8,129.7C169.8,129.7,169.8,129.7,169.8,129.7z M169.7,129.7
				C169.8,129.7,169.8,129.7,169.7,129.7L169.7,129.7C169.8,129.7,169.7,129.7,169.7,129.7L169.7,129.7z M120.8,118.6
				C120.8,118.6,120.8,118.6,120.8,118.6L120.8,118.6C120.8,118.5,120.8,118.5,120.8,118.6z M120.8,118.6L120.8,118.6
				C120.8,118.5,120.8,118.6,120.8,118.6C120.8,118.6,120.8,118.6,120.8,118.6z"/>
		</g>
	</g>
	<g>
		<g>
			<path fill="#600A5A" d="M116.1,89.6c0,0.3,0,0.6-0.1,0.9c-0.4,2-1.9,4.1-4.4,4.1c-1.5,0-2.7-0.9-3.2-2.3c-0.1-0.2,0-0.4,0.1-0.5
				c0.1-0.1,0.3-0.2,0.5-0.2c2-0.1,3.3-2,3.3-3.8c0-0.3-0.1-0.7-0.1-0.9c-0.1-0.2,0-0.3,0.1-0.5c0.1-0.1,0.2-0.2,0.4-0.3
				c0.1,0,0.2,0,0.2,0C114.8,86,116.1,87.4,116.1,89.6z"/>
		</g>
	</g>
</g>
<g>
	<g>
		<path fill="#F9AD48" d="M86.9,119.9L86.9,119.9C86.9,119.9,86.9,119.9,86.9,119.9C86.8,119.9,86.8,119.9,86.9,119.9z"/>
	</g>
	<g>
		<path fill="#F9AD48" d="M86.8,119.9C86.8,119.9,86.8,119.9,86.8,119.9L86.8,119.9L86.8,119.9z"/>
		<path fill="#F9AD48" d="M170.7,130.1C170.7,130.1,170.7,130.1,170.7,130.1L170.7,130.1C170.7,130.1,170.7,130.1,170.7,130.1z
			 M112.9,114.8L112.9,114.8c0.1,0,0.1-0.1,0.1-0.1L112.9,114.8z M124.1,115.2c-1.8,2.5-4,4.3-7,4.5h0.1c0.4,0,0.7,0,1.1-0.1
			c0,0,0,0,0,0c2.5-0.3,4.4-1.9,6-4c0,0,0-0.1,0.1-0.1L124.1,115.2z M105.8,94.6L105.8,94.6l0,0.2c0,0.1,0,0.2-0.1,0.2
			C105.7,94.9,105.8,94.7,105.8,94.6L105.8,94.6z"/>
		<path fill="#F9AD48" d="M181,101.9c-0.3-0.5-0.6-1-0.9-1.5c-0.3-0.5-0.7-0.9-1-1.3c-0.1-0.1-0.2-0.2-0.3-0.4
			c-0.2-0.2-0.3-0.3-0.5-0.5c-0.2-0.2-0.4-0.3-0.6-0.5c-2.7-2.5-6.4-3.9-11-4.2l-0.2,0l-0.4,4.7l0.2,0c0.9,0.1,1.7,0.2,2.6,0.4
			c2.8,0.6,5,1.7,6.6,3.3c2.3,2.2,3.4,5.3,3.4,9.4c0,0.3,0,0.6,0,0.9c-0.2,4.3-1.6,8.2-4.1,11.2c-2.7,3.2-6.4,5-10.4,5
			c-2.2,0-4-0.4-5.5-1.1c-4.5-2.2-6.2-7.1-6.2-11.8c0-5,1.3-10.8,2.8-17.5c0.1-0.4,0.2-0.8,0.3-1.2c0.1-0.5,0.2-1,0.4-1.6l0.1-0.3
			h-4.3l-0.3,1.4l-0.1,0.5c-0.1-0.2-0.1-0.4-0.2-0.6c-0.6-1.3-1.7-1.9-3.2-1.9c-1.8,0-3.6,1.4-5.2,3.9c-1.4,2.2-2.6,5.2-3.3,8.4
			c-0.2,0.6-0.4,1.1-0.6,1.6c-0.5,1.2-1,2.2-1.4,3l1.2,2.5c0.1,1.9,0.4,3.4,1,4.5c0.6,1.1,1.5,1.7,2.6,1.8h0.2c0,0,0,0,0.1,0
			c1.9,0,3.5-1,4.9-3.2c0,0,0.1-0.1,0.1-0.2c0.3-0.5,0.5-1,0.8-1.6c0,0,0,0,0,0c0,0,0,0,0,0c0,0.3,0,0.7,0,1
			c0.1,1.5,0.2,2.9,0.5,4.2c1,4.6,3.3,7.8,6.8,9.7c1.4,0.7,3.1,1.3,4.9,1.6c0.2,0,0.5,0.1,0.8,0.1c0.3,0,0.6,0.1,1,0.1
			c0.1,0,0.3,0,0.4,0h0.2c0.2,0,0.4,0,0.5,0h0.5c0.3,0,0.6,0,0.9,0c1.7-0.1,3.3-0.4,4.8-0.9c0,0,0.1,0,0.2-0.1c0,0,0.1,0,0.2,0
			c0,0,0.1,0,0.1,0c0,0,0,0,0,0c0,0,0,0,0,0h0c0,0,0,0,0,0h0.1c0,0,0,0,0,0c0,0,0,0,0,0h0.1c0,0,0,0,0,0c0,0,0,0,0,0h0
			c0,0,0,0,0.1,0c0,0,0,0,0,0h0c0,0,0,0,0,0c0,0,0.1,0,0.1,0c0,0,0.1,0,0.1,0c0.1,0,0.2-0.1,0.2-0.1c0.2-0.1,0.3-0.1,0.5-0.2
			c1.1-0.5,2.1-1.1,3-1.8c0.2-0.1,0.4-0.3,0.5-0.4c0.3-0.2,0.6-0.5,0.9-0.8c0,0,0,0,0.1-0.1c0.1,0,0.1-0.1,0.2-0.2
			c0.1-0.1,0.3-0.3,0.4-0.4c0.2-0.2,0.4-0.5,0.7-0.7l0,0c0.1-0.2,0.3-0.3,0.4-0.5c0.8-1,1.5-2.1,2.2-3.2c1.8-3.2,2.8-6.9,2.8-10.6
			C183,107.5,182.3,104.5,181,101.9z M146.5,113c-0.6,1-1.3,1.6-1.9,1.6c-0.5,0-0.9-0.9-0.9-2.5c0-2.3,0.6-5.7,1.6-8.7
			c0.5-1.7,1.2-3.1,1.8-4c0-0.1,0.1-0.2,0.2-0.3c0-0.1,0.1-0.2,0.2-0.2c0.3-0.4,0.6-0.5,0.9-0.5c1.2,0,1.4,1.9,1.4,3
			C149.8,104.9,148.2,110.3,146.5,113z M127.7,103.2L127.7,103.2C127.7,103.2,127.7,103.2,127.7,103.2L127.7,103.2z"/>
		<path fill="#F9AD48" d="M124.1,115.2c-1.8,2.5-4,4.3-7,4.5h0.1c0.4,0,0.7,0,1.1-0.1c0,0,0,0,0,0
			C120.7,119,122.5,117.4,124.1,115.2l0.2,0.4c0,0,0-0.1,0.1-0.1L124.1,115.2z M112.9,114.8L112.9,114.8c0.1,0,0.1-0.1,0.1-0.1
			L112.9,114.8C112.9,114.8,112.9,114.8,112.9,114.8z M113.3,106.2L113.3,106.2c-1.2,3.2-2.3,5.5-3.2,6.9c-0.8,1.3-1.5,1.9-2,1.9
			c-0.2,0-0.8,0-0.8-1.5c0-3.7,1.2-8.9,2.7-15.5c0.1-0.5,0.2-1,0.3-1.5c0.1-0.5,0.2-1,0.3-1.6l0.1-0.3h-4.9c0,0.1,0,0.1-0.1,0.2
			c0,0.1,0,0.2-0.1,0.2c-0.1,0.5-0.3,1.1-0.4,1.7c-0.6,2.6-1.5,6.2-2.1,9.8c-1.2,3.2-2.3,5.2-3.1,6.5c-0.5,0.8-1,1.3-1.4,1.6
			c-0.4,0.3-0.8,0.5-1.1,0.5c-0.7,0-1.8-0.5-1.8-4.4c0-1.6,0.1-3.5,0.4-5.9c0.9-1.1,2.3-3.1,3.9-5.8c1.4-2.4,2.8-5.4,3.9-8.8
			c0.1-0.4,0.4-1.3,0.7-2.3c0.3-1.1,0.6-2.3,0.7-3.6c0.1-0.9,0.2-1.8,0.2-2.6c0-1.3-0.2-2.4-0.6-3.2c-0.6-1.3-1.7-1.9-3.2-1.9
			c-3.5,0-6.8,7.1-9,19.3c-0.8,4.7-1.3,8.5-1.5,11.6c-0.2,0.2-0.3,0.5-0.5,0.7c-1.2,1.8-2.4,3.8-3.2,5.5c0,0.1-0.1,0.1-0.1,0.2
			l1.3,1v0c0.2-0.5,0.5-0.9,0.8-1.5c0.2-0.4,0.5-0.8,0.8-1.3c0.2-0.3,0.5-0.7,0.7-1.1c0,0.9,0.1,1.8,0.2,2.5c0.1,1,0.3,1.8,0.5,2.5
			c0.6,2,1.8,3.1,3.3,3.3c0.1,0,0.3,0,0.4,0c0,0,0,0,0,0c0.1,0,0.2,0,0.3,0c1.6,0,3-0.8,4.4-2.6c0.1-0.1,0.1-0.2,0.2-0.3
			c0.3-0.5,0.7-1,1-1.6c0.3-0.6,0.6-1.2,1-1.9c0,0.2,0,0.3,0,0.5c0,0.5,0.1,0.9,0.1,1.3c0.2,1.2,0.5,2.2,1,2.9
			c0.6,0.8,1.4,1.3,2.4,1.5c0.1,0,0.1,0,0.2,0h0.3c1.6,0,3-0.8,4.3-2.5c0.1-0.1,0.2-0.2,0.2-0.3c0.2-0.2,0.3-0.4,0.4-0.7
			c0,0,0.1-0.1,0.1-0.2c0,0,0,0,0,0c0.2-0.2,0.3-0.5,0.4-0.8c0.9-1.7,1.7-3.8,2.5-6c0.2-0.6,0.4-1.2,0.7-1.8l0,0
			c0.2-0.5,0.4-1.1,0.7-1.7c0.2-0.5,0.4-0.9,0.5-1.4l-1.9-0.7C114,104.3,113.6,105.3,113.3,106.2z M99.8,87.3
			c1.8-6.5,2.7-6.7,2.7-6.7c0,0,0.2,0.3,0.2,0.9c0,5.5-3,13-5.8,18.4C97.7,95.6,98.7,91,99.8,87.3z"/>
		<path fill="#F9AD48" d="M138.8,113.4c-0.1,0.2-0.2,0.3-0.3,0.5c-2.3,3.9-4.9,5.8-8.2,5.8h-0.2c-0.6,0-1.2-0.1-1.8-0.3
			c-0.8-0.2-1.4-0.7-2-1.2c-0.7-0.6-1.2-1.4-1.5-2.3l0-0.2l0,0l0.5-0.4l0.7-0.5l2.4-1.7l0.1,0.2c0.2,0.2,0.3,0.5,0.4,0.6
			c0.5,0.6,1,0.8,1.7,0.8c0.1,0,0.1,0,0.2,0c0,0,0.1,0,0.1,0c0,0,0,0,0,0c0.9-0.2,1.4-1,1.4-2.5s-0.3-3-0.8-4.5
			c-0.2-0.9-0.6-1.7-0.9-2.6c-0.1-0.2-0.1-0.4-0.2-0.5c-0.2-0.6-0.4-1.1-0.5-1.6c-0.1,0.3-0.2,0.6-0.3,1v0l0,0.1
			c-0.2,0.5-0.4,0.9-0.5,1.4c-0.2,0.6-0.5,1.2-0.7,1.8c-0.5,1.3-1.1,2.7-1.7,4c-0.4,1-0.9,1.9-1.4,2.7c-0.1,0.2-0.3,0.5-0.4,0.7
			c-0.1,0.2-0.3,0.4-0.4,0.7c-0.1,0.1-0.1,0.1-0.2,0.2l-0.2-0.3c-1.8,2.5-4,4.3-7,4.5h0.1c0.4,0,0.7,0,1.1-0.1
			c-0.4,0.1-0.8,0.1-1.2,0.2h-0.2c-0.6,0-1.2-0.1-1.7-0.3c-0.5-0.2-1.1-0.5-1.5-0.8c-0.8-0.6-1.4-1.3-1.8-2.3c0-0.1-0.1-0.3-0.2-0.4
			l-0.1-0.2l1.2-0.9l0,0.1c0,0,0-0.1,0-0.1l0,0c0,0,0.1-0.1,0.1-0.2l2.2-1.6l0.1,0.2c0.2,0.3,0.4,0.6,0.6,0.8
			c0.4,0.5,0.9,0.7,1.5,0.7c1.2,0,1.8-0.9,1.8-2.6c0-1.5-0.3-3-0.8-4.6c-0.2-0.9-0.6-1.7-0.9-2.6c-0.1-0.2-0.1-0.4-0.2-0.5
			c-0.2-0.5-0.4-1.1-0.6-1.6c-0.1,0.4-0.2,0.7-0.4,1.1l-1.9-0.7c0.1-0.2,0.1-0.3,0.2-0.5c0.4-1,0.8-2.1,1.3-3.2
			c-0.4-1.8-0.6-3.4-0.6-5c0-1.3,0.1-2.6,0.4-3.9c0-0.1,0-0.1,0.1-0.2c0.2-1,0.5-2,0.8-3l0.1-0.2l4.1,0.8l0,0.2
			c0,0.4-0.1,0.8-0.2,1.1c-0.4,2.4-0.9,4.5-1.4,6.6c0.1,1.9,1.2,4.2,2.3,6.5c1.3,2.6,2.7,5.5,2.9,8.5c0.5-0.8,0.9-1.8,1.4-3
			c0.2-0.5,0.5-1.1,0.7-1.8c0.3-0.8,0.7-1.8,1.2-2.9v-0.1c0,0,0,0,0,0c0-0.1,0.1-0.2,0.2-0.4c0.4-1,0.8-2.1,1.3-3.2
			c-0.4-1.8-0.6-3.5-0.6-5c0-2.2,0.4-4.6,1.2-7.1l0.1-0.2l4.1,0.8l0,0.2c-0.1,0.4-0.1,0.8-0.2,1.1c-0.4,2.3-0.8,4.5-1.4,6.6
			c0.1,1.9,1.2,4.1,2.3,6.5c1.3,2.6,2.7,5.5,2.9,8.5L138.8,113.4z"/>
		<path fill="#F9AD48" d="M101,132.3l-0.1,0.2l0,0.1c-1.3,3.2-3.1,4.7-5.8,4.7c-0.1,0-0.2,0-0.3,0l0,0c-0.5,0-1-0.1-1.4-0.3
			c-3.8-1.3-5.9-6.8-6-16.4c0-0.2,0-0.4,0-0.7c0-0.2,0-0.5,0-0.7c0-0.1,0-0.2,0-0.3c0.1-0.7,0.4-2,1.4-4l-1.3-1
			c0.5-9.7,2.3-22.3,5.6-39.5c0-0.1,0.1-0.3,0.1-0.4l0.1-0.2l-4-1.8l-0.1,0.1c-5.2,3.9-8.9,13.5-12.9,23.7c-0.5,1.2-0.9,2.3-1.4,3.5
			c-2.1-1-4.3-1.6-6.7-2c-0.7-0.1-1.3-0.2-2-0.2c-0.7-2-1.8-3.7-3.3-5c-2.6-2.4-6.2-3.7-10.6-3.7c-6.2,0-10.6,2.3-13.6,4.9
			c-0.5,0.4-1,0.9-1.4,1.4c-0.3,0.4-0.6,0.7-0.9,1c-0.2,0.2-0.4,0.4-0.5,0.7c-3.1,4.1-4.9,9.5-4.9,15c0,5.4,1.7,10.4,4.7,14
			c0.4,0.5,0.8,0.9,1.3,1.4c0.5,0.4,0.9,0.8,1.4,1.2c0.6,0.4,1.2,0.8,1.8,1.2c2.8,1.6,6,2.4,9.6,2.5c0.1,0,0.1,0,0.2,0
			c0.1,0,0.2,0,0.4,0c3.5,0,6.6-0.7,9.5-2.2c0.1-0.1,0.2-0.1,0.4-0.2c2.5-1.4,4.9-3.3,7-5.8c4.4-5.1,7.4-12,9.6-17.6
			c0.1-0.2,0.1-0.4,0.2-0.5c0.9,0.8,1.7,1.7,2.3,2.8l0,0c1.3,2.1,2.1,4.7,2.2,7.5c-0.1,1.3-0.1,2.7-0.1,4.1
			c0,11.4,2.7,18.4,8.1,21.1c1.7,0.8,3.6,1.3,5.8,1.3h0c0,0,0,0,0,0c0.1,0,0.1,0,0.1,0c0.1,0,0.1,0,0.2,0c4.5,0,7.7-2.3,9.8-7
			c0.1-0.2,0.2-0.4,0.2-0.6l0.1-0.2L101,132.3z M73.1,103.6c-5,12.2-11.4,24.8-22.5,24.8c-2.6,0-4.8-0.5-6.7-1.5
			c-2.9-1.5-4.8-3.9-6-6.8v0c-0.9-2.2-1.4-4.6-1.6-7c0-0.5-0.1-1-0.1-1.5c0-2.2,0.3-4.4,0.8-6.5c1.5-5.6,4.9-10.6,9.8-12.7
			c1.6-0.7,3.3-1,5.1-1c2.8,0,5.1,1,6.8,2.8c0.8,0.9,1.5,1.9,2,3.2c-8.8,1.1-15.4,6.3-17,13.1l-0.1,0.2l2.9,0.9l2.2,0.7l0.1-0.3
			c1.4-6.4,7.4-9.6,12.7-10.6v0.4c0,0.8-0.1,1.5-0.2,2.2c-0.8,4.4-3.8,7.3-6.8,8.2l-0.3,0.1l2,4.7l0.2-0.1c0.5-0.2,1-0.3,1.4-0.5
			c5.3-2.3,9-8,9-14.3c0-0.4,0-0.7,0-1.1c2.4,0.2,4.5,0.7,6.4,1.5C73.3,103,73.2,103.3,73.1,103.6z M87,79.7
			c-1.2,5.8-2.2,10.9-3,15.6c-0.6,3.5-1.1,6.7-1.4,9.7c-0.1,0.5-0.1,1-0.2,1.6c-1-1.9-2.3-3.5-4-4.8c0.8-2.2,1.5-4.4,2.3-6.5
			c1.6-4.7,3.2-9.3,4.9-13.2c0,0,0,0,0,0c0.5-1.1,1-2.1,1.5-3C87.1,79.2,87.1,79.4,87,79.7z"/>
	</g>
	<g>
		<path fill="#F9AD48" d="M113,87.7c0,2.1-1.5,4.3-3.8,4.4c0,0-0.1,0-0.1,0c-1,0-1.6-0.4-2.1-0.9l0,0c-0.4-0.5-0.7-1.3-0.7-2
			c0-1.4,0.7-2.9,1.9-3.7c0.6-0.4,1.3-0.7,2.1-0.7c1.3,0,2.3,0.7,2.6,1.9C113,86.9,113,87.3,113,87.7z"/>
	</g>
</g>
<g>
	<path fill="#F9AD48" d="M78.1,157.1c0,0.9-0.1,1.6-0.7,2.3c-0.6,0.7-1.5,1.1-2.5,1.1c-1.9,0-3.4-1.6-3.4-3.4c0-1.9,1.6-3.4,3.5-3.4
		c1.2,0,2.1,0.5,2.8,1.4l-0.5,0.5c-0.5-0.8-1.3-1.3-2.3-1.3c-1.5,0-2.7,1.3-2.7,2.8c0,0.7,0.3,1.4,0.8,1.9c0.5,0.5,1.2,0.8,1.9,0.8
		c1.1,0,2.4-0.8,2.4-2.1h-2v-0.7L78.1,157.1L78.1,157.1z"/>
	<path fill="#F9AD48" d="M79.8,160.4h-0.7v-6.6h1c1.3,0,2.4,0.3,2.4,1.8c0,1-0.7,1.7-1.7,1.8l2.1,3H82l-2-2.9h-0.2L79.8,160.4
		L79.8,160.4z M79.8,156.9H80c0.8,0,1.7-0.2,1.7-1.2c0-1.1-0.8-1.2-1.7-1.2h-0.2V156.9z"/>
	<path fill="#F9AD48" d="M84.9,158.5l-0.8,1.9h-0.8l3.1-7l3,7h-0.8l-0.8-1.9H84.9z M86.3,155.2l-1.1,2.6h2.2L86.3,155.2z"/>
	<path fill="#F9AD48" d="M90.8,160.4H90v-6.6h1.1c0.6,0,1.2,0,1.6,0.4c0.5,0.4,0.7,0.9,0.7,1.5c0,0.5-0.2,1.1-0.6,1.4
		c-0.4,0.4-1,0.4-1.6,0.4h-0.5L90.8,160.4L90.8,160.4z M90.8,156.8h0.5c0.8,0,1.5-0.2,1.5-1.2c0-1.1-0.9-1.2-1.7-1.2h-0.3
		L90.8,156.8L90.8,156.8z"/>
	<path fill="#F9AD48" d="M98.6,156.5v-2.7h0.7v6.6h-0.7v-3.2h-3.4v3.2h-0.7v-6.6h0.7v2.7C95.2,156.5,98.6,156.5,98.6,156.5z"/>
	<path fill="#F9AD48" d="M101.5,160.4h-0.7v-6.6h0.7V160.4z"/>
	<path fill="#F9AD48" d="M107.9,155.3c-0.5-0.5-1.3-0.9-2-0.9c-1.5,0-2.7,1.3-2.7,2.8s1.2,2.8,2.7,2.8c0.7,0,1.5-0.4,2-0.9v0.9
		c-0.6,0.4-1.3,0.7-2,0.7c-1.9,0-3.5-1.5-3.5-3.4c0-1.9,1.6-3.5,3.5-3.5c0.7,0,1.4,0.2,2,0.7L107.9,155.3L107.9,155.3z"/>
</g>
<g>
	<path fill="#F9AD48" d="M113.9,153.6h1.3c1,0,1.8,0.1,2.6,0.8c0.8,0.7,1.1,1.5,1.1,2.5c0,1-0.4,1.8-1.1,2.5
		c-0.8,0.7-1.6,0.8-2.6,0.8h-1.2V153.6z M115.2,159.5c0.8,0,1.5-0.1,2.1-0.7c0.5-0.5,0.8-1.2,0.8-1.9c0-0.8-0.3-1.5-0.9-2
		c-0.6-0.5-1.3-0.7-2-0.7h-0.5v5.3H115.2z"/>
	<path fill="#F9AD48" d="M119.9,153.6h3.4v0.7h-2.7v2h2.6v0.7h-2.6v2.6h2.7v0.7h-3.4V153.6z"/>
	<path fill="#F9AD48" d="M127.5,154.9c-0.3-0.5-0.6-0.7-1.1-0.7c-0.6,0-1.1,0.4-1.1,1c0,0.6,0.6,0.8,1,1l0.4,0.2
		c0.9,0.4,1.6,0.8,1.6,1.9c0,1.2-0.9,2-2.1,2c-1.1,0-1.9-0.7-2.1-1.7l0.7-0.2c0.1,0.7,0.6,1.2,1.3,1.2c0.7,0,1.4-0.5,1.4-1.3
		c0-0.8-0.6-1-1.2-1.3l-0.4-0.2c-0.8-0.4-1.4-0.7-1.4-1.7c0-1,0.9-1.7,1.9-1.7c0.7,0,1.4,0.4,1.7,1L127.5,154.9z"/>
	<path fill="#F9AD48" d="M130.2,160.2h-0.7v-6.6h0.7V160.2z"/>
	<path fill="#F9AD48" d="M137.7,156.9c0,0.9-0.1,1.6-0.7,2.3c-0.6,0.7-1.5,1.1-2.5,1.1c-1.9,0-3.4-1.6-3.4-3.4
		c0-1.9,1.6-3.4,3.5-3.4c1.2,0,2.1,0.5,2.8,1.4l-0.5,0.5c-0.5-0.8-1.3-1.3-2.3-1.3c-1.5,0-2.7,1.3-2.7,2.8c0,0.7,0.3,1.4,0.8,1.9
		c0.5,0.5,1.2,0.8,1.9,0.8c1.1,0,2.4-0.8,2.4-2.1h-2v-0.7H137.7z"/>
	<path fill="#F9AD48" d="M138.8,153.3l5.2,5.4v-5.1h0.7v6.9l-5.2-5.4v5.1h-0.7V153.3z"/>
</g>
<path fill="#00A7BC" d="M127.8,103.7C127.8,103.7,127.8,103.7,127.8,103.7L127.8,103.7L127.8,103.7z"/>
</svg>
