<?xml version="1.0" encoding="utf-8"?>
<!-- Generator: Adobe Illustrator 17.1.0, SVG Export Plug-In . SVG Version: 6.00 Build 0)  -->
<!DOCTYPE svg PUBLIC "-//W3C//DTD SVG 1.1//EN" "http://www.w3.org/Graphics/SVG/1.1/DTD/svg11.dtd">
<svg version="1.1" id="Layer_1" xmlns="http://www.w3.org/2000/svg" xmlns:xlink="http://www.w3.org/1999/xlink" x="0px" y="0px"
	 viewBox="0 0 216 216" enable-background="new 0 0 216 216" xml:space="preserve">
<polygon fill="#2F0466" points="110.8,105.4 110.4,107.6 111.5,108.6 112.1,106.4 "/>
<polygon fill="#2F0466" points="147.9,90.6 142.4,105.4 143.9,106.1 149.5,91.4 "/>
<polygon fill="#2F0466" points="130.2,90.6 125.2,103.4 126.6,104.2 132.4,91.1 "/>
<polygon fill="#2F0466" points="111.6,103.7 110.5,106 112,108 113.7,105.2 "/>
<ellipse fill="#2F0466" cx="105.4" cy="90.6" rx="1.4" ry="1.8"/>
<g>
	<path fill="#2F0466" d="M114,155.6c1.5-1.5,2.6-4.2,3.5-8.1c-6.2-0.8-9.3-6.1-9.3-11.7c0-9.3,7-14.1,14-14.1
		c7.9,0,14.8,5.2,14.8,16.8c0,9.8-5.6,20.6-14.6,20.6c-4,0-6.5-0.7-8.2-1.4c-1.7,1.1-3.5,1.6-5.3,1.6l0.8-4.8
		C111.2,154.5,112.5,155,114,155.6z M133.4,139.3c0-11.2-5-15.9-11.2-15.9c-6.1,0-11.1,5.2-11.1,12.6c0,4.6,2.2,9.1,6.7,9.8
		c0.4-1.8,0.7-3.9,1-6.2c0.9-6.2,1.6-10.3,2.5-13l3.1,0.8c-0.9,2.6-1.8,6.2-2.5,12.2c-0.3,2.3-0.6,4.3-1.1,6.1
		c3.3-0.7,5.3-3.7,5.3-6.6c0-1.2-0.4-2.4-1.1-3.5l2.4-2.2c1.2,1.5,1.7,3.2,1.7,5c0,4.2-3.2,8.5-8.8,9.1c-1.2,4.2-2.8,6.9-4.5,8.8
		c1.7,0.6,3.7,1.1,6.5,1.1C129.6,157.4,133.4,148.1,133.4,139.3z"/>
	<path fill="#2F0466" d="M142.6,136.4c-1.2,5.2-2.1,9-2.1,11.7c0,1,0.4,1.1,0.7,1.1c0.9,0,1.9-1.9,3.4-5.7c0.2,0,0.9,0.2,0.9,0.4v0
		c-1.5,3.8-2.6,7.6-5.3,7.6c-1.8,0-2.4-1.7-2.4-3.9c0-3.7,1.5-8.9,2-11.3H142.6z M140.2,132.8c0-1.2,0.9-2.6,2.3-2.6
		c1.1,0,1.6,0.8,1.6,1.7c0,1.2-0.9,2.6-2.3,2.6C140.7,134.4,140.2,133.7,140.2,132.8z"/>
	<path fill="#2F0466" d="M149.8,142.8c0.7-1.1,1.1-2.6,1.1-3.6c0-0.7-0.2-1.2-0.7-1.2c-1.7,0-3.2,3.9-3.2,7.1c0,2.1,0.7,3.8,2.3,3.8
		c1.6,0,3.4-1.8,4.8-5.4c0.2,0,0.9,0.3,0.9,0.5c-1,2.6-3.5,7.8-7,7.8c-2.6,0-3.7-2.6-3.7-5.8c0-4.5,2.3-9.9,6-9.9
		c1.9,0,2.6,1.5,2.6,3.4c0,1.4-0.4,3-1.1,4.5L149.8,142.8z"/>
	<path fill="#2F0466" d="M161.8,136.4h2.3c-1,4.4-1.6,8-2.1,11.2c-0.1,0.4-0.1,0.6-0.1,0.9c0,0.5,0.1,0.7,0.3,0.7
		c0.4,0,1.8-1.6,3.3-5.7c0.2,0,0.9,0.3,0.9,0.5c-2,5.3-3.6,7.6-5.2,7.6c-1.1,0-1.7-1-1.7-3.2c0-0.1,0-0.2,0-0.4
		c-0.8,2-1.9,3.8-3.8,3.8c-1.6,0-2.3-1.8-2.3-4.2c0-4.7,2.5-11.5,5.7-11.5c1.2,0,1.9,0.7,2.1,2.2L161.8,136.4z M156.4,147.2
		c0,1,0.2,1.7,0.7,1.7c1.5,0,3.4-5.4,3.4-8.5c0-1.2-0.3-2.1-1-2.1C158.1,138.4,156.4,144.2,156.4,147.2z"/>
	<path fill="#2F0466" d="M170,136.4c-1.2,5.2-2.1,9-2.1,11.7c0,1,0.4,1.1,0.7,1.1c0.9,0,1.9-1.9,3.4-5.7c0.2,0,0.9,0.2,0.9,0.4v0
		c-1.5,3.8-2.6,7.6-5.3,7.6c-1.8,0-2.4-1.7-2.4-3.9c0-3.7,1.5-8.9,2-11.3H170z M167.6,132.8c0-1.2,0.9-2.6,2.3-2.6
		c1.1,0,1.6,0.8,1.6,1.7c0,1.2-0.9,2.6-2.3,2.6C168.1,134.4,167.6,133.7,167.6,132.8z"/>
	<path fill="#2F0466" d="M176.6,149.1c0.7,0,1.9-1.8,3.3-5.6c0.2,0,0.9,0.2,0.9,0.4v0c-1.5,3.8-2.6,7.6-5.3,7.6
		c-1.6,0-2.1-1-2.1-2.5c0-2.1,1.5-4.5,1.5-6.2c0-1-0.3-1.8-0.7-2.4l-1.3,3.5c0,0-0.9-0.2-0.9-0.4v0c0.6-1.6,1-3.2,1.4-4.8
		c-0.3-0.7-0.6-1.6-0.6-2.8c0-1.1,0.2-2.4,0.8-4.1l2.5,0.7c-0.1,2.2-0.4,3.8-0.9,5.5c1.1,1.1,2.5,2.4,2.5,4.3c0,2.1-1.5,4.9-1.5,6
		C176,148.9,176.2,149.1,176.6,149.1z"/>
	<path fill="#2F0466" d="M189.4,143.5c0.2,0,0.9,0.3,0.9,0.5c-1.7,4.3-3.3,7.8-6.5,7.8c-2.9,0-4.1-2.6-4.1-5.8c0-4.5,2.5-10,6.2-10
		c1.7,0,2.5,1.2,2.5,2.7c0,2.3-2,5.5-5.9,6.1c0,0.2,0,0.3,0,0.5c0,2,0.6,3.6,2.1,3.6C186.5,149,188.1,146.9,189.4,143.5z
		 M182.6,143.6c2.5-1.2,3.6-3.5,3.6-4.7c0-0.5-0.2-0.8-0.5-0.8C184.2,138.1,183,140.9,182.6,143.6z"/>
</g>
<path fill="#91C84A" d="M73,134L73,134L73,134L73,134z"/>
<g>
	<path fill="#C60581" d="M78,170.6c0,0.9-0.1,1.6-0.7,2.3s-1.5,1.1-2.5,1.1c-1.9,0-3.4-1.6-3.4-3.4c0-1.9,1.6-3.4,3.5-3.4
		c1.2,0,2.1,0.5,2.8,1.4l-0.5,0.5c-0.5-0.8-1.3-1.3-2.3-1.3c-1.5,0-2.7,1.3-2.7,2.8c0,0.7,0.3,1.4,0.8,1.9s1.2,0.8,1.9,0.8
		c1.1,0,2.4-0.8,2.4-2.1h-2v-0.7L78,170.6L78,170.6z"/>
	<path fill="#C60581" d="M79.7,173.9H79v-6.6h1c1.3,0,2.4,0.3,2.4,1.8c0,1-0.7,1.7-1.7,1.8l2.1,3h-0.9l-2-2.9h-0.2V173.9L79.7,173.9
		z M79.7,170.4h0.2c0.8,0,1.7-0.2,1.7-1.2c0-1.1-0.8-1.2-1.7-1.2h-0.2V170.4z"/>
	<path fill="#C60581" d="M84.8,172l-0.8,1.9h-0.8l3.1-7l3,7h-0.8l-0.8-1.9H84.8z M86.2,168.7l-1.1,2.6h2.2L86.2,168.7z"/>
	<path fill="#C60581" d="M90.7,173.9h-0.8v-6.6H91c0.6,0,1.2,0,1.6,0.4c0.5,0.4,0.7,0.9,0.7,1.5c0,0.5-0.2,1.1-0.6,1.4
		c-0.4,0.4-1,0.4-1.6,0.4h-0.5L90.7,173.9L90.7,173.9z M90.7,170.3h0.5c0.8,0,1.5-0.2,1.5-1.2c0-1.1-0.9-1.2-1.7-1.2h-0.3V170.3
		L90.7,170.3z"/>
	<path fill="#C60581" d="M98.5,170v-2.7h0.7v6.6h-0.7v-3.2h-3.4v3.2h-0.7v-6.6h0.7v2.7H98.5z"/>
	<path fill="#C60581" d="M101.4,173.9h-0.7v-6.6h0.7V173.9z"/>
	<path fill="#C60581" d="M107.8,168.8c-0.5-0.5-1.3-0.9-2-0.9c-1.5,0-2.7,1.3-2.7,2.8s1.2,2.8,2.7,2.8c0.7,0,1.5-0.4,2-0.9v0.9
		c-0.6,0.4-1.3,0.7-2,0.7c-1.9,0-3.5-1.5-3.5-3.4s1.6-3.5,3.5-3.5c0.7,0,1.4,0.2,2,0.7V168.8L107.8,168.8z"/>
</g>
<g>
	<path fill="#C60581" d="M113.8,167.1h1.3c1,0,1.8,0.1,2.6,0.8c0.8,0.7,1.1,1.5,1.1,2.5s-0.4,1.8-1.1,2.5c-0.8,0.7-1.6,0.8-2.6,0.8
		h-1.2v-6.6H113.8z M115.1,173c0.8,0,1.5-0.1,2.1-0.7c0.5-0.5,0.8-1.2,0.8-1.9c0-0.8-0.3-1.5-0.9-2s-1.3-0.7-2-0.7h-0.5v5.3
		L115.1,173L115.1,173z"/>
	<path fill="#C60581" d="M119.8,167.1h3.4v0.7h-2.7v2h2.6v0.7h-2.6v2.6h2.7v0.7h-3.4V167.1z"/>
	<path fill="#C60581" d="M127.4,168.4c-0.3-0.5-0.6-0.7-1.1-0.7c-0.6,0-1.1,0.4-1.1,1s0.6,0.8,1,1l0.4,0.2c0.9,0.4,1.6,0.8,1.6,1.9
		c0,1.2-0.9,2-2.1,2c-1.1,0-1.9-0.7-2.1-1.7l0.7-0.2c0.1,0.7,0.6,1.2,1.3,1.2c0.7,0,1.4-0.5,1.4-1.3s-0.6-1-1.2-1.3l-0.4-0.2
		c-0.8-0.4-1.4-0.7-1.4-1.7s0.9-1.7,1.9-1.7c0.7,0,1.4,0.4,1.7,1L127.4,168.4z"/>
	<path fill="#C60581" d="M130.1,173.7h-0.7v-6.6h0.7V173.7z"/>
	<path fill="#C60581" d="M137.6,170.4c0,0.9-0.1,1.6-0.7,2.3s-1.5,1.1-2.5,1.1c-1.9,0-3.4-1.6-3.4-3.4c0-1.9,1.6-3.4,3.5-3.4
		c1.2,0,2.1,0.5,2.8,1.4l-0.5,0.5c-0.5-0.8-1.3-1.3-2.3-1.3c-1.5,0-2.7,1.3-2.7,2.8c0,0.7,0.3,1.4,0.8,1.9s1.2,0.8,1.9,0.8
		c1.1,0,2.4-0.8,2.4-2.1h-2v-0.7L137.6,170.4L137.6,170.4z"/>
	<path fill="#C60581" d="M138.7,166.8l5.2,5.4v-5.1h0.7v6.9l-5.2-5.4v5.1h-0.7V166.8z"/>
</g>
<path fill="#00A7BC" d="M127.8,103.7L127.8,103.7L127.8,103.7L127.8,103.7z"/>
<g>
	<path fill="#2F0466" d="M74,88.7c6.1-15.4,11.5-31,19.3-36.9l4.9,2.2c-4.3,22.5-7.8,44.7-7.8,60.9c0,14.9,3,24.7,10.9,24.7
		c3.9,0,6.4-2.5,8.1-6.6l6,2.1c-2.6,6.6-7.1,10-13.2,10c-13.9,0-18.9-11.6-18.9-29.9c0-1.8,0.1-3.6,0.1-5.5
		c-0.2-6.5-2.8-11.3-6.6-14.4c-7.1,18.5-16.6,35.8-35.9,35.8c-17.5,0-25.8-13.1-25.8-26.8c0-14.9,9.8-30.5,28.4-30.5
		c10.2,0,16.1,5.2,18.4,11.7C66.3,85.8,70.4,86.9,74,88.7z M55.6,85.8c-1.8-4.9-5.9-8.6-12.4-8.6c-13.8,0-21.6,14.3-21.6,27.5
		c0,11.8,6.1,22.9,19.6,22.9c15.1,0,23.8-17,31.2-35.1c-2.9-1.3-6.2-2.1-9.5-2.3c0.1,0.6,0.1,1.2,0.1,1.8c0,8.3-4.9,16.9-13.7,19.7
		l-2.4-5.7c6.4-2,9.6-8.3,9.6-14.4c0-0.4,0-0.6,0-1c-8.4,1.4-15.9,6.5-17.8,14.6l-6.2-1.9C35,93.2,44.9,87.1,55.6,85.8z M91.2,58.8
		c-4.9,8-8.4,20.3-12.9,32.6c2.5,2,4.6,4.5,6,7.6C85.6,87,88.1,73.3,91.2,58.8L91.2,58.8z"/>
	<path fill="#2F0466" d="M112.5,97.4c0.4,0,1.7,0.6,1.7,0.9c0,0.1,0,0.1,0,0.1c-4.2,11.3-7.4,16.6-12,16.6c-4.2,0-5.9-4.2-5.9-11.5
		c0-5.2,0.8-12,2.3-20c3.2-17.8,7.6-25.8,11.7-25.8c3.7,0,4.7,3,4.7,6.6c0,4.2-1.4,9.2-2.1,11.4c-2.9,9.3-7.6,16.2-10.5,19.7
		c-0.4,3-0.6,5.8-0.6,8.1c0,4.7,1.1,6.2,2.7,6.2C106.8,109.7,109.5,105.3,112.5,97.4z M111.2,62.5c-1.9,0-6.1,15.3-8.1,28.5
		c3.5-6.4,8.8-18.3,8.8-26.9C111.9,63,111.5,62.5,111.2,62.5z"/>
	<path fill="#2F0466" d="M121.9,82.1c-2.5,11-4.5,19.3-4.5,25.1c0,2.1,0.8,2.4,1.4,2.4c1.8,0,4.2-4,7.3-12.1c0.4,0,2,0.5,2,0.9v0.1
		c-3.1,8.1-5.6,16.3-11.4,16.3c-3.8,0-5.1-3.5-5.1-8.4c0-7.9,3.1-19.1,4.3-24.2H121.9z M116.7,74.4c0-2.5,1.8-5.6,5-5.6
		c2.3,0,3.3,1.7,3.3,3.7c0,2.5-1.8,5.5-5,5.5C117.8,78,116.7,76.3,116.7,74.4z"/>
	<path fill="#2F0466" d="M128.2,107.1c0.9,1.6,1.8,2.1,3.1,2.1c1.8,0,2.8-1.3,2.8-3.8c0-4.4-2.1-8.6-3.6-13.7
		c-0.8,2.3-1.7,4.5-2.5,6.7c0,0-2-0.4-2-0.9v-0.1c0.9-2.4,2.3-5.6,3.6-9c-0.5-2.1-0.9-4.4-0.9-6.8c0-2.8,0.5-5.9,1.6-9.4l4.8,0.9
		c-0.6,3.8-1.3,7.2-2.1,10.3c0.2,5.9,7.1,13.3,7.1,21.2v0.3c1.3-2.2,2.5-4.8,3.5-7.6c0.4,0,2,0.6,2,1c-3.3,8.5-7.2,16.6-14.9,16.6
		c-3.3,0-6-1.9-7-4.8L128.2,107.1z"/>
	<path fill="#2F0466" d="M146,107.1c0.9,1.6,1.8,2.1,3.1,2.1c1.8,0,2.8-1.3,2.8-3.8c0-4.4-2.1-8.6-3.6-13.7
		c-0.8,2.3-1.7,4.5-2.5,6.7c0,0-2-0.4-2-0.9v-0.1c0.9-2.4,2.3-5.6,3.6-9c-0.5-2.1-0.8-4.4-0.8-6.8c0-2.8,0.5-5.9,1.6-9.4l4.8,0.9
		c-0.6,3.8-1.3,7.2-2.1,10.3c0.2,5.9,7.1,13.3,7.1,21.2v0.3c1.3-2.2,2.5-4.8,3.5-7.6c0.4,0,2,0.6,2,1c-3.3,8.5-7.2,16.6-14.9,16.6
		c-3.3,0-6-1.9-7-4.8L146,107.1z"/>
	<path fill="#2F0466" d="M178,82.1h5c-2.1,9.4-3.5,17.1-4.5,24.1c-0.1,0.8-0.1,1.3-0.1,1.8c0,1.1,0.2,1.6,0.6,1.6
		c0.8,0,3.8-3.4,7.1-12.2c0.4,0,2,0.6,2,1c-4.3,11.3-7.8,16.3-11,16.3c-2.3,0-3.5-2.1-3.5-6.9c0-0.2,0-0.5,0-0.8
		c-1.6,4.3-4.1,8.1-8.2,8.1c-3.5,0-4.9-3.8-4.9-9c0-10,5.4-24.7,12.2-24.7c2.6,0,4.1,1.6,4.6,4.7L178,82.1z M166.4,105.4
		c0,2.2,0.4,3.7,1.5,3.7c3.3,0,7.3-11.5,7.3-18.1c0-2.6-0.6-4.5-2.2-4.5C170,86.5,166.4,98.9,166.4,105.4z"/>
</g>
<g>
	<path fill="#CC4C92" d="M76.2,89.7c6.1-15.4,11.5-31,19.3-36.9l4.9,2.2c-4.3,22.5-7.8,44.7-7.8,60.9c0,14.9,3,24.7,10.9,24.7
		c3.9,0,6.4-2.5,8.1-6.6l6,2.1c-2.6,6.6-7.1,10-13.2,10c-13.9,0-18.9-11.6-18.9-29.9c0-1.8,0.1-3.6,0.1-5.5
		c-0.2-6.5-2.8-11.3-6.6-14.4c-7.1,18.5-16.6,35.8-35.9,35.8c-17.5,0-25.8-13.1-25.8-26.8c0-14.9,9.8-30.5,28.4-30.5
		c10.2,0,16.1,5.2,18.4,11.7C68.4,86.9,72.5,87.9,76.2,89.7z M57.8,86.9c-1.8-4.9-5.9-8.6-12.4-8.6c-13.8,0-21.6,14.3-21.6,27.5
		c0,11.8,6.1,22.9,19.6,22.9c15.1,0,23.8-17,31.2-35.1c-2.9-1.3-6.2-2.1-9.5-2.3c0.1,0.6,0.1,1.2,0.1,1.8c0,8.3-4.9,16.9-13.7,19.7
		l-2.4-5.7c6.4-2,9.6-8.3,9.6-14.4c0-0.4,0-0.6,0-1c-8.4,1.4-15.9,6.5-17.8,14.6l-6.2-1.9C37.1,94.2,47,88.1,57.8,86.9z M93.3,59.8
		c-4.9,8-8.4,20.3-12.9,32.6c2.5,2,4.6,4.5,6,7.6C87.7,88,90.3,74.3,93.3,59.8L93.3,59.8z"/>
	<path fill="#CC4C92" d="M114.7,98.5c0.4,0,1.7,0.6,1.7,0.9c0,0.1,0,0.1,0,0.1c-4.2,11.3-7.4,16.6-12,16.6c-4.2,0-5.9-4.2-5.9-11.5
		c0-5.2,0.8-12,2.3-20c3.2-17.8,7.6-25.8,11.7-25.8c3.7,0,4.7,3,4.7,6.6c0,4.2-1.4,9.2-2.1,11.4c-2.9,9.3-7.6,16.2-10.5,19.7
		c-0.4,3-0.6,5.8-0.6,8.1c0,4.7,1.1,6.2,2.7,6.2C108.9,110.7,111.6,106.3,114.7,98.5z M113.3,63.5c-1.9,0-6.1,15.3-8.1,28.5
		c3.5-6.4,8.8-18.3,8.8-26.9C114,64.1,113.7,63.5,113.3,63.5z"/>
	<path fill="#CC4C92" d="M124,83.1c-2.5,11-4.5,19.3-4.5,25.1c0,2.1,0.8,2.4,1.4,2.4c1.8,0,4.2-4,7.3-12.1c0.4,0,2,0.5,2,0.9v0.1
		c-3.1,8.1-5.6,16.3-11.4,16.3c-3.8,0-5.1-3.5-5.1-8.4c0-7.9,3.1-19.1,4.3-24.2H124z M118.9,75.4c0-2.5,1.8-5.6,5-5.6
		c2.3,0,3.3,1.7,3.3,3.7c0,2.5-1.8,5.5-5,5.5C119.9,79,118.9,77.3,118.9,75.4z"/>
	<path fill="#CC4C92" d="M130.4,108.2c0.9,1.6,1.8,2.1,3.1,2.1c1.8,0,2.8-1.3,2.8-3.8c0-4.4-2.1-8.6-3.6-13.7
		c-0.8,2.3-1.7,4.5-2.5,6.7c0,0-2-0.4-2-0.9v-0.1c0.9-2.4,2.3-5.6,3.6-9c-0.5-2.1-0.8-4.4-0.8-6.8c0-2.8,0.5-5.9,1.6-9.4l4.8,0.9
		c-0.6,3.8-1.3,7.2-2.1,10.3c0.2,5.9,7.1,13.3,7.1,21.2v0.3c1.3-2.2,2.5-4.8,3.5-7.6c0.4,0,2,0.6,2,1c-3.3,8.5-7.2,16.6-14.9,16.6
		c-3.3,0-6-1.9-7-4.8L130.4,108.2z"/>
	<path fill="#CC4C92" d="M148.2,108.2c0.9,1.6,1.8,2.1,3.1,2.1c1.8,0,2.8-1.3,2.8-3.8c0-4.4-2.1-8.6-3.6-13.7
		c-0.8,2.3-1.7,4.5-2.5,6.7c0,0-2-0.4-2-0.9v-0.1c0.9-2.4,2.3-5.6,3.6-9c-0.5-2.1-0.9-4.4-0.9-6.8c0-2.8,0.5-5.9,1.6-9.4l4.8,0.9
		c-0.6,3.8-1.3,7.2-2.1,10.3c0.2,5.9,7.1,13.3,7.1,21.2v0.3c1.3-2.2,2.5-4.8,3.5-7.6c0.4,0,2,0.6,2,1c-3.3,8.5-7.2,16.6-14.9,16.6
		c-3.3,0-6-1.9-7-4.8L148.2,108.2z"/>
	<path fill="#CC4C92" d="M180.2,83.2h5c-2.1,9.4-3.5,17.1-4.5,24.1c-0.1,0.8-0.1,1.3-0.1,1.8c0,1.1,0.2,1.6,0.6,1.6
		c0.8,0,3.8-3.4,7.1-12.2c0.4,0,2,0.6,2,1c-4.3,11.3-7.8,16.3-11,16.3c-2.3,0-3.5-2.1-3.5-6.9c0-0.2,0-0.5,0-0.8
		c-1.6,4.3-4.1,8.1-8.2,8.1c-3.5,0-4.9-3.8-4.9-9c0-10,5.4-24.7,12.2-24.7c2.6,0,4.1,1.6,4.6,4.7L180.2,83.2z M168.6,106.4
		c0,2.2,0.4,3.7,1.5,3.7c3.3,0,7.3-11.5,7.3-18.1c0-2.6-0.6-4.5-2.2-4.5C172.2,87.5,168.6,100,168.6,106.4z"/>
</g>
</svg>
