<?xml version="1.0" encoding="utf-8"?>
<!-- Generator: Adobe Illustrator 18.1.0, SVG Export Plug-In . SVG Version: 6.00 Build 0)  -->
<svg version="1.1" id="Layer_1" xmlns="http://www.w3.org/2000/svg" xmlns:xlink="http://www.w3.org/1999/xlink" x="0px" y="0px"
	 viewBox="0 0 432 216" enable-background="new 0 0 432 216" xml:space="preserve">
<g>
	<path fill="#010101" d="M72.6,92.9c-0.7,11.5-2.1,22.2-4.5,33.5c2.2,0,4.2-0.1,5.5-0.3l-1.3,6.6c-0.6,0.1-3.2,0.1-5.8,0.1
		c-1.3,5.3-2.7,10.8-4.4,16.6c-1.4,9.7-2.1,17-2.1,22.2c0,5.9,1,9,2.8,9c3.8,0,9.3-13.2,13.5-24c0.8,0,3.9,1.3,3.9,2
		c-8.3,22.5-12.7,32.3-21.8,32.3c-6.2,0-8.7-7.6-8.7-19.5c0-10.3,1.5-24.2,4.8-38.5c-3.2,0-5.6,0-6.2-0.1l1-6.6c1,0,3.4,0.1,6.3,0.1
		c1.8-9.7,3.7-19.1,6.9-33.3H72.6z"/>
	<path fill="#010101" d="M70.9,190.2c-0.1-1.3-0.1-2.5-0.1-3.8c0-11.1,4.4-22.6,4.4-22.6c4.9-29.8,11.1-64,16.9-77
		c2.7-6,7.6-8.7,11.8-8.7c7,0,9.7,3.5,9.7,8.9c0,11.4-12.1,30.6-20.8,41.3c-0.4,2.5-1,5.1-1.5,7.7c4.6-7,10.4-11.4,16.4-11.4
		c4.9,0,8.2,3.2,8.2,10c0,13.1-9.1,29.8-9.1,41.3c0,4.1,1.5,4.8,2.8,4.8c3.7,0,8.3-7.9,14.5-24c0.8,0,3.9,1.1,3.9,2
		c-6.2,16-12.5,32.3-24,32.3c-4.9,0-9.6-3.9-9.6-12.5c0-15.2,9.1-30.8,9.1-40.9c0-1.5-0.7-2.8-2.2-2.8c-6,0-13.6,13.6-18.8,55.5
		H70.9z M104.5,87.1c-2.3,0-4.1,5.9-9.1,29.2c3.9-7.6,10.4-20.1,10.4-27.3C105.8,87.8,105.2,87.1,104.5,87.1z"/>
	<path fill="#010101" d="M156.6,126.2h10c-4.2,18.7-6.9,33.9-8.9,47.8c-0.3,1.5-0.3,2.7-0.3,3.7c0,2.1,0.4,3.1,1.1,3.1
		c1.5,0,7.5-6.7,14.2-24.2c0.8,0,3.9,1.1,3.9,2c-8.6,22.5-15.5,32.3-21.9,32.3c-4.5,0-7-4.1-7-13.8c0-0.4,0-1,0-1.5
		c-3.2,8.6-8.2,16-16.3,16c-6.9,0-9.7-7.6-9.7-17.9c0-19.8,10.8-49.1,24.2-49.1c5.2,0,8.2,3.1,9.1,9.4L156.6,126.2z M133.5,172.3
		c0,4.4,0.8,7.3,3,7.3c6.5,0,14.5-22.9,14.5-36c0-5.2-1.3-8.9-4.4-8.9C140.7,134.8,133.5,159.5,133.5,172.3z"/>
	<path fill="#010101" d="M194.5,92.9c-0.7,11.5-2.1,22.2-4.5,33.5c2.3,0,4.2-0.1,5.5-0.3l-1.3,6.6c-0.6,0.1-3.2,0.1-5.8,0.1
		c-1.3,5.3-2.7,10.8-4.4,16.6c-1.4,9.7-2.1,17-2.1,22.2c0,5.9,1,9,2.8,9c3.8,0,9.3-13.2,13.5-24c0.8,0,3.9,1.3,3.9,2
		c-8.3,22.5-12.7,32.3-21.8,32.3c-6.2,0-8.7-7.6-8.7-19.5c0-10.3,1.5-24.2,4.8-38.5c-3.2,0-5.6,0-6.2-0.1l1-6.6c1,0,3.4,0.1,6.3,0.1
		c1.8-9.7,3.7-19.1,6.9-33.3H194.5z"/>
	<path fill="#010101" d="M206.5,111c0.1-1.4,0.3-2.8,0.3-4.1c0-5.6-1.4-10.1-3.9-15.9l10-4.6c1.5,5.1,2.3,10.3,2.3,15.2
		c0,3.8-0.4,7.5-1.1,10.7L206.5,111z"/>
	<path fill="#010101" d="M227.8,175.8c1.8,3.1,3.5,4.2,6.2,4.2c3.5,0,5.5-2.5,5.5-7.6c0-8.4-3.8-16.6-6.9-26.2
		c-4.9,13.6-11.4,28.3-19.5,44.3l-3.9-2c8.7-17.7,16.2-35.2,21.7-49.2c-1.1-4.4-1.7-9-1.7-13.9c0-5.8,0.8-12.1,3.1-19l11.2,2
		c-1.4,7.3-3.4,14.9-5.8,22.8c0.4,3.1,1.3,5.9,3,8.7c4.9,8.9,11,20.5,11.1,31.1v0.6c2.7-4.4,4.9-9.6,7-15c0.8,0,3.9,1.1,3.9,2
		c-3.7,9.6-8.6,18.6-14.1,25.4l-0.7,0.8c-3.2,4.6-8.6,6.7-14.8,6.7c-6.6,0-11.9-3.8-13.9-9.6L227.8,175.8z"/>
	<path fill="#010101" d="M273.9,190.2c0,0,1.3-12.8,5.2-23.3c2.8-15.9,5.2-30.1,6.9-40.8h12.1l-1.8,10.5c4.2-7.2,9.4-12.1,15.2-12.1
		c5.5,0,7.7,4.4,7.7,9.7c0,1-0.1,2.3-0.3,3.5c4.9-8.2,11-13.2,17.6-13.2c4.9,0,8.2,3.2,8.2,10c0,13.1-9.1,29.8-9.1,41.3
		c0,4.1,1.5,4.8,2.8,4.8c3.7,0,8.3-7.9,14.5-24c0.8,0,3.9,1.1,3.9,2c-6.2,16-12.5,32.3-24,32.3c-4.9,0-9.6-3.9-9.6-12.5
		c0-15.2,9.1-30.8,9.1-40.9c0-1.5-0.7-2.8-2.2-2.8c-3.5,0-9.8,6.7-14.6,27.4c-2.1,11.4-4.5,22.9-5.8,28.1h-12.8
		c3.4-15.5,9.8-45.6,9.8-51.6c0-2.3-0.7-3-1.8-3c-4.5,0-10.4,11-14.2,31.1l-4.5,23.5H273.9z"/>
	<path fill="#010101" d="M393,156.6c0.8,0,3.9,1.1,3.9,2c-7,18.4-14.1,33-27.8,33c-12.2,0-17.3-11.2-17.3-24.5
		c0-19.1,10.5-42.5,26.3-42.5c7,0,10.5,5.1,10.5,11.5c0,10-8.4,23.5-25,26.2c0,0.7,0,1.4,0,2.1c0,8.4,2.4,15.2,8.9,15.2
		C380.8,179.6,387.7,170.9,393,156.6z M364,157c10.5-5.2,15.2-14.9,15.2-20.1c0-2.1-0.8-3.5-2.3-3.5
		C371.2,133.4,365.7,145.3,364,157z"/>
</g>
<path fill="none" stroke="#010101" stroke-width="3" stroke-linecap="round" stroke-linejoin="round" stroke-miterlimit="10" d="
	M298.9,31.3l1.9-14.5c109.6,49.6,99,125.1,99,125.1"/>
<path fill="none" stroke="#010101" stroke-width="3" stroke-linecap="round" stroke-linejoin="round" stroke-miterlimit="10" d="
	M320.3,19.3c0,0-12.8-5.5-19.5-2.5"/>
</svg>
