<?xml version="1.0" encoding="utf-8"?>
<!-- Generator: Adobe Illustrator 17.1.0, SVG Export Plug-In . SVG Version: 6.00 Build 0)  -->
<!DOCTYPE svg PUBLIC "-//W3C//DTD SVG 1.1//EN" "http://www.w3.org/Graphics/SVG/1.1/DTD/svg11.dtd">
<svg version="1.1" id="Layer_1" xmlns="http://www.w3.org/2000/svg" xmlns:xlink="http://www.w3.org/1999/xlink" x="0px" y="0px"
	 viewBox="0 0 216 216" style="enable-background:new 0 0 216 216;" xml:space="preserve">
<style type="text/css">
	.st0{fill:#D8662E;}
	.st1{fill:#B060B2;}
</style>
<path d="M171.5,73.7c0,4.3-3.4,7.9-7.7,8.1c-0.1,0-0.3,0-0.4,0H55.8l0,0c-0.2,0-0.4,0-0.7,0c-4.5,0-8.1-3.6-8.1-8.1s3.6-8.1,8.1-8.1
	c0.2,0,0.4,0,0.7,0l0,0h107.6c0.1,0,0.3,0,0.4,0C168,65.8,171.5,69.4,171.5,73.7z"/>
<path d="M172,111.5c0,4.5-3.6,8.1-8.1,8.1H55.6c-4.5,0-8.1-3.6-8.1-8.1s3.6-8.1,8.1-8.1h108.2C168.3,103.4,172,107,172,111.5z"/>
<path d="M172,149.3c0,4.5-3.6,8.1-8.1,8.1H55.6c-4.5,0-8.1-3.6-8.1-8.1s3.6-8.1,8.1-8.1h108.2C168.3,141.2,172,144.8,172,149.3z"/>
<g id="open">
	<path class="st0" d="M162,62.1L162,62.1c-0.1,0-0.3,0-0.4,0H162z"/>
	<path class="st0" d="M161.6,78.3c0.1,0,0.3,0,0.4,0l0,0H161.6z"/>
</g>
<path class="st1" d="M45.8,108c0-4.5,3.6-8.1,8.1-8.1h108.2c4.5,0,8.1,3.6,8.1,8.1s-3.6,8.1-8.1,8.1H53.9
	C49.4,116.1,45.8,112.5,45.8,108z"/>
<path class="st1" d="M170.2,145.8c0,4.5-3.6,8.1-8.1,8.1H53.9c-4.5,0-8.1-3.6-8.1-8.1s3.6-8.1,8.1-8.1h108.2
	C166.6,137.7,170.2,141.3,170.2,145.8z"/>
<path class="st1" d="M45.2,70.2c0-4.5,3.6-8.1,8.1-8.1c0.2,0,0.4,0,0.7,0l0,0h107.6c0.1,0,0.3,0,0.4,0c4.3,0.2,7.7,3.8,7.7,8.1
	c0,4.3-3.4,7.9-7.7,8.1c-0.1,0-0.3,0-0.4,0H54l0,0c-0.2,0-0.4,0-0.7,0C48.9,78.3,45.2,74.7,45.2,70.2z"/>
</svg>
