<?xml version="1.0" encoding="utf-8"?>
<!-- Generator: Adobe Illustrator 18.1.1, SVG Export Plug-In . SVG Version: 6.00 Build 0)  -->
<svg version="1.1" id="Layer_1" xmlns="http://www.w3.org/2000/svg" xmlns:xlink="http://www.w3.org/1999/xlink" x="0px" y="0px"
	 viewBox="0 0 72 72" enable-background="new 0 0 72 72" xml:space="preserve">
<path fill="#1E5762" d="M70.7,36c0,8.7-3.2,16.7-8.6,22.8C55.8,66.1,46.4,70.6,36,70.6c-7.2,0-14-2.2-19.5-6c-0.9-0.6-1.8-1.3-2.7-2
	l0,0C6.2,56.2,1.3,46.7,1.3,36C1.3,16.9,16.9,1.3,36,1.3S70.7,16.9,70.7,36z"/>
<g id="_x37_RydlX_1_">
	<g>
		<path fill="#FCFCFC" d="M18.7,35c0-5.7,0-11.3,0-17c0-1.6,0.5-3,1.8-4c0.8-0.6,1.7-0.9,2.7-0.9c6.6,0,13.3,0,19.9,0
			c0.5,0,0.9,0.2,1.3,0.5c4,4,8.1,8.1,12.1,12.1c0.4,0.4,0.5,0.9,0.5,1.5c0,4.1,0,8.2,0,12.3c0,4,0,8,0,11.9c0,0.6,0,1.2-0.1,1.8
			c-0.4,2.1-2.3,3.6-4.5,3.6c-8.5,0-17,0-25.6,0c-1.2,0-2.3,0-3.5,0c-2.7,0-4.6-1.9-4.7-4.6c0-2.1,0-4.1,0-6.2
			C18.7,42.5,18.7,38.7,18.7,35z M22,35c0,5.7,0,11.4,0,17.1c0,1.1,0.4,1.6,1.5,1.6c9.6,0,19.2,0,28.8,0c1,0,1.5-0.4,1.5-1.5
			c0-7.9,0-15.8,0-23.7c0-0.4-0.1-0.5-0.6-0.5c-2.3,0-4.7,0-7,0c-2.4,0-4-1.7-4-4c0-2.3,0-4.6,0-6.9c0-0.7,0-0.7-0.7-0.7
			c-6,0-11.9,0-17.9,0c-1.2,0-1.6,0.4-1.6,1.6C22,23.7,22,29.4,22,35z M44.2,21.4c0,0.9,0,1.8,0,2.8c0,1.1,0.8,1.9,1.9,1.9
			c1.9,0,3.7,0,5.6,0c0.1,0,0.3,0.1,0.3-0.1c0.1-0.1-0.1-0.2-0.2-0.3c-2.4-2.4-4.8-4.8-7.2-7.2c-0.1-0.1-0.2-0.2-0.3-0.2
			c-0.1,0.1-0.1,0.2-0.1,0.4C44.2,19.5,44.2,20.5,44.2,21.4z"/>
		<path fill="#FCFCFC" d="M32.1,31.9c-1.8,0-3.7,0-5.5,0c-0.4,0-0.7,0-1-0.3c-0.3-0.3-0.4-0.6-0.2-1c0.4-1.4,1.3-2.4,2.6-3.1
			c0.3-0.2,0.3-0.3,0.1-0.6c-2.7-3.2-0.8-8,3.3-8.7c3-0.5,6,1.9,6.1,5c0.1,1.4-0.3,2.7-1.3,3.7c-0.2,0.3-0.2,0.4,0.1,0.5
			c1.2,0.6,2,1.5,2.5,2.7c0.4,1,0,1.6-1.1,1.6C35.8,31.9,33.9,31.9,32.1,31.9z M32.1,27c1.9,0,3.4-1.5,3.4-3.4
			c0-1.8-1.6-3.4-3.4-3.4c-1.8,0-3.4,1.5-3.4,3.3C28.7,25.5,30.2,27,32.1,27z M32.1,30c1.3,0,2.5,0,3.8,0c0.1,0,0.2,0,0.3-0.1
			c0-0.1-0.1-0.2-0.2-0.2c-0.6-0.4-1.2-0.7-1.9-0.7c-1.3,0-2.6,0-4,0c-0.7,0-1.2,0.2-1.8,0.6c-0.1,0.1-0.3,0.2-0.3,0.3
			c0.1,0.1,0.3,0.1,0.4,0.1C29.7,30,30.9,30,32.1,30z"/>
		<path fill="#FCFCFC" d="M37.9,42.8c-3.8,0-7.7,0-11.5,0c-0.8,0-1.3-0.6-1-1.3c0.1-0.3,0.3-0.5,0.7-0.6c0.2,0,0.4-0.1,0.7-0.1
			c7.5,0,14.9,0,22.4,0c0.2,0,0.4,0,0.5,0c0.6,0.1,0.9,0.5,0.9,1c-0.1,0.5-0.4,0.9-1,0.9c-1.6,0-3.2,0-4.8,0
			C42.4,42.8,40.1,42.8,37.9,42.8C37.9,42.8,37.9,42.8,37.9,42.8z"/>
		<path fill="#FCFCFC" d="M37.9,47.7c3.8,0,7.7,0,11.5,0c0.4,0,0.8,0.1,1,0.5c0.2,0.3,0.2,0.7-0.1,1c-0.3,0.4-0.6,0.4-1,0.4
			c-2.6,0-5.2,0-7.7,0c-5,0-9.9,0-14.9,0c-0.1,0-0.3,0-0.4,0c-0.6-0.1-1-0.5-1-1c0-0.5,0.5-0.9,1.1-0.9c1.7,0,3.4,0,5,0
			C33.5,47.7,35.7,47.7,37.9,47.7z"/>
		<path fill="#FCFCFC" d="M37.9,36c-3.8,0-7.6,0-11.3,0c-0.8,0-1.3-0.3-1.3-0.9c0-0.6,0.5-1,1.3-1c7.6,0,15.1,0,22.7,0
			c0.2,0,0.4,0,0.7,0.1c0.4,0.2,0.7,0.6,0.6,1c-0.1,0.5-0.4,0.8-1,0.8c-1.7,0-3.4,0-5.1,0C42.2,36,40,36,37.9,36z"/>
	</g>
</g>
</svg>
