<?xml version="1.0" encoding="utf-8"?>
<!-- Generator: Adobe Illustrator 17.1.0, SVG Export Plug-In . SVG Version: 6.00 Build 0)  -->
<!DOCTYPE svg PUBLIC "-//W3C//DTD SVG 1.1//EN" "http://www.w3.org/Graphics/SVG/1.1/DTD/svg11.dtd">
<svg version="1.1" id="Layer_1" xmlns="http://www.w3.org/2000/svg" xmlns:xlink="http://www.w3.org/1999/xlink" x="0px" y="0px"
	 viewBox="0 0 216 216" enable-background="new 0 0 216 216" xml:space="preserve">
<path fill="#919191" d="M159.4,135.7c0,6.6-5.4,12-12,12H64.9c-6.6,0-12-5.4-12-12V53.2c0-6.6,5.4-12,12-12h82.5c6.6,0,12,5.4,12,12
	V135.7z"/>
<g>
	<path fill="#FFFFFF" d="M82.4,81.2v23.6h-3.1V81.2H82.4z"/>
	<path fill="#FFFFFF" d="M99.7,104.2c-0.8,0.4-2.6,1-4.9,1c-5.1,0-8.4-3.5-8.4-8.6c0-5.2,3.6-9,9.1-9c1.8,0,3.4,0.5,4.3,0.9L99,90.7
		c-0.7-0.4-1.9-0.8-3.6-0.8c-3.9,0-6,2.9-6,6.4c0,3.9,2.5,6.3,5.9,6.3c1.8,0,2.9-0.4,3.8-0.8L99.7,104.2z"/>
	<path fill="#FFFFFF" d="M118.4,96.2c0,6.3-4.4,9-8.4,9c-4.6,0-8.1-3.4-8.1-8.7c0-5.6,3.7-9,8.4-9C115.1,87.5,118.4,91,118.4,96.2z
		 M105,96.3c0,3.7,2.1,6.5,5.1,6.5c2.9,0,5.1-2.8,5.1-6.6c0-2.9-1.4-6.5-5.1-6.5C106.6,89.8,105,93.1,105,96.3z"/>
	<path fill="#FFFFFF" d="M122.3,92.4c0-1.8,0-3.2-0.1-4.6h2.7l0.2,2.8h0.1c0.8-1.6,2.8-3.2,5.6-3.2c2.3,0,6,1.4,6,7.2v10.1h-3.1V95
		c0-2.7-1-5-3.9-5c-2,0-3.6,1.4-4.1,3.2c-0.1,0.4-0.2,0.9-0.2,1.4v10.2h-3.1V92.4z"/>
</g>
</svg>
