<?xml version="1.0" encoding="utf-8"?>
<!-- Generator: Adobe Illustrator 18.1.0, SVG Export Plug-In . SVG Version: 6.00 Build 0)  -->
<svg version="1.1" id="Layer_1" xmlns="http://www.w3.org/2000/svg" xmlns:xlink="http://www.w3.org/1999/xlink" x="0px" y="0px"
	 viewBox="0 0 252 144" enable-background="new 0 0 252 144" xml:space="preserve">
<g>
	<path fill="#515251" stroke="#515251" stroke-miterlimit="10" d="M14.8,82.6c5.1,1,10.1,1.5,15,1.7c0-0.3,0-0.9,0-1.2
		c0-18.2,10.4-36.1,30.3-36.1c15.2,0,22.3,11.3,23.4,24.2c3.9-2.6,7.7-5.3,10.9-8.2c-0.2-3.4-0.3-6.6-0.3-9.7
		c0-25.6,5.8-34.8,14-34.8c5.8,0,8.2,4.9,8.2,9.9c0,9.9-4.6,21-12.8,31.2l0.3,6.3c0,1.2,0.2,2.4,0.2,3.6c0,27.3-13.3,51.8-39.7,51.8
		c-19.8,0-30.7-14-33.6-30c-5.6,0-11.4-0.5-17.6-1.5L14.8,82.6z M77.9,72.5C77.9,61.3,71.7,51,60,51c-14.5,0-22.3,15.7-22.3,31.5
		c0,0.5,0.2,1.2,0.2,1.9c15-0.5,28.8-4.3,40.1-10.2C77.9,73.7,77.9,73,77.9,72.5z M64.1,98.4c6.8-4.1,11.3-10.7,13-18.1
		c-11.1,5.8-24,9.7-38.5,10.7c2.6,13.6,11.4,25.4,27.4,25.4c18.1,0,28.8-18.6,28.8-44.5c0-1-0.2-2.2-0.2-3.4
		c-3.4,2.9-7,5.8-11.1,8.4c-0.7,11.9-6.1,24-14.8,28.8L64.1,98.4z M108.2,23.8c-4.6,0-5.8,4.9-5.8,14c0,4.3,0.2,9.4,0.5,15.5
		c5.5-7.7,8.5-16.2,8.5-24.9C111.5,25.8,110.3,23.8,108.2,23.8z"/>
	<path fill="#515251" stroke="#515251" stroke-miterlimit="10" d="M142.5,79.3c-2,5.5-6.3,9.4-10.6,10.9
		c-3.1,6.6-7.8,10.7-13.6,10.7c-6.3,0-9-6.6-9-15c0-5.1,1-10.9,2.9-16.4l3.2,0.9c1-7,4.9-13.3,11.4-13.3c6.1,0,9.4,7,9.4,15.3
		c0,4.4-1,9.2-2.2,13.3c2.4-1,4.6-3.4,6.3-7.7C140.4,78.1,142.5,78.8,142.5,79.3z M123.4,90.4c-3.9-1.5-6.3-5.1-7.7-9.5
		c-0.2,1.4-0.3,2.7-0.3,3.9c0,5.5,1.5,9.2,3.8,9.2c0.3,0,0.5,0,0.7-0.2C121.2,93.5,122.4,92.1,123.4,90.4z M119.8,75.6
		c0,4.9,1.5,9.7,5.6,10.9c2-4.9,3.4-11.3,3.4-16.2c0-4.1-1-7.3-3.6-7.3c-0.2,0-0.5,0.2-0.7,0.2C121.9,63.6,119.8,69.6,119.8,75.6z"
		/>
	<path fill="#515251" stroke="#515251" stroke-miterlimit="10" d="M152.7,93.5c2,0,5.3-4.9,9.2-15.5c0.5,0,2.6,0.7,2.6,1.2v0.2
		c-4.1,10.4-7.3,21.1-14.8,21.1c-4.3,0-6-2.7-6-6.8c0-6,4.3-12.4,4.3-17.2c0-2.7-0.9-4.9-1.9-6.8l-3.8,9.7c0,0-2.6-0.5-2.6-1.2V78
		c1.7-4.4,2.9-9,3.8-13.5c-0.9-2-1.7-4.4-1.7-7.7c0-2.9,0.7-6.6,2-11.4l6.8,2c-0.3,6.1-1,10.4-2.6,15.2c3.1,3.1,7,6.8,7,12.1
		c0,5.8-4.3,13.5-4.3,16.7C151.2,93,151.7,93.5,152.7,93.5z"/>
	<path fill="#515251" stroke="#515251" stroke-miterlimit="10" d="M174.7,93.5c2,0,5.3-4.9,9.2-15.5c0.5,0,2.6,0.7,2.6,1.2v0.2
		c-4.1,10.4-7.3,21.1-14.8,21.1c-4.3,0-6-2.7-6-6.8c0-6,4.3-12.4,4.3-17.2c0-2.7-0.9-4.9-1.9-6.8l-3.8,9.7c0,0-2.6-0.5-2.6-1.2V78
		c1.7-4.4,2.9-9,3.8-13.5c-0.9-2-1.7-4.4-1.7-7.7c0-2.9,0.7-6.6,2-11.4l6.8,2c-0.3,6.1-1,10.4-2.6,15.2c3.1,3.1,7,6.8,7,12.1
		c0,5.8-4.3,13.5-4.3,16.7C173.2,93,173.9,93.5,174.7,93.5z"/>
	<path fill="#515251" stroke="#515251" stroke-miterlimit="10" d="M196,58.2c0,0-1.9,7.7-4.1,19.4c-1,5.1-1.9,9.4-1.9,13.1
		c0,2.7,1,3.1,1.9,3.1c4.6,0,8.4-27.1,10.2-35.6h7.5c-1,4.3-4.4,23-7.2,38c11.4-10.1,23.2-22.7,23.2-41.9c0-13.5-8-20.6-19.3-20.6
		c-8,0-15.7,4.3-19.6,13.5l-6.5-2.7c4.4-8.9,13.8-15.3,26.1-15.3c13.6,0,25.7,7.8,25.7,25.2c0,23-17.6,37-30.9,48.1l-1.7,9.7
		c-1.5,9.2-5.1,16-10.9,16c-4.1,0-7-2.4-7-7.3c0-6.1,5.5-11.4,12.6-17.6c0.3-2,0.9-4.3,1.2-6.6c-1.7,2.6-3.9,4.1-6.3,4.1
		c-4.9,0-6.5-4.4-6.5-10.6c0-3.8,0.7-8.2,1.5-12.6c2.2-11.9,4.1-19.3,4.1-19.3S196,58.2,196,58.2z M188.7,123.1
		c1.5,0,2.2-1.9,2.9-4.6l1.7-9c-3.9,3.8-6.3,7.5-6.3,11.3C186.8,122.3,187.8,123.1,188.7,123.1z"/>
</g>
<g>
	<path fill="#5CBCD6" d="M17,85.5c5.1,1,10.1,1.5,15,1.7c0-0.3,0-0.9,0-1.2c0-18.2,10.4-36.1,30.3-36.1c15.2,0,22.3,11.3,23.4,24.2
		c3.9-2.6,7.7-5.3,10.9-8.2c-0.2-3.4-0.3-6.6-0.3-9.7c0-25.6,5.8-34.8,14-34.8c5.8,0,8.2,4.9,8.2,9.9c0,9.9-4.6,21-12.8,31.2
		l0.3,6.3c0,1.2,0.2,2.4,0.2,3.6c0,27.3-13.3,51.8-39.7,51.8c-19.8,0-30.7-14-33.6-30c-5.6,0-11.4-0.5-17.6-1.5L17,85.5z M80.3,75.4
		c0-11.3-6.1-21.5-17.9-21.5C47.9,53.9,40,69.6,40,85.5c0,0.5,0.2,1.2,0.2,1.9c15-0.5,28.8-4.3,40.1-10.2
		C80.3,76.6,80.3,76.1,80.3,75.4z M66.5,101.3c6.8-4.1,11.3-10.7,13-18.1C68.3,89,55.4,93,40.9,94c2.6,13.5,11.4,25.4,27.4,25.4
		c18.1,0,28.8-18.6,28.8-44.5c0-1-0.2-2.2-0.2-3.4c-3.4,2.9-7,5.8-11.1,8.4c-0.7,11.9-6.1,24-14.8,28.8L66.5,101.3z M110.4,26.7
		c-4.6,0-5.8,4.9-5.8,14c0,4.3,0.2,9.4,0.5,15.5c5.5-7.7,8.5-16.2,8.5-24.9C113.9,28.9,112.7,26.7,110.4,26.7z"/>
	<path fill="#5CBCD6" d="M144.9,82.2c-2,5.5-6.3,9.4-10.6,10.9c-3.1,6.6-7.8,10.7-13.6,10.7c-6.3,0-9-6.6-9-15
		c0-5.1,1-10.9,2.9-16.4l3.2,0.9c1-7,4.9-13.3,11.4-13.3c6.1,0,9.4,7,9.4,15.3c0,4.4-1,9.2-2.2,13.3c2.4-1,4.6-3.4,6.3-7.7
		C142.8,81,144.9,81.7,144.9,82.2z M125.8,93.3c-3.9-1.5-6.3-5.1-7.7-9.5c-0.2,1.4-0.3,2.7-0.3,3.9c0,5.5,1.5,9.2,3.8,9.2
		c0.3,0,0.5,0,0.7-0.2C123.6,96.4,124.8,95.2,125.8,93.3z M122.2,78.5c0,4.9,1.5,9.7,5.6,10.9c2-4.9,3.4-11.3,3.4-16.2
		c0-4.1-1-7.3-3.6-7.3c-0.2,0-0.5,0.2-0.7,0.2C124.3,66.7,122.2,72.7,122.2,78.5z"/>
	<path fill="#5CBCD6" d="M155.1,96.4c2,0,5.3-4.9,9.2-15.5c0.5,0,2.6,0.7,2.6,1.2v0.2c-4.1,10.4-7.3,21.1-14.8,21.1
		c-4.3,0-6-2.7-6-6.8c0-6,4.3-12.4,4.3-17.2c0-2.7-0.9-4.9-1.9-6.8l-3.8,9.7c0,0-2.6-0.5-2.6-1.2v-0.2c1.7-4.4,2.9-9,3.8-13.5
		c-0.9-2-1.7-4.4-1.7-7.7c0-2.9,0.7-6.6,2-11.4l6.8,2c-0.3,6.1-1,10.4-2.6,15.2c3.1,3.1,7,6.8,7,12.1c0,5.8-4.3,13.5-4.3,16.7
		C153.6,95.9,154.1,96.4,155.1,96.4z"/>
	<path fill="#5CBCD6" d="M177.1,96.4c2,0,5.3-4.9,9.2-15.5c0.5,0,2.6,0.7,2.6,1.2v0.2c-4.1,10.4-7.3,21.1-14.8,21.1
		c-4.3,0-6-2.7-6-6.8c0-6,4.3-12.4,4.3-17.2c0-2.7-0.9-4.9-1.9-6.8l-3.8,9.7c0,0-2.6-0.5-2.6-1.2v-0.2c1.7-4.4,2.9-9,3.8-13.5
		c-0.9-2-1.7-4.4-1.7-7.7c0-2.9,0.7-6.6,2-11.4l6.8,2c-0.3,6.1-1,10.4-2.6,15.2c3.1,3.1,7,6.8,7,12.1c0,5.8-4.3,13.5-4.3,16.7
		C175.6,95.9,176.2,96.4,177.1,96.4z"/>
	<path fill="#5CBCD6" d="M198.4,61.1c0,0-1.9,7.7-4.1,19.4c-1,5.1-1.9,9.4-1.9,13.1c0,2.7,1,3.1,1.9,3.1c4.6,0,8.4-27.1,10.2-35.6
		h7.5c-1.2,4.3-4.6,23-7.2,37.8c11.4-10.1,23.2-22.7,23.2-41.9c0-13.5-8-20.6-19.3-20.6c-8,0-15.7,4.3-19.6,13.5l-6.5-2.7
		c4.4-8.9,13.8-15.3,26.1-15.3c13.6,0,25.7,7.8,25.7,25.2c0,23-17.6,37-30.9,48.1l-1.7,9.7c-1.5,9.2-5.1,16-10.9,16
		c-4.1,0-7-2.4-7-7.3c0-6.1,5.5-11.4,12.6-17.6c0.3-2,0.9-4.3,1.2-6.6c-1.7,2.6-3.9,4.1-6.3,4.1c-4.9,0-6.5-4.4-6.5-10.6
		c0-3.8,0.7-8.2,1.5-12.6c2.2-11.9,4.1-19.3,4.1-19.3h7.7V61.1z M191.1,126c1.5,0,2.2-1.9,2.9-4.6l1.7-9c-3.9,3.8-6.3,7.5-6.3,11.3
		C189.2,125.2,190.1,126,191.1,126z"/>
</g>
</svg>
