<?xml version="1.0" encoding="utf-8"?>
<!-- Generator: Adobe Illustrator 18.1.0, SVG Export Plug-In . SVG Version: 6.00 Build 0)  -->
<svg version="1.1" id="Layer_1" xmlns="http://www.w3.org/2000/svg" xmlns:xlink="http://www.w3.org/1999/xlink" x="0px" y="0px"
	 viewBox="0 0 252 108" enable-background="new 0 0 252 108" xml:space="preserve">
<g>
	<path fill="#515251" stroke="#515251" stroke-miterlimit="10" d="M6,60.1c3,0.6,5.9,0.9,8.8,1c0-0.2,0-0.5,0-0.7
		c0-10.7,6.1-21.2,17.8-21.2c8.9,0,13.1,6.6,13.7,14.2c2.3-1.5,4.5-3.1,6.4-4.8c-0.1-2-0.2-3.9-0.2-5.7c0-15,3.4-20.4,8.2-20.4
		c3.4,0,4.8,2.9,4.8,5.8c0,5.8-2.7,12.3-7.5,18.3l0.2,3.7c0,0.7,0.1,1.4,0.1,2.1c0,16-7.8,30.4-23.3,30.4c-11.6,0-18-8.2-19.7-17.6
		c-3.3,0-6.7-0.3-10.3-0.9L6,60.1z M43,54.2c0-6.6-3.6-12.6-10.5-12.6c-8.5,0-13.1,9.2-13.1,18.5c0,0.3,0.1,0.7,0.1,1.1
		c8.8-0.3,16.9-2.5,23.5-6C43,54.9,43,54.5,43,54.2z M34.9,69.4c4-2.4,6.6-6.3,7.6-10.6c-6.5,3.4-14.1,5.7-22.6,6.3
		C21.4,73.1,26.6,80,36,80c10.6,0,16.9-10.9,16.9-26.1c0-0.6-0.1-1.3-0.1-2c-2,1.7-4.1,3.4-6.5,4.9c-0.4,7-3.6,14.1-8.7,16.9
		L34.9,69.4z M60.8,25.6c-2.7,0-3.4,2.9-3.4,8.2c0,2.5,0.1,5.5,0.3,9.1c3.2-4.5,5-9.5,5-14.6C62.7,26.8,62,25.6,60.8,25.6z"/>
	<path fill="#515251" stroke="#515251" stroke-miterlimit="10" d="M80.9,58.2c-1.2,3.2-3.7,5.5-6.2,6.4c-1.8,3.9-4.6,6.3-8,6.3
		c-3.7,0-5.3-3.9-5.3-8.8c0-3,0.6-6.4,1.7-9.6l1.9,0.5c0.6-4.1,2.9-7.8,6.7-7.8c3.6,0,5.5,4.1,5.5,9c0,2.6-0.6,5.4-1.3,7.8
		c1.4-0.6,2.7-2,3.7-4.5C79.7,57.5,80.9,57.9,80.9,58.2z M69.7,64.7c-2.3-0.9-3.7-3-4.5-5.6c-0.1,0.8-0.2,1.6-0.2,2.3
		c0,3.2,0.9,5.4,2.2,5.4c0.2,0,0.3,0,0.4-0.1C68.4,66.5,69.1,65.7,69.7,64.7z M67.6,56c0,2.9,0.9,5.7,3.3,6.4c1.2-2.9,2-6.6,2-9.5
		c0-2.4-0.6-4.3-2.1-4.3c-0.1,0-0.3,0.1-0.4,0.1C68.8,49,67.6,52.5,67.6,56z"/>
	<path fill="#515251" stroke="#515251" stroke-miterlimit="10" d="M86.9,66.5c1.2,0,3.1-2.9,5.4-9.1c0.3,0,1.5,0.4,1.5,0.7v0.1
		c-2.4,6.1-4.3,12.4-8.7,12.4c-2.5,0-3.5-1.6-3.5-4c0-3.5,2.5-7.3,2.5-10.1c0-1.6-0.5-2.9-1.1-4l-2.2,5.7c0,0-1.5-0.3-1.5-0.7v-0.1
		c1-2.6,1.7-5.3,2.2-7.9c-0.5-1.2-1-2.6-1-4.5c0-1.7,0.4-3.9,1.2-6.7l4,1.2c-0.2,3.6-0.6,6.1-1.5,8.9c1.8,1.8,4.1,4,4.1,7.1
		c0,3.4-2.5,7.9-2.5,9.8C86,66.2,86.3,66.5,86.9,66.5z"/>
	<path fill="#515251" stroke="#515251" stroke-miterlimit="10" d="M99.8,66.5c1.2,0,3.1-2.9,5.4-9.1c0.3,0,1.5,0.4,1.5,0.7v0.1
		c-2.4,6.1-4.3,12.4-8.7,12.4c-2.5,0-3.5-1.6-3.5-4c0-3.5,2.5-7.3,2.5-10.1c0-1.6-0.5-2.9-1.1-4l-2.2,5.7c0,0-1.5-0.3-1.5-0.7v-0.1
		c1-2.6,1.7-5.3,2.2-7.9c-0.5-1.2-1-2.6-1-4.5c0-1.7,0.4-3.9,1.2-6.7l4,1.2c-0.2,3.6-0.6,6.1-1.5,8.9c1.8,1.8,4.1,4,4.1,7.1
		c0,3.4-2.5,7.9-2.5,9.8C98.9,66.2,99.3,66.5,99.8,66.5z"/>
	<path fill="#515251" stroke="#515251" stroke-miterlimit="10" d="M112.3,45.8c0,0-1.1,4.5-2.4,11.4c-0.6,3-1.1,5.5-1.1,7.7
		c0,1.6,0.6,1.8,1.1,1.8c2.7,0,4.9-15.9,6-20.9h4.4c-0.6,2.5-2.6,13.5-4.2,22.3c6.7-5.9,13.6-13.3,13.6-24.6
		c0-7.9-4.7-12.1-11.3-12.1c-4.7,0-9.2,2.5-11.5,7.9l-3.8-1.6c2.6-5.2,8.1-9,15.3-9c8,0,15.1,4.6,15.1,14.8
		c0,13.5-10.3,21.7-18.1,28.2l-1,5.7c-0.9,5.4-3,9.4-6.4,9.4c-2.4,0-4.1-1.4-4.1-4.3c0-3.6,3.2-6.7,7.4-10.3
		c0.2-1.2,0.5-2.5,0.7-3.9c-1,1.5-2.3,2.4-3.7,2.4c-2.9,0-3.8-2.6-3.8-6.2c0-2.2,0.4-4.8,0.9-7.4c1.3-7,2.4-11.3,2.4-11.3H112.3z
		 M108,83.9c0.9,0,1.3-1.1,1.7-2.7l1-5.3c-2.3,2.2-3.7,4.4-3.7,6.6C106.9,83.4,107.5,83.9,108,83.9z"/>
	<path fill="#515251" stroke="#515251" stroke-miterlimit="10" d="M203.4,23.6c-0.8,8-3.4,14.2-3.4,14.2c-3,20.2-4.6,51.5-21.2,51.5
		c-4,0-6.1-2.6-6.1-6.1c0-3.6,2.8-7.2,8-7.3l0.1,4.3c-3.3,0.4-4.6,2.3-4.6,3.9c0,1.6,1.1,2.5,2.6,2.5c6.5,0,10-10.8,12.4-23.4
		c-2.2,4.5-5.2,7.7-8.6,7.7c-4.5,0-6.6-3-6.6-8.5c0-6.3,3.1-14.5,3.1-21.8c0-9.4-5-14.8-12.8-14.8c-9.8,0-17.2,8-17.2,18.6
		c0,8.7,5.1,12.8,10.2,12.8c5.6,0,9.7-4.1,10.9-11.5l5,1.2c-1.7,9.2-7.9,13.6-15.7,13.6c-9,0-15.5-6.4-15.5-16.4
		c0-12.6,9.7-21.3,22.7-21.3c10.3,0,17.1,5.9,17.1,17.8c0,7.6-2.7,16.1-2.7,21.9c0,1.7,0.6,4.1,2.8,4.1c4.4,0,7.4-7.1,9.4-16.4
		c1.7-12.2,3.1-23.8,5.8-27.4L203.4,23.6z"/>
	<path fill="#515251" stroke="#515251" stroke-miterlimit="10" d="M213.3,45.8h3.8c-1.6,7.2-2.6,13-3.4,18.3c-0.1,0.6-0.1,1-0.1,1.4
		c0,0.8,0.2,1.2,0.4,1.2c0.6,0,2.9-2.6,5.4-9.3c0.3,0,1.5,0.4,1.5,0.8c-3.3,8.6-5.9,12.4-8.4,12.4c-1.7,0-2.7-1.6-2.7-5.3
		c0-0.2,0-0.4,0-0.6c-1.2,3.3-3.1,6.1-6.2,6.1c-2.6,0-3.7-2.9-3.7-6.8c0-7.6,4.1-18.8,9.3-18.8c2,0,3.1,1.2,3.5,3.6L213.3,45.8z
		 M204.5,63.5c0,1.7,0.3,2.8,1.1,2.8c2.5,0,5.5-8.8,5.5-13.8c0-2-0.5-3.4-1.7-3.4C207.2,49.1,204.5,58.6,204.5,63.5z"/>
	<path fill="#515251" stroke="#515251" stroke-miterlimit="10" d="M231.7,57.5c0.3,0,1.3,0.4,1.3,0.7c0,0.1,0,0.1,0,0.1
		c-3.2,8.6-5.7,12.7-9.2,12.7c-3.2,0-4.5-3.2-4.5-8.8c0-3.9,0.6-9.1,1.7-15.2c2.4-13.5,5.8-19.6,8.9-19.6c2.8,0,3.6,2.3,3.6,5
		c0,3.2-1.1,7-1.6,8.7c-2.2,7.1-5.8,12.3-8,15c-0.3,2.3-0.4,4.4-0.4,6.1c0,3.6,0.8,4.7,2,4.7C227.3,66.8,229.4,63.4,231.7,57.5z
		 M230.6,30.8c-1.5,0-4.6,11.6-6.2,21.7c2.7-4.9,6.7-13.9,6.7-20.5C231.2,31.3,230.9,30.8,230.6,30.8z"/>
	<path fill="#515251" stroke="#515251" stroke-miterlimit="10" d="M243.9,57.5c0.3,0,1.3,0.4,1.3,0.7c0,0.1,0,0.1,0,0.1
		c-3.2,8.6-5.7,12.7-9.2,12.7c-3.2,0-4.5-3.2-4.5-8.8c0-3.9,0.6-9.1,1.7-15.2c2.4-13.5,5.8-19.6,8.9-19.6c2.8,0,3.6,2.3,3.6,5
		c0,3.2-1.1,7-1.6,8.7c-2.2,7.1-5.8,12.3-8,15c-0.3,2.3-0.4,4.4-0.4,6.1c0,3.6,0.8,4.7,2,4.7C239.5,66.8,241.5,63.4,243.9,57.5z
		 M242.8,30.8c-1.5,0-4.6,11.6-6.2,21.7c2.7-4.9,6.7-13.9,6.7-20.5C243.4,31.3,243.1,30.8,242.8,30.8z"/>
</g>
<g>
	<path fill="#5CBCD6" d="M7.3,61.8c3,0.6,5.9,0.9,8.8,1c0-0.2,0-0.5,0-0.7c0-10.7,6.1-21.2,17.8-21.2c8.9,0,13.1,6.6,13.7,14.2
		c2.3-1.5,4.5-3.1,6.4-4.8c-0.1-2-0.2-3.9-0.2-5.7c0-15,3.4-20.4,8.2-20.4c3.4,0,4.8,2.9,4.8,5.8c0,5.8-2.7,12.3-7.5,18.3l0.2,3.7
		c0,0.7,0.1,1.4,0.1,2.1c0,16-7.8,30.4-23.3,30.4c-11.6,0-18-8.2-19.7-17.6c-3.3,0-6.7-0.3-10.3-0.9L7.3,61.8z M44.4,55.9
		c0-6.6-3.6-12.6-10.5-12.6c-8.5,0-13.1,9.2-13.1,18.5c0,0.3,0.1,0.7,0.1,1.1c8.8-0.3,16.9-2.5,23.5-6
		C44.4,56.6,44.4,56.3,44.4,55.9z M36.3,71.1c4-2.4,6.6-6.3,7.6-10.6c-6.5,3.4-14.1,5.7-22.6,6.3c1.5,7.9,6.7,14.9,16.1,14.9
		c10.6,0,16.9-10.9,16.9-26.1c0-0.6-0.1-1.3-0.1-2c-2,1.7-4.1,3.4-6.5,4.9c-0.4,7-3.6,14.1-8.7,16.9L36.3,71.1z M62.1,27.3
		c-2.7,0-3.4,2.9-3.4,8.2c0,2.5,0.1,5.5,0.3,9.1c3.2-4.5,5-9.5,5-14.6C64.1,28.6,63.4,27.3,62.1,27.3z"/>
	<path fill="#5CBCD6" d="M82.3,59.9c-1.2,3.2-3.7,5.5-6.2,6.4c-1.8,3.9-4.6,6.3-8,6.3c-3.7,0-5.3-3.9-5.3-8.8c0-3,0.6-6.4,1.7-9.6
		l1.9,0.5c0.6-4.1,2.9-7.8,6.7-7.8c3.6,0,5.5,4.1,5.5,9c0,2.6-0.6,5.4-1.3,7.8c1.4-0.6,2.7-2,3.7-4.5C81.1,59.2,82.3,59.6,82.3,59.9
		z M71.1,66.4c-2.3-0.9-3.7-3-4.5-5.6c-0.1,0.8-0.2,1.6-0.2,2.3c0,3.2,0.9,5.4,2.2,5.4c0.2,0,0.3,0,0.4-0.1
		C69.8,68.2,70.5,67.5,71.1,66.4z M69,57.7c0,2.9,0.9,5.7,3.3,6.4c1.2-2.9,2-6.6,2-9.5c0-2.4-0.6-4.3-2.1-4.3
		c-0.1,0-0.3,0.1-0.4,0.1C70.2,50.8,69,54.3,69,57.7z"/>
	<path fill="#5CBCD6" d="M88.3,68.2c1.2,0,3.1-2.9,5.4-9.1c0.3,0,1.5,0.4,1.5,0.7v0.1c-2.4,6.1-4.3,12.4-8.7,12.4
		c-2.5,0-3.5-1.6-3.5-4c0-3.5,2.5-7.3,2.5-10.1c0-1.6-0.5-2.9-1.1-4l-2.2,5.7c0,0-1.5-0.3-1.5-0.7v-0.1c1-2.6,1.7-5.3,2.2-7.9
		c-0.5-1.2-1-2.6-1-4.5c0-1.7,0.4-3.9,1.2-6.7l4,1.2c-0.2,3.6-0.6,6.1-1.5,8.9c1.8,1.8,4.1,4,4.1,7.1c0,3.4-2.5,7.9-2.5,9.8
		C87.4,67.9,87.7,68.2,88.3,68.2z"/>
	<path fill="#5CBCD6" d="M101.2,68.2c1.2,0,3.1-2.9,5.4-9.1c0.3,0,1.5,0.4,1.5,0.7v0.1c-2.4,6.1-4.3,12.4-8.7,12.4
		c-2.5,0-3.5-1.6-3.5-4c0-3.5,2.5-7.3,2.5-10.1c0-1.6-0.5-2.9-1.1-4l-2.2,5.7c0,0-1.5-0.3-1.5-0.7v-0.1c1-2.6,1.7-5.3,2.2-7.9
		c-0.5-1.2-1-2.6-1-4.5c0-1.7,0.4-3.9,1.2-6.7l4,1.2c-0.2,3.6-0.6,6.1-1.5,8.9c1.8,1.8,4.1,4,4.1,7.1c0,3.4-2.5,7.9-2.5,9.8
		C100.3,67.9,100.7,68.2,101.2,68.2z"/>
	<path fill="#5CBCD6" d="M113.7,47.5c0,0-1.1,4.5-2.4,11.4c-0.6,3-1.1,5.5-1.1,7.7c0,1.6,0.6,1.8,1.1,1.8c2.7,0,4.9-15.9,6-20.9h4.4
		C121,50,119,61,117.5,69.7c6.7-5.9,13.6-13.3,13.6-24.6c0-7.9-4.7-12.1-11.3-12.1c-4.7,0-9.2,2.5-11.5,7.9l-3.8-1.6
		c2.6-5.2,8.1-9,15.3-9c8,0,15.1,4.6,15.1,14.8c0,13.5-10.3,21.7-18.1,28.2l-1,5.7c-0.9,5.4-3,9.4-6.4,9.4c-2.4,0-4.1-1.4-4.1-4.3
		c0-3.6,3.2-6.7,7.4-10.3c0.2-1.2,0.5-2.5,0.7-3.9c-1,1.5-2.3,2.4-3.7,2.4c-2.9,0-3.8-2.6-3.8-6.2c0-2.2,0.4-4.8,0.9-7.4
		c1.3-7,2.4-11.3,2.4-11.3H113.7z M109.4,85.6c0.9,0,1.3-1.1,1.7-2.7l1-5.3c-2.3,2.2-3.7,4.4-3.7,6.6
		C108.3,85.1,108.8,85.6,109.4,85.6z"/>
	<path fill="#5CBCD6" d="M204.8,25.3c-0.8,8-3.4,14.2-3.4,14.2c-3,20.2-4.6,51.5-21.2,51.5c-4,0-6.1-2.6-6.1-6.1
		c0-3.6,2.8-7.2,8-7.3l0.1,4.3c-3.3,0.4-4.6,2.3-4.6,3.9c0,1.6,1.1,2.5,2.6,2.5c6.5,0,10-10.8,12.4-23.4c-2.2,4.5-5.2,7.7-8.6,7.7
		c-4.5,0-6.6-3-6.6-8.5c0-6.3,3.1-14.5,3.1-21.8c0-9.4-5-14.8-12.8-14.8c-9.8,0-17.2,8-17.2,18.6c0,8.7,5.1,12.8,10.2,12.8
		c5.6,0,9.7-4.1,10.9-11.5l5,1.2c-1.7,9.2-7.9,13.6-15.7,13.6c-9,0-15.5-6.4-15.5-16.4c0-12.6,9.7-21.3,22.7-21.3
		c10.3,0,17.1,5.9,17.1,17.8c0,7.6-2.7,16.1-2.7,21.9c0,1.7,0.6,4.1,2.8,4.1c4.4,0,7.4-7.1,9.4-16.4c1.7-12.2,3.1-23.8,5.8-27.4
		L204.8,25.3z"/>
	<path fill="#5CBCD6" d="M214.7,47.5h3.8c-1.6,7.2-2.6,13-3.4,18.3c-0.1,0.6-0.1,1-0.1,1.4c0,0.8,0.2,1.2,0.4,1.2
		c0.6,0,2.9-2.6,5.4-9.3c0.3,0,1.5,0.4,1.5,0.8c-3.3,8.6-5.9,12.4-8.4,12.4c-1.7,0-2.7-1.6-2.7-5.3c0-0.2,0-0.4,0-0.6
		c-1.2,3.3-3.1,6.1-6.2,6.1c-2.6,0-3.7-2.9-3.7-6.8c0-7.6,4.1-18.8,9.3-18.8c2,0,3.1,1.2,3.5,3.6L214.7,47.5z M205.8,65.2
		c0,1.7,0.3,2.8,1.1,2.8c2.5,0,5.5-8.8,5.5-13.8c0-2-0.5-3.4-1.7-3.4C208.6,50.8,205.8,60.3,205.8,65.2z"/>
	<path fill="#5CBCD6" d="M233.1,59.2c0.3,0,1.3,0.4,1.3,0.7c0,0.1,0,0.1,0,0.1c-3.2,8.6-5.7,12.7-9.2,12.7c-3.2,0-4.5-3.2-4.5-8.8
		c0-3.9,0.6-9.1,1.7-15.2c2.4-13.5,5.8-19.6,8.9-19.6c2.8,0,3.6,2.3,3.6,5c0,3.2-1.1,7-1.6,8.7c-2.2,7.1-5.8,12.3-8,15
		c-0.3,2.3-0.4,4.4-0.4,6.1c0,3.6,0.8,4.7,2,4.7C228.7,68.5,230.7,65.2,233.1,59.2z M232,32.6c-1.5,0-4.6,11.6-6.2,21.7
		c2.7-4.9,6.7-13.9,6.7-20.5C232.6,33,232.3,32.6,232,32.6z"/>
	<path fill="#5CBCD6" d="M245.2,59.2c0.3,0,1.3,0.4,1.3,0.7c0,0.1,0,0.1,0,0.1c-3.2,8.6-5.7,12.7-9.2,12.7c-3.2,0-4.5-3.2-4.5-8.8
		c0-3.9,0.6-9.1,1.7-15.2c2.4-13.5,5.8-19.6,8.9-19.6c2.8,0,3.6,2.3,3.6,5c0,3.2-1.1,7-1.6,8.7c-2.2,7.1-5.8,12.3-8,15
		c-0.3,2.3-0.4,4.4-0.4,6.1c0,3.6,0.8,4.7,2,4.7C240.9,68.5,242.9,65.2,245.2,59.2z M244.2,32.6c-1.5,0-4.6,11.6-6.2,21.7
		c2.7-4.9,6.7-13.9,6.7-20.5C244.8,33,244.5,32.6,244.2,32.6z"/>
</g>
</svg>
